%TF.GenerationSoftware,Altium Limited,Altium Designer,24.0.1 (36)*%
G04 Layer_Color=0*
%FSLAX45Y45*%
%MOMM*%
%TF.SameCoordinates,E594D193-3514-40B7-BCFE-BF8AFB9400D8*%
%TF.FilePolarity,Positive*%
%TF.FileFunction,Plated,1,4,PTH,Drill*%
%TF.Part,Single*%
G01*
G75*
%TA.AperFunction,ComponentDrill*%
%ADD142C,3.20000*%
%ADD143C,0.76200*%
%TA.AperFunction,ViaDrill,NotFilled*%
%ADD144C,0.30000*%
D142*
X500000Y8500000D02*
D03*
X8500000D02*
D03*
X500000Y500000D02*
D03*
X8500000D02*
D03*
D143*
X323223Y8323223D02*
D03*
X500000Y8750000D02*
D03*
X676777Y8676777D02*
D03*
X750000Y8500000D02*
D03*
X676777Y8323223D02*
D03*
X500000Y8250000D02*
D03*
X323223Y8676777D02*
D03*
X250000Y8500000D02*
D03*
X8250000D02*
D03*
X8323223Y8676777D02*
D03*
X8500000Y8250000D02*
D03*
X8676777Y8323223D02*
D03*
X8750000Y8500000D02*
D03*
X8676777Y8676777D02*
D03*
X8500000Y8750000D02*
D03*
X8323223Y8323223D02*
D03*
X323223Y323223D02*
D03*
X500000Y750000D02*
D03*
X676777Y676777D02*
D03*
X750000Y500000D02*
D03*
X676777Y323223D02*
D03*
X500000Y250000D02*
D03*
X323223Y676777D02*
D03*
X250000Y500000D02*
D03*
X8250000D02*
D03*
X8323223Y676777D02*
D03*
X8500000Y250000D02*
D03*
X8676777Y323223D02*
D03*
X8750000Y500000D02*
D03*
X8676777Y676777D02*
D03*
X8500000Y750000D02*
D03*
X8323223Y323223D02*
D03*
D144*
X5663327Y3058288D02*
D03*
Y2998288D02*
D03*
X6008288Y2486673D02*
D03*
X5948288D02*
D03*
X4227645Y2822350D02*
D03*
X4270071Y2864776D02*
D03*
X3837645Y3212350D02*
D03*
X3880071Y3254776D02*
D03*
X3403230Y3333660D02*
D03*
X3445656Y3376087D02*
D03*
X3387645Y4332350D02*
D03*
X3430072Y4374776D02*
D03*
X4502426Y5512426D02*
D03*
X4460000Y5470000D02*
D03*
X3310163Y5347645D02*
D03*
X3352589Y5305219D02*
D03*
X3420000Y4600000D02*
D03*
X3377574Y4642426D02*
D03*
X6899999Y7712500D02*
D03*
X6774999D02*
D03*
X2213269Y3648994D02*
D03*
X2213577Y3524568D02*
D03*
X2212962Y3396149D02*
D03*
X4029280Y6472739D02*
D03*
X6524999Y7652500D02*
D03*
X6649999D02*
D03*
X4872645Y5402337D02*
D03*
X4830219Y5359911D02*
D03*
X2167448Y1305157D02*
D03*
Y1245157D02*
D03*
X3957552Y1304843D02*
D03*
Y1244843D02*
D03*
X5340827Y1248288D02*
D03*
X5595827Y1250788D02*
D03*
X5953327Y1248288D02*
D03*
X6233327D02*
D03*
X5865000Y1145000D02*
D03*
X6843327Y2178288D02*
D03*
Y2238288D02*
D03*
X6643327Y2538288D02*
D03*
Y2598288D02*
D03*
X5516673Y3249212D02*
D03*
Y3189212D02*
D03*
X5619843Y3409948D02*
D03*
X5679843D02*
D03*
X5444212Y2853327D02*
D03*
X5384212D02*
D03*
X5881712Y6218327D02*
D03*
X5821712D02*
D03*
X5881712Y6473327D02*
D03*
X5821712D02*
D03*
X3171712Y6063327D02*
D03*
X3111712D02*
D03*
X3265786Y3466731D02*
D03*
X3332355Y3400163D02*
D03*
X2671712Y3773327D02*
D03*
X2611712D02*
D03*
X2631712Y3398327D02*
D03*
X2571712D02*
D03*
X2631712Y3523327D02*
D03*
X2571712D02*
D03*
X2150289Y3395842D02*
D03*
X2150000Y3525000D02*
D03*
Y3650000D02*
D03*
X3214608Y3827948D02*
D03*
X3034143Y4020000D02*
D03*
X2991716Y3977573D02*
D03*
X3777645Y4619837D02*
D03*
X3735219Y4577411D02*
D03*
X4437645Y5579837D02*
D03*
X4395219Y5537411D02*
D03*
X4089280Y6472739D02*
D03*
X4232739Y6460720D02*
D03*
Y6400720D02*
D03*
X4963028Y7223125D02*
D03*
X5023028D02*
D03*
Y7283125D02*
D03*
X4963028D02*
D03*
X3973028Y7223125D02*
D03*
X4033028D02*
D03*
Y7283125D02*
D03*
X3973028D02*
D03*
X3972460Y6879529D02*
D03*
X4032460D02*
D03*
Y6939529D02*
D03*
X3972460D02*
D03*
X5173028Y6879628D02*
D03*
X5233028D02*
D03*
Y6939628D02*
D03*
X5173028D02*
D03*
Y7023125D02*
D03*
X5233028D02*
D03*
Y7083125D02*
D03*
X5173028D02*
D03*
X3973028Y7023125D02*
D03*
X4033028D02*
D03*
Y7083125D02*
D03*
X3973028D02*
D03*
X2137383Y7392644D02*
D03*
X2197383D02*
D03*
X6257739Y4530720D02*
D03*
Y4470720D02*
D03*
X4470720Y6257261D02*
D03*
X4530720D02*
D03*
X4924214Y6103269D02*
D03*
X4857645Y6169838D02*
D03*
X4881787Y6060842D02*
D03*
X4815219Y6127411D02*
D03*
X5959926Y4779853D02*
D03*
X5857071Y4897071D02*
D03*
X5899497Y4939498D02*
D03*
X6029926Y4714853D02*
D03*
X6072353Y4757279D02*
D03*
X2818287Y4545815D02*
D03*
X2758287Y4455815D02*
D03*
X2818287D02*
D03*
X2758287Y4545815D02*
D03*
X2228327Y4258288D02*
D03*
Y4198288D02*
D03*
X2318327Y4258288D02*
D03*
Y4198288D02*
D03*
X3057546Y5604820D02*
D03*
X3099972Y5562394D02*
D03*
X3446596Y4714174D02*
D03*
X3489023Y4671748D02*
D03*
X3000977Y5523252D02*
D03*
X3043404Y5480825D02*
D03*
X3098746Y5010290D02*
D03*
X3056716Y5052427D02*
D03*
X2981716Y5002427D02*
D03*
X3023747Y4960291D02*
D03*
X6100163Y4177645D02*
D03*
X6142589Y4135219D02*
D03*
X6166731Y4244214D02*
D03*
X6209158Y4201787D02*
D03*
X6782384Y2490144D02*
D03*
Y2430144D02*
D03*
X6669856Y1969884D02*
D03*
X6729856D02*
D03*
Y1909884D02*
D03*
X6669856D02*
D03*
X4358213Y3001584D02*
D03*
X4400639Y3044010D02*
D03*
X4178213Y3581584D02*
D03*
X4220639Y3624010D02*
D03*
X4989838Y2962355D02*
D03*
X4947411Y3004781D02*
D03*
X4923269Y2895786D02*
D03*
X4880843Y2938213D02*
D03*
X4989856Y3272384D02*
D03*
X5049856Y3272384D02*
D03*
X5280074Y4020148D02*
D03*
X5237648Y3977721D02*
D03*
X5330843Y3418213D02*
D03*
X5373269Y3375786D02*
D03*
X5397411Y3484781D02*
D03*
X5439837Y3442355D02*
D03*
X3308213Y3509158D02*
D03*
X3374781Y3442589D02*
D03*
X2929157Y4831787D02*
D03*
X2886731Y4874214D02*
D03*
X2862589Y4765219D02*
D03*
X2820163Y4807645D02*
D03*
X3419158Y5371787D02*
D03*
X3376731Y5414214D02*
D03*
X3779158Y5731787D02*
D03*
X3736731Y5774214D02*
D03*
X3712589Y5665219D02*
D03*
X3670163Y5707645D02*
D03*
X5371787Y5560843D02*
D03*
X5414214Y5603269D02*
D03*
X5305219Y5627411D02*
D03*
X5347645Y5669838D02*
D03*
X5721787Y5200843D02*
D03*
X5764214Y5243269D02*
D03*
X5655219Y5267411D02*
D03*
X5697645Y5309837D02*
D03*
X5666939Y3754716D02*
D03*
X5709366Y3712290D02*
D03*
X5733508Y3821285D02*
D03*
X5775934Y3778859D02*
D03*
X5507593Y4210332D02*
D03*
X5550019Y4252758D02*
D03*
X5960052Y3309843D02*
D03*
Y3249844D02*
D03*
X6689882Y2960144D02*
D03*
X6629883D02*
D03*
X6769883Y2900144D02*
D03*
X6829883D02*
D03*
X7070157Y2790052D02*
D03*
X7130157D02*
D03*
X6432383Y7397644D02*
D03*
X6492383D02*
D03*
X6139856Y2999883D02*
D03*
X6199855D02*
D03*
Y3059883D02*
D03*
X6139856D02*
D03*
X6199855Y2939883D02*
D03*
X6139856D02*
D03*
X6259855Y3059883D02*
D03*
Y2999883D02*
D03*
X6259855Y2939883D02*
D03*
X6480157Y2730052D02*
D03*
X6420157Y2730052D02*
D03*
X5909843Y2789948D02*
D03*
X5969843D02*
D03*
X5470157Y2670052D02*
D03*
X5530157D02*
D03*
X6880157Y3240052D02*
D03*
X6940157D02*
D03*
X6680157Y3290052D02*
D03*
X6740157D02*
D03*
X6880157Y3140052D02*
D03*
X6940157D02*
D03*
X4700148Y3524926D02*
D03*
X4657721Y3567353D02*
D03*
X4732721Y3642352D02*
D03*
X4775148Y3599926D02*
D03*
X5617648Y4317721D02*
D03*
X5660074Y4360147D02*
D03*
X6002352Y4822279D02*
D03*
X7049948Y4240156D02*
D03*
Y4180156D02*
D03*
X3257034Y3785522D02*
D03*
X5859843Y2919948D02*
D03*
X5799843D02*
D03*
X6839948Y3600157D02*
D03*
Y3540157D02*
D03*
X6759948Y4240157D02*
D03*
Y4180157D02*
D03*
X6289948Y4020157D02*
D03*
Y4080156D02*
D03*
X6470052Y3609843D02*
D03*
Y3669844D02*
D03*
X6330052Y3609843D02*
D03*
Y3669844D02*
D03*
X6120052Y3609843D02*
D03*
Y3669844D02*
D03*
X5980052D02*
D03*
Y3609843D02*
D03*
X2104999Y7647500D02*
D03*
X2229999D02*
D03*
X2479999D02*
D03*
X2604999D02*
D03*
X2354999D02*
D03*
X2604999Y7707500D02*
D03*
X2479999D02*
D03*
X2354999D02*
D03*
X2229999D02*
D03*
X2104999D02*
D03*
X5270117Y7389856D02*
D03*
X5210118D02*
D03*
X4619856Y6869882D02*
D03*
Y6929882D02*
D03*
X6343028Y5733125D02*
D03*
X6403028D02*
D03*
Y5673125D02*
D03*
X6343028D02*
D03*
X6432383Y4822644D02*
D03*
X5824816Y5172592D02*
D03*
X6907383Y6147644D02*
D03*
X6847383D02*
D03*
X6620000Y5940000D02*
D03*
X6680000D02*
D03*
X6620000Y6000000D02*
D03*
Y6060000D02*
D03*
X6680000D02*
D03*
Y6000000D02*
D03*
X6974882Y5360144D02*
D03*
Y5272644D02*
D03*
X7034882D02*
D03*
Y5360144D02*
D03*
X6707528Y6559884D02*
D03*
X7047528D02*
D03*
X7107528D02*
D03*
X6647528D02*
D03*
X7047528Y6619884D02*
D03*
X6647528D02*
D03*
X6707528D02*
D03*
X7107528D02*
D03*
X6432383Y4762644D02*
D03*
X6187500Y5360000D02*
D03*
X6247500D02*
D03*
X2050028Y5739883D02*
D03*
X2110028D02*
D03*
Y5679883D02*
D03*
X2050028D02*
D03*
X3250000Y5185000D02*
D03*
X3207574Y5227427D02*
D03*
X3399834Y5132389D02*
D03*
X3357408Y5174815D02*
D03*
X5928284Y5078284D02*
D03*
X5885857Y5035858D02*
D03*
X5772426Y5022426D02*
D03*
X5730000Y4980000D02*
D03*
X5987071Y4907071D02*
D03*
X6029497Y4949498D02*
D03*
X5782390Y5130166D02*
D03*
X3302426Y5032574D02*
D03*
X3260000Y5075000D02*
D03*
X3080859Y4170000D02*
D03*
X3038432Y4127573D02*
D03*
X2975858Y4275857D02*
D03*
X2933432Y4233431D02*
D03*
X5765858Y4040000D02*
D03*
X5808284Y3997574D02*
D03*
X5830502Y3899497D02*
D03*
X5872929Y3857071D02*
D03*
X1660000Y2980000D02*
D03*
Y4380000D02*
D03*
Y5079999D02*
D03*
Y5779999D02*
D03*
Y6479999D02*
D03*
X7340000Y1820000D02*
D03*
Y2520000D02*
D03*
Y3220000D02*
D03*
Y3920000D02*
D03*
Y4619999D02*
D03*
Y5319999D02*
D03*
Y6019999D02*
D03*
X6649999Y7712500D02*
D03*
X6774999Y7652500D02*
D03*
X6399999D02*
D03*
X6899999D02*
D03*
X6399999Y7712500D02*
D03*
X6524999D02*
D03*
X2609855Y2039883D02*
D03*
X4220000Y1960000D02*
D03*
Y1900000D02*
D03*
Y1800000D02*
D03*
Y1740000D02*
D03*
Y1650000D02*
D03*
Y1590000D02*
D03*
Y1500000D02*
D03*
Y1440000D02*
D03*
X3647528Y1744884D02*
D03*
X3707528D02*
D03*
Y1804884D02*
D03*
X3647528D02*
D03*
X2642528Y1744884D02*
D03*
X2702528D02*
D03*
Y1804884D02*
D03*
X2642528D02*
D03*
X2290000Y2520000D02*
D03*
X2350000D02*
D03*
Y2580000D02*
D03*
X2290000D02*
D03*
X3179855Y1269883D02*
D03*
Y1329883D02*
D03*
Y1209883D02*
D03*
X2999855Y1269883D02*
D03*
X3059855D02*
D03*
Y1329883D02*
D03*
X2999855D02*
D03*
X3059855Y1209883D02*
D03*
X2999855D02*
D03*
X3119855D02*
D03*
Y1329883D02*
D03*
Y1269883D02*
D03*
X2609855Y3024883D02*
D03*
Y3084883D02*
D03*
Y2964883D02*
D03*
X2489856D02*
D03*
X2549855D02*
D03*
X2489856Y3084883D02*
D03*
X2549855D02*
D03*
Y3024883D02*
D03*
X2489856D02*
D03*
X2609855Y2099883D02*
D03*
Y2159883D02*
D03*
X2489856Y2039883D02*
D03*
X2549855D02*
D03*
X2489856Y2159883D02*
D03*
X2549855D02*
D03*
Y2099883D02*
D03*
X2489856D02*
D03*
X3489856D02*
D03*
X3549855D02*
D03*
Y2159883D02*
D03*
X3489856D02*
D03*
X3549855Y2039883D02*
D03*
X3489856D02*
D03*
X3609855D02*
D03*
Y2159883D02*
D03*
Y2099883D02*
D03*
X2352528Y6559884D02*
D03*
X2412528D02*
D03*
Y6619884D02*
D03*
X2352528D02*
D03*
X2752528Y6559884D02*
D03*
X2812528D02*
D03*
Y6619884D02*
D03*
X2752528D02*
D03*
X2739882Y5282644D02*
D03*
Y5370144D02*
D03*
X1892500Y5360000D02*
D03*
X1952500D02*
D03*
X2137383Y4762644D02*
D03*
X2679882Y5370144D02*
D03*
Y5282644D02*
D03*
X2612383Y6147644D02*
D03*
X2552383D02*
D03*
X2385000Y6000000D02*
D03*
Y6060000D02*
D03*
Y5940000D02*
D03*
X2325000Y6000000D02*
D03*
Y6060000D02*
D03*
Y5940000D02*
D03*
X2137383Y4822644D02*
D03*
X7839856Y1469884D02*
D03*
X7899856D02*
D03*
Y1409884D02*
D03*
X7839856D02*
D03*
X1099856D02*
D03*
X1159856D02*
D03*
Y1469884D02*
D03*
X1099856D02*
D03*
X3082426Y4812573D02*
D03*
X3040000Y4854999D02*
D03*
X7360000Y6329999D02*
D03*
X1640000Y1970000D02*
D03*
X1660000Y2280000D02*
D03*
X1280000Y1820000D02*
D03*
X1580000Y2070000D02*
D03*
X1600000Y2280000D02*
D03*
X1340000Y1820000D02*
D03*
X1700000Y1970000D02*
D03*
X1580000Y2130000D02*
D03*
X1640000Y2670000D02*
D03*
X1280000Y2520000D02*
D03*
X1600000Y2980000D02*
D03*
X1340000Y2520000D02*
D03*
X1700000Y2670000D02*
D03*
X1580000Y2830000D02*
D03*
X1640000Y3370000D02*
D03*
X1600000Y3680000D02*
D03*
X1340000Y3220000D02*
D03*
X1700000Y3370000D02*
D03*
X1580000Y3530000D02*
D03*
X1640000Y4069999D02*
D03*
X1600000Y4380000D02*
D03*
X1340000Y3920000D02*
D03*
X1700000Y4069999D02*
D03*
X1580000Y4229999D02*
D03*
X1640000Y4769999D02*
D03*
X1600000Y5079999D02*
D03*
X1340000Y4619999D02*
D03*
X1700000Y4769999D02*
D03*
X1580000Y4929999D02*
D03*
X1640000Y5469999D02*
D03*
X1600000Y5779999D02*
D03*
X1340000Y5319999D02*
D03*
X1700000Y5469999D02*
D03*
X1580000Y5629999D02*
D03*
X1640000Y6169999D02*
D03*
X1280000Y6019999D02*
D03*
X1580000Y6269999D02*
D03*
X1600000Y6479999D02*
D03*
X1340000Y6019999D02*
D03*
X1700000Y6169999D02*
D03*
X1580000Y6329999D02*
D03*
X7360000Y7029999D02*
D03*
X7340000Y6719999D02*
D03*
X7420000Y6929999D02*
D03*
X7400000Y6719999D02*
D03*
X7660000Y7179999D02*
D03*
X7300000Y7029999D02*
D03*
X7420000Y6869999D02*
D03*
Y6229999D02*
D03*
X7400000Y6019999D02*
D03*
X7660000Y6479999D02*
D03*
X7300000Y6329999D02*
D03*
X7420000Y6169999D02*
D03*
X7360000Y5629999D02*
D03*
X7400000Y5319999D02*
D03*
X7660000Y5779999D02*
D03*
X7300000Y5629999D02*
D03*
X7420000Y5469999D02*
D03*
X7360000Y4930000D02*
D03*
X7420000Y4829999D02*
D03*
X7400000Y4619999D02*
D03*
X7660000Y5079999D02*
D03*
X7300000Y4930000D02*
D03*
X7420000Y4770000D02*
D03*
X7360000Y4230000D02*
D03*
X7420000Y4130000D02*
D03*
X7400000Y3920000D02*
D03*
X7660000Y4380000D02*
D03*
X7300000Y4230000D02*
D03*
X7420000Y4070000D02*
D03*
X7360000Y3530000D02*
D03*
X7420000Y3430000D02*
D03*
X7400000Y3220000D02*
D03*
X7660000Y3680000D02*
D03*
X7300000Y3530000D02*
D03*
X7420000Y3370000D02*
D03*
X7360000Y2830000D02*
D03*
X7420000Y2730000D02*
D03*
X7400000Y2520000D02*
D03*
X7660000Y2980000D02*
D03*
X7300000Y2830000D02*
D03*
X7420000Y2670000D02*
D03*
X7360000Y2130000D02*
D03*
X7400000Y1820000D02*
D03*
X7660000Y2280000D02*
D03*
X7300000Y2130000D02*
D03*
X7420000Y1970000D02*
D03*
X1580000Y2770000D02*
D03*
X1660000Y3680000D02*
D03*
X1580000Y3470000D02*
D03*
X1280000Y3220000D02*
D03*
X1580000Y4170000D02*
D03*
Y4869999D02*
D03*
X1280000Y4619999D02*
D03*
X1580000Y5569999D02*
D03*
X1280000Y5319999D02*
D03*
X7720000Y6479999D02*
D03*
X7420000Y5529999D02*
D03*
X7720000Y5079999D02*
D03*
Y3680000D02*
D03*
X7420000Y2030000D02*
D03*
X1580000Y7030000D02*
D03*
Y6970000D02*
D03*
X1640000Y6870000D02*
D03*
X7720000Y7179999D02*
D03*
X5891716Y4084142D02*
D03*
X5849289Y4126569D02*
D03*
X5909289Y3976568D02*
D03*
X5951716Y3934142D02*
D03*
X2925858Y4130000D02*
D03*
X2883432Y4087573D02*
D03*
X1280000Y3920000D02*
D03*
X1660000Y7180000D02*
D03*
X1600000D02*
D03*
X1340000Y6720000D02*
D03*
X7720000Y5779999D02*
D03*
Y4380000D02*
D03*
Y2980000D02*
D03*
Y2280000D02*
D03*
X1699999Y6870000D02*
D03*
X1280000Y6720000D02*
D03*
%TF.MD5,fc1ecd84a019c1342f323e05d0d7cf6f*%
M02*
