%TF.GenerationSoftware,Altium Limited,Altium Designer,24.0.1 (36)*%
G04 Layer_Physical_Order=2*
G04 Layer_Color=36540*
%FSLAX45Y45*%
%MOMM*%
%TF.SameCoordinates,E594D193-3514-40B7-BCFE-BF8AFB9400D8*%
%TF.FilePolarity,Positive*%
%TF.FileFunction,Copper,L2,Inr,Signal*%
%TF.Part,Single*%
G01*
G75*
%TA.AperFunction,Conductor*%
%ADD84C,0.25000*%
%ADD90C,0.60000*%
%ADD94C,1.20000*%
%TA.AperFunction,NonConductor*%
%ADD95C,0.25400*%
%TA.AperFunction,ComponentPad*%
%ADD96C,7.00000*%
%ADD97C,1.52400*%
%TA.AperFunction,ViaPad*%
%ADD98C,0.56000*%
G36*
X8979609Y8008446D02*
X8485582Y7514419D01*
X8481162Y7507803D01*
X8479609Y7499999D01*
Y7400000D01*
Y1600000D01*
Y1500001D01*
X8481162Y1492197D01*
X8485582Y1485581D01*
X8979609Y991554D01*
Y20391D01*
X8008446D01*
X7514419Y514418D01*
X7507803Y518838D01*
X7499999Y520391D01*
X4874326D01*
X4862500Y522500D01*
X4862500Y533091D01*
Y782499D01*
X4137500Y782500D01*
Y533091D01*
X4137499Y522500D01*
X4125673Y520391D01*
X1500001D01*
X1492197Y518838D01*
X1485581Y514418D01*
X991554Y20391D01*
X20391D01*
Y991554D01*
X514418Y1485581D01*
X518838Y1492197D01*
X520391Y1500001D01*
Y1500001D01*
Y7400000D01*
Y7499999D01*
D01*
Y7499999D01*
X518838Y7507803D01*
X514418Y7514419D01*
X20391Y8008446D01*
Y8979609D01*
X991554D01*
X1485581Y8485582D01*
X1492197Y8481162D01*
X1500001Y8479609D01*
X7499999D01*
X7507803Y8481162D01*
X7514419Y8485582D01*
X8008446Y8979609D01*
X8979609D01*
Y8008446D01*
D02*
G37*
%LPC*%
G36*
X8500000Y8918997D02*
X8445310Y8915412D01*
X8391555Y8904720D01*
X8339657Y8887103D01*
X8290502Y8862862D01*
X8244931Y8832413D01*
X8203724Y8796276D01*
X8167587Y8755069D01*
X8137138Y8709498D01*
X8112897Y8660343D01*
X8095280Y8608445D01*
X8084588Y8554690D01*
X8081003Y8500000D01*
X8084588Y8445310D01*
X8095280Y8391555D01*
X8112897Y8339657D01*
X8137138Y8290502D01*
X8167587Y8244931D01*
X8203724Y8203724D01*
X8244931Y8167587D01*
X8290502Y8137138D01*
X8339657Y8112897D01*
X8391555Y8095280D01*
X8445310Y8084588D01*
X8500000Y8081003D01*
X8554690Y8084588D01*
X8608445Y8095280D01*
X8660343Y8112897D01*
X8709498Y8137138D01*
X8755069Y8167587D01*
X8796276Y8203724D01*
X8832413Y8244931D01*
X8862862Y8290502D01*
X8887103Y8339657D01*
X8904720Y8391555D01*
X8915412Y8445310D01*
X8918997Y8500000D01*
X8915412Y8554690D01*
X8904720Y8608445D01*
X8887103Y8660343D01*
X8862862Y8709498D01*
X8832413Y8755069D01*
X8796276Y8796276D01*
X8755069Y8832413D01*
X8709498Y8862862D01*
X8660343Y8887103D01*
X8608445Y8904720D01*
X8554690Y8915412D01*
X8500000Y8918997D01*
D02*
G37*
G36*
X500000D02*
X445310Y8915412D01*
X391555Y8904720D01*
X339657Y8887103D01*
X290502Y8862862D01*
X244931Y8832413D01*
X203724Y8796276D01*
X167587Y8755069D01*
X137138Y8709498D01*
X112897Y8660343D01*
X95280Y8608445D01*
X84588Y8554690D01*
X81003Y8500000D01*
X84588Y8445310D01*
X95280Y8391555D01*
X112897Y8339657D01*
X137138Y8290502D01*
X167587Y8244931D01*
X203724Y8203724D01*
X244931Y8167587D01*
X290501Y8137138D01*
X339657Y8112897D01*
X391555Y8095280D01*
X445310Y8084588D01*
X500000Y8081003D01*
X554690Y8084588D01*
X608445Y8095280D01*
X660343Y8112897D01*
X709499Y8137138D01*
X755069Y8167587D01*
X796276Y8203724D01*
X832413Y8244931D01*
X862862Y8290502D01*
X887103Y8339657D01*
X904720Y8391555D01*
X915412Y8445310D01*
X918997Y8500000D01*
X915412Y8554690D01*
X904720Y8608445D01*
X887103Y8660343D01*
X862862Y8709498D01*
X832413Y8755069D01*
X796276Y8796276D01*
X755069Y8832413D01*
X709499Y8862862D01*
X660343Y8887103D01*
X608445Y8904720D01*
X554690Y8915412D01*
X500000Y8918997D01*
D02*
G37*
G36*
X6783095Y7753200D02*
X6766904D01*
X6751945Y7747004D01*
X6740496Y7735555D01*
X6734299Y7720596D01*
Y7704404D01*
X6740496Y7689446D01*
X6747441Y7682500D01*
X6740496Y7675555D01*
X6734299Y7660596D01*
Y7644404D01*
X6740496Y7629445D01*
X6751945Y7617996D01*
X6766904Y7611800D01*
X6783095D01*
X6798054Y7617996D01*
X6809503Y7629445D01*
X6815699Y7644404D01*
Y7660596D01*
X6809503Y7675555D01*
X6802557Y7682500D01*
X6809503Y7689446D01*
X6815699Y7704404D01*
Y7720596D01*
X6809503Y7735555D01*
X6798054Y7747004D01*
X6783095Y7753200D01*
D02*
G37*
G36*
X6658095D02*
X6641904D01*
X6626945Y7747004D01*
X6615496Y7735555D01*
X6609299Y7720596D01*
Y7704404D01*
X6615496Y7689446D01*
X6622441Y7682500D01*
X6615496Y7675555D01*
X6609299Y7660596D01*
Y7644404D01*
X6615496Y7629445D01*
X6626945Y7617996D01*
X6641904Y7611800D01*
X6658095D01*
X6673054Y7617996D01*
X6684503Y7629445D01*
X6690699Y7644404D01*
Y7660596D01*
X6684503Y7675555D01*
X6677557Y7682500D01*
X6684503Y7689446D01*
X6690699Y7704404D01*
Y7720596D01*
X6684503Y7735555D01*
X6673054Y7747004D01*
X6658095Y7753200D01*
D02*
G37*
G36*
X6533095D02*
X6516904D01*
X6501945Y7747004D01*
X6490496Y7735555D01*
X6484299Y7720596D01*
Y7704404D01*
X6490496Y7689446D01*
X6497441Y7682500D01*
X6490496Y7675555D01*
X6484299Y7660596D01*
Y7644404D01*
X6490496Y7629445D01*
X6501945Y7617996D01*
X6516904Y7611800D01*
X6533095D01*
X6548054Y7617996D01*
X6559503Y7629445D01*
X6565699Y7644404D01*
Y7660596D01*
X6559503Y7675555D01*
X6552557Y7682500D01*
X6559503Y7689446D01*
X6565699Y7704404D01*
Y7720596D01*
X6559503Y7735555D01*
X6548054Y7747004D01*
X6533095Y7753200D01*
D02*
G37*
G36*
X6408095D02*
X6391904D01*
X6376945Y7747004D01*
X6365496Y7735555D01*
X6359299Y7720596D01*
Y7704404D01*
X6365496Y7689446D01*
X6372441Y7682500D01*
X6365496Y7675555D01*
X6359299Y7660596D01*
Y7644404D01*
X6365496Y7629445D01*
X6376945Y7617996D01*
X6391904Y7611800D01*
X6408095D01*
X6423054Y7617996D01*
X6434503Y7629445D01*
X6440699Y7644404D01*
Y7660596D01*
X6434503Y7675555D01*
X6427557Y7682500D01*
X6434503Y7689446D01*
X6440699Y7704404D01*
Y7720596D01*
X6434503Y7735555D01*
X6423054Y7747004D01*
X6408095Y7753200D01*
D02*
G37*
G36*
X2488095Y7748200D02*
X2471904D01*
X2456945Y7742004D01*
X2445496Y7730555D01*
X2439299Y7715596D01*
Y7699404D01*
X2445496Y7684445D01*
X2452441Y7677500D01*
X2445496Y7670554D01*
X2439299Y7655596D01*
Y7639404D01*
X2445496Y7624445D01*
X2456945Y7612996D01*
X2471904Y7606800D01*
X2488095D01*
X2503054Y7612996D01*
X2514503Y7624445D01*
X2520699Y7639404D01*
Y7655596D01*
X2514503Y7670554D01*
X2507558Y7677500D01*
X2514503Y7684445D01*
X2520699Y7699404D01*
Y7715596D01*
X2514503Y7730555D01*
X2503054Y7742004D01*
X2488095Y7748200D01*
D02*
G37*
G36*
X2363095D02*
X2346904D01*
X2331945Y7742004D01*
X2320496Y7730555D01*
X2314299Y7715596D01*
Y7699404D01*
X2320496Y7684445D01*
X2327441Y7677500D01*
X2320496Y7670554D01*
X2314299Y7655596D01*
Y7639404D01*
X2320496Y7624445D01*
X2331945Y7612996D01*
X2346904Y7606800D01*
X2363095D01*
X2378054Y7612996D01*
X2389503Y7624445D01*
X2395699Y7639404D01*
Y7655596D01*
X2389503Y7670554D01*
X2382558Y7677500D01*
X2389503Y7684445D01*
X2395699Y7699404D01*
Y7715596D01*
X2389503Y7730555D01*
X2378054Y7742004D01*
X2363095Y7748200D01*
D02*
G37*
G36*
X2238095D02*
X2221904D01*
X2206945Y7742004D01*
X2195496Y7730555D01*
X2189299Y7715596D01*
Y7699404D01*
X2195496Y7684445D01*
X2202441Y7677500D01*
X2195496Y7670554D01*
X2189299Y7655596D01*
Y7639404D01*
X2195496Y7624445D01*
X2206945Y7612996D01*
X2221904Y7606800D01*
X2238095D01*
X2253054Y7612996D01*
X2264503Y7624445D01*
X2270699Y7639404D01*
Y7655596D01*
X2264503Y7670554D01*
X2257558Y7677500D01*
X2264503Y7684445D01*
X2270699Y7699404D01*
Y7715596D01*
X2264503Y7730555D01*
X2253054Y7742004D01*
X2238095Y7748200D01*
D02*
G37*
G36*
X2113095D02*
X2096904D01*
X2081945Y7742004D01*
X2070496Y7730555D01*
X2064299Y7715596D01*
Y7699404D01*
X2070496Y7684445D01*
X2077441Y7677500D01*
X2070496Y7670554D01*
X2064299Y7655596D01*
Y7639404D01*
X2070496Y7624445D01*
X2081945Y7612996D01*
X2096904Y7606800D01*
X2113095D01*
X2128054Y7612996D01*
X2139503Y7624445D01*
X2145699Y7639404D01*
Y7655596D01*
X2139503Y7670554D01*
X2132558Y7677500D01*
X2139503Y7684445D01*
X2145699Y7699404D01*
Y7715596D01*
X2139503Y7730555D01*
X2128054Y7742004D01*
X2113095Y7748200D01*
D02*
G37*
G36*
X6492383Y7441180D02*
X6475722Y7437866D01*
X6461598Y7428429D01*
X6459375Y7428210D01*
X6455437Y7432147D01*
X6440479Y7438344D01*
X6424287D01*
X6409328Y7432147D01*
X6397879Y7420698D01*
X6391683Y7405739D01*
Y7389548D01*
X6397879Y7374589D01*
X6409328Y7363140D01*
X6424287Y7356944D01*
X6440479D01*
X6455437Y7363140D01*
X6459375Y7367077D01*
X6461598Y7366859D01*
X6814228Y7014228D01*
X6650000Y6850000D01*
X5277552D01*
X5270069Y6862700D01*
X5273728Y6871532D01*
Y6887724D01*
X5267532Y6902682D01*
X5260586Y6909628D01*
X5267532Y6916573D01*
X5273728Y6931532D01*
Y6947723D01*
X5267532Y6962682D01*
X5256082Y6974131D01*
X5241124Y6980328D01*
X5224932D01*
X5209973Y6974131D01*
X5203028Y6967186D01*
X5196083Y6974131D01*
X5181124Y6980328D01*
X5164933D01*
X5149974Y6974131D01*
X5138525Y6962682D01*
X5132328Y6947723D01*
Y6931532D01*
X5138525Y6916573D01*
X5145470Y6909628D01*
X5138525Y6902682D01*
X5132328Y6887724D01*
Y6871532D01*
X5135987Y6862700D01*
X5128504Y6850000D01*
X4667103D01*
X4660047Y6860560D01*
X4660556Y6861787D01*
Y6877978D01*
X4654359Y6892937D01*
X4647414Y6899882D01*
X4654359Y6906828D01*
X4660556Y6921787D01*
Y6937978D01*
X4654359Y6952937D01*
X4642910Y6964386D01*
X4627951Y6970582D01*
X4611760D01*
X4596801Y6964386D01*
X4585352Y6952937D01*
X4579156Y6937978D01*
Y6921787D01*
X4585352Y6906828D01*
X4592297Y6899882D01*
X4585352Y6892937D01*
X4579156Y6877978D01*
Y6861787D01*
X4579664Y6860560D01*
X4572608Y6850000D01*
X4077083D01*
X4069542Y6862700D01*
X4073160Y6871433D01*
Y6887625D01*
X4066963Y6902583D01*
X4060018Y6909529D01*
X4066963Y6916474D01*
X4073160Y6931433D01*
Y6947624D01*
X4066963Y6962583D01*
X4055514Y6974032D01*
X4040556Y6980229D01*
X4024364D01*
X4009405Y6974032D01*
X4002460Y6967087D01*
X3995515Y6974032D01*
X3980556Y6980229D01*
X3964364D01*
X3949406Y6974032D01*
X3937957Y6962583D01*
X3931760Y6947624D01*
Y6931433D01*
X3937957Y6916474D01*
X3944902Y6909529D01*
X3937957Y6902583D01*
X3931760Y6887625D01*
Y6871433D01*
X3935378Y6862700D01*
X3927837Y6850000D01*
X2350000D01*
X2005785Y7194215D01*
X2170785Y7359215D01*
X2173032Y7359436D01*
X2174328Y7358140D01*
X2189287Y7351944D01*
X2205478D01*
X2220437Y7358140D01*
X2231886Y7369589D01*
X2238083Y7384548D01*
Y7400739D01*
X2231886Y7415698D01*
X2220437Y7427147D01*
X2205478Y7433344D01*
X2189287D01*
X2174328Y7427147D01*
X2169095Y7421914D01*
X2156660Y7430222D01*
X2149644Y7431618D01*
X2145479Y7433344D01*
X2140969D01*
X2140000Y7433536D01*
X2139031Y7433344D01*
X2129287D01*
X2114328Y7427147D01*
X2102879Y7415698D01*
X2101996Y7413566D01*
X1944215Y7255785D01*
X1800000Y7400000D01*
X1400000D01*
Y1600000D01*
X2800000D01*
X3450000Y2250000D01*
X3650000D01*
X4201980Y1698019D01*
X4199503Y1685563D01*
X4196945Y1684504D01*
X4185496Y1673055D01*
X4179300Y1658096D01*
Y1641905D01*
X4185496Y1626946D01*
X4192442Y1620000D01*
X4185496Y1613055D01*
X4179300Y1598096D01*
Y1581905D01*
X4185496Y1566946D01*
X4196945Y1555497D01*
X4205692Y1551874D01*
Y1538127D01*
X4196945Y1534504D01*
X4185496Y1523055D01*
X4179300Y1508096D01*
Y1491905D01*
X4185496Y1476946D01*
X4192442Y1470000D01*
X4185496Y1463055D01*
X4179300Y1448096D01*
Y1431905D01*
X4185496Y1416946D01*
X4196945Y1405497D01*
X4211904Y1399300D01*
X4228096D01*
X4243055Y1405497D01*
X4254504Y1416946D01*
X4260700Y1431905D01*
Y1448096D01*
X4254504Y1463055D01*
X4247558Y1470000D01*
X4254504Y1476946D01*
X4260700Y1491905D01*
Y1508096D01*
X4254504Y1523055D01*
X4243055Y1534504D01*
X4234308Y1538127D01*
Y1551874D01*
X4243055Y1555497D01*
X4254504Y1566946D01*
X4260700Y1581905D01*
Y1598096D01*
X4254504Y1613055D01*
X4247558Y1620000D01*
X4254504Y1626946D01*
X4255563Y1629503D01*
X4268019Y1631981D01*
X4300000Y1600000D01*
X7600000D01*
Y7400000D01*
X7200000D01*
X6875798Y7075798D01*
X6523168Y7428428D01*
X6509043Y7437866D01*
X6492383Y7441180D01*
D02*
G37*
G36*
X5278213Y7430556D02*
X5262022D01*
X5247063Y7424359D01*
X5240118Y7417414D01*
X5233172Y7424359D01*
X5218213Y7430556D01*
X5202022D01*
X5187063Y7424359D01*
X5175614Y7412910D01*
X5169418Y7397951D01*
Y7381760D01*
X5175614Y7366801D01*
X5187063Y7355352D01*
X5202022Y7349156D01*
X5218213D01*
X5233172Y7355352D01*
X5240118Y7362297D01*
X5247063Y7355352D01*
X5262022Y7349156D01*
X5278213D01*
X5293172Y7355352D01*
X5304621Y7366801D01*
X5310817Y7381760D01*
Y7397951D01*
X5304621Y7412910D01*
X5293172Y7424359D01*
X5278213Y7430556D01*
D02*
G37*
G36*
X5031124Y7323825D02*
X5014932D01*
X4999973Y7317629D01*
X4993028Y7310683D01*
X4986083Y7317629D01*
X4971124Y7323825D01*
X4954932D01*
X4939974Y7317629D01*
X4928525Y7306180D01*
X4922328Y7291221D01*
Y7275029D01*
X4928525Y7260071D01*
X4935470Y7253125D01*
X4928525Y7246180D01*
X4922328Y7231221D01*
Y7215030D01*
X4928525Y7200071D01*
X4939974Y7188622D01*
X4954932Y7182425D01*
X4971124D01*
X4986083Y7188622D01*
X4993028Y7195567D01*
X4999973Y7188622D01*
X5014932Y7182425D01*
X5031124D01*
X5046082Y7188622D01*
X5057531Y7200071D01*
X5063728Y7215030D01*
Y7231221D01*
X5057531Y7246180D01*
X5050586Y7253125D01*
X5057531Y7260071D01*
X5063728Y7275029D01*
Y7291221D01*
X5057531Y7306180D01*
X5046082Y7317629D01*
X5031124Y7323825D01*
D02*
G37*
G36*
X4041123D02*
X4024932D01*
X4009973Y7317629D01*
X4003028Y7310683D01*
X3996083Y7317629D01*
X3981124Y7323825D01*
X3964932D01*
X3949974Y7317629D01*
X3938525Y7306180D01*
X3932328Y7291221D01*
Y7275029D01*
X3938525Y7260071D01*
X3945470Y7253125D01*
X3938525Y7246180D01*
X3932328Y7231221D01*
Y7215030D01*
X3938525Y7200071D01*
X3949974Y7188622D01*
X3964932Y7182425D01*
X3981124D01*
X3996083Y7188622D01*
X4003028Y7195567D01*
X4009973Y7188622D01*
X4024932Y7182425D01*
X4041123D01*
X4056082Y7188622D01*
X4067531Y7200071D01*
X4073728Y7215030D01*
Y7231221D01*
X4067531Y7246180D01*
X4060586Y7253125D01*
X4067531Y7260071D01*
X4073728Y7275029D01*
Y7291221D01*
X4067531Y7306180D01*
X4056082Y7317629D01*
X4041123Y7323825D01*
D02*
G37*
G36*
X3715624Y1845584D02*
X3699432D01*
X3684473Y1839387D01*
X3677528Y1832442D01*
X3670583Y1839387D01*
X3655624Y1845584D01*
X3639433D01*
X3624474Y1839387D01*
X3613025Y1827938D01*
X3606828Y1812979D01*
Y1796788D01*
X3613025Y1781829D01*
X3619970Y1774884D01*
X3613025Y1767938D01*
X3606828Y1752979D01*
Y1736788D01*
X3613025Y1721829D01*
X3624474Y1710380D01*
X3639433Y1704184D01*
X3655624D01*
X3670583Y1710380D01*
X3677528Y1717325D01*
X3684473Y1710380D01*
X3699432Y1704184D01*
X3715624D01*
X3730583Y1710380D01*
X3742032Y1721829D01*
X3748228Y1736788D01*
Y1752979D01*
X3742032Y1767938D01*
X3735086Y1774884D01*
X3742032Y1781829D01*
X3748228Y1796788D01*
Y1812979D01*
X3742032Y1827938D01*
X3730583Y1839387D01*
X3715624Y1845584D01*
D02*
G37*
G36*
X7907951Y1510583D02*
X7891760D01*
X7876801Y1504387D01*
X7872414Y1500000D01*
X7869856Y1497442D01*
X7867297Y1500000D01*
X7862911Y1504387D01*
X7847952Y1510583D01*
X7831760D01*
X7816801Y1504387D01*
X7812415Y1500000D01*
X7805352Y1492938D01*
X7799156Y1477979D01*
Y1461788D01*
X7805352Y1446829D01*
X7812298Y1439884D01*
X7805352Y1432938D01*
X7799156Y1417979D01*
Y1401788D01*
X7805352Y1386829D01*
X7816801Y1375380D01*
X7831760Y1369184D01*
X7847952D01*
X7862911Y1375380D01*
X7869856Y1382325D01*
X7876801Y1375380D01*
X7891760Y1369184D01*
X7907951D01*
X7922910Y1375380D01*
X7934359Y1386829D01*
X7940556Y1401788D01*
Y1417979D01*
X7934359Y1432938D01*
X7927414Y1439884D01*
X7934359Y1446829D01*
X7940556Y1461788D01*
Y1477979D01*
X7934359Y1492938D01*
X7927297Y1500000D01*
X7922910Y1504387D01*
X7907951Y1510583D01*
D02*
G37*
G36*
X1167951D02*
X1151760D01*
X1136801Y1504387D01*
X1132414Y1500000D01*
X1129856Y1497442D01*
X1127297Y1500000D01*
X1122911Y1504387D01*
X1107952Y1510583D01*
X1091760D01*
X1076802Y1504387D01*
X1072415Y1500000D01*
X1065352Y1492938D01*
X1059156Y1477979D01*
Y1461788D01*
X1065352Y1446829D01*
X1072298Y1439884D01*
X1065352Y1432938D01*
X1059156Y1417979D01*
Y1401788D01*
X1065352Y1386829D01*
X1076802Y1375380D01*
X1091760Y1369184D01*
X1107952D01*
X1122911Y1375380D01*
X1129856Y1382325D01*
X1136801Y1375380D01*
X1151760Y1369184D01*
X1167951D01*
X1182910Y1375380D01*
X1194359Y1386829D01*
X1200556Y1401788D01*
Y1417979D01*
X1194359Y1432938D01*
X1187414Y1439884D01*
X1194359Y1446829D01*
X1200556Y1461788D01*
Y1477979D01*
X1194359Y1492938D01*
X1187297Y1500000D01*
X1182910Y1504387D01*
X1167951Y1510583D01*
D02*
G37*
G36*
X3187950Y1370582D02*
X3171759D01*
X3156800Y1364386D01*
X3149855Y1357441D01*
X3142909Y1364386D01*
X3127951Y1370582D01*
X3111759D01*
X3096800Y1364386D01*
X3089855Y1357441D01*
X3082910Y1364386D01*
X3067951Y1370582D01*
X3051759D01*
X3036800Y1364386D01*
X3029855Y1357441D01*
X3022910Y1364386D01*
X3007951Y1370582D01*
X2991760D01*
X2976801Y1364386D01*
X2965352Y1352937D01*
X2959155Y1337978D01*
Y1321787D01*
X2965352Y1306828D01*
X2972297Y1299883D01*
X2965352Y1292937D01*
X2959155Y1277978D01*
Y1261787D01*
X2965352Y1246828D01*
X2972297Y1239883D01*
X2965352Y1232937D01*
X2959155Y1217979D01*
Y1201787D01*
X2965352Y1186828D01*
X2976801Y1175379D01*
X2991760Y1169183D01*
X3007951D01*
X3022910Y1175379D01*
X3029855Y1182324D01*
X3036800Y1175379D01*
X3051759Y1169183D01*
X3067951D01*
X3082910Y1175379D01*
X3089855Y1182325D01*
X3096800Y1175379D01*
X3111759Y1169183D01*
X3127951D01*
X3142909Y1175379D01*
X3149855Y1182325D01*
X3156800Y1175379D01*
X3171759Y1169183D01*
X3187950D01*
X3202909Y1175379D01*
X3214358Y1186828D01*
X3220555Y1201787D01*
Y1217979D01*
X3214358Y1232937D01*
X3207413Y1239883D01*
X3214358Y1246828D01*
X3220555Y1261787D01*
Y1277978D01*
X3214358Y1292937D01*
X3207413Y1299883D01*
X3214358Y1306828D01*
X3220555Y1321787D01*
Y1337978D01*
X3214358Y1352937D01*
X3202909Y1364386D01*
X3187950Y1370582D01*
D02*
G37*
G36*
X5603923Y1291488D02*
X5587731D01*
X5572772Y1285291D01*
X5561323Y1273842D01*
X5555127Y1258883D01*
Y1242692D01*
X5561323Y1227733D01*
X5572772Y1216284D01*
X5587731Y1210088D01*
X5603923D01*
X5618882Y1216284D01*
X5630331Y1227733D01*
X5636527Y1242692D01*
Y1258883D01*
X5630331Y1273842D01*
X5618882Y1285291D01*
X5603923Y1291488D01*
D02*
G37*
G36*
X6241423Y1288988D02*
X6225231D01*
X6210272Y1282791D01*
X6198823Y1271342D01*
X6192627Y1256384D01*
Y1240192D01*
X6198823Y1225233D01*
X6210272Y1213784D01*
X6225231Y1207588D01*
X6241423D01*
X6256381Y1213784D01*
X6267830Y1225233D01*
X6274027Y1240192D01*
Y1256384D01*
X6267830Y1271342D01*
X6256381Y1282791D01*
X6241423Y1288988D01*
D02*
G37*
G36*
X5961423D02*
X5945231D01*
X5930272Y1282791D01*
X5918823Y1271342D01*
X5912627Y1256384D01*
Y1240192D01*
X5918823Y1225233D01*
X5930272Y1213784D01*
X5945231Y1207588D01*
X5961423D01*
X5976381Y1213784D01*
X5987831Y1225233D01*
X5994027Y1240192D01*
Y1256384D01*
X5987831Y1271342D01*
X5976381Y1282791D01*
X5961423Y1288988D01*
D02*
G37*
G36*
X5348923D02*
X5332731D01*
X5317772Y1282791D01*
X5306323Y1271342D01*
X5300127Y1256384D01*
Y1240192D01*
X5306323Y1225233D01*
X5317772Y1213784D01*
X5332731Y1207588D01*
X5348923D01*
X5363882Y1213784D01*
X5375331Y1225233D01*
X5381527Y1240192D01*
Y1256384D01*
X5375331Y1271342D01*
X5363882Y1282791D01*
X5348923Y1288988D01*
D02*
G37*
G36*
X2175544Y1345857D02*
X2159352D01*
X2144393Y1339660D01*
X2132944Y1328211D01*
X2126748Y1313252D01*
Y1297061D01*
X2132944Y1282102D01*
X2139890Y1275157D01*
X2132944Y1268211D01*
X2126748Y1253253D01*
Y1237061D01*
X2132944Y1222102D01*
X2144393Y1210653D01*
X2159352Y1204457D01*
X2175544D01*
X2190503Y1210653D01*
X2201952Y1222102D01*
X2208148Y1237061D01*
Y1253253D01*
X2201952Y1268211D01*
X2195006Y1275157D01*
X2201952Y1282102D01*
X2208148Y1297061D01*
Y1313252D01*
X2201952Y1328211D01*
X2190503Y1339660D01*
X2175544Y1345857D01*
D02*
G37*
G36*
X3965648Y1345543D02*
X3949456D01*
X3934498Y1339347D01*
X3923049Y1327898D01*
X3916852Y1312939D01*
Y1296747D01*
X3923049Y1281789D01*
X3929994Y1274843D01*
X3923049Y1267898D01*
X3916852Y1252939D01*
Y1236748D01*
X3923049Y1221789D01*
X3934498Y1210340D01*
X3949456Y1204143D01*
X3965648D01*
X3980607Y1210340D01*
X3992056Y1221789D01*
X3998252Y1236748D01*
Y1252939D01*
X3992056Y1267898D01*
X3985110Y1274843D01*
X3992056Y1281789D01*
X3998252Y1296747D01*
Y1312939D01*
X3992056Y1327898D01*
X3980607Y1339347D01*
X3965648Y1345543D01*
D02*
G37*
G36*
X5873096Y1185700D02*
X5856904D01*
X5841945Y1179504D01*
X5830496Y1168055D01*
X5824300Y1153096D01*
Y1136904D01*
X5830496Y1121945D01*
X5841945Y1110496D01*
X5856904Y1104300D01*
X5873096D01*
X5888055Y1110496D01*
X5899504Y1121945D01*
X5905700Y1136904D01*
Y1153096D01*
X5899504Y1168055D01*
X5888055Y1179504D01*
X5873096Y1185700D01*
D02*
G37*
G36*
X8500000Y918997D02*
X8445310Y915412D01*
X8391555Y904720D01*
X8339657Y887103D01*
X8290502Y862862D01*
X8244931Y832413D01*
X8203724Y796276D01*
X8167587Y755069D01*
X8137138Y709499D01*
X8112897Y660343D01*
X8095280Y608445D01*
X8084588Y554690D01*
X8081003Y500000D01*
X8084588Y445310D01*
X8095280Y391555D01*
X8112897Y339657D01*
X8137138Y290501D01*
X8167587Y244931D01*
X8203724Y203724D01*
X8244931Y167587D01*
X8290502Y137138D01*
X8339657Y112897D01*
X8391555Y95280D01*
X8445310Y84588D01*
X8500000Y81003D01*
X8554690Y84588D01*
X8608445Y95280D01*
X8660343Y112897D01*
X8709498Y137138D01*
X8755069Y167587D01*
X8796276Y203724D01*
X8832413Y244931D01*
X8862862Y290501D01*
X8887103Y339657D01*
X8904720Y391555D01*
X8915412Y445310D01*
X8918997Y500000D01*
X8915412Y554690D01*
X8904720Y608445D01*
X8887103Y660343D01*
X8862862Y709499D01*
X8832413Y755069D01*
X8796276Y796276D01*
X8755069Y832413D01*
X8709498Y862862D01*
X8660343Y887103D01*
X8608445Y904720D01*
X8554690Y915412D01*
X8500000Y918997D01*
D02*
G37*
G36*
X500000D02*
X445310Y915412D01*
X391555Y904720D01*
X339657Y887103D01*
X290502Y862862D01*
X244931Y832413D01*
X203724Y796276D01*
X167587Y755069D01*
X137138Y709499D01*
X112897Y660343D01*
X95280Y608445D01*
X84588Y554690D01*
X81003Y500000D01*
X84588Y445310D01*
X95280Y391555D01*
X112897Y339657D01*
X137138Y290501D01*
X167587Y244931D01*
X203724Y203724D01*
X244931Y167587D01*
X290501Y137138D01*
X339657Y112897D01*
X391555Y95280D01*
X445310Y84588D01*
X500000Y81003D01*
X554690Y84588D01*
X608445Y95280D01*
X660343Y112897D01*
X709499Y137138D01*
X755069Y167587D01*
X796276Y203724D01*
X832413Y244931D01*
X862862Y290501D01*
X887103Y339657D01*
X904720Y391555D01*
X915412Y445310D01*
X918997Y500000D01*
X915412Y554690D01*
X904720Y608445D01*
X887103Y660343D01*
X862862Y709499D01*
X832413Y755069D01*
X796276Y796276D01*
X755069Y832413D01*
X709499Y862862D01*
X660343Y887103D01*
X608445Y904720D01*
X554690Y915412D01*
X500000Y918997D01*
D02*
G37*
%LPD*%
G36*
X7450000Y6974151D02*
X7437300Y6966886D01*
X7428096Y6970699D01*
X7411904D01*
X7396945Y6964503D01*
X7385496Y6953054D01*
X7379300Y6938095D01*
Y6921903D01*
X7385496Y6906945D01*
X7392442Y6899999D01*
X7385496Y6893054D01*
X7379300Y6878095D01*
Y6861903D01*
X7385496Y6846945D01*
X7396945Y6835496D01*
X7411904Y6829299D01*
X7428096D01*
X7437300Y6833112D01*
X7450000Y6825847D01*
Y6274151D01*
X7437300Y6266887D01*
X7428096Y6270699D01*
X7411904D01*
X7396945Y6264503D01*
X7385496Y6253054D01*
X7379300Y6238095D01*
Y6221903D01*
X7385496Y6206945D01*
X7392442Y6199999D01*
X7385496Y6193054D01*
X7379300Y6178095D01*
Y6161904D01*
X7385496Y6146945D01*
X7396945Y6135496D01*
X7411904Y6129299D01*
X7428096D01*
X7437300Y6133112D01*
X7450000Y6125848D01*
Y5574151D01*
X7437300Y5566887D01*
X7428096Y5570699D01*
X7411904D01*
X7396945Y5564503D01*
X7385496Y5553054D01*
X7379300Y5538095D01*
Y5521904D01*
X7385496Y5506945D01*
X7392442Y5499999D01*
X7385496Y5493054D01*
X7379300Y5478095D01*
Y5461904D01*
X7385496Y5446945D01*
X7396945Y5435496D01*
X7411904Y5429300D01*
X7428096D01*
X7437300Y5433112D01*
X7450000Y5425848D01*
Y4874151D01*
X7437300Y4866887D01*
X7428096Y4870699D01*
X7411904D01*
X7396945Y4864503D01*
X7385496Y4853054D01*
X7379300Y4838095D01*
Y4821904D01*
X7385496Y4806945D01*
X7392442Y4800000D01*
X7385496Y4793054D01*
X7379300Y4778095D01*
Y4761904D01*
X7385496Y4746945D01*
X7396945Y4735496D01*
X7411904Y4729300D01*
X7428096D01*
X7437300Y4733112D01*
X7450000Y4725848D01*
Y4174151D01*
X7437300Y4166887D01*
X7428096Y4170700D01*
X7411904D01*
X7396945Y4164503D01*
X7385496Y4153054D01*
X7379300Y4138095D01*
Y4121904D01*
X7385496Y4106945D01*
X7392442Y4100000D01*
X7385496Y4093054D01*
X7379300Y4078095D01*
Y4061904D01*
X7385496Y4046945D01*
X7396945Y4035496D01*
X7411904Y4029300D01*
X7428096D01*
X7437300Y4033112D01*
X7450000Y4025848D01*
Y3474152D01*
X7437300Y3466887D01*
X7428096Y3470700D01*
X7411904D01*
X7396945Y3464503D01*
X7385496Y3453054D01*
X7379300Y3438095D01*
Y3421904D01*
X7385496Y3406945D01*
X7392442Y3400000D01*
X7385496Y3393054D01*
X7379300Y3378096D01*
Y3361904D01*
X7385496Y3346945D01*
X7396945Y3335496D01*
X7411904Y3329300D01*
X7428096D01*
X7437300Y3333112D01*
X7450000Y3325848D01*
Y2774152D01*
X7437300Y2766887D01*
X7428096Y2770700D01*
X7411904D01*
X7396945Y2764503D01*
X7385496Y2753054D01*
X7379300Y2738096D01*
Y2721904D01*
X7385496Y2706945D01*
X7392442Y2700000D01*
X7385496Y2693055D01*
X7379300Y2678096D01*
Y2661904D01*
X7385496Y2646945D01*
X7396945Y2635496D01*
X7411904Y2629300D01*
X7428096D01*
X7437300Y2633113D01*
X7450000Y2625848D01*
Y2074152D01*
X7437300Y2066887D01*
X7428096Y2070700D01*
X7411904D01*
X7396945Y2064504D01*
X7385496Y2053055D01*
X7379300Y2038096D01*
Y2021904D01*
X7385496Y2006945D01*
X7392442Y2000000D01*
X7385496Y1993055D01*
X7379300Y1978096D01*
Y1961904D01*
X7385496Y1946946D01*
X7396945Y1935497D01*
X7411904Y1929300D01*
X7428096D01*
X7437300Y1933113D01*
X7450000Y1925848D01*
Y1750000D01*
X4350000D01*
X4241636Y1858364D01*
X4243055Y1865497D01*
X4254504Y1876946D01*
X4260700Y1891905D01*
Y1908096D01*
X4254504Y1923055D01*
X4247558Y1930000D01*
X4254504Y1936946D01*
X4260700Y1951904D01*
Y1968096D01*
X4254504Y1983055D01*
X4243055Y1994504D01*
X4228096Y2000700D01*
X4211904D01*
X4196945Y1994504D01*
X4185496Y1983055D01*
X4179300Y1968096D01*
Y1951904D01*
X4185496Y1936946D01*
X4187902Y1934540D01*
X4186455Y1931506D01*
X4171128Y1928872D01*
X3750000Y2350000D01*
X3350000D01*
X2755064Y1755064D01*
X2754767Y1755012D01*
X2740881Y1758645D01*
X2737032Y1767938D01*
X2730086Y1774884D01*
X2737032Y1781829D01*
X2743228Y1796788D01*
Y1812979D01*
X2737032Y1827938D01*
X2725583Y1839387D01*
X2710624Y1845584D01*
X2694432D01*
X2679473Y1839387D01*
X2672528Y1832442D01*
X2665583Y1839387D01*
X2650624Y1845584D01*
X2634433D01*
X2619474Y1839387D01*
X2608025Y1827938D01*
X2601828Y1812979D01*
Y1796788D01*
X2608025Y1781829D01*
X2614970Y1774884D01*
X2608025Y1767938D01*
X2601828Y1752979D01*
Y1750000D01*
X1550000D01*
Y2025848D01*
X1562700Y2033113D01*
X1571904Y2029300D01*
X1588096D01*
X1603055Y2035496D01*
X1614504Y2046945D01*
X1620700Y2061904D01*
Y2078096D01*
X1614504Y2093054D01*
X1607558Y2100000D01*
X1614504Y2106945D01*
X1620700Y2121904D01*
Y2138096D01*
X1614504Y2153054D01*
X1603055Y2164503D01*
X1588096Y2170700D01*
X1571904D01*
X1562700Y2166887D01*
X1550000Y2174151D01*
Y2725848D01*
X1562700Y2733113D01*
X1571904Y2729300D01*
X1588096D01*
X1603055Y2735496D01*
X1614504Y2746945D01*
X1620700Y2761904D01*
Y2778096D01*
X1614504Y2793054D01*
X1607558Y2800000D01*
X1614504Y2806945D01*
X1620700Y2821904D01*
Y2838095D01*
X1614504Y2853054D01*
X1603055Y2864503D01*
X1588096Y2870700D01*
X1571904D01*
X1562700Y2866887D01*
X1550000Y2874151D01*
Y3425848D01*
X1562700Y3433113D01*
X1571904Y3429300D01*
X1588096D01*
X1603055Y3435496D01*
X1614504Y3446945D01*
X1620700Y3461904D01*
Y3478095D01*
X1614504Y3493054D01*
X1607558Y3500000D01*
X1614504Y3506945D01*
X1620700Y3521904D01*
Y3538095D01*
X1614504Y3553054D01*
X1603055Y3564503D01*
X1588096Y3570699D01*
X1571904D01*
X1562700Y3566887D01*
X1550000Y3574151D01*
Y4125848D01*
X1562700Y4133112D01*
X1571904Y4129300D01*
X1588096D01*
X1603055Y4135496D01*
X1614504Y4146945D01*
X1620700Y4161904D01*
Y4178095D01*
X1614504Y4193054D01*
X1607558Y4199999D01*
X1614504Y4206945D01*
X1620700Y4221904D01*
Y4238095D01*
X1614504Y4253054D01*
X1603055Y4264503D01*
X1588096Y4270699D01*
X1571904D01*
X1562700Y4266887D01*
X1550000Y4274151D01*
Y4825848D01*
X1562700Y4833112D01*
X1571904Y4829299D01*
X1588096D01*
X1603055Y4835496D01*
X1614504Y4846945D01*
X1620700Y4861904D01*
Y4878095D01*
X1614504Y4893054D01*
X1607558Y4899999D01*
X1614504Y4906945D01*
X1620700Y4921904D01*
Y4938095D01*
X1614504Y4953054D01*
X1603055Y4964503D01*
X1588096Y4970699D01*
X1571904D01*
X1562700Y4966886D01*
X1550000Y4974151D01*
Y5525848D01*
X1562700Y5533112D01*
X1571904Y5529299D01*
X1588096D01*
X1603055Y5535496D01*
X1614504Y5546945D01*
X1620700Y5561904D01*
Y5578095D01*
X1614504Y5593054D01*
X1607558Y5599999D01*
X1614504Y5606945D01*
X1620700Y5621903D01*
Y5638095D01*
X1614504Y5653054D01*
X1603055Y5664503D01*
X1588096Y5670699D01*
X1571904D01*
X1562700Y5666886D01*
X1550000Y5674151D01*
Y6225848D01*
X1562700Y6233112D01*
X1571904Y6229299D01*
X1588096D01*
X1603055Y6235496D01*
X1614504Y6246945D01*
X1620700Y6261903D01*
Y6278095D01*
X1614504Y6293054D01*
X1607558Y6299999D01*
X1614504Y6306944D01*
X1620700Y6321903D01*
Y6338095D01*
X1614504Y6353054D01*
X1603055Y6364503D01*
X1588096Y6370699D01*
X1571904D01*
X1562700Y6366886D01*
X1550000Y6374151D01*
Y6925848D01*
X1562700Y6933113D01*
X1571904Y6929300D01*
X1588096D01*
X1603054Y6935496D01*
X1614504Y6946945D01*
X1620700Y6961904D01*
Y6978096D01*
X1614504Y6993055D01*
X1607558Y7000000D01*
X1614504Y7006945D01*
X1620700Y7021904D01*
Y7038096D01*
X1614504Y7053054D01*
X1603054Y7064504D01*
X1588096Y7070700D01*
X1571904D01*
X1562700Y7066887D01*
X1550000Y7074152D01*
Y7250000D01*
X1800000Y7249999D01*
X2043150Y7006850D01*
X2028150Y6991850D01*
X2016497Y6976663D01*
X2009171Y6958978D01*
X2006673Y6940000D01*
Y5710000D01*
X2009171Y5691022D01*
X2009880Y5689311D01*
X2009328Y5687979D01*
Y5671788D01*
X2015525Y5656829D01*
X2026974Y5645380D01*
X2041933Y5639184D01*
X2058124D01*
X2059558Y5639777D01*
X2061022Y5639171D01*
X2080000Y5636673D01*
X2098978Y5639171D01*
X2100470Y5639789D01*
X2101932Y5639184D01*
X2118124D01*
X2133083Y5645380D01*
X2144532Y5656829D01*
X2150728Y5671788D01*
Y5687979D01*
X2150148Y5689379D01*
X2150829Y5691022D01*
X2153327Y5710000D01*
Y6880079D01*
X2165060Y6884939D01*
X2350000Y6700000D01*
X6299173D01*
Y5702500D01*
X6301671Y5683522D01*
X6302476Y5681578D01*
X6302328Y5681221D01*
Y5665030D01*
X6308525Y5650071D01*
X6319974Y5638622D01*
X6334932Y5632425D01*
X6351124D01*
X6351412Y5632545D01*
X6353522Y5631671D01*
X6372500Y5629173D01*
X6391478Y5631671D01*
X6394116Y5632764D01*
X6394932Y5632425D01*
X6411124D01*
X6426082Y5638622D01*
X6437531Y5650071D01*
X6443728Y5665030D01*
Y5681221D01*
X6443052Y5682853D01*
X6443329Y5683522D01*
X6445827Y5702500D01*
Y6700000D01*
X6650000D01*
X7200012Y7250011D01*
X7450000Y7250012D01*
Y6974151D01*
D02*
G37*
%LPC*%
G36*
X7368096Y7070699D02*
X7351905D01*
X7336946Y7064503D01*
X7330000Y7057557D01*
X7323055Y7064503D01*
X7308096Y7070699D01*
X7291905D01*
X7276946Y7064503D01*
X7265497Y7053054D01*
X7259300Y7038095D01*
Y7021903D01*
X7265497Y7006945D01*
X7276946Y6995496D01*
X7291905Y6989299D01*
X7308096D01*
X7323055Y6995496D01*
X7330000Y7002441D01*
X7336946Y6995496D01*
X7351905Y6989299D01*
X7368096D01*
X7383055Y6995496D01*
X7394504Y7006945D01*
X7400700Y7021903D01*
Y7038095D01*
X7394504Y7053054D01*
X7383055Y7064503D01*
X7368096Y7070699D01*
D02*
G37*
G36*
X1708095Y6910700D02*
X1691904D01*
X1676945Y6904504D01*
X1669999Y6897558D01*
X1663054Y6904504D01*
X1648095Y6910700D01*
X1631904D01*
X1616945Y6904504D01*
X1605496Y6893055D01*
X1599300Y6878096D01*
Y6861904D01*
X1605496Y6846945D01*
X1616945Y6835496D01*
X1631904Y6829300D01*
X1648095D01*
X1663054Y6835496D01*
X1669999Y6842442D01*
X1676945Y6835496D01*
X1691904Y6829300D01*
X1708095D01*
X1723054Y6835496D01*
X1734503Y6846945D01*
X1740699Y6861904D01*
Y6878096D01*
X1734503Y6893055D01*
X1723054Y6904504D01*
X1708095Y6910700D01*
D02*
G37*
G36*
X7115624Y6660584D02*
X7099432D01*
X7084474Y6654387D01*
X7077528Y6647442D01*
X7070583Y6654387D01*
X7055624Y6660584D01*
X7039433D01*
X7024474Y6654387D01*
X7013025Y6642938D01*
X7006829Y6627979D01*
Y6611788D01*
X7013025Y6596829D01*
X7019970Y6589884D01*
X7013025Y6582938D01*
X7006829Y6567979D01*
Y6551788D01*
X7013025Y6536829D01*
X7024474Y6525380D01*
X7039433Y6519184D01*
X7055624D01*
X7070583Y6525380D01*
X7077528Y6532325D01*
X7084474Y6525380D01*
X7099432Y6519184D01*
X7115624D01*
X7130583Y6525380D01*
X7142032Y6536829D01*
X7148228Y6551788D01*
Y6567979D01*
X7142032Y6582938D01*
X7135086Y6589884D01*
X7142032Y6596829D01*
X7148228Y6611788D01*
Y6627979D01*
X7142032Y6642938D01*
X7130583Y6654387D01*
X7115624Y6660584D01*
D02*
G37*
G36*
X6715624D02*
X6699432D01*
X6684474Y6654387D01*
X6677528Y6647442D01*
X6670583Y6654387D01*
X6655624Y6660584D01*
X6639433D01*
X6624474Y6654387D01*
X6613025Y6642938D01*
X6606829Y6627979D01*
Y6611788D01*
X6613025Y6596829D01*
X6619970Y6589884D01*
X6613025Y6582938D01*
X6606829Y6567979D01*
Y6551788D01*
X6613025Y6536829D01*
X6624474Y6525380D01*
X6639433Y6519184D01*
X6655624D01*
X6670583Y6525380D01*
X6677528Y6532325D01*
X6684474Y6525380D01*
X6699432Y6519184D01*
X6715624D01*
X6730583Y6525380D01*
X6742032Y6536829D01*
X6748228Y6551788D01*
Y6567979D01*
X6742032Y6582938D01*
X6735086Y6589884D01*
X6742032Y6596829D01*
X6748228Y6611788D01*
Y6627979D01*
X6742032Y6642938D01*
X6730583Y6654387D01*
X6715624Y6660584D01*
D02*
G37*
G36*
X2820624D02*
X2804432D01*
X2789473Y6654387D01*
X2782528Y6647442D01*
X2775583Y6654387D01*
X2760624Y6660584D01*
X2744433D01*
X2729474Y6654387D01*
X2718025Y6642938D01*
X2711828Y6627979D01*
Y6611788D01*
X2718025Y6596829D01*
X2724970Y6589884D01*
X2718025Y6582938D01*
X2711828Y6567979D01*
Y6551788D01*
X2718025Y6536829D01*
X2729474Y6525380D01*
X2744433Y6519184D01*
X2760624D01*
X2775583Y6525380D01*
X2782528Y6532325D01*
X2789473Y6525380D01*
X2804432Y6519184D01*
X2820624D01*
X2835583Y6525380D01*
X2847032Y6536829D01*
X2853228Y6551788D01*
Y6567979D01*
X2847032Y6582938D01*
X2840086Y6589884D01*
X2847032Y6596829D01*
X2853228Y6611788D01*
Y6627979D01*
X2847032Y6642938D01*
X2835583Y6654387D01*
X2820624Y6660584D01*
D02*
G37*
G36*
X2420624D02*
X2404432D01*
X2389474Y6654387D01*
X2382528Y6647442D01*
X2375583Y6654387D01*
X2360624Y6660584D01*
X2344433D01*
X2329474Y6654387D01*
X2318025Y6642938D01*
X2311828Y6627979D01*
Y6611788D01*
X2318025Y6596829D01*
X2324970Y6589884D01*
X2318025Y6582938D01*
X2311828Y6567979D01*
Y6551788D01*
X2318025Y6536829D01*
X2329474Y6525380D01*
X2344433Y6519184D01*
X2360624D01*
X2375583Y6525380D01*
X2382528Y6532325D01*
X2389474Y6525380D01*
X2404432Y6519184D01*
X2420624D01*
X2435583Y6525380D01*
X2447032Y6536829D01*
X2453228Y6551788D01*
Y6567979D01*
X2447032Y6582938D01*
X2440086Y6589884D01*
X2447032Y6596829D01*
X2453228Y6611788D01*
Y6627979D01*
X2447032Y6642938D01*
X2435583Y6654387D01*
X2420624Y6660584D01*
D02*
G37*
G36*
X5889808Y6514027D02*
X5873617D01*
X5858658Y6507831D01*
X5851712Y6500885D01*
X5844767Y6507831D01*
X5829808Y6514027D01*
X5813617D01*
X5798658Y6507831D01*
X5787209Y6496381D01*
X5781012Y6481423D01*
Y6465231D01*
X5787209Y6450272D01*
X5798658Y6438823D01*
X5813617Y6432627D01*
X5829808D01*
X5844767Y6438823D01*
X5851712Y6445769D01*
X5858658Y6438823D01*
X5873617Y6432627D01*
X5889808D01*
X5904767Y6438823D01*
X5916216Y6450272D01*
X5922412Y6465231D01*
Y6481423D01*
X5916216Y6496381D01*
X5904767Y6507831D01*
X5889808Y6514027D01*
D02*
G37*
G36*
X4240835Y6501420D02*
X4224644D01*
X4209685Y6495223D01*
X4198236Y6483774D01*
X4192039Y6468816D01*
Y6452624D01*
X4198236Y6437665D01*
X4205181Y6430720D01*
X4198236Y6423775D01*
X4192039Y6408816D01*
Y6392624D01*
X4198236Y6377665D01*
X4209685Y6366216D01*
X4224644Y6360020D01*
X4240835D01*
X4255794Y6366216D01*
X4267243Y6377665D01*
X4273439Y6392624D01*
Y6408816D01*
X4267243Y6423775D01*
X4260298Y6430720D01*
X4267243Y6437665D01*
X4273439Y6452624D01*
Y6468816D01*
X4267243Y6483774D01*
X4255794Y6495223D01*
X4240835Y6501420D01*
D02*
G37*
G36*
X7368096Y6370699D02*
X7351905D01*
X7336946Y6364503D01*
X7330000Y6357558D01*
X7323055Y6364503D01*
X7308096Y6370699D01*
X7291905D01*
X7276946Y6364503D01*
X7265497Y6353054D01*
X7259300Y6338095D01*
Y6321904D01*
X7265497Y6306945D01*
X7276946Y6295496D01*
X7291905Y6289299D01*
X7308096D01*
X7323055Y6295496D01*
X7330000Y6302441D01*
X7336946Y6295496D01*
X7351905Y6289299D01*
X7368096D01*
X7383055Y6295496D01*
X7394504Y6306945D01*
X7400700Y6321904D01*
Y6338095D01*
X7394504Y6353054D01*
X7383055Y6364503D01*
X7368096Y6370699D01*
D02*
G37*
G36*
X4538816Y6297960D02*
X4522624D01*
X4507665Y6291764D01*
X4500720Y6284819D01*
X4493775Y6291764D01*
X4478816Y6297960D01*
X4462624D01*
X4447665Y6291764D01*
X4436216Y6280315D01*
X4430020Y6265356D01*
Y6249165D01*
X4436216Y6234206D01*
X4447665Y6222757D01*
X4462624Y6216561D01*
X4478816D01*
X4493775Y6222757D01*
X4500720Y6229702D01*
X4507665Y6222757D01*
X4522624Y6216561D01*
X4538816D01*
X4553774Y6222757D01*
X4565224Y6234206D01*
X4571420Y6249165D01*
Y6265356D01*
X4565224Y6280315D01*
X4553774Y6291764D01*
X4538816Y6297960D01*
D02*
G37*
G36*
X5889808Y6259027D02*
X5873617D01*
X5858658Y6252831D01*
X5851712Y6245885D01*
X5844767Y6252831D01*
X5829808Y6259027D01*
X5813617D01*
X5798658Y6252831D01*
X5787209Y6241381D01*
X5781012Y6226423D01*
Y6210231D01*
X5787209Y6195272D01*
X5798658Y6183823D01*
X5813617Y6177627D01*
X5829808D01*
X5844767Y6183823D01*
X5851712Y6190769D01*
X5858658Y6183823D01*
X5873617Y6177627D01*
X5889808D01*
X5904767Y6183823D01*
X5916216Y6195272D01*
X5922412Y6210231D01*
Y6226423D01*
X5916216Y6241381D01*
X5904767Y6252831D01*
X5889808Y6259027D01*
D02*
G37*
G36*
X1708095Y6210699D02*
X1691904D01*
X1676945Y6204503D01*
X1670000Y6197557D01*
X1663054Y6204503D01*
X1648096Y6210699D01*
X1631904D01*
X1616945Y6204503D01*
X1605496Y6193054D01*
X1599300Y6178095D01*
Y6161903D01*
X1605496Y6146945D01*
X1616945Y6135495D01*
X1631904Y6129299D01*
X1648096D01*
X1663054Y6135495D01*
X1670000Y6142441D01*
X1676945Y6135495D01*
X1691904Y6129299D01*
X1708095D01*
X1723054Y6135495D01*
X1734503Y6146945D01*
X1740700Y6161903D01*
Y6178095D01*
X1734503Y6193054D01*
X1723054Y6204503D01*
X1708095Y6210699D01*
D02*
G37*
G36*
X6915478Y6188343D02*
X6899287D01*
X6884328Y6182147D01*
X6877383Y6175202D01*
X6870437Y6182147D01*
X6855479Y6188343D01*
X6839287D01*
X6824328Y6182147D01*
X6812879Y6170698D01*
X6806683Y6155739D01*
Y6139548D01*
X6812879Y6124589D01*
X6824328Y6113140D01*
X6839287Y6106944D01*
X6855479D01*
X6870437Y6113140D01*
X6877383Y6120085D01*
X6884328Y6113140D01*
X6899287Y6106944D01*
X6915478D01*
X6930437Y6113140D01*
X6941886Y6124589D01*
X6948083Y6139548D01*
Y6155739D01*
X6941886Y6170698D01*
X6930437Y6182147D01*
X6915478Y6188343D01*
D02*
G37*
G36*
X2620478D02*
X2604287D01*
X2589328Y6182147D01*
X2582383Y6175202D01*
X2575437Y6182147D01*
X2560478Y6188343D01*
X2544287D01*
X2529328Y6182147D01*
X2517879Y6170698D01*
X2511683Y6155739D01*
Y6139548D01*
X2517879Y6124589D01*
X2529328Y6113140D01*
X2544287Y6106944D01*
X2560478D01*
X2575437Y6113140D01*
X2582383Y6120085D01*
X2589328Y6113140D01*
X2604287Y6106944D01*
X2620478D01*
X2635437Y6113140D01*
X2646886Y6124589D01*
X2653083Y6139548D01*
Y6155739D01*
X2646886Y6170698D01*
X2635437Y6182147D01*
X2620478Y6188343D01*
D02*
G37*
G36*
X3179808Y6104027D02*
X3163617D01*
X3148658Y6097831D01*
X3141712Y6090885D01*
X3134767Y6097831D01*
X3119808Y6104027D01*
X3103617D01*
X3088658Y6097831D01*
X3077209Y6086382D01*
X3071012Y6071423D01*
Y6055231D01*
X3077209Y6040272D01*
X3088658Y6028823D01*
X3103617Y6022627D01*
X3119808D01*
X3134767Y6028823D01*
X3141712Y6035769D01*
X3148658Y6028823D01*
X3163617Y6022627D01*
X3179808D01*
X3194767Y6028823D01*
X3206216Y6040272D01*
X3212412Y6055231D01*
Y6071423D01*
X3206216Y6086382D01*
X3194767Y6097831D01*
X3179808Y6104027D01*
D02*
G37*
G36*
X6688096Y6100700D02*
X6671905D01*
X6656946Y6094504D01*
X6650000Y6087558D01*
X6643055Y6094504D01*
X6628096Y6100700D01*
X6611905D01*
X6596946Y6094504D01*
X6585497Y6083055D01*
X6579301Y6068096D01*
Y6051904D01*
X6585497Y6036946D01*
X6592442Y6030000D01*
X6585497Y6023055D01*
X6579301Y6008096D01*
Y5991904D01*
X6585497Y5976945D01*
X6592442Y5970000D01*
X6585497Y5963055D01*
X6579301Y5948096D01*
Y5931904D01*
X6585497Y5916945D01*
X6596946Y5905496D01*
X6611905Y5899300D01*
X6628096D01*
X6643055Y5905496D01*
X6650000Y5912442D01*
X6656946Y5905496D01*
X6671905Y5899300D01*
X6688096D01*
X6703055Y5905496D01*
X6714504Y5916945D01*
X6720700Y5931904D01*
Y5948096D01*
X6714504Y5963055D01*
X6707559Y5970000D01*
X6714504Y5976945D01*
X6720700Y5991904D01*
Y6008096D01*
X6714504Y6023055D01*
X6707558Y6030000D01*
X6714504Y6036946D01*
X6720700Y6051904D01*
Y6068096D01*
X6714504Y6083055D01*
X6703055Y6094504D01*
X6688096Y6100700D01*
D02*
G37*
G36*
X2393096D02*
X2376905D01*
X2361946Y6094504D01*
X2355000Y6087558D01*
X2348055Y6094504D01*
X2333096Y6100700D01*
X2316905D01*
X2301946Y6094504D01*
X2290497Y6083055D01*
X2284300Y6068096D01*
Y6051904D01*
X2290497Y6036946D01*
X2297442Y6030000D01*
X2290497Y6023055D01*
X2284300Y6008096D01*
Y5991904D01*
X2290497Y5976945D01*
X2297442Y5970000D01*
X2290497Y5963055D01*
X2284300Y5948096D01*
Y5931904D01*
X2290497Y5916945D01*
X2301946Y5905496D01*
X2316905Y5899300D01*
X2333096D01*
X2348055Y5905496D01*
X2355000Y5912442D01*
X2361946Y5905496D01*
X2376905Y5899300D01*
X2393096D01*
X2408055Y5905496D01*
X2419504Y5916945D01*
X2425700Y5931904D01*
Y5948096D01*
X2419504Y5963055D01*
X2412559Y5970000D01*
X2419504Y5976945D01*
X2425700Y5991904D01*
Y6008096D01*
X2419504Y6023055D01*
X2412559Y6030000D01*
X2419504Y6036946D01*
X2425700Y6051904D01*
Y6068096D01*
X2419504Y6083055D01*
X2408055Y6094504D01*
X2393096Y6100700D01*
D02*
G37*
G36*
X4932309Y6143969D02*
X4916118D01*
X4901159Y6137772D01*
X4889710Y6126323D01*
X4883514Y6111364D01*
Y6101542D01*
X4873692D01*
X4858733Y6095346D01*
X4847284Y6083897D01*
X4841087Y6068938D01*
Y6052747D01*
X4847284Y6037788D01*
X4858733Y6026339D01*
X4873692Y6020142D01*
X4889883D01*
X4904842Y6026339D01*
X4916291Y6037788D01*
X4922487Y6052747D01*
Y6062569D01*
X4932309D01*
X4947268Y6068765D01*
X4958717Y6080214D01*
X4964914Y6095173D01*
Y6111364D01*
X4958717Y6126323D01*
X4947268Y6137772D01*
X4932309Y6143969D01*
D02*
G37*
G36*
X3744827Y5814914D02*
X3728635D01*
X3713677Y5808717D01*
X3702228Y5797268D01*
X3696031Y5782309D01*
Y5766118D01*
X3702228Y5751159D01*
X3713677Y5739710D01*
X3728635Y5733514D01*
X3738458D01*
Y5723692D01*
X3744654Y5708733D01*
X3756103Y5697284D01*
X3771062Y5691087D01*
X3787253D01*
X3802212Y5697284D01*
X3813661Y5708733D01*
X3819857Y5723692D01*
Y5739883D01*
X3813661Y5754842D01*
X3802212Y5766291D01*
X3787253Y5772487D01*
X3777431D01*
Y5782309D01*
X3771235Y5797268D01*
X3759786Y5808717D01*
X3744827Y5814914D01*
D02*
G37*
G36*
X7368096Y5670699D02*
X7351905D01*
X7336946Y5664503D01*
X7330000Y5657558D01*
X7323055Y5664503D01*
X7308096Y5670699D01*
X7291905D01*
X7276946Y5664503D01*
X7265497Y5653054D01*
X7259300Y5638095D01*
Y5621904D01*
X7265497Y5606945D01*
X7276946Y5595496D01*
X7291905Y5589299D01*
X7308096D01*
X7323055Y5595496D01*
X7330000Y5602441D01*
X7336946Y5595496D01*
X7351905Y5589299D01*
X7368096D01*
X7383055Y5595496D01*
X7394504Y5606945D01*
X7400700Y5621904D01*
Y5638095D01*
X7394504Y5653054D01*
X7383055Y5664503D01*
X7368096Y5670699D01*
D02*
G37*
G36*
X3065642Y5645520D02*
X3049450D01*
X3034491Y5639324D01*
X3023042Y5627875D01*
X3016846Y5612916D01*
Y5596725D01*
X3023042Y5581766D01*
X3034491Y5570317D01*
X3049450Y5564120D01*
X3059272D01*
Y5554298D01*
X3065469Y5539339D01*
X3076918Y5527890D01*
X3091876Y5521694D01*
X3108068D01*
X3123027Y5527890D01*
X3134476Y5539339D01*
X3140672Y5554298D01*
Y5570490D01*
X3134476Y5585449D01*
X3123027Y5596898D01*
X3108068Y5603094D01*
X3098246D01*
Y5612916D01*
X3092049Y5627875D01*
X3080600Y5639324D01*
X3065642Y5645520D01*
D02*
G37*
G36*
X5422309Y5643969D02*
X5406118D01*
X5391159Y5637773D01*
X5379710Y5626324D01*
X5373514Y5611365D01*
Y5601543D01*
X5363692D01*
X5348733Y5595346D01*
X5337284Y5583897D01*
X5331087Y5568938D01*
Y5552747D01*
X5337284Y5537788D01*
X5348733Y5526339D01*
X5363692Y5520143D01*
X5379883D01*
X5394842Y5526339D01*
X5406291Y5537788D01*
X5412487Y5552747D01*
Y5562569D01*
X5422309D01*
X5437268Y5568765D01*
X5448717Y5580214D01*
X5454914Y5595173D01*
Y5611365D01*
X5448717Y5626324D01*
X5437268Y5637773D01*
X5422309Y5643969D01*
D02*
G37*
G36*
X1708095Y5510699D02*
X1691904D01*
X1676945Y5504503D01*
X1670000Y5497557D01*
X1663054Y5504503D01*
X1648096Y5510699D01*
X1631904D01*
X1616945Y5504503D01*
X1605496Y5493054D01*
X1599300Y5478095D01*
Y5461903D01*
X1605496Y5446945D01*
X1616945Y5435496D01*
X1631904Y5429299D01*
X1648096D01*
X1663054Y5435496D01*
X1670000Y5442441D01*
X1676945Y5435496D01*
X1691904Y5429299D01*
X1708095D01*
X1723054Y5435496D01*
X1734503Y5446945D01*
X1740700Y5461903D01*
Y5478095D01*
X1734503Y5493054D01*
X1723054Y5504503D01*
X1708095Y5510699D01*
D02*
G37*
G36*
X3009073Y5563952D02*
X2992881D01*
X2977923Y5557755D01*
X2966474Y5546306D01*
X2960277Y5531348D01*
Y5515156D01*
X2966474Y5500197D01*
X2977923Y5488748D01*
X2992881Y5482552D01*
X3002704D01*
Y5472730D01*
X3008900Y5457771D01*
X3020349Y5446322D01*
X3035308Y5440126D01*
X3051499D01*
X3066458Y5446322D01*
X3077907Y5457771D01*
X3084104Y5472730D01*
Y5488921D01*
X3077907Y5503880D01*
X3066458Y5515329D01*
X3051499Y5521525D01*
X3041677D01*
Y5531348D01*
X3035481Y5546306D01*
X3024032Y5557755D01*
X3009073Y5563952D01*
D02*
G37*
G36*
X4445741Y5620537D02*
X4429549D01*
X4414591Y5614341D01*
X4403142Y5602892D01*
X4396945Y5587933D01*
Y5578111D01*
X4387123D01*
X4372164Y5571915D01*
X4360715Y5560466D01*
X4354519Y5545507D01*
Y5529316D01*
X4360715Y5514357D01*
X4372164Y5502908D01*
X4387123Y5496711D01*
X4403315D01*
X4418273Y5502908D01*
X4425744Y5493302D01*
X4425496Y5493055D01*
X4419300Y5478096D01*
Y5461904D01*
X4425496Y5446945D01*
X4436945Y5435496D01*
X4451904Y5429300D01*
X4468096D01*
X4483055Y5435496D01*
X4494504Y5446945D01*
X4500700Y5461904D01*
Y5471726D01*
X4510522D01*
X4525481Y5477923D01*
X4536930Y5489372D01*
X4543126Y5504331D01*
Y5520522D01*
X4536930Y5535481D01*
X4525481Y5546930D01*
X4510522Y5553126D01*
X4494331D01*
X4479372Y5546930D01*
X4471902Y5556536D01*
X4472149Y5556783D01*
X4478345Y5571742D01*
Y5587933D01*
X4472149Y5602892D01*
X4460700Y5614341D01*
X4445741Y5620537D01*
D02*
G37*
G36*
X6255596Y5400700D02*
X6239405D01*
X6224446Y5394504D01*
X6217500Y5387559D01*
X6210555Y5394504D01*
X6195596Y5400700D01*
X6179405D01*
X6164446Y5394504D01*
X6152997Y5383055D01*
X6146801Y5368096D01*
Y5351905D01*
X6152997Y5336946D01*
X6164446Y5325497D01*
X6179405Y5319301D01*
X6195596D01*
X6210555Y5325497D01*
X6217500Y5332442D01*
X6224446Y5325497D01*
X6239405Y5319301D01*
X6255596D01*
X6270555Y5325497D01*
X6282004Y5336946D01*
X6288200Y5351905D01*
Y5368096D01*
X6282004Y5383055D01*
X6270555Y5394504D01*
X6255596Y5400700D01*
D02*
G37*
G36*
X1960596D02*
X1944405D01*
X1929446Y5394504D01*
X1922500Y5387559D01*
X1915555Y5394504D01*
X1900596Y5400700D01*
X1884405D01*
X1869446Y5394504D01*
X1857997Y5383055D01*
X1851800Y5368096D01*
Y5351905D01*
X1857997Y5336946D01*
X1869446Y5325497D01*
X1884405Y5319301D01*
X1900596D01*
X1915555Y5325497D01*
X1922500Y5332442D01*
X1929446Y5325497D01*
X1944405Y5319301D01*
X1960596D01*
X1975555Y5325497D01*
X1987004Y5336946D01*
X1993200Y5351905D01*
Y5368096D01*
X1987004Y5383055D01*
X1975555Y5394504D01*
X1960596Y5400700D01*
D02*
G37*
G36*
X3384827Y5454914D02*
X3368635D01*
X3353677Y5448717D01*
X3342228Y5437268D01*
X3336031Y5422309D01*
Y5406118D01*
X3342228Y5391159D01*
X3353677Y5379710D01*
X3368635Y5373514D01*
X3378458D01*
Y5363692D01*
X3384654Y5348733D01*
X3396103Y5337284D01*
X3411062Y5331087D01*
X3427253D01*
X3442212Y5337284D01*
X3453661Y5348733D01*
X3459857Y5363692D01*
Y5379883D01*
X3453661Y5394842D01*
X3442212Y5406291D01*
X3427253Y5412487D01*
X3417431D01*
Y5422309D01*
X3411235Y5437268D01*
X3399786Y5448717D01*
X3384827Y5454914D01*
D02*
G37*
G36*
X4880741Y5443037D02*
X4864550D01*
X4849591Y5436841D01*
X4838142Y5425392D01*
X4831945Y5410433D01*
Y5400611D01*
X4822123D01*
X4807164Y5394415D01*
X4795715Y5382966D01*
X4789519Y5368007D01*
Y5351816D01*
X4795715Y5336857D01*
X4807164Y5325408D01*
X4822123Y5319211D01*
X4838315D01*
X4853274Y5325408D01*
X4864723Y5336857D01*
X4870919Y5351816D01*
Y5361637D01*
X4880741D01*
X4895700Y5367834D01*
X4907149Y5379283D01*
X4913345Y5394242D01*
Y5410433D01*
X4907149Y5425392D01*
X4895700Y5436841D01*
X4880741Y5443037D01*
D02*
G37*
G36*
X2747978Y5323344D02*
X2731787D01*
X2716828Y5317148D01*
X2709882Y5310202D01*
X2702937Y5317148D01*
X2687978Y5323344D01*
X2671787D01*
X2656828Y5317148D01*
X2645379Y5305699D01*
X2639182Y5290740D01*
Y5274549D01*
X2645379Y5259590D01*
X2656828Y5248141D01*
X2671787Y5241944D01*
X2687978D01*
X2702937Y5248141D01*
X2709882Y5255086D01*
X2716828Y5248141D01*
X2731787Y5241944D01*
X2747978D01*
X2762937Y5248141D01*
X2774386Y5259590D01*
X2780582Y5274549D01*
Y5290740D01*
X2774386Y5305699D01*
X2762937Y5317148D01*
X2747978Y5323344D01*
D02*
G37*
G36*
X7042978Y5313344D02*
X7026787D01*
X7011828Y5307148D01*
X7004882Y5300203D01*
X6997937Y5307148D01*
X6982978Y5313344D01*
X6966787D01*
X6951828Y5307148D01*
X6940379Y5295699D01*
X6934182Y5280740D01*
Y5264549D01*
X6940379Y5249590D01*
X6951828Y5238141D01*
X6966787Y5231944D01*
X6982978D01*
X6997937Y5238141D01*
X7004882Y5245086D01*
X7011828Y5238141D01*
X7026787Y5231944D01*
X7042978D01*
X7057937Y5238141D01*
X7069386Y5249590D01*
X7075582Y5264549D01*
Y5280740D01*
X7069386Y5295699D01*
X7057937Y5307148D01*
X7042978Y5313344D01*
D02*
G37*
G36*
X3215669Y5268127D02*
X3199478D01*
X3184519Y5261930D01*
X3173070Y5250481D01*
X3166874Y5235522D01*
Y5219331D01*
X3173070Y5204372D01*
X3184519Y5192923D01*
X3199478Y5186727D01*
X3209300D01*
Y5176905D01*
X3215496Y5161946D01*
X3226946Y5150497D01*
X3241904Y5144300D01*
X3258096D01*
X3273055Y5150497D01*
X3284504Y5161946D01*
X3290700Y5176905D01*
Y5193096D01*
X3284504Y5208055D01*
X3273055Y5219504D01*
X3258096Y5225700D01*
X3248274D01*
Y5235522D01*
X3242077Y5250481D01*
X3230628Y5261930D01*
X3215669Y5268127D01*
D02*
G37*
G36*
X3365504Y5215515D02*
X3349312D01*
X3334353Y5209319D01*
X3322904Y5197870D01*
X3316708Y5182911D01*
Y5166720D01*
X3322904Y5151761D01*
X3334353Y5140312D01*
X3349312Y5134115D01*
X3359134D01*
Y5124293D01*
X3365331Y5109334D01*
X3376780Y5097885D01*
X3391738Y5091689D01*
X3407930D01*
X3422889Y5097885D01*
X3434338Y5109334D01*
X3440534Y5124293D01*
Y5140485D01*
X3434338Y5155444D01*
X3422889Y5166893D01*
X3407930Y5173089D01*
X3398108D01*
Y5182911D01*
X3391911Y5197870D01*
X3380462Y5209319D01*
X3365504Y5215515D01*
D02*
G37*
G36*
X5772310Y5283969D02*
X5756118D01*
X5741159Y5277773D01*
X5729710Y5266323D01*
X5723514Y5251365D01*
Y5241542D01*
X5713692D01*
X5698733Y5235346D01*
X5687284Y5223897D01*
X5681087Y5208938D01*
Y5192747D01*
X5687284Y5177788D01*
X5698733Y5166339D01*
X5713692Y5160143D01*
X5729883D01*
X5741772Y5165067D01*
X5748966Y5154301D01*
X5747886Y5153220D01*
X5741690Y5138262D01*
Y5122070D01*
X5747886Y5107111D01*
X5759335Y5095662D01*
X5774294Y5089466D01*
X5790485D01*
X5805444Y5095662D01*
X5816893Y5107111D01*
X5823089Y5122070D01*
Y5131892D01*
X5832912D01*
X5847870Y5138089D01*
X5859319Y5149538D01*
X5865516Y5164496D01*
Y5180688D01*
X5859319Y5195647D01*
X5847870Y5207096D01*
X5832912Y5213292D01*
X5816720D01*
X5804831Y5208367D01*
X5797637Y5219134D01*
X5798717Y5220214D01*
X5804914Y5235173D01*
Y5251365D01*
X5798717Y5266323D01*
X5787268Y5277773D01*
X5772310Y5283969D01*
D02*
G37*
G36*
X3064812Y5093126D02*
X3048620D01*
X3033661Y5086930D01*
X3022212Y5075481D01*
X3016016Y5060522D01*
Y5044331D01*
X3016501Y5043161D01*
X3005734Y5035967D01*
X3004771Y5036930D01*
X2989812Y5043127D01*
X2973620D01*
X2958662Y5036930D01*
X2947213Y5025481D01*
X2941016Y5010522D01*
Y4994331D01*
X2947213Y4979372D01*
X2958662Y4967923D01*
X2973620Y4961727D01*
X2983047D01*
Y4952195D01*
X2989243Y4937236D01*
X3000692Y4925787D01*
X3015651Y4919591D01*
X3031842D01*
X3046801Y4925787D01*
X3058250Y4937236D01*
X3064446Y4952195D01*
Y4968386D01*
X3063962Y4969556D01*
X3074728Y4976750D01*
X3075692Y4975787D01*
X3090651Y4969591D01*
X3106842D01*
X3121801Y4975787D01*
X3133250Y4987236D01*
X3139446Y5002195D01*
Y5018386D01*
X3133250Y5033345D01*
X3121801Y5044794D01*
X3106842Y5050990D01*
X3097416D01*
Y5060522D01*
X3091220Y5075481D01*
X3079771Y5086930D01*
X3064812Y5093126D01*
D02*
G37*
G36*
X5936380Y5118984D02*
X5920188D01*
X5905229Y5112788D01*
X5893780Y5101339D01*
X5887584Y5086380D01*
Y5076558D01*
X5877762D01*
X5862803Y5070361D01*
X5851354Y5058912D01*
X5845157Y5043954D01*
Y5027762D01*
X5851354Y5012803D01*
X5862803Y5001354D01*
X5877762Y4995158D01*
X5893953D01*
X5908912Y5001354D01*
X5920361Y5012803D01*
X5926557Y5027762D01*
Y5037584D01*
X5936380D01*
X5951338Y5043781D01*
X5962787Y5055230D01*
X5968984Y5070188D01*
Y5086380D01*
X5962787Y5101339D01*
X5951338Y5112788D01*
X5936380Y5118984D01*
D02*
G37*
G36*
X3268096Y5115700D02*
X3251904D01*
X3236946Y5109504D01*
X3225496Y5098055D01*
X3219300Y5083096D01*
Y5066904D01*
X3225496Y5051945D01*
X3236946Y5040496D01*
X3251904Y5034300D01*
X3261727D01*
Y5024478D01*
X3267923Y5009519D01*
X3279372Y4998070D01*
X3294331Y4991874D01*
X3310522D01*
X3325481Y4998070D01*
X3336930Y5009519D01*
X3343126Y5024478D01*
Y5040669D01*
X3336930Y5055628D01*
X3325481Y5067077D01*
X3310522Y5073274D01*
X3300700D01*
Y5083096D01*
X3294504Y5098055D01*
X3283055Y5109504D01*
X3268096Y5115700D01*
D02*
G37*
G36*
X7368096Y4970699D02*
X7351905D01*
X7336946Y4964503D01*
X7330000Y4957558D01*
X7323055Y4964503D01*
X7308096Y4970699D01*
X7291905D01*
X7276946Y4964503D01*
X7265497Y4953054D01*
X7259300Y4938095D01*
Y4921904D01*
X7265497Y4906945D01*
X7276946Y4895496D01*
X7291905Y4889300D01*
X7308096D01*
X7323055Y4895496D01*
X7330000Y4902441D01*
X7336946Y4895496D01*
X7351905Y4889300D01*
X7368096D01*
X7383055Y4895496D01*
X7394504Y4906945D01*
X7400700Y4921904D01*
Y4938095D01*
X7394504Y4953054D01*
X7383055Y4964503D01*
X7368096Y4970699D01*
D02*
G37*
G36*
X5780522Y5063126D02*
X5764331D01*
X5749372Y5056930D01*
X5737923Y5045481D01*
X5731726Y5030522D01*
Y5020700D01*
X5721904D01*
X5706945Y5014504D01*
X5695496Y5003055D01*
X5689300Y4988096D01*
Y4971904D01*
X5695496Y4956945D01*
X5706945Y4945496D01*
X5721904Y4939300D01*
X5738096D01*
X5753055Y4945496D01*
X5764504Y4956945D01*
X5770700Y4971904D01*
Y4981726D01*
X5780522D01*
X5795481Y4987923D01*
X5806930Y4999372D01*
X5813126Y5014331D01*
Y5030522D01*
X5806930Y5045481D01*
X5795481Y5056930D01*
X5780522Y5063126D01*
D02*
G37*
G36*
X6037593Y4990198D02*
X6021401D01*
X6006443Y4984001D01*
X5994994Y4972552D01*
X5988797Y4957593D01*
Y4947771D01*
X5978975D01*
X5964016Y4941575D01*
X5952567Y4930126D01*
X5951931Y4928589D01*
X5940197Y4931402D01*
Y4947594D01*
X5934001Y4962552D01*
X5922552Y4974001D01*
X5907593Y4980198D01*
X5891402D01*
X5876443Y4974001D01*
X5864994Y4962552D01*
X5858798Y4947594D01*
Y4937771D01*
X5848975D01*
X5834017Y4931575D01*
X5822567Y4920126D01*
X5816371Y4905167D01*
Y4888976D01*
X5822567Y4874017D01*
X5834017Y4862568D01*
X5848975Y4856372D01*
X5865167D01*
X5880126Y4862568D01*
X5891575Y4874017D01*
X5897771Y4888976D01*
Y4898798D01*
X5907593D01*
X5922552Y4904994D01*
X5934001Y4916443D01*
X5934638Y4917980D01*
X5946371Y4915167D01*
Y4898975D01*
X5952567Y4884017D01*
X5964016Y4872568D01*
X5974250Y4868329D01*
X5975789Y4864807D01*
X5977097Y4855055D01*
X5977003Y4854488D01*
X5967849Y4845334D01*
X5961653Y4830375D01*
Y4820553D01*
X5951830D01*
X5936872Y4814357D01*
X5925422Y4802908D01*
X5919226Y4787949D01*
Y4771757D01*
X5925422Y4756798D01*
X5936872Y4745349D01*
X5951830Y4739153D01*
X5968022D01*
X5982981Y4745349D01*
X5994430Y4756798D01*
X6000626Y4771757D01*
Y4781579D01*
X6010448D01*
X6025407Y4787776D01*
X6036856Y4799225D01*
X6043052Y4814184D01*
Y4830375D01*
X6036856Y4845334D01*
X6025407Y4856783D01*
X6015173Y4861022D01*
X6013634Y4864543D01*
X6012326Y4874296D01*
X6012420Y4874862D01*
X6021574Y4884017D01*
X6027771Y4898975D01*
Y4908798D01*
X6037593D01*
X6052552Y4914994D01*
X6064001Y4926443D01*
X6070197Y4941402D01*
Y4957593D01*
X6064001Y4972552D01*
X6052552Y4984001D01*
X6037593Y4990198D01*
D02*
G37*
G36*
X1708095Y4810699D02*
X1691904D01*
X1676945Y4804503D01*
X1670000Y4797558D01*
X1663054Y4804503D01*
X1648096Y4810699D01*
X1631904D01*
X1616945Y4804503D01*
X1605496Y4793054D01*
X1599300Y4778095D01*
Y4761904D01*
X1605496Y4746945D01*
X1616945Y4735496D01*
X1631904Y4729299D01*
X1648096D01*
X1663054Y4735496D01*
X1670000Y4742441D01*
X1676945Y4735496D01*
X1691904Y4729299D01*
X1708095D01*
X1723054Y4735496D01*
X1734503Y4746945D01*
X1740700Y4761904D01*
Y4778095D01*
X1734503Y4793054D01*
X1723054Y4804503D01*
X1708095Y4810699D01*
D02*
G37*
G36*
X3048096Y4895699D02*
X3031904D01*
X3016945Y4889503D01*
X3005496Y4878053D01*
X2999300Y4863095D01*
Y4846903D01*
X3005496Y4831944D01*
X3016945Y4820495D01*
X3031904Y4814299D01*
X3041726D01*
Y4804477D01*
X3047923Y4789518D01*
X3059372Y4778069D01*
X3074331Y4771873D01*
X3090522D01*
X3105481Y4778069D01*
X3116930Y4789518D01*
X3123126Y4804477D01*
Y4820668D01*
X3116930Y4835627D01*
X3105481Y4847076D01*
X3090522Y4853272D01*
X3080700D01*
Y4863095D01*
X3074504Y4878053D01*
X3063055Y4889503D01*
X3048096Y4895699D01*
D02*
G37*
G36*
X2828258Y4848345D02*
X2812067D01*
X2797108Y4842149D01*
X2785659Y4830700D01*
X2779463Y4815741D01*
Y4799549D01*
X2785659Y4784591D01*
X2797108Y4773142D01*
X2812067Y4766945D01*
X2821889D01*
Y4757123D01*
X2828085Y4742164D01*
X2839534Y4730715D01*
X2854493Y4724519D01*
X2870684D01*
X2885643Y4730715D01*
X2897092Y4742164D01*
X2903289Y4757123D01*
Y4773315D01*
X2897092Y4788273D01*
X2885643Y4799722D01*
X2870684Y4805919D01*
X2860862D01*
Y4815741D01*
X2854666Y4830700D01*
X2843217Y4842149D01*
X2828258Y4848345D01*
D02*
G37*
G36*
X6080448Y4797979D02*
X6064257D01*
X6049298Y4791783D01*
X6037849Y4780334D01*
X6031653Y4765375D01*
Y4755553D01*
X6021830D01*
X6006872Y4749357D01*
X5995423Y4737907D01*
X5989226Y4722949D01*
Y4706757D01*
X5995423Y4691798D01*
X6006872Y4680349D01*
X6021830Y4674153D01*
X6038022D01*
X6052981Y4680349D01*
X6064430Y4691798D01*
X6070626Y4706757D01*
Y4716579D01*
X6080448D01*
X6095407Y4722776D01*
X6106856Y4734225D01*
X6113053Y4749184D01*
Y4765375D01*
X6106856Y4780334D01*
X6095407Y4791783D01*
X6080448Y4797979D01*
D02*
G37*
G36*
X3454692Y4754874D02*
X3438501D01*
X3423542Y4748678D01*
X3412093Y4737229D01*
X3405896Y4722270D01*
Y4706079D01*
X3412093Y4691120D01*
X3423542Y4679671D01*
X3438501Y4673475D01*
X3448323D01*
Y4663652D01*
X3454519Y4648694D01*
X3465968Y4637244D01*
X3480927Y4631048D01*
X3497118D01*
X3512077Y4637244D01*
X3523526Y4648694D01*
X3529723Y4663652D01*
Y4679844D01*
X3523526Y4694803D01*
X3512077Y4706252D01*
X3497118Y4712448D01*
X3487296D01*
Y4722270D01*
X3481100Y4737229D01*
X3469651Y4748678D01*
X3454692Y4754874D01*
D02*
G37*
G36*
X2826383Y4586515D02*
X2810192D01*
X2795233Y4580319D01*
X2788288Y4573374D01*
X2781342Y4580319D01*
X2766383Y4586515D01*
X2750192D01*
X2735233Y4580319D01*
X2723784Y4568870D01*
X2717587Y4553911D01*
Y4537720D01*
X2723784Y4522761D01*
X2735233Y4511312D01*
X2743980Y4507689D01*
Y4493942D01*
X2735233Y4490319D01*
X2723784Y4478870D01*
X2717587Y4463911D01*
Y4447720D01*
X2723784Y4432761D01*
X2735233Y4421312D01*
X2750192Y4415115D01*
X2766383D01*
X2781342Y4421312D01*
X2788288Y4428257D01*
X2795233Y4421312D01*
X2810192Y4415115D01*
X2826383D01*
X2841342Y4421312D01*
X2852791Y4432761D01*
X2858987Y4447720D01*
Y4463911D01*
X2852791Y4478870D01*
X2841342Y4490319D01*
X2832595Y4493942D01*
Y4507689D01*
X2841342Y4511312D01*
X2852791Y4522761D01*
X2858987Y4537720D01*
Y4553911D01*
X2852791Y4568870D01*
X2841342Y4580319D01*
X2826383Y4586515D01*
D02*
G37*
G36*
X3385669Y4683126D02*
X3369478D01*
X3354519Y4676930D01*
X3343070Y4665481D01*
X3336874Y4650522D01*
Y4634331D01*
X3343070Y4619372D01*
X3354519Y4607923D01*
X3369478Y4601726D01*
X3379300D01*
Y4591904D01*
X3385496Y4576945D01*
X3396945Y4565496D01*
X3411904Y4559300D01*
X3428096D01*
X3443055Y4565496D01*
X3454504Y4576945D01*
X3460700Y4591904D01*
Y4608096D01*
X3454504Y4623055D01*
X3443055Y4634504D01*
X3428096Y4640700D01*
X3418274D01*
Y4650522D01*
X3412077Y4665481D01*
X3400628Y4676930D01*
X3385669Y4683126D01*
D02*
G37*
G36*
X3785741Y4660537D02*
X3769549D01*
X3754591Y4654341D01*
X3743142Y4642892D01*
X3736945Y4627933D01*
Y4618111D01*
X3727123D01*
X3712164Y4611915D01*
X3700715Y4600466D01*
X3694519Y4585507D01*
Y4569315D01*
X3700715Y4554357D01*
X3712164Y4542908D01*
X3727123Y4536711D01*
X3743315D01*
X3758273Y4542908D01*
X3769722Y4554357D01*
X3775919Y4569315D01*
Y4579137D01*
X3785741D01*
X3800700Y4585334D01*
X3812149Y4596783D01*
X3818345Y4611742D01*
Y4627933D01*
X3812149Y4642892D01*
X3800700Y4654341D01*
X3785741Y4660537D01*
D02*
G37*
G36*
X6265835Y4571420D02*
X6249644D01*
X6234685Y4565224D01*
X6223236Y4553774D01*
X6217039Y4538816D01*
Y4522624D01*
X6223236Y4507665D01*
X6230181Y4500720D01*
X6223236Y4493775D01*
X6217039Y4478816D01*
Y4462624D01*
X6223236Y4447665D01*
X6234685Y4436216D01*
X6249644Y4430020D01*
X6265835D01*
X6280794Y4436216D01*
X6292243Y4447665D01*
X6298439Y4462624D01*
Y4478816D01*
X6292243Y4493775D01*
X6285298Y4500720D01*
X6292243Y4507665D01*
X6298439Y4522624D01*
Y4538816D01*
X6292243Y4553774D01*
X6280794Y4565224D01*
X6265835Y4571420D01*
D02*
G37*
G36*
X3438167Y4415476D02*
X3421976D01*
X3407017Y4409280D01*
X3395568Y4397831D01*
X3389372Y4382872D01*
Y4373050D01*
X3379550D01*
X3364591Y4366854D01*
X3353142Y4355405D01*
X3346945Y4340446D01*
Y4324254D01*
X3353142Y4309295D01*
X3364591Y4297846D01*
X3379550Y4291650D01*
X3395741D01*
X3410700Y4297846D01*
X3422149Y4309295D01*
X3428345Y4324254D01*
Y4334076D01*
X3438167D01*
X3453126Y4340273D01*
X3464575Y4351722D01*
X3470772Y4366681D01*
Y4382872D01*
X3464575Y4397831D01*
X3453126Y4409280D01*
X3438167Y4415476D01*
D02*
G37*
G36*
X5668170Y4400847D02*
X5651978D01*
X5637019Y4394651D01*
X5625570Y4383202D01*
X5619374Y4368243D01*
Y4358421D01*
X5609552D01*
X5594593Y4352225D01*
X5583144Y4340776D01*
X5576948Y4325817D01*
Y4309625D01*
X5583144Y4294667D01*
X5573820Y4286515D01*
X5573074Y4287262D01*
X5558115Y4293458D01*
X5541924D01*
X5526965Y4287262D01*
X5515516Y4275813D01*
X5509319Y4260854D01*
Y4251032D01*
X5499498D01*
X5484539Y4244835D01*
X5473090Y4233386D01*
X5466893Y4218427D01*
Y4202236D01*
X5473090Y4187277D01*
X5484539Y4175828D01*
X5499498Y4169632D01*
X5515689D01*
X5530648Y4175828D01*
X5542097Y4187277D01*
X5548293Y4202236D01*
Y4212058D01*
X5558115D01*
X5573074Y4218254D01*
X5584523Y4229704D01*
X5590719Y4244662D01*
Y4260854D01*
X5584523Y4275812D01*
X5593847Y4283964D01*
X5594593Y4283217D01*
X5609552Y4277021D01*
X5625743D01*
X5640702Y4283217D01*
X5652151Y4294667D01*
X5658348Y4309625D01*
Y4319448D01*
X5668170D01*
X5683129Y4325644D01*
X5694578Y4337093D01*
X5700774Y4352052D01*
Y4368243D01*
X5694578Y4383202D01*
X5683129Y4394651D01*
X5668170Y4400847D01*
D02*
G37*
G36*
X2326423Y4298988D02*
X2310231D01*
X2295273Y4292791D01*
X2283823Y4281342D01*
X2280200Y4272595D01*
X2266454D01*
X2262831Y4281342D01*
X2251382Y4292791D01*
X2236423Y4298988D01*
X2220231D01*
X2205272Y4292791D01*
X2193823Y4281342D01*
X2187627Y4266383D01*
Y4250192D01*
X2193823Y4235233D01*
X2200769Y4228288D01*
X2193823Y4221342D01*
X2187627Y4206383D01*
Y4190192D01*
X2193823Y4175233D01*
X2205272Y4163784D01*
X2220231Y4157588D01*
X2236423D01*
X2251382Y4163784D01*
X2262831Y4175233D01*
X2266454Y4183980D01*
X2280200D01*
X2283823Y4175233D01*
X2295273Y4163784D01*
X2310231Y4157588D01*
X2326423D01*
X2341382Y4163784D01*
X2352831Y4175233D01*
X2359027Y4190192D01*
Y4206383D01*
X2352831Y4221342D01*
X2345885Y4228288D01*
X2352831Y4235233D01*
X2359027Y4250192D01*
Y4266383D01*
X2352831Y4281342D01*
X2341382Y4292791D01*
X2326423Y4298988D01*
D02*
G37*
G36*
X7368096Y4270700D02*
X7351905D01*
X7336946Y4264503D01*
X7330000Y4257558D01*
X7323055Y4264503D01*
X7308096Y4270700D01*
X7291905D01*
X7276946Y4264503D01*
X7265497Y4253054D01*
X7259300Y4238095D01*
Y4221904D01*
X7265497Y4206945D01*
X7276946Y4195496D01*
X7291905Y4189300D01*
X7308096D01*
X7323055Y4195496D01*
X7330000Y4202441D01*
X7336946Y4195496D01*
X7351905Y4189300D01*
X7368096D01*
X7383055Y4195496D01*
X7394504Y4206945D01*
X7400700Y4221904D01*
Y4238095D01*
X7394504Y4253054D01*
X7383055Y4264503D01*
X7368096Y4270700D01*
D02*
G37*
G36*
X2983954Y4316557D02*
X2967763D01*
X2952804Y4310361D01*
X2941355Y4298912D01*
X2935158Y4283953D01*
Y4274131D01*
X2925336D01*
X2910377Y4267935D01*
X2898928Y4256486D01*
X2892732Y4241527D01*
Y4225335D01*
X2898928Y4210376D01*
X2910377Y4198927D01*
X2925336Y4192731D01*
X2941528D01*
X2956487Y4198927D01*
X2967936Y4210376D01*
X2974132Y4225335D01*
Y4235157D01*
X2983954D01*
X2998913Y4241354D01*
X3010362Y4252803D01*
X3016558Y4267762D01*
Y4283953D01*
X3010362Y4298912D01*
X2998913Y4310361D01*
X2983954Y4316557D01*
D02*
G37*
G36*
X6174827Y4284914D02*
X6158635D01*
X6143677Y4278717D01*
X6132228Y4267268D01*
X6126031Y4252310D01*
Y4236118D01*
X6132228Y4221159D01*
X6143677Y4209710D01*
X6158635Y4203514D01*
X6168458D01*
Y4193692D01*
X6174654Y4178733D01*
X6186103Y4167284D01*
X6201062Y4161087D01*
X6217253D01*
X6232212Y4167284D01*
X6243661Y4178733D01*
X6249857Y4193692D01*
Y4209883D01*
X6243661Y4224842D01*
X6232212Y4236291D01*
X6217253Y4242487D01*
X6207431D01*
Y4252310D01*
X6201235Y4267268D01*
X6189786Y4278717D01*
X6174827Y4284914D01*
D02*
G37*
G36*
X7058044Y4280856D02*
X7041852D01*
X7026893Y4274660D01*
X7015444Y4263211D01*
X7009248Y4248252D01*
Y4232061D01*
X7015444Y4217102D01*
X7022390Y4210156D01*
X7015444Y4203211D01*
X7009248Y4188252D01*
Y4172061D01*
X7015444Y4157102D01*
X7026893Y4145653D01*
X7041852Y4139457D01*
X7058044D01*
X7073003Y4145653D01*
X7084452Y4157102D01*
X7090648Y4172061D01*
Y4188252D01*
X7084452Y4203211D01*
X7077506Y4210156D01*
X7084452Y4217102D01*
X7090648Y4232061D01*
Y4248252D01*
X7084452Y4263211D01*
X7073003Y4274660D01*
X7058044Y4280856D01*
D02*
G37*
G36*
X1708095Y4110699D02*
X1691904D01*
X1676945Y4104503D01*
X1670000Y4097558D01*
X1663054Y4104503D01*
X1648096Y4110699D01*
X1631904D01*
X1616945Y4104503D01*
X1605496Y4093054D01*
X1599300Y4078095D01*
Y4061904D01*
X1605496Y4046945D01*
X1616945Y4035496D01*
X1631904Y4029300D01*
X1648096D01*
X1663054Y4035496D01*
X1670000Y4042441D01*
X1676945Y4035496D01*
X1691904Y4029300D01*
X1708095D01*
X1723054Y4035496D01*
X1734503Y4046945D01*
X1740700Y4061904D01*
Y4078095D01*
X1734503Y4093054D01*
X1723054Y4104503D01*
X1708095Y4110699D01*
D02*
G37*
G36*
X3088954Y4210699D02*
X3072763D01*
X3057804Y4204503D01*
X3046355Y4193054D01*
X3040159Y4178095D01*
Y4168273D01*
X3030337D01*
X3015378Y4162077D01*
X3003929Y4150628D01*
X2997732Y4135669D01*
Y4119477D01*
X3003929Y4104519D01*
X3015378Y4093070D01*
X3030337Y4086873D01*
X3046528D01*
X3061487Y4093070D01*
X3072936Y4104519D01*
X3079132Y4119477D01*
Y4129300D01*
X3088954D01*
X3103913Y4135496D01*
X3115362Y4146945D01*
X3121559Y4161904D01*
Y4178095D01*
X3115362Y4193054D01*
X3103913Y4204503D01*
X3088954Y4210699D01*
D02*
G37*
G36*
X2933954Y4170700D02*
X2917762D01*
X2902803Y4164503D01*
X2891354Y4153054D01*
X2885158Y4138096D01*
Y4128273D01*
X2875336D01*
X2860377Y4122077D01*
X2848928Y4110628D01*
X2842732Y4095669D01*
Y4079478D01*
X2848928Y4064519D01*
X2860377Y4053070D01*
X2875336Y4046874D01*
X2891527D01*
X2906486Y4053070D01*
X2917935Y4064519D01*
X2924132Y4079478D01*
Y4089300D01*
X2933954D01*
X2948913Y4095496D01*
X2960362Y4106945D01*
X2966558Y4121904D01*
Y4138096D01*
X2960362Y4153054D01*
X2948913Y4164503D01*
X2933954Y4170700D01*
D02*
G37*
G36*
X5857385Y4167269D02*
X5841194D01*
X5826235Y4161072D01*
X5814786Y4149623D01*
X5808589Y4134665D01*
Y4118473D01*
X5814786Y4103514D01*
X5826235Y4092065D01*
X5841194Y4085869D01*
X5851016D01*
Y4076047D01*
X5857212Y4061088D01*
X5868661Y4049639D01*
X5883620Y4043443D01*
X5899811D01*
X5914770Y4049639D01*
X5926219Y4061088D01*
X5932416Y4076047D01*
Y4092238D01*
X5926219Y4107197D01*
X5914770Y4118646D01*
X5899811Y4124842D01*
X5889989D01*
Y4134665D01*
X5883793Y4149623D01*
X5872344Y4161072D01*
X5857385Y4167269D01*
D02*
G37*
G36*
X6298044Y4120856D02*
X6281852D01*
X6266893Y4114660D01*
X6255444Y4103211D01*
X6249248Y4088252D01*
Y4072061D01*
X6255444Y4057102D01*
X6262390Y4050156D01*
X6255444Y4043211D01*
X6249248Y4028252D01*
Y4012061D01*
X6255444Y3997102D01*
X6266893Y3985653D01*
X6281852Y3979457D01*
X6298044D01*
X6313003Y3985653D01*
X6324452Y3997102D01*
X6330648Y4012061D01*
Y4028252D01*
X6324452Y4043211D01*
X6317506Y4050156D01*
X6324452Y4057102D01*
X6330648Y4072061D01*
Y4088252D01*
X6324452Y4103211D01*
X6313003Y4114660D01*
X6298044Y4120856D01*
D02*
G37*
G36*
X5773954Y4080700D02*
X5757762D01*
X5742804Y4074504D01*
X5731355Y4063055D01*
X5725158Y4048096D01*
Y4031905D01*
X5731355Y4016946D01*
X5742804Y4005497D01*
X5757762Y3999300D01*
X5767584D01*
Y3989478D01*
X5773781Y3974519D01*
X5785230Y3963070D01*
X5800189Y3956874D01*
X5816380D01*
X5831339Y3963070D01*
X5842788Y3974519D01*
X5848984Y3989478D01*
Y4005670D01*
X5842788Y4020628D01*
X5831339Y4032078D01*
X5816380Y4038274D01*
X5806558D01*
Y4048096D01*
X5800362Y4063055D01*
X5788913Y4074504D01*
X5773954Y4080700D01*
D02*
G37*
G36*
X5288170Y4060848D02*
X5271978D01*
X5257019Y4054651D01*
X5245570Y4043202D01*
X5239374Y4028243D01*
Y4018421D01*
X5229552D01*
X5214593Y4012225D01*
X5203144Y4000776D01*
X5196948Y3985817D01*
Y3969626D01*
X5203144Y3954667D01*
X5214593Y3943218D01*
X5229552Y3937021D01*
X5245743D01*
X5260702Y3943218D01*
X5272151Y3954667D01*
X5278348Y3969626D01*
Y3979448D01*
X5288170D01*
X5303128Y3985644D01*
X5314577Y3997093D01*
X5320774Y4012052D01*
Y4028243D01*
X5314577Y4043202D01*
X5303128Y4054651D01*
X5288170Y4060848D01*
D02*
G37*
G36*
X3042238Y4060700D02*
X3026047D01*
X3011088Y4054503D01*
X2999639Y4043054D01*
X2993443Y4028095D01*
Y4018273D01*
X2983620D01*
X2968662Y4012077D01*
X2957213Y4000628D01*
X2951016Y3985669D01*
Y3969478D01*
X2957213Y3954519D01*
X2968662Y3943070D01*
X2983620Y3936874D01*
X2999812D01*
X3014771Y3943070D01*
X3026220Y3954519D01*
X3032416Y3969478D01*
Y3979300D01*
X3042238D01*
X3057197Y3985496D01*
X3068646Y3996945D01*
X3074842Y4011904D01*
Y4028095D01*
X3068646Y4043054D01*
X3057197Y4054503D01*
X3042238Y4060700D01*
D02*
G37*
G36*
X5917385Y4017268D02*
X5901194D01*
X5886235Y4011072D01*
X5874786Y3999623D01*
X5868589Y3984664D01*
Y3968473D01*
X5874786Y3953514D01*
X5886235Y3942065D01*
X5901194Y3935868D01*
X5911016D01*
Y3926046D01*
X5917212Y3911087D01*
X5928661Y3899638D01*
X5943620Y3893442D01*
X5959812D01*
X5974770Y3899638D01*
X5986219Y3911087D01*
X5992416Y3926046D01*
Y3942238D01*
X5986219Y3957197D01*
X5974770Y3968646D01*
X5959812Y3974842D01*
X5949989D01*
Y3984664D01*
X5943793Y3999623D01*
X5932344Y4011072D01*
X5917385Y4017268D01*
D02*
G37*
G36*
X5838598Y3940197D02*
X5822407D01*
X5807448Y3934001D01*
X5795999Y3922552D01*
X5789802Y3907593D01*
Y3891401D01*
X5795999Y3876443D01*
X5807448Y3864994D01*
X5822407Y3858797D01*
X5832229D01*
Y3848975D01*
X5838425Y3834016D01*
X5849874Y3822567D01*
X5864833Y3816371D01*
X5881024D01*
X5895983Y3822567D01*
X5907432Y3834016D01*
X5913629Y3848975D01*
Y3865167D01*
X5907432Y3880125D01*
X5895983Y3891574D01*
X5881024Y3897771D01*
X5871202D01*
Y3907593D01*
X5865006Y3922552D01*
X5853557Y3934001D01*
X5838598Y3940197D01*
D02*
G37*
G36*
X2679808Y3814027D02*
X2663617D01*
X2648658Y3807831D01*
X2641712Y3800885D01*
X2634767Y3807831D01*
X2619808Y3814027D01*
X2603617D01*
X2588658Y3807831D01*
X2577209Y3796382D01*
X2571012Y3781423D01*
Y3765231D01*
X2577209Y3750272D01*
X2588658Y3738823D01*
X2603617Y3732627D01*
X2619808D01*
X2634767Y3738823D01*
X2641712Y3745769D01*
X2648658Y3738823D01*
X2663617Y3732627D01*
X2679808D01*
X2694767Y3738823D01*
X2706216Y3750272D01*
X2712412Y3765231D01*
Y3781423D01*
X2706216Y3796382D01*
X2694767Y3807831D01*
X2679808Y3814027D01*
D02*
G37*
G36*
X5675035Y3795416D02*
X5658843D01*
X5643885Y3789220D01*
X5632436Y3777771D01*
X5626239Y3762812D01*
Y3746621D01*
X5632436Y3731662D01*
X5643885Y3720213D01*
X5658843Y3714016D01*
X5668666D01*
Y3704194D01*
X5674862Y3689235D01*
X5686311Y3677786D01*
X5701270Y3671590D01*
X5717461D01*
X5732420Y3677786D01*
X5743869Y3689235D01*
X5750065Y3704194D01*
Y3720386D01*
X5743869Y3735345D01*
X5732420Y3746794D01*
X5717461Y3752990D01*
X5707639D01*
Y3762812D01*
X5701443Y3777771D01*
X5689994Y3789220D01*
X5675035Y3795416D01*
D02*
G37*
G36*
X2158096Y3690700D02*
X2141904D01*
X2126945Y3684504D01*
X2115496Y3673055D01*
X2109300Y3658096D01*
Y3641904D01*
X2115496Y3626946D01*
X2126945Y3615496D01*
X2141904Y3609300D01*
X2158096D01*
X2173055Y3615496D01*
X2181132Y3623573D01*
X2190215Y3614490D01*
X2205173Y3608294D01*
X2221365D01*
X2236324Y3614490D01*
X2247773Y3625939D01*
X2253969Y3640898D01*
Y3657090D01*
X2247773Y3672049D01*
X2236324Y3683498D01*
X2221365Y3689694D01*
X2205173D01*
X2190215Y3683498D01*
X2182138Y3675421D01*
X2173055Y3684504D01*
X2158096Y3690700D01*
D02*
G37*
G36*
X6478148Y3710544D02*
X6461956D01*
X6446998Y3704347D01*
X6435548Y3692898D01*
X6429352Y3677939D01*
Y3661748D01*
X6435548Y3646789D01*
X6442494Y3639843D01*
X6435548Y3632898D01*
X6429352Y3617939D01*
Y3601748D01*
X6435548Y3586789D01*
X6446998Y3575340D01*
X6461956Y3569143D01*
X6478148D01*
X6493107Y3575340D01*
X6504556Y3586789D01*
X6510752Y3601748D01*
Y3617939D01*
X6504556Y3632898D01*
X6497610Y3639843D01*
X6504556Y3646789D01*
X6510752Y3661748D01*
Y3677939D01*
X6504556Y3692898D01*
X6493107Y3704347D01*
X6478148Y3710544D01*
D02*
G37*
G36*
X6338148D02*
X6321956D01*
X6306998Y3704347D01*
X6295548Y3692898D01*
X6289352Y3677939D01*
Y3661748D01*
X6295548Y3646789D01*
X6302494Y3639843D01*
X6295548Y3632898D01*
X6289352Y3617939D01*
Y3601748D01*
X6295548Y3586789D01*
X6306998Y3575340D01*
X6321956Y3569143D01*
X6338148D01*
X6353107Y3575340D01*
X6364556Y3586789D01*
X6370752Y3601748D01*
Y3617939D01*
X6364556Y3632898D01*
X6357610Y3639843D01*
X6364556Y3646789D01*
X6370752Y3661748D01*
Y3677939D01*
X6364556Y3692898D01*
X6353107Y3704347D01*
X6338148Y3710544D01*
D02*
G37*
G36*
X6128148D02*
X6111956D01*
X6096997Y3704347D01*
X6085548Y3692898D01*
X6079352Y3677939D01*
Y3661748D01*
X6085548Y3646789D01*
X6092494Y3639843D01*
X6085548Y3632898D01*
X6079352Y3617939D01*
Y3601748D01*
X6085548Y3586789D01*
X6096997Y3575340D01*
X6111956Y3569143D01*
X6128148D01*
X6143107Y3575340D01*
X6154556Y3586789D01*
X6160752Y3601748D01*
Y3617939D01*
X6154556Y3632898D01*
X6147610Y3639843D01*
X6154556Y3646789D01*
X6160752Y3661748D01*
Y3677939D01*
X6154556Y3692898D01*
X6143107Y3704347D01*
X6128148Y3710544D01*
D02*
G37*
G36*
X5988148D02*
X5971956D01*
X5956997Y3704347D01*
X5945548Y3692898D01*
X5939352Y3677939D01*
Y3661748D01*
X5945548Y3646789D01*
X5952494Y3639843D01*
X5945548Y3632898D01*
X5939352Y3617939D01*
Y3601748D01*
X5945548Y3586789D01*
X5956997Y3575340D01*
X5971956Y3569143D01*
X5988148D01*
X6003107Y3575340D01*
X6014556Y3586789D01*
X6020752Y3601748D01*
Y3617939D01*
X6014556Y3632898D01*
X6007610Y3639843D01*
X6014556Y3646789D01*
X6020752Y3661748D01*
Y3677939D01*
X6014556Y3692898D01*
X6003107Y3704347D01*
X5988148Y3710544D01*
D02*
G37*
G36*
X4740817Y3683052D02*
X4724626D01*
X4709667Y3676856D01*
X4698218Y3665407D01*
X4692021Y3650448D01*
Y3634257D01*
X4698218Y3619298D01*
X4709667Y3607849D01*
X4724626Y3601652D01*
X4734448D01*
Y3591830D01*
X4740644Y3576871D01*
X4752093Y3565422D01*
X4767052Y3559226D01*
X4783243D01*
X4798202Y3565422D01*
X4809651Y3576871D01*
X4815848Y3591830D01*
Y3608022D01*
X4809651Y3622981D01*
X4798202Y3634430D01*
X4783243Y3640626D01*
X4773421D01*
Y3650448D01*
X4767225Y3665407D01*
X4755776Y3676856D01*
X4740817Y3683052D01*
D02*
G37*
G36*
X7368096Y3570700D02*
X7351905D01*
X7336946Y3564503D01*
X7330000Y3557558D01*
X7323055Y3564503D01*
X7308096Y3570700D01*
X7291905D01*
X7276946Y3564503D01*
X7265497Y3553054D01*
X7259300Y3538096D01*
Y3521904D01*
X7265497Y3506945D01*
X7276946Y3495496D01*
X7291905Y3489300D01*
X7308096D01*
X7323055Y3495496D01*
X7330000Y3502442D01*
X7336946Y3495496D01*
X7351905Y3489300D01*
X7368096D01*
X7383055Y3495496D01*
X7394504Y3506945D01*
X7400700Y3521904D01*
Y3538096D01*
X7394504Y3553054D01*
X7383055Y3564503D01*
X7368096Y3570700D01*
D02*
G37*
G36*
X2639808Y3564027D02*
X2623617D01*
X2608658Y3557831D01*
X2601712Y3550885D01*
X2594767Y3557831D01*
X2579808Y3564027D01*
X2563616D01*
X2548658Y3557831D01*
X2537209Y3546382D01*
X2531012Y3531423D01*
Y3515231D01*
X2537209Y3500272D01*
X2548658Y3488823D01*
X2563616Y3482627D01*
X2579808D01*
X2594767Y3488823D01*
X2601712Y3495769D01*
X2608658Y3488823D01*
X2623617Y3482627D01*
X2639808D01*
X2654767Y3488823D01*
X2666216Y3500272D01*
X2672412Y3515231D01*
Y3531423D01*
X2666216Y3546382D01*
X2654767Y3557831D01*
X2639808Y3564027D01*
D02*
G37*
G36*
X4228735Y3664710D02*
X4212543D01*
X4197584Y3658514D01*
X4186135Y3647065D01*
X4179939Y3632106D01*
Y3622284D01*
X4170117D01*
X4155158Y3616087D01*
X4143709Y3604638D01*
X4137513Y3589679D01*
Y3573488D01*
X4143709Y3558529D01*
X4155158Y3547080D01*
X4170117Y3540884D01*
X4186308D01*
X4201267Y3547080D01*
X4212716Y3558529D01*
X4218913Y3573488D01*
Y3583310D01*
X4228735D01*
X4243694Y3589506D01*
X4255143Y3600955D01*
X4261339Y3615914D01*
Y3632106D01*
X4255143Y3647065D01*
X4243694Y3658514D01*
X4228735Y3664710D01*
D02*
G37*
G36*
X6848044Y3640857D02*
X6831852D01*
X6816893Y3634660D01*
X6805444Y3623211D01*
X6799248Y3608252D01*
Y3592061D01*
X6805444Y3577102D01*
X6812390Y3570157D01*
X6805444Y3563211D01*
X6799248Y3548252D01*
Y3532061D01*
X6805444Y3517102D01*
X6816893Y3505653D01*
X6831852Y3499457D01*
X6848044D01*
X6863003Y3505653D01*
X6874452Y3517102D01*
X6880648Y3532061D01*
Y3548252D01*
X6874452Y3563211D01*
X6867506Y3570157D01*
X6874452Y3577102D01*
X6880648Y3592061D01*
Y3608252D01*
X6874452Y3623211D01*
X6863003Y3634660D01*
X6848044Y3640857D01*
D02*
G37*
G36*
X4665817Y3608052D02*
X4649625D01*
X4634667Y3601856D01*
X4623218Y3590407D01*
X4617021Y3575448D01*
Y3559257D01*
X4623218Y3544298D01*
X4634667Y3532849D01*
X4649625Y3526653D01*
X4659448D01*
Y3516830D01*
X4665644Y3501872D01*
X4677093Y3490423D01*
X4692052Y3484226D01*
X4708243D01*
X4723202Y3490423D01*
X4734651Y3501872D01*
X4740848Y3516830D01*
Y3533022D01*
X4734651Y3547981D01*
X4723202Y3559430D01*
X4708243Y3565626D01*
X4698421D01*
Y3575448D01*
X4692225Y3590407D01*
X4680776Y3601856D01*
X4665817Y3608052D01*
D02*
G37*
G36*
X2158096Y3565700D02*
X2141904D01*
X2126945Y3559504D01*
X2115496Y3548055D01*
X2109300Y3533096D01*
Y3516904D01*
X2115496Y3501945D01*
X2126945Y3490496D01*
X2141904Y3484300D01*
X2158096D01*
X2173055Y3490496D01*
X2181572Y3499014D01*
X2190522Y3490065D01*
X2205481Y3483868D01*
X2221672D01*
X2236631Y3490065D01*
X2248080Y3501514D01*
X2254277Y3516473D01*
Y3532664D01*
X2248080Y3547623D01*
X2236631Y3559072D01*
X2221672Y3565268D01*
X2205481D01*
X2190522Y3559072D01*
X2182004Y3550554D01*
X2173055Y3559504D01*
X2158096Y3565700D01*
D02*
G37*
G36*
X3316308Y3549858D02*
X3300117D01*
X3285158Y3543661D01*
X3273709Y3532212D01*
X3267513Y3517253D01*
Y3507431D01*
X3257690D01*
X3242732Y3501235D01*
X3231283Y3489786D01*
X3225086Y3474827D01*
Y3458635D01*
X3231283Y3443677D01*
X3242732Y3432228D01*
X3257690Y3426031D01*
X3273882D01*
X3288841Y3432228D01*
X3300290Y3443677D01*
X3306486Y3458635D01*
Y3468458D01*
X3316308D01*
X3331267Y3474654D01*
X3342716Y3486103D01*
X3348913Y3501062D01*
Y3517253D01*
X3342716Y3532212D01*
X3331267Y3543661D01*
X3316308Y3549858D01*
D02*
G37*
G36*
X2221058Y3436849D02*
X2204867D01*
X2189908Y3430653D01*
X2181472Y3422217D01*
X2173343Y3430345D01*
X2158384Y3436542D01*
X2142193D01*
X2127234Y3430345D01*
X2115785Y3418896D01*
X2109589Y3403937D01*
Y3387746D01*
X2115785Y3372787D01*
X2127234Y3361338D01*
X2142193Y3355142D01*
X2158384D01*
X2173343Y3361338D01*
X2181779Y3369774D01*
X2189908Y3361645D01*
X2204867Y3355449D01*
X2221058D01*
X2236017Y3361645D01*
X2247466Y3373094D01*
X2253662Y3388053D01*
Y3404245D01*
X2247466Y3419203D01*
X2236017Y3430653D01*
X2221058Y3436849D01*
D02*
G37*
G36*
X1708095Y3410700D02*
X1691904D01*
X1676945Y3404503D01*
X1670000Y3397558D01*
X1663054Y3404503D01*
X1648096Y3410700D01*
X1631904D01*
X1616945Y3404503D01*
X1605496Y3393054D01*
X1599300Y3378095D01*
Y3361904D01*
X1605496Y3346945D01*
X1616945Y3335496D01*
X1631904Y3329300D01*
X1648096D01*
X1663054Y3335496D01*
X1670000Y3342441D01*
X1676945Y3335496D01*
X1691904Y3329300D01*
X1708095D01*
X1723054Y3335496D01*
X1734503Y3346945D01*
X1740700Y3361904D01*
Y3378095D01*
X1734503Y3393054D01*
X1723054Y3404503D01*
X1708095Y3410700D01*
D02*
G37*
G36*
X5338938Y3458913D02*
X5322747D01*
X5307788Y3452716D01*
X5296339Y3441267D01*
X5290143Y3426308D01*
Y3410117D01*
X5296339Y3395158D01*
X5307788Y3383709D01*
X5322747Y3377513D01*
X5332569D01*
Y3367690D01*
X5338765Y3352732D01*
X5350214Y3341283D01*
X5365173Y3335086D01*
X5381365D01*
X5396323Y3341283D01*
X5407773Y3352732D01*
X5413969Y3367690D01*
Y3383882D01*
X5407773Y3398841D01*
X5396323Y3410290D01*
X5381365Y3416486D01*
X5371542D01*
Y3426308D01*
X5365346Y3441267D01*
X5353897Y3452716D01*
X5338938Y3458913D01*
D02*
G37*
G36*
X6748252Y3330752D02*
X6732061D01*
X6717102Y3324556D01*
X6710157Y3317610D01*
X6703211Y3324556D01*
X6688252Y3330752D01*
X6672061D01*
X6657102Y3324556D01*
X6645653Y3313107D01*
X6639457Y3298148D01*
Y3281956D01*
X6645653Y3266998D01*
X6657102Y3255548D01*
X6672061Y3249352D01*
X6688252D01*
X6703211Y3255548D01*
X6710157Y3262494D01*
X6717102Y3255548D01*
X6732061Y3249352D01*
X6748252D01*
X6763211Y3255548D01*
X6774660Y3266998D01*
X6780857Y3281956D01*
Y3298148D01*
X6774660Y3313107D01*
X6763211Y3324556D01*
X6748252Y3330752D01*
D02*
G37*
G36*
X5057952Y3313084D02*
X5041760D01*
X5026801Y3306888D01*
X5019856Y3299942D01*
X5012911Y3306887D01*
X4997952Y3313084D01*
X4981760D01*
X4966802Y3306887D01*
X4955353Y3295438D01*
X4949156Y3280480D01*
Y3264288D01*
X4955353Y3249329D01*
X4966802Y3237880D01*
X4981760Y3231684D01*
X4997952D01*
X5012911Y3237880D01*
X5019856Y3244826D01*
X5026801Y3237880D01*
X5041760Y3231684D01*
X5057952D01*
X5072911Y3237880D01*
X5084360Y3249330D01*
X5090556Y3264288D01*
Y3280480D01*
X5084360Y3295439D01*
X5072911Y3306888D01*
X5057952Y3313084D01*
D02*
G37*
G36*
X3453752Y3416787D02*
X3437560D01*
X3422601Y3410590D01*
X3411152Y3399141D01*
X3404956Y3384182D01*
Y3374360D01*
X3395134D01*
X3380175Y3368164D01*
X3368726Y3356715D01*
X3362530Y3341756D01*
Y3325565D01*
X3368726Y3310606D01*
X3380175Y3299157D01*
X3395134Y3292960D01*
X3411325D01*
X3426284Y3299157D01*
X3437733Y3310606D01*
X3443930Y3325565D01*
Y3335387D01*
X3453752D01*
X3468711Y3341583D01*
X3480160Y3353032D01*
X3486356Y3367991D01*
Y3384182D01*
X3480160Y3399141D01*
X3468711Y3410590D01*
X3453752Y3416787D01*
D02*
G37*
G36*
X5968148Y3350543D02*
X5951956D01*
X5936998Y3344347D01*
X5925548Y3332898D01*
X5919352Y3317939D01*
Y3301747D01*
X5925548Y3286788D01*
X5932494Y3279843D01*
X5925548Y3272898D01*
X5919352Y3257939D01*
Y3241748D01*
X5925548Y3226789D01*
X5936998Y3215340D01*
X5951956Y3209144D01*
X5968148D01*
X5983107Y3215340D01*
X5994556Y3226789D01*
X6000752Y3241748D01*
Y3257939D01*
X5994556Y3272898D01*
X5987611Y3279843D01*
X5994556Y3286788D01*
X6000752Y3301747D01*
Y3317939D01*
X5994556Y3332898D01*
X5983107Y3344347D01*
X5968148Y3350543D01*
D02*
G37*
G36*
X3888167Y3295476D02*
X3871976D01*
X3857017Y3289280D01*
X3845568Y3277831D01*
X3839372Y3262872D01*
Y3253050D01*
X3829549D01*
X3814591Y3246854D01*
X3803141Y3235405D01*
X3796945Y3220446D01*
Y3204254D01*
X3803141Y3189295D01*
X3814591Y3177846D01*
X3829549Y3171650D01*
X3845741D01*
X3860700Y3177846D01*
X3872149Y3189295D01*
X3878345Y3204254D01*
Y3214076D01*
X3888167D01*
X3903126Y3220273D01*
X3914575Y3231722D01*
X3920771Y3246681D01*
Y3262872D01*
X3914575Y3277831D01*
X3903126Y3289280D01*
X3888167Y3295476D01*
D02*
G37*
G36*
X6948253Y3180752D02*
X6932061D01*
X6917102Y3174556D01*
X6910157Y3167610D01*
X6903211Y3174556D01*
X6888252Y3180752D01*
X6872061D01*
X6857102Y3174556D01*
X6845653Y3163107D01*
X6839457Y3148148D01*
Y3131956D01*
X6845653Y3116998D01*
X6857102Y3105549D01*
X6872061Y3099352D01*
X6888252D01*
X6903211Y3105549D01*
X6910157Y3112494D01*
X6917102Y3105549D01*
X6932061Y3099352D01*
X6948253D01*
X6963211Y3105549D01*
X6974660Y3116998D01*
X6980857Y3131956D01*
Y3148148D01*
X6974660Y3163107D01*
X6963211Y3174556D01*
X6948253Y3180752D01*
D02*
G37*
G36*
X5524769Y3289912D02*
X5508577D01*
X5493618Y3283716D01*
X5482169Y3272267D01*
X5475973Y3257308D01*
Y3241117D01*
X5482169Y3226158D01*
X5489115Y3219212D01*
X5482169Y3212267D01*
X5475973Y3197308D01*
Y3181117D01*
X5482169Y3166158D01*
X5493618Y3154709D01*
X5508577Y3148512D01*
X5524769D01*
X5539728Y3154709D01*
X5551177Y3166158D01*
X5557373Y3181117D01*
Y3197308D01*
X5551177Y3212267D01*
X5544231Y3219212D01*
X5551177Y3226158D01*
X5557373Y3241117D01*
Y3257308D01*
X5551177Y3272267D01*
X5539728Y3283716D01*
X5524769Y3289912D01*
D02*
G37*
G36*
X6267951Y3100583D02*
X6251759D01*
X6236801Y3094386D01*
X6229855Y3087441D01*
X6222910Y3094386D01*
X6207951Y3100583D01*
X6191760D01*
X6176801Y3094386D01*
X6169856Y3087441D01*
X6162910Y3094386D01*
X6147951Y3100583D01*
X6131760D01*
X6116801Y3094386D01*
X6105352Y3082937D01*
X6099156Y3067979D01*
Y3051787D01*
X6105352Y3036828D01*
X6112297Y3029883D01*
X6105352Y3022938D01*
X6099156Y3007979D01*
Y2991787D01*
X6105352Y2976828D01*
X6112297Y2969883D01*
X6105352Y2962938D01*
X6099156Y2947979D01*
Y2931787D01*
X6105352Y2916829D01*
X6116801Y2905380D01*
X6131760Y2899183D01*
X6147951D01*
X6162910Y2905380D01*
X6169856Y2912325D01*
X6176801Y2905380D01*
X6191760Y2899183D01*
X6207951D01*
X6222910Y2905380D01*
X6229855Y2912325D01*
X6236801Y2905379D01*
X6251760Y2899183D01*
X6267951D01*
X6282910Y2905379D01*
X6294359Y2916828D01*
X6300555Y2931787D01*
Y2947979D01*
X6294359Y2962937D01*
X6287413Y2969883D01*
X6294359Y2976828D01*
X6300555Y2991787D01*
Y3007979D01*
X6294359Y3022938D01*
X6287413Y3029883D01*
X6294359Y3036828D01*
X6300555Y3051787D01*
Y3067979D01*
X6294359Y3082937D01*
X6282910Y3094386D01*
X6267951Y3100583D01*
D02*
G37*
G36*
X6697978Y3000844D02*
X6681787D01*
X6666828Y2994647D01*
X6659883Y2987702D01*
X6652937Y2994647D01*
X6637978Y3000844D01*
X6621787D01*
X6606828Y2994647D01*
X6595379Y2983198D01*
X6589183Y2968239D01*
Y2952048D01*
X6595379Y2937089D01*
X6606828Y2925640D01*
X6621787Y2919444D01*
X6637978D01*
X6652937Y2925640D01*
X6659883Y2932585D01*
X6666828Y2925640D01*
X6681787Y2919444D01*
X6697978D01*
X6712937Y2925640D01*
X6724386Y2937089D01*
X6730582Y2952048D01*
Y2968239D01*
X6724386Y2983198D01*
X6712937Y2994647D01*
X6697978Y3000844D01*
D02*
G37*
G36*
X4408735Y3084710D02*
X4392543D01*
X4377584Y3078514D01*
X4366135Y3067065D01*
X4359939Y3052106D01*
Y3042284D01*
X4350117D01*
X4335158Y3036087D01*
X4323709Y3024638D01*
X4317513Y3009680D01*
Y2993488D01*
X4323709Y2978529D01*
X4335158Y2967080D01*
X4350117Y2960884D01*
X4366308D01*
X4381267Y2967080D01*
X4392716Y2978529D01*
X4398912Y2993488D01*
Y3003310D01*
X4408735D01*
X4423693Y3009507D01*
X4435143Y3020956D01*
X4441339Y3035914D01*
Y3052106D01*
X4435143Y3067065D01*
X4423693Y3078514D01*
X4408735Y3084710D01*
D02*
G37*
G36*
X5671423Y3098988D02*
X5655231D01*
X5640272Y3092791D01*
X5628823Y3081342D01*
X5622627Y3066384D01*
Y3050192D01*
X5628823Y3035233D01*
X5635769Y3028288D01*
X5628823Y3021342D01*
X5622627Y3006383D01*
Y2990192D01*
X5628823Y2975233D01*
X5640272Y2963784D01*
X5655231Y2957588D01*
X5671423D01*
X5686382Y2963784D01*
X5697831Y2975233D01*
X5704027Y2990192D01*
Y3006383D01*
X5697831Y3021342D01*
X5690885Y3028288D01*
X5697831Y3035233D01*
X5704027Y3050192D01*
Y3066384D01*
X5697831Y3081342D01*
X5686382Y3092791D01*
X5671423Y3098988D01*
D02*
G37*
G36*
X5867939Y2960648D02*
X5851748D01*
X5836789Y2954452D01*
X5829843Y2947506D01*
X5822898Y2954452D01*
X5807939Y2960648D01*
X5791748D01*
X5776789Y2954452D01*
X5765340Y2943002D01*
X5759143Y2928044D01*
Y2911852D01*
X5765340Y2896893D01*
X5776789Y2885444D01*
X5791748Y2879248D01*
X5807939D01*
X5822898Y2885444D01*
X5829843Y2892390D01*
X5836789Y2885444D01*
X5851748Y2879248D01*
X5867939D01*
X5882898Y2885444D01*
X5894347Y2896893D01*
X5900543Y2911852D01*
Y2928044D01*
X5894347Y2943002D01*
X5882898Y2954452D01*
X5867939Y2960648D01*
D02*
G37*
G36*
X6837978Y2940843D02*
X6821787D01*
X6806828Y2934647D01*
X6799883Y2927702D01*
X6792937Y2934647D01*
X6777979Y2940843D01*
X6761787D01*
X6746828Y2934647D01*
X6735379Y2923198D01*
X6729183Y2908239D01*
Y2892048D01*
X6735379Y2877089D01*
X6746828Y2865640D01*
X6761787Y2859444D01*
X6777979D01*
X6792937Y2865640D01*
X6799883Y2872585D01*
X6806828Y2865640D01*
X6821787Y2859444D01*
X6837978D01*
X6852937Y2865640D01*
X6864386Y2877089D01*
X6870583Y2892048D01*
Y2908239D01*
X6864386Y2923198D01*
X6852937Y2934647D01*
X6837978Y2940843D01*
D02*
G37*
G36*
X5452308Y2894027D02*
X5436117D01*
X5421158Y2887830D01*
X5414212Y2880885D01*
X5407267Y2887830D01*
X5392308Y2894027D01*
X5376117D01*
X5361158Y2887830D01*
X5349709Y2876381D01*
X5343512Y2861423D01*
Y2845231D01*
X5349709Y2830272D01*
X5361158Y2818823D01*
X5376117Y2812627D01*
X5392308D01*
X5407267Y2818823D01*
X5414212Y2825769D01*
X5421158Y2818823D01*
X5436117Y2812627D01*
X5452308D01*
X5467267Y2818823D01*
X5478716Y2830272D01*
X5484912Y2845231D01*
Y2861423D01*
X5478716Y2876381D01*
X5467267Y2887830D01*
X5452308Y2894027D01*
D02*
G37*
G36*
X7368096Y2870700D02*
X7351905D01*
X7336946Y2864504D01*
X7330000Y2857558D01*
X7323055Y2864504D01*
X7308096Y2870700D01*
X7291905D01*
X7276946Y2864504D01*
X7265497Y2853054D01*
X7259300Y2838096D01*
Y2821904D01*
X7265497Y2806945D01*
X7276946Y2795496D01*
X7291905Y2789300D01*
X7308096D01*
X7323055Y2795496D01*
X7330000Y2802442D01*
X7336946Y2795496D01*
X7351905Y2789300D01*
X7368096D01*
X7383055Y2795496D01*
X7394504Y2806945D01*
X7400700Y2821904D01*
Y2838096D01*
X7394504Y2853054D01*
X7383055Y2864504D01*
X7368096Y2870700D01*
D02*
G37*
G36*
X4888938Y2978913D02*
X4872747D01*
X4857788Y2972716D01*
X4846339Y2961267D01*
X4840143Y2946309D01*
Y2930117D01*
X4846339Y2915158D01*
X4857788Y2903709D01*
X4872747Y2897513D01*
X4882569D01*
Y2887690D01*
X4888766Y2872732D01*
X4900215Y2861283D01*
X4915174Y2855086D01*
X4931365D01*
X4946324Y2861283D01*
X4957773Y2872732D01*
X4963969Y2887690D01*
Y2903882D01*
X4957773Y2918841D01*
X4946324Y2930290D01*
X4931365Y2936486D01*
X4921543D01*
Y2946309D01*
X4915346Y2961267D01*
X4903897Y2972716D01*
X4888938Y2978913D01*
D02*
G37*
G36*
X5977939Y2830648D02*
X5961748D01*
X5946789Y2824452D01*
X5939843Y2817506D01*
X5932898Y2824452D01*
X5917939Y2830648D01*
X5901748D01*
X5886789Y2824452D01*
X5875340Y2813003D01*
X5869143Y2798044D01*
Y2781852D01*
X5875340Y2766893D01*
X5886789Y2755444D01*
X5901748Y2749248D01*
X5917939D01*
X5932898Y2755444D01*
X5939843Y2762390D01*
X5946789Y2755444D01*
X5961748Y2749248D01*
X5977939D01*
X5992898Y2755444D01*
X6004347Y2766893D01*
X6010543Y2781852D01*
Y2798044D01*
X6004347Y2813003D01*
X5992898Y2824452D01*
X5977939Y2830648D01*
D02*
G37*
G36*
X4278167Y2905476D02*
X4261976D01*
X4247017Y2899280D01*
X4235568Y2887831D01*
X4229372Y2872872D01*
Y2863050D01*
X4219549D01*
X4204591Y2856854D01*
X4193141Y2845405D01*
X4186945Y2830446D01*
Y2814254D01*
X4193141Y2799295D01*
X4204591Y2787846D01*
X4219549Y2781650D01*
X4235741D01*
X4250700Y2787846D01*
X4262149Y2799295D01*
X4268345Y2814254D01*
Y2824076D01*
X4278167D01*
X4293126Y2830273D01*
X4304575Y2841722D01*
X4310771Y2856681D01*
Y2872872D01*
X4304575Y2887831D01*
X4293126Y2899280D01*
X4278167Y2905476D01*
D02*
G37*
G36*
X6488252Y2770752D02*
X6472061D01*
X6457102Y2764556D01*
X6450157Y2757610D01*
X6443211Y2764555D01*
X6428253Y2770752D01*
X6412061D01*
X6397102Y2764555D01*
X6385653Y2753106D01*
X6379457Y2738147D01*
Y2721956D01*
X6385653Y2706997D01*
X6397102Y2695548D01*
X6412061Y2689352D01*
X6428253D01*
X6443211Y2695548D01*
X6450157Y2702493D01*
X6457102Y2695548D01*
X6472061Y2689352D01*
X6488252D01*
X6503211Y2695548D01*
X6514660Y2706997D01*
X6520857Y2721956D01*
Y2738148D01*
X6514660Y2753107D01*
X6503211Y2764556D01*
X6488252Y2770752D01*
D02*
G37*
G36*
X1708095Y2710700D02*
X1691904D01*
X1676945Y2704503D01*
X1670000Y2697558D01*
X1663054Y2704503D01*
X1648096Y2710700D01*
X1631904D01*
X1616945Y2704503D01*
X1605496Y2693054D01*
X1599300Y2678095D01*
Y2661904D01*
X1605496Y2646945D01*
X1616945Y2635496D01*
X1631904Y2629300D01*
X1648096D01*
X1663054Y2635496D01*
X1670000Y2642442D01*
X1676945Y2635496D01*
X1691904Y2629300D01*
X1708095D01*
X1723054Y2635496D01*
X1734503Y2646945D01*
X1740700Y2661904D01*
Y2678095D01*
X1734503Y2693054D01*
X1723054Y2704503D01*
X1708095Y2710700D01*
D02*
G37*
G36*
X2358096Y2620700D02*
X2341904D01*
X2326946Y2614504D01*
X2320000Y2607558D01*
X2313055Y2614504D01*
X2298096Y2620700D01*
X2281904D01*
X2266945Y2614504D01*
X2255496Y2603054D01*
X2249300Y2588096D01*
Y2571904D01*
X2255496Y2556945D01*
X2262442Y2550000D01*
X2255496Y2543055D01*
X2249300Y2528096D01*
Y2511904D01*
X2255496Y2496945D01*
X2266945Y2485496D01*
X2281904Y2479300D01*
X2298096D01*
X2313055Y2485496D01*
X2320000Y2492442D01*
X2326946Y2485496D01*
X2341904Y2479300D01*
X2358096D01*
X2373055Y2485496D01*
X2384504Y2496945D01*
X2390700Y2511904D01*
Y2528096D01*
X2384504Y2543055D01*
X2377558Y2550000D01*
X2384504Y2556945D01*
X2390700Y2571904D01*
Y2588096D01*
X2384504Y2603054D01*
X2373055Y2614504D01*
X2358096Y2620700D01*
D02*
G37*
G36*
X6016383Y2527373D02*
X6000192D01*
X5985233Y2521177D01*
X5978288Y2514231D01*
X5971342Y2521177D01*
X5956383Y2527373D01*
X5940192D01*
X5925233Y2521177D01*
X5913784Y2509728D01*
X5907588Y2494769D01*
Y2478577D01*
X5913784Y2463619D01*
X5925233Y2452170D01*
X5940192Y2445973D01*
X5956383D01*
X5971342Y2452170D01*
X5978288Y2459115D01*
X5985233Y2452170D01*
X6000192Y2445973D01*
X6016383D01*
X6031342Y2452170D01*
X6042791Y2463619D01*
X6048988Y2478577D01*
Y2494769D01*
X6042791Y2509728D01*
X6031342Y2521177D01*
X6016383Y2527373D01*
D02*
G37*
G36*
X6651423Y2638988D02*
X6635231D01*
X6620272Y2632791D01*
X6608823Y2621342D01*
X6602627Y2606383D01*
Y2590192D01*
X6608823Y2575233D01*
X6615769Y2568287D01*
X6608823Y2561342D01*
X6602627Y2546383D01*
Y2530192D01*
X6608823Y2515233D01*
X6620272Y2503784D01*
X6635231Y2497588D01*
X6651423D01*
X6666381Y2503784D01*
X6677830Y2515233D01*
X6684027Y2530192D01*
Y2546383D01*
X6677830Y2561342D01*
X6670885Y2568287D01*
X6677830Y2575233D01*
X6684027Y2590192D01*
Y2606383D01*
X6677830Y2621342D01*
X6666381Y2632791D01*
X6651423Y2638988D01*
D02*
G37*
G36*
X6790479Y2530844D02*
X6774288D01*
X6759329Y2524648D01*
X6747880Y2513199D01*
X6741684Y2498240D01*
Y2482048D01*
X6747880Y2467090D01*
X6754825Y2460144D01*
X6747880Y2453199D01*
X6741684Y2438240D01*
Y2422048D01*
X6747880Y2407090D01*
X6759329Y2395641D01*
X6774288Y2389444D01*
X6790479D01*
X6805438Y2395641D01*
X6816887Y2407090D01*
X6823084Y2422048D01*
Y2438240D01*
X6816887Y2453199D01*
X6809942Y2460144D01*
X6816887Y2467090D01*
X6823084Y2482048D01*
Y2498240D01*
X6816887Y2513199D01*
X6805438Y2524648D01*
X6790479Y2530844D01*
D02*
G37*
G36*
X2617951Y2200583D02*
X2601759D01*
X2586801Y2194387D01*
X2579855Y2187441D01*
X2572910Y2194387D01*
X2557951Y2200583D01*
X2541759D01*
X2526801Y2194387D01*
X2519855Y2187441D01*
X2512910Y2194387D01*
X2497951Y2200583D01*
X2481760D01*
X2466801Y2194387D01*
X2455352Y2182937D01*
X2449156Y2167979D01*
Y2151787D01*
X2455352Y2136828D01*
X2462297Y2129883D01*
X2455352Y2122938D01*
X2449156Y2107979D01*
Y2091787D01*
X2455352Y2076828D01*
X2462297Y2069883D01*
X2455352Y2062938D01*
X2449156Y2047979D01*
Y2031787D01*
X2455352Y2016829D01*
X2466801Y2005380D01*
X2481760Y1999183D01*
X2497951D01*
X2512910Y2005380D01*
X2519855Y2012325D01*
X2526801Y2005380D01*
X2541759Y1999183D01*
X2557951D01*
X2572910Y2005380D01*
X2579855Y2012325D01*
X2586801Y2005379D01*
X2601760Y1999183D01*
X2617951D01*
X2632910Y2005379D01*
X2644359Y2016828D01*
X2650555Y2031787D01*
Y2047979D01*
X2644359Y2062937D01*
X2637413Y2069883D01*
X2644359Y2076828D01*
X2650555Y2091787D01*
Y2107979D01*
X2644359Y2122938D01*
X2637413Y2129883D01*
X2644359Y2136828D01*
X2650555Y2151787D01*
Y2167979D01*
X2644359Y2182937D01*
X2632910Y2194387D01*
X2617951Y2200583D01*
D02*
G37*
G36*
X7368096Y2170700D02*
X7351905D01*
X7336946Y2164504D01*
X7330000Y2157558D01*
X7323055Y2164504D01*
X7308096Y2170700D01*
X7291905D01*
X7276946Y2164504D01*
X7265497Y2153055D01*
X7259300Y2138096D01*
Y2121904D01*
X7265497Y2106945D01*
X7276946Y2095496D01*
X7291905Y2089300D01*
X7308096D01*
X7323055Y2095496D01*
X7330000Y2102442D01*
X7336946Y2095496D01*
X7351905Y2089300D01*
X7368096D01*
X7383055Y2095496D01*
X7394504Y2106945D01*
X7400700Y2121904D01*
Y2138096D01*
X7394504Y2153055D01*
X7383055Y2164504D01*
X7368096Y2170700D01*
D02*
G37*
G36*
X6851423Y2278988D02*
X6835231D01*
X6820272Y2272791D01*
X6808823Y2261342D01*
X6802627Y2246384D01*
Y2230192D01*
X6808823Y2215233D01*
X6815769Y2208288D01*
X6808823Y2201342D01*
X6802627Y2186383D01*
Y2170192D01*
X6808823Y2155233D01*
X6820272Y2143784D01*
X6835231Y2137588D01*
X6851423D01*
X6866381Y2143784D01*
X6877831Y2155233D01*
X6884027Y2170192D01*
Y2186383D01*
X6877831Y2201342D01*
X6870885Y2208288D01*
X6877831Y2215233D01*
X6884027Y2230192D01*
Y2246384D01*
X6877831Y2261342D01*
X6866381Y2272791D01*
X6851423Y2278988D01*
D02*
G37*
G36*
X1708095Y2010700D02*
X1691904D01*
X1676945Y2004503D01*
X1670000Y1997558D01*
X1663054Y2004503D01*
X1648096Y2010700D01*
X1631904D01*
X1616945Y2004503D01*
X1605496Y1993054D01*
X1599300Y1978096D01*
Y1961904D01*
X1605496Y1946945D01*
X1616945Y1935496D01*
X1631904Y1929300D01*
X1648096D01*
X1663054Y1935496D01*
X1670000Y1942442D01*
X1676945Y1935496D01*
X1691904Y1929300D01*
X1708095D01*
X1723054Y1935496D01*
X1734503Y1946945D01*
X1740700Y1961904D01*
Y1978096D01*
X1734503Y1993054D01*
X1723054Y2004503D01*
X1708095Y2010700D01*
D02*
G37*
G36*
X6737951Y2010583D02*
X6721760D01*
X6706801Y2004387D01*
X6699856Y1997442D01*
X6692911Y2004387D01*
X6677952Y2010583D01*
X6661760D01*
X6646802Y2004387D01*
X6635352Y1992938D01*
X6629156Y1977979D01*
Y1961788D01*
X6635352Y1946829D01*
X6642298Y1939884D01*
X6635352Y1932938D01*
X6629156Y1917979D01*
Y1901788D01*
X6635352Y1886829D01*
X6646802Y1875380D01*
X6661760Y1869184D01*
X6677952D01*
X6692911Y1875380D01*
X6699856Y1882325D01*
X6706801Y1875380D01*
X6721760Y1869184D01*
X6737951D01*
X6752910Y1875380D01*
X6764359Y1886829D01*
X6770556Y1901788D01*
Y1917979D01*
X6764359Y1932938D01*
X6757414Y1939884D01*
X6764359Y1946829D01*
X6770556Y1961788D01*
Y1977979D01*
X6764359Y1992938D01*
X6752910Y2004387D01*
X6737951Y2010583D01*
D02*
G37*
%LPD*%
D84*
X2140000Y7390000D02*
X2140000D01*
D90*
X6492383Y7397644D02*
X6964825Y6925202D01*
X1830000Y7080000D02*
X2140000Y7390000D01*
D94*
X2080000Y5710000D02*
Y6940000D01*
X2268300Y7128300D01*
X6372500Y5702500D02*
Y6920000D01*
D95*
X4439467Y572900D02*
X4337900D01*
X4439467Y674467D01*
Y699859D01*
X4414075Y725251D01*
X4363292D01*
X4337900Y699859D01*
D96*
X500000Y8500000D02*
D03*
X8500000D02*
D03*
X500000Y500000D02*
D03*
X8500000D02*
D03*
D97*
X323223Y8323223D02*
D03*
X500000Y8750000D02*
D03*
X676777Y8676777D02*
D03*
X750000Y8500000D02*
D03*
X676777Y8323223D02*
D03*
X500000Y8250000D02*
D03*
X323223Y8676777D02*
D03*
X250000Y8500000D02*
D03*
X8250000D02*
D03*
X8323223Y8676777D02*
D03*
X8500000Y8250000D02*
D03*
X8676777Y8323223D02*
D03*
X8750000Y8500000D02*
D03*
X8676777Y8676777D02*
D03*
X8500000Y8750000D02*
D03*
X8323223Y8323223D02*
D03*
X323223Y323223D02*
D03*
X500000Y750000D02*
D03*
X676777Y676777D02*
D03*
X750000Y500000D02*
D03*
X676777Y323223D02*
D03*
X500000Y250000D02*
D03*
X323223Y676777D02*
D03*
X250000Y500000D02*
D03*
X8250000D02*
D03*
X8323223Y676777D02*
D03*
X8500000Y250000D02*
D03*
X8676777Y323223D02*
D03*
X8750000Y500000D02*
D03*
X8676777Y676777D02*
D03*
X8500000Y750000D02*
D03*
X8323223Y323223D02*
D03*
D98*
X5663327Y3058288D02*
D03*
Y2998288D02*
D03*
X6008288Y2486673D02*
D03*
X5948288D02*
D03*
X4227645Y2822350D02*
D03*
X4270071Y2864776D02*
D03*
X3837645Y3212350D02*
D03*
X3880071Y3254776D02*
D03*
X3403230Y3333660D02*
D03*
X3445656Y3376087D02*
D03*
X3387645Y4332350D02*
D03*
X3430072Y4374776D02*
D03*
X4502426Y5512426D02*
D03*
X4460000Y5470000D02*
D03*
X3310163Y5347645D02*
D03*
X3352589Y5305219D02*
D03*
X3420000Y4600000D02*
D03*
X3377574Y4642426D02*
D03*
X6899999Y7712500D02*
D03*
X6774999D02*
D03*
X2213269Y3648994D02*
D03*
X2213577Y3524568D02*
D03*
X2212962Y3396149D02*
D03*
X4029280Y6472739D02*
D03*
X6524999Y7652500D02*
D03*
X6649999D02*
D03*
X4872645Y5402337D02*
D03*
X4830219Y5359911D02*
D03*
X2167448Y1305157D02*
D03*
Y1245157D02*
D03*
X3957552Y1304843D02*
D03*
Y1244843D02*
D03*
X5340827Y1248288D02*
D03*
X5595827Y1250788D02*
D03*
X5953327Y1248288D02*
D03*
X6233327D02*
D03*
X5865000Y1145000D02*
D03*
X6843327Y2178288D02*
D03*
Y2238288D02*
D03*
X6643327Y2538288D02*
D03*
Y2598288D02*
D03*
X5516673Y3249212D02*
D03*
Y3189212D02*
D03*
X5619843Y3409948D02*
D03*
X5679843D02*
D03*
X5444212Y2853327D02*
D03*
X5384212D02*
D03*
X5881712Y6218327D02*
D03*
X5821712D02*
D03*
X5881712Y6473327D02*
D03*
X5821712D02*
D03*
X3171712Y6063327D02*
D03*
X3111712D02*
D03*
X3265786Y3466731D02*
D03*
X3332355Y3400163D02*
D03*
X2671712Y3773327D02*
D03*
X2611712D02*
D03*
X2631712Y3398327D02*
D03*
X2571712D02*
D03*
X2631712Y3523327D02*
D03*
X2571712D02*
D03*
X2150289Y3395842D02*
D03*
X2150000Y3525000D02*
D03*
Y3650000D02*
D03*
X3214608Y3827948D02*
D03*
X3034143Y4020000D02*
D03*
X2991716Y3977573D02*
D03*
X3777645Y4619837D02*
D03*
X3735219Y4577411D02*
D03*
X4437645Y5579837D02*
D03*
X4395219Y5537411D02*
D03*
X4089280Y6472739D02*
D03*
X4232739Y6460720D02*
D03*
Y6400720D02*
D03*
X4963028Y7223125D02*
D03*
X5023028D02*
D03*
Y7283125D02*
D03*
X4963028D02*
D03*
X3973028Y7223125D02*
D03*
X4033028D02*
D03*
Y7283125D02*
D03*
X3973028D02*
D03*
X3972460Y6879529D02*
D03*
X4032460D02*
D03*
Y6939529D02*
D03*
X3972460D02*
D03*
X5173028Y6879628D02*
D03*
X5233028D02*
D03*
Y6939628D02*
D03*
X5173028D02*
D03*
Y7023125D02*
D03*
X5233028D02*
D03*
Y7083125D02*
D03*
X5173028D02*
D03*
X3973028Y7023125D02*
D03*
X4033028D02*
D03*
Y7083125D02*
D03*
X3973028D02*
D03*
X2137383Y7392644D02*
D03*
X2197383D02*
D03*
X6257739Y4530720D02*
D03*
Y4470720D02*
D03*
X4470720Y6257261D02*
D03*
X4530720D02*
D03*
X4924214Y6103269D02*
D03*
X4857645Y6169838D02*
D03*
X4881787Y6060842D02*
D03*
X4815219Y6127411D02*
D03*
X5959926Y4779853D02*
D03*
X5857071Y4897071D02*
D03*
X5899497Y4939498D02*
D03*
X6029926Y4714853D02*
D03*
X6072353Y4757279D02*
D03*
X2818287Y4545815D02*
D03*
X2758287Y4455815D02*
D03*
X2818287D02*
D03*
X2758287Y4545815D02*
D03*
X2228327Y4258288D02*
D03*
Y4198288D02*
D03*
X2318327Y4258288D02*
D03*
Y4198288D02*
D03*
X3057546Y5604820D02*
D03*
X3099972Y5562394D02*
D03*
X3446596Y4714174D02*
D03*
X3489023Y4671748D02*
D03*
X3000977Y5523252D02*
D03*
X3043404Y5480825D02*
D03*
X3098746Y5010290D02*
D03*
X3056716Y5052427D02*
D03*
X2981716Y5002427D02*
D03*
X3023747Y4960291D02*
D03*
X6100163Y4177645D02*
D03*
X6142589Y4135219D02*
D03*
X6166731Y4244214D02*
D03*
X6209158Y4201787D02*
D03*
X6782384Y2490144D02*
D03*
Y2430144D02*
D03*
X6669856Y1969884D02*
D03*
X6729856D02*
D03*
Y1909884D02*
D03*
X6669856D02*
D03*
X4358213Y3001584D02*
D03*
X4400639Y3044010D02*
D03*
X4178213Y3581584D02*
D03*
X4220639Y3624010D02*
D03*
X4989838Y2962355D02*
D03*
X4947411Y3004781D02*
D03*
X4923269Y2895786D02*
D03*
X4880843Y2938213D02*
D03*
X4989856Y3272384D02*
D03*
X5049856Y3272384D02*
D03*
X5280074Y4020148D02*
D03*
X5237648Y3977721D02*
D03*
X5330843Y3418213D02*
D03*
X5373269Y3375786D02*
D03*
X5397411Y3484781D02*
D03*
X5439837Y3442355D02*
D03*
X3308213Y3509158D02*
D03*
X3374781Y3442589D02*
D03*
X2929157Y4831787D02*
D03*
X2886731Y4874214D02*
D03*
X2862589Y4765219D02*
D03*
X2820163Y4807645D02*
D03*
X3419158Y5371787D02*
D03*
X3376731Y5414214D02*
D03*
X3779158Y5731787D02*
D03*
X3736731Y5774214D02*
D03*
X3712589Y5665219D02*
D03*
X3670163Y5707645D02*
D03*
X5371787Y5560843D02*
D03*
X5414214Y5603269D02*
D03*
X5305219Y5627411D02*
D03*
X5347645Y5669838D02*
D03*
X5721787Y5200843D02*
D03*
X5764214Y5243269D02*
D03*
X5655219Y5267411D02*
D03*
X5697645Y5309837D02*
D03*
X5666939Y3754716D02*
D03*
X5709366Y3712290D02*
D03*
X5733508Y3821285D02*
D03*
X5775934Y3778859D02*
D03*
X5507593Y4210332D02*
D03*
X5550019Y4252758D02*
D03*
X5960052Y3309843D02*
D03*
Y3249844D02*
D03*
X6689882Y2960144D02*
D03*
X6629883D02*
D03*
X6769883Y2900144D02*
D03*
X6829883D02*
D03*
X7070157Y2790052D02*
D03*
X7130157D02*
D03*
X6432383Y7397644D02*
D03*
X6492383D02*
D03*
X6139856Y2999883D02*
D03*
X6199855D02*
D03*
Y3059883D02*
D03*
X6139856D02*
D03*
X6199855Y2939883D02*
D03*
X6139856D02*
D03*
X6259855Y3059883D02*
D03*
Y2999883D02*
D03*
X6259855Y2939883D02*
D03*
X6480157Y2730052D02*
D03*
X6420157Y2730052D02*
D03*
X5909843Y2789948D02*
D03*
X5969843D02*
D03*
X5470157Y2670052D02*
D03*
X5530157D02*
D03*
X6880157Y3240052D02*
D03*
X6940157D02*
D03*
X6680157Y3290052D02*
D03*
X6740157D02*
D03*
X6880157Y3140052D02*
D03*
X6940157D02*
D03*
X4700148Y3524926D02*
D03*
X4657721Y3567353D02*
D03*
X4732721Y3642352D02*
D03*
X4775148Y3599926D02*
D03*
X5617648Y4317721D02*
D03*
X5660074Y4360147D02*
D03*
X6002352Y4822279D02*
D03*
X7049948Y4240156D02*
D03*
Y4180156D02*
D03*
X3257034Y3785522D02*
D03*
X5859843Y2919948D02*
D03*
X5799843D02*
D03*
X6839948Y3600157D02*
D03*
Y3540157D02*
D03*
X6759948Y4240157D02*
D03*
Y4180157D02*
D03*
X6289948Y4020157D02*
D03*
Y4080156D02*
D03*
X6470052Y3609843D02*
D03*
Y3669844D02*
D03*
X6330052Y3609843D02*
D03*
Y3669844D02*
D03*
X6120052Y3609843D02*
D03*
Y3669844D02*
D03*
X5980052D02*
D03*
Y3609843D02*
D03*
X2104999Y7647500D02*
D03*
X2229999D02*
D03*
X2479999D02*
D03*
X2604999D02*
D03*
X2354999D02*
D03*
X2604999Y7707500D02*
D03*
X2479999D02*
D03*
X2354999D02*
D03*
X2229999D02*
D03*
X2104999D02*
D03*
X5270117Y7389856D02*
D03*
X5210118D02*
D03*
X4619856Y6869882D02*
D03*
Y6929882D02*
D03*
X6343028Y5733125D02*
D03*
X6403028D02*
D03*
Y5673125D02*
D03*
X6343028D02*
D03*
X6432383Y4822644D02*
D03*
X5824816Y5172592D02*
D03*
X6907383Y6147644D02*
D03*
X6847383D02*
D03*
X6620000Y5940000D02*
D03*
X6680000D02*
D03*
X6620000Y6000000D02*
D03*
Y6060000D02*
D03*
X6680000D02*
D03*
Y6000000D02*
D03*
X6974882Y5360144D02*
D03*
Y5272644D02*
D03*
X7034882D02*
D03*
Y5360144D02*
D03*
X6707528Y6559884D02*
D03*
X7047528D02*
D03*
X7107528D02*
D03*
X6647528D02*
D03*
X7047528Y6619884D02*
D03*
X6647528D02*
D03*
X6707528D02*
D03*
X7107528D02*
D03*
X6432383Y4762644D02*
D03*
X6187500Y5360000D02*
D03*
X6247500D02*
D03*
X2050028Y5739883D02*
D03*
X2110028D02*
D03*
Y5679883D02*
D03*
X2050028D02*
D03*
X3250000Y5185000D02*
D03*
X3207574Y5227427D02*
D03*
X3399834Y5132389D02*
D03*
X3357408Y5174815D02*
D03*
X5928284Y5078284D02*
D03*
X5885857Y5035858D02*
D03*
X5772426Y5022426D02*
D03*
X5730000Y4980000D02*
D03*
X5987071Y4907071D02*
D03*
X6029497Y4949498D02*
D03*
X5782390Y5130166D02*
D03*
X3302426Y5032574D02*
D03*
X3260000Y5075000D02*
D03*
X3080859Y4170000D02*
D03*
X3038432Y4127573D02*
D03*
X2975858Y4275857D02*
D03*
X2933432Y4233431D02*
D03*
X5765858Y4040000D02*
D03*
X5808284Y3997574D02*
D03*
X5830502Y3899497D02*
D03*
X5872929Y3857071D02*
D03*
X1660000Y2980000D02*
D03*
Y4380000D02*
D03*
Y5079999D02*
D03*
Y5779999D02*
D03*
Y6479999D02*
D03*
X7340000Y1820000D02*
D03*
Y2520000D02*
D03*
Y3220000D02*
D03*
Y3920000D02*
D03*
Y4619999D02*
D03*
Y5319999D02*
D03*
Y6019999D02*
D03*
X6649999Y7712500D02*
D03*
X6774999Y7652500D02*
D03*
X6399999D02*
D03*
X6899999D02*
D03*
X6399999Y7712500D02*
D03*
X6524999D02*
D03*
X2609855Y2039883D02*
D03*
X4220000Y1960000D02*
D03*
Y1900000D02*
D03*
Y1800000D02*
D03*
Y1740000D02*
D03*
Y1650000D02*
D03*
Y1590000D02*
D03*
Y1500000D02*
D03*
Y1440000D02*
D03*
X3647528Y1744884D02*
D03*
X3707528D02*
D03*
Y1804884D02*
D03*
X3647528D02*
D03*
X2642528Y1744884D02*
D03*
X2702528D02*
D03*
Y1804884D02*
D03*
X2642528D02*
D03*
X2290000Y2520000D02*
D03*
X2350000D02*
D03*
Y2580000D02*
D03*
X2290000D02*
D03*
X3179855Y1269883D02*
D03*
Y1329883D02*
D03*
Y1209883D02*
D03*
X2999855Y1269883D02*
D03*
X3059855D02*
D03*
Y1329883D02*
D03*
X2999855D02*
D03*
X3059855Y1209883D02*
D03*
X2999855D02*
D03*
X3119855D02*
D03*
Y1329883D02*
D03*
Y1269883D02*
D03*
X2609855Y3024883D02*
D03*
Y3084883D02*
D03*
Y2964883D02*
D03*
X2489856D02*
D03*
X2549855D02*
D03*
X2489856Y3084883D02*
D03*
X2549855D02*
D03*
Y3024883D02*
D03*
X2489856D02*
D03*
X2609855Y2099883D02*
D03*
Y2159883D02*
D03*
X2489856Y2039883D02*
D03*
X2549855D02*
D03*
X2489856Y2159883D02*
D03*
X2549855D02*
D03*
Y2099883D02*
D03*
X2489856D02*
D03*
X3489856D02*
D03*
X3549855D02*
D03*
Y2159883D02*
D03*
X3489856D02*
D03*
X3549855Y2039883D02*
D03*
X3489856D02*
D03*
X3609855D02*
D03*
Y2159883D02*
D03*
Y2099883D02*
D03*
X2352528Y6559884D02*
D03*
X2412528D02*
D03*
Y6619884D02*
D03*
X2352528D02*
D03*
X2752528Y6559884D02*
D03*
X2812528D02*
D03*
Y6619884D02*
D03*
X2752528D02*
D03*
X2739882Y5282644D02*
D03*
Y5370144D02*
D03*
X1892500Y5360000D02*
D03*
X1952500D02*
D03*
X2137383Y4762644D02*
D03*
X2679882Y5370144D02*
D03*
Y5282644D02*
D03*
X2612383Y6147644D02*
D03*
X2552383D02*
D03*
X2385000Y6000000D02*
D03*
Y6060000D02*
D03*
Y5940000D02*
D03*
X2325000Y6000000D02*
D03*
Y6060000D02*
D03*
Y5940000D02*
D03*
X2137383Y4822644D02*
D03*
X7839856Y1469884D02*
D03*
X7899856D02*
D03*
Y1409884D02*
D03*
X7839856D02*
D03*
X1099856D02*
D03*
X1159856D02*
D03*
Y1469884D02*
D03*
X1099856D02*
D03*
X3082426Y4812573D02*
D03*
X3040000Y4854999D02*
D03*
X7360000Y6329999D02*
D03*
X1640000Y1970000D02*
D03*
X1660000Y2280000D02*
D03*
X1280000Y1820000D02*
D03*
X1580000Y2070000D02*
D03*
X1600000Y2280000D02*
D03*
X1340000Y1820000D02*
D03*
X1700000Y1970000D02*
D03*
X1580000Y2130000D02*
D03*
X1640000Y2670000D02*
D03*
X1280000Y2520000D02*
D03*
X1600000Y2980000D02*
D03*
X1340000Y2520000D02*
D03*
X1700000Y2670000D02*
D03*
X1580000Y2830000D02*
D03*
X1640000Y3370000D02*
D03*
X1600000Y3680000D02*
D03*
X1340000Y3220000D02*
D03*
X1700000Y3370000D02*
D03*
X1580000Y3530000D02*
D03*
X1640000Y4069999D02*
D03*
X1600000Y4380000D02*
D03*
X1340000Y3920000D02*
D03*
X1700000Y4069999D02*
D03*
X1580000Y4229999D02*
D03*
X1640000Y4769999D02*
D03*
X1600000Y5079999D02*
D03*
X1340000Y4619999D02*
D03*
X1700000Y4769999D02*
D03*
X1580000Y4929999D02*
D03*
X1640000Y5469999D02*
D03*
X1600000Y5779999D02*
D03*
X1340000Y5319999D02*
D03*
X1700000Y5469999D02*
D03*
X1580000Y5629999D02*
D03*
X1640000Y6169999D02*
D03*
X1280000Y6019999D02*
D03*
X1580000Y6269999D02*
D03*
X1600000Y6479999D02*
D03*
X1340000Y6019999D02*
D03*
X1700000Y6169999D02*
D03*
X1580000Y6329999D02*
D03*
X7360000Y7029999D02*
D03*
X7340000Y6719999D02*
D03*
X7420000Y6929999D02*
D03*
X7400000Y6719999D02*
D03*
X7660000Y7179999D02*
D03*
X7300000Y7029999D02*
D03*
X7420000Y6869999D02*
D03*
Y6229999D02*
D03*
X7400000Y6019999D02*
D03*
X7660000Y6479999D02*
D03*
X7300000Y6329999D02*
D03*
X7420000Y6169999D02*
D03*
X7360000Y5629999D02*
D03*
X7400000Y5319999D02*
D03*
X7660000Y5779999D02*
D03*
X7300000Y5629999D02*
D03*
X7420000Y5469999D02*
D03*
X7360000Y4930000D02*
D03*
X7420000Y4829999D02*
D03*
X7400000Y4619999D02*
D03*
X7660000Y5079999D02*
D03*
X7300000Y4930000D02*
D03*
X7420000Y4770000D02*
D03*
X7360000Y4230000D02*
D03*
X7420000Y4130000D02*
D03*
X7400000Y3920000D02*
D03*
X7660000Y4380000D02*
D03*
X7300000Y4230000D02*
D03*
X7420000Y4070000D02*
D03*
X7360000Y3530000D02*
D03*
X7420000Y3430000D02*
D03*
X7400000Y3220000D02*
D03*
X7660000Y3680000D02*
D03*
X7300000Y3530000D02*
D03*
X7420000Y3370000D02*
D03*
X7360000Y2830000D02*
D03*
X7420000Y2730000D02*
D03*
X7400000Y2520000D02*
D03*
X7660000Y2980000D02*
D03*
X7300000Y2830000D02*
D03*
X7420000Y2670000D02*
D03*
X7360000Y2130000D02*
D03*
X7400000Y1820000D02*
D03*
X7660000Y2280000D02*
D03*
X7300000Y2130000D02*
D03*
X7420000Y1970000D02*
D03*
X1580000Y2770000D02*
D03*
X1660000Y3680000D02*
D03*
X1580000Y3470000D02*
D03*
X1280000Y3220000D02*
D03*
X1580000Y4170000D02*
D03*
Y4869999D02*
D03*
X1280000Y4619999D02*
D03*
X1580000Y5569999D02*
D03*
X1280000Y5319999D02*
D03*
X7720000Y6479999D02*
D03*
X7420000Y5529999D02*
D03*
X7720000Y5079999D02*
D03*
Y3680000D02*
D03*
X7420000Y2030000D02*
D03*
X1580000Y7030000D02*
D03*
Y6970000D02*
D03*
X1640000Y6870000D02*
D03*
X7720000Y7179999D02*
D03*
X5891716Y4084142D02*
D03*
X5849289Y4126569D02*
D03*
X5909289Y3976568D02*
D03*
X5951716Y3934142D02*
D03*
X2925858Y4130000D02*
D03*
X2883432Y4087573D02*
D03*
X1280000Y3920000D02*
D03*
X1660000Y7180000D02*
D03*
X1600000D02*
D03*
X1340000Y6720000D02*
D03*
X7720000Y5779999D02*
D03*
Y4380000D02*
D03*
Y2980000D02*
D03*
Y2280000D02*
D03*
X1699999Y6870000D02*
D03*
X1280000Y6720000D02*
D03*
%TF.MD5,b917d0f1abcc397a82f66d55a748ff5c*%
M02*
