%TF.GenerationSoftware,Altium Limited,Altium Designer,24.0.1 (36)*%
G04 Layer_Physical_Order=3*
G04 Layer_Color=16440176*
%FSLAX45Y45*%
%MOMM*%
%TF.SameCoordinates,E594D193-3514-40B7-BCFE-BF8AFB9400D8*%
%TF.FilePolarity,Positive*%
%TF.FileFunction,Copper,L3,Inr,Signal*%
%TF.Part,Single*%
G01*
G75*
%TA.AperFunction,NonConductor*%
%ADD95C,0.25400*%
%TA.AperFunction,ComponentPad*%
%ADD96C,7.00000*%
%ADD97C,1.52400*%
%TA.AperFunction,ViaPad*%
%ADD98C,0.56000*%
G36*
X8979609Y8008446D02*
X8485582Y7514419D01*
X8481162Y7507803D01*
X8479609Y7499999D01*
Y1500001D01*
X8481162Y1492197D01*
X8485582Y1485581D01*
X8979609Y991554D01*
Y20391D01*
X8008446D01*
X7514419Y514418D01*
X7507803Y518838D01*
X7499999Y520391D01*
X4874326D01*
X4862500Y522500D01*
X4862500Y533091D01*
Y782499D01*
X4137500Y782500D01*
Y533091D01*
X4137499Y522500D01*
X4125673Y520391D01*
X1500001D01*
X1492197Y518838D01*
X1485581Y514418D01*
X991554Y20391D01*
X20391D01*
Y991554D01*
X514418Y1485581D01*
X518838Y1492197D01*
X520391Y1500001D01*
Y7499999D01*
X518838Y7507803D01*
X514418Y7514419D01*
X20391Y8008446D01*
Y8979609D01*
X991554D01*
X1485581Y8485582D01*
X1492197Y8481162D01*
X1500001Y8479609D01*
X7499999D01*
X7507803Y8481162D01*
X7514419Y8485582D01*
X8008446Y8979609D01*
X8979609D01*
Y8008446D01*
D02*
G37*
%LPC*%
G36*
X8500000Y8918997D02*
X8445310Y8915412D01*
X8391555Y8904720D01*
X8339657Y8887103D01*
X8290502Y8862862D01*
X8244931Y8832413D01*
X8203724Y8796276D01*
X8167587Y8755069D01*
X8137138Y8709498D01*
X8112897Y8660343D01*
X8095280Y8608445D01*
X8084588Y8554690D01*
X8081003Y8500000D01*
X8084588Y8445310D01*
X8095280Y8391555D01*
X8112897Y8339657D01*
X8137138Y8290502D01*
X8167587Y8244931D01*
X8203724Y8203724D01*
X8244931Y8167587D01*
X8290502Y8137138D01*
X8339657Y8112897D01*
X8391555Y8095280D01*
X8445310Y8084588D01*
X8500000Y8081003D01*
X8554690Y8084588D01*
X8608445Y8095280D01*
X8660343Y8112897D01*
X8709498Y8137138D01*
X8755069Y8167587D01*
X8796276Y8203724D01*
X8832413Y8244931D01*
X8862862Y8290502D01*
X8887103Y8339657D01*
X8904720Y8391555D01*
X8915412Y8445310D01*
X8918997Y8500000D01*
X8915412Y8554690D01*
X8904720Y8608445D01*
X8887103Y8660343D01*
X8862862Y8709498D01*
X8832413Y8755069D01*
X8796276Y8796276D01*
X8755069Y8832413D01*
X8709498Y8862862D01*
X8660343Y8887103D01*
X8608445Y8904720D01*
X8554690Y8915412D01*
X8500000Y8918997D01*
D02*
G37*
G36*
X500000D02*
X445310Y8915412D01*
X391555Y8904720D01*
X339657Y8887103D01*
X290502Y8862862D01*
X244931Y8832413D01*
X203724Y8796276D01*
X167587Y8755069D01*
X137138Y8709498D01*
X112897Y8660343D01*
X95280Y8608445D01*
X84588Y8554690D01*
X81003Y8500000D01*
X84588Y8445310D01*
X95280Y8391555D01*
X112897Y8339657D01*
X137138Y8290502D01*
X167587Y8244931D01*
X203724Y8203724D01*
X244931Y8167587D01*
X290501Y8137138D01*
X339657Y8112897D01*
X391555Y8095280D01*
X445310Y8084588D01*
X500000Y8081003D01*
X554690Y8084588D01*
X608445Y8095280D01*
X660343Y8112897D01*
X709499Y8137138D01*
X755069Y8167587D01*
X796276Y8203724D01*
X832413Y8244931D01*
X862862Y8290502D01*
X887103Y8339657D01*
X904720Y8391555D01*
X915412Y8445310D01*
X918997Y8500000D01*
X915412Y8554690D01*
X904720Y8608445D01*
X887103Y8660343D01*
X862862Y8709498D01*
X832413Y8755069D01*
X796276Y8796276D01*
X755069Y8832413D01*
X709499Y8862862D01*
X660343Y8887103D01*
X608445Y8904720D01*
X554690Y8915412D01*
X500000Y8918997D01*
D02*
G37*
G36*
X6908095Y7753200D02*
X6891904D01*
X6876945Y7747004D01*
X6865496Y7735555D01*
X6859299Y7720596D01*
Y7704404D01*
X6865496Y7689446D01*
X6872441Y7682500D01*
X6865496Y7675555D01*
X6859299Y7660596D01*
Y7644404D01*
X6865496Y7629445D01*
X6876945Y7617996D01*
X6891904Y7611800D01*
X6908095D01*
X6923054Y7617996D01*
X6934503Y7629445D01*
X6940699Y7644404D01*
Y7660596D01*
X6934503Y7675555D01*
X6927557Y7682500D01*
X6934503Y7689446D01*
X6940699Y7704404D01*
Y7720596D01*
X6934503Y7735555D01*
X6923054Y7747004D01*
X6908095Y7753200D01*
D02*
G37*
G36*
X6658095D02*
X6641904D01*
X6626945Y7747004D01*
X6615496Y7735555D01*
X6609299Y7720596D01*
Y7704404D01*
X6615496Y7689446D01*
X6622441Y7682500D01*
X6615496Y7675555D01*
X6609299Y7660596D01*
Y7644404D01*
X6615496Y7629445D01*
X6626945Y7617996D01*
X6641904Y7611800D01*
X6658095D01*
X6673054Y7617996D01*
X6684503Y7629445D01*
X6690699Y7644404D01*
Y7660596D01*
X6684503Y7675555D01*
X6677557Y7682500D01*
X6684503Y7689446D01*
X6690699Y7704404D01*
Y7720596D01*
X6684503Y7735555D01*
X6673054Y7747004D01*
X6658095Y7753200D01*
D02*
G37*
G36*
X6533095D02*
X6516904D01*
X6501945Y7747004D01*
X6490496Y7735555D01*
X6484299Y7720596D01*
Y7704404D01*
X6490496Y7689446D01*
X6497441Y7682500D01*
X6490496Y7675555D01*
X6484299Y7660596D01*
Y7644404D01*
X6490496Y7629445D01*
X6501945Y7617996D01*
X6516904Y7611800D01*
X6533095D01*
X6548054Y7617996D01*
X6559503Y7629445D01*
X6565699Y7644404D01*
Y7660596D01*
X6559503Y7675555D01*
X6552557Y7682500D01*
X6559503Y7689446D01*
X6565699Y7704404D01*
Y7720596D01*
X6559503Y7735555D01*
X6548054Y7747004D01*
X6533095Y7753200D01*
D02*
G37*
G36*
X6408095D02*
X6391904D01*
X6376945Y7747004D01*
X6365496Y7735555D01*
X6359299Y7720596D01*
Y7704404D01*
X6365496Y7689446D01*
X6372441Y7682500D01*
X6365496Y7675555D01*
X6359299Y7660596D01*
Y7644404D01*
X6365496Y7629445D01*
X6376945Y7617996D01*
X6391904Y7611800D01*
X6408095D01*
X6423054Y7617996D01*
X6434503Y7629445D01*
X6440699Y7644404D01*
Y7660596D01*
X6434503Y7675555D01*
X6427557Y7682500D01*
X6434503Y7689446D01*
X6440699Y7704404D01*
Y7720596D01*
X6434503Y7735555D01*
X6423054Y7747004D01*
X6408095Y7753200D01*
D02*
G37*
G36*
X2613095Y7748200D02*
X2596904D01*
X2581945Y7742004D01*
X2570496Y7730555D01*
X2564299Y7715596D01*
Y7699404D01*
X2570496Y7684445D01*
X2577441Y7677500D01*
X2570496Y7670554D01*
X2564299Y7655596D01*
Y7639404D01*
X2570496Y7624445D01*
X2581945Y7612996D01*
X2596904Y7606800D01*
X2613095D01*
X2628054Y7612996D01*
X2639503Y7624445D01*
X2645699Y7639404D01*
Y7655596D01*
X2639503Y7670554D01*
X2632558Y7677500D01*
X2639503Y7684445D01*
X2645699Y7699404D01*
Y7715596D01*
X2639503Y7730555D01*
X2628054Y7742004D01*
X2613095Y7748200D01*
D02*
G37*
G36*
X2363095D02*
X2346904D01*
X2331945Y7742004D01*
X2320496Y7730555D01*
X2314299Y7715596D01*
Y7699404D01*
X2320496Y7684445D01*
X2327441Y7677500D01*
X2320496Y7670554D01*
X2314299Y7655596D01*
Y7639404D01*
X2320496Y7624445D01*
X2331945Y7612996D01*
X2346904Y7606800D01*
X2363095D01*
X2378054Y7612996D01*
X2389503Y7624445D01*
X2395699Y7639404D01*
Y7655596D01*
X2389503Y7670554D01*
X2382558Y7677500D01*
X2389503Y7684445D01*
X2395699Y7699404D01*
Y7715596D01*
X2389503Y7730555D01*
X2378054Y7742004D01*
X2363095Y7748200D01*
D02*
G37*
G36*
X2238095D02*
X2221904D01*
X2206945Y7742004D01*
X2195496Y7730555D01*
X2189299Y7715596D01*
Y7699404D01*
X2195496Y7684445D01*
X2202441Y7677500D01*
X2195496Y7670554D01*
X2189299Y7655596D01*
Y7639404D01*
X2195496Y7624445D01*
X2206945Y7612996D01*
X2221904Y7606800D01*
X2238095D01*
X2253054Y7612996D01*
X2264503Y7624445D01*
X2270699Y7639404D01*
Y7655596D01*
X2264503Y7670554D01*
X2257558Y7677500D01*
X2264503Y7684445D01*
X2270699Y7699404D01*
Y7715596D01*
X2264503Y7730555D01*
X2253054Y7742004D01*
X2238095Y7748200D01*
D02*
G37*
G36*
X2113095D02*
X2096904D01*
X2081945Y7742004D01*
X2070496Y7730555D01*
X2064299Y7715596D01*
Y7699404D01*
X2070496Y7684445D01*
X2077441Y7677500D01*
X2070496Y7670554D01*
X2064299Y7655596D01*
Y7639404D01*
X2070496Y7624445D01*
X2081945Y7612996D01*
X2096904Y7606800D01*
X2113095D01*
X2128054Y7612996D01*
X2139503Y7624445D01*
X2145699Y7639404D01*
Y7655596D01*
X2139503Y7670554D01*
X2132558Y7677500D01*
X2139503Y7684445D01*
X2145699Y7699404D01*
Y7715596D01*
X2139503Y7730555D01*
X2128054Y7742004D01*
X2113095Y7748200D01*
D02*
G37*
G36*
X6500478Y7438344D02*
X6484287D01*
X6469328Y7432147D01*
X6462383Y7425202D01*
X6455437Y7432147D01*
X6440479Y7438344D01*
X6424287D01*
X6409328Y7432147D01*
X6397879Y7420698D01*
X6391683Y7405739D01*
Y7389548D01*
X6397879Y7374589D01*
X6409328Y7363140D01*
X6424287Y7356944D01*
X6440479D01*
X6455437Y7363140D01*
X6462383Y7370085D01*
X6469328Y7363140D01*
X6484287Y7356944D01*
X6500478D01*
X6515437Y7363140D01*
X6526886Y7374589D01*
X6533083Y7389548D01*
Y7405739D01*
X6526886Y7420698D01*
X6515437Y7432147D01*
X6500478Y7438344D01*
D02*
G37*
G36*
X2205478Y7433344D02*
X2189287D01*
X2174328Y7427147D01*
X2167383Y7420202D01*
X2160437Y7427147D01*
X2145479Y7433344D01*
X2129287D01*
X2114328Y7427147D01*
X2102879Y7415698D01*
X2096683Y7400739D01*
Y7384548D01*
X2102879Y7369589D01*
X2114328Y7358140D01*
X2129287Y7351944D01*
X2145479D01*
X2160437Y7358140D01*
X2167383Y7365085D01*
X2174328Y7358140D01*
X2189287Y7351944D01*
X2205478D01*
X2220437Y7358140D01*
X2231886Y7369589D01*
X2238083Y7384548D01*
Y7400739D01*
X2231886Y7415698D01*
X2220437Y7427147D01*
X2205478Y7433344D01*
D02*
G37*
G36*
X5278213Y7430556D02*
X5262022D01*
X5247063Y7424359D01*
X5240118Y7417414D01*
X5233172Y7424359D01*
X5218213Y7430556D01*
X5202022D01*
X5187063Y7424359D01*
X5175614Y7412910D01*
X5169418Y7397951D01*
Y7381760D01*
X5175614Y7366801D01*
X5187063Y7355352D01*
X5202022Y7349156D01*
X5218213D01*
X5233172Y7355352D01*
X5240118Y7362297D01*
X5247063Y7355352D01*
X5262022Y7349156D01*
X5278213D01*
X5293172Y7355352D01*
X5304621Y7366801D01*
X5310817Y7381760D01*
Y7397951D01*
X5304621Y7412910D01*
X5293172Y7424359D01*
X5278213Y7430556D01*
D02*
G37*
G36*
X1668096Y7220700D02*
X1651904D01*
X1636945Y7214504D01*
X1630000Y7207558D01*
X1623055Y7214504D01*
X1608096Y7220700D01*
X1591904D01*
X1576946Y7214504D01*
X1565496Y7203055D01*
X1559300Y7188096D01*
Y7171904D01*
X1565496Y7156946D01*
X1576946Y7145497D01*
X1591904Y7139300D01*
X1608096D01*
X1623055Y7145497D01*
X1630000Y7152442D01*
X1636945Y7145497D01*
X1651904Y7139300D01*
X1668096D01*
X1683055Y7145497D01*
X1694504Y7156946D01*
X1700700Y7171904D01*
Y7188096D01*
X1694504Y7203055D01*
X1683055Y7214504D01*
X1668096Y7220700D01*
D02*
G37*
G36*
X7728096Y7220699D02*
X7711904D01*
X7696945Y7214503D01*
X7690000Y7207557D01*
X7683054Y7214503D01*
X7668096Y7220699D01*
X7651904D01*
X7636945Y7214503D01*
X7625496Y7203054D01*
X7619300Y7188095D01*
Y7171903D01*
X7625496Y7156945D01*
X7636945Y7145495D01*
X7651904Y7139299D01*
X7668096D01*
X7683054Y7145495D01*
X7690000Y7152441D01*
X7696945Y7145495D01*
X7711904Y7139299D01*
X7728096D01*
X7743054Y7145495D01*
X7754503Y7156945D01*
X7760700Y7171903D01*
Y7188095D01*
X7754503Y7203054D01*
X7743054Y7214503D01*
X7728096Y7220699D01*
D02*
G37*
G36*
X5241124Y7123825D02*
X5224932D01*
X5209973Y7117629D01*
X5203028Y7110684D01*
X5196083Y7117629D01*
X5181124Y7123825D01*
X5164933D01*
X5149974Y7117629D01*
X5138525Y7106180D01*
X5132328Y7091221D01*
Y7075030D01*
X5138525Y7060071D01*
X5145470Y7053125D01*
X5138525Y7046180D01*
X5132328Y7031221D01*
Y7015030D01*
X5138525Y7000071D01*
X5149974Y6988622D01*
X5164933Y6982425D01*
X5181124D01*
X5196083Y6988622D01*
X5203028Y6995567D01*
X5209973Y6988622D01*
X5224932Y6982425D01*
X5241124D01*
X5256082Y6988622D01*
X5267532Y7000071D01*
X5273728Y7015030D01*
Y7031221D01*
X5267532Y7046180D01*
X5260586Y7053125D01*
X5267532Y7060071D01*
X5273728Y7075030D01*
Y7091221D01*
X5267532Y7106180D01*
X5256082Y7117629D01*
X5241124Y7123825D01*
D02*
G37*
G36*
X4041123D02*
X4024932D01*
X4009973Y7117629D01*
X4003028Y7110684D01*
X3996083Y7117629D01*
X3981124Y7123825D01*
X3964932D01*
X3949974Y7117629D01*
X3938525Y7106180D01*
X3932328Y7091221D01*
Y7075030D01*
X3938525Y7060071D01*
X3945470Y7053125D01*
X3938525Y7046180D01*
X3932328Y7031221D01*
Y7015030D01*
X3938525Y7000071D01*
X3949974Y6988622D01*
X3964932Y6982425D01*
X3981124D01*
X3996083Y6988622D01*
X4003028Y6995567D01*
X4009973Y6988622D01*
X4024932Y6982425D01*
X4041123D01*
X4056082Y6988622D01*
X4067531Y7000071D01*
X4073728Y7015030D01*
Y7031221D01*
X4067531Y7046180D01*
X4060586Y7053125D01*
X4067531Y7060071D01*
X4073728Y7075030D01*
Y7091221D01*
X4067531Y7106180D01*
X4056082Y7117629D01*
X4041123Y7123825D01*
D02*
G37*
G36*
X7368096Y7070699D02*
X7351905D01*
X7336946Y7064503D01*
X7330000Y7057557D01*
X7323055Y7064503D01*
X7308096Y7070699D01*
X7291905D01*
X7276946Y7064503D01*
X7265497Y7053054D01*
X7259300Y7038095D01*
Y7021903D01*
X7265497Y7006945D01*
X7276946Y6995496D01*
X7291905Y6989299D01*
X7308096D01*
X7323055Y6995496D01*
X7330000Y7002441D01*
X7336946Y6995496D01*
X7351905Y6989299D01*
X7368096D01*
X7383055Y6995496D01*
X7394504Y7006945D01*
X7400700Y7021903D01*
Y7038095D01*
X7394504Y7053054D01*
X7383055Y7064503D01*
X7368096Y7070699D01*
D02*
G37*
G36*
X1708095Y6910700D02*
X1691904D01*
X1676945Y6904504D01*
X1669999Y6897558D01*
X1663054Y6904504D01*
X1648095Y6910700D01*
X1631904D01*
X1616945Y6904504D01*
X1605496Y6893055D01*
X1599300Y6878096D01*
Y6861904D01*
X1605496Y6846945D01*
X1616945Y6835496D01*
X1631904Y6829300D01*
X1648095D01*
X1663054Y6835496D01*
X1669999Y6842442D01*
X1676945Y6835496D01*
X1691904Y6829300D01*
X1708095D01*
X1723054Y6835496D01*
X1734503Y6846945D01*
X1740699Y6861904D01*
Y6878096D01*
X1734503Y6893055D01*
X1723054Y6904504D01*
X1708095Y6910700D01*
D02*
G37*
G36*
X4627951Y6970582D02*
X4611760D01*
X4596801Y6964386D01*
X4585352Y6952937D01*
X4579156Y6937978D01*
Y6921787D01*
X4585352Y6906828D01*
X4592297Y6899882D01*
X4585352Y6892937D01*
X4579156Y6877978D01*
Y6861787D01*
X4585352Y6846828D01*
X4596801Y6835379D01*
X4611760Y6829182D01*
X4627951D01*
X4642910Y6835379D01*
X4654359Y6846828D01*
X4660556Y6861787D01*
Y6877978D01*
X4654359Y6892937D01*
X4647414Y6899882D01*
X4654359Y6906828D01*
X4660556Y6921787D01*
Y6937978D01*
X4654359Y6952937D01*
X4642910Y6964386D01*
X4627951Y6970582D01*
D02*
G37*
G36*
X1348096Y6760700D02*
X1331904D01*
X1316945Y6754504D01*
X1310000Y6747558D01*
X1303055Y6754504D01*
X1288096Y6760700D01*
X1271904D01*
X1256945Y6754504D01*
X1245496Y6743055D01*
X1239300Y6728096D01*
Y6711904D01*
X1245496Y6696945D01*
X1256945Y6685496D01*
X1271904Y6679300D01*
X1288096D01*
X1303055Y6685496D01*
X1310000Y6692442D01*
X1316945Y6685496D01*
X1331904Y6679300D01*
X1348096D01*
X1363054Y6685496D01*
X1374503Y6696945D01*
X1380700Y6711904D01*
Y6728096D01*
X1374503Y6743055D01*
X1363054Y6754504D01*
X1348096Y6760700D01*
D02*
G37*
G36*
X7408095Y6760699D02*
X7391904D01*
X7376945Y6754503D01*
X7370000Y6747557D01*
X7363054Y6754503D01*
X7348096Y6760699D01*
X7331904D01*
X7316945Y6754503D01*
X7305496Y6743054D01*
X7299300Y6728095D01*
Y6711903D01*
X7305496Y6696944D01*
X7316945Y6685495D01*
X7331904Y6679299D01*
X7348096D01*
X7363054Y6685495D01*
X7370000Y6692441D01*
X7376945Y6685495D01*
X7391904Y6679299D01*
X7408095D01*
X7423054Y6685495D01*
X7434503Y6696944D01*
X7440700Y6711903D01*
Y6728095D01*
X7434503Y6743054D01*
X7423054Y6754503D01*
X7408095Y6760699D01*
D02*
G37*
G36*
X7115624Y6660584D02*
X7099432D01*
X7084474Y6654387D01*
X7077528Y6647442D01*
X7070583Y6654387D01*
X7055624Y6660584D01*
X7039433D01*
X7024474Y6654387D01*
X7013025Y6642938D01*
X7006829Y6627979D01*
Y6611788D01*
X7013025Y6596829D01*
X7019970Y6589884D01*
X7013025Y6582938D01*
X7006829Y6567979D01*
Y6551788D01*
X7013025Y6536829D01*
X7024474Y6525380D01*
X7039433Y6519184D01*
X7055624D01*
X7070583Y6525380D01*
X7077528Y6532325D01*
X7084474Y6525380D01*
X7099432Y6519184D01*
X7115624D01*
X7130583Y6525380D01*
X7142032Y6536829D01*
X7148228Y6551788D01*
Y6567979D01*
X7142032Y6582938D01*
X7135086Y6589884D01*
X7142032Y6596829D01*
X7148228Y6611788D01*
Y6627979D01*
X7142032Y6642938D01*
X7130583Y6654387D01*
X7115624Y6660584D01*
D02*
G37*
G36*
X6715624D02*
X6699432D01*
X6684474Y6654387D01*
X6677528Y6647442D01*
X6670583Y6654387D01*
X6655624Y6660584D01*
X6639433D01*
X6624474Y6654387D01*
X6613025Y6642938D01*
X6606829Y6627979D01*
Y6611788D01*
X6613025Y6596829D01*
X6619970Y6589884D01*
X6613025Y6582938D01*
X6606829Y6567979D01*
Y6551788D01*
X6613025Y6536829D01*
X6624474Y6525380D01*
X6639433Y6519184D01*
X6655624D01*
X6670583Y6525380D01*
X6677528Y6532325D01*
X6684474Y6525380D01*
X6699432Y6519184D01*
X6715624D01*
X6730583Y6525380D01*
X6742032Y6536829D01*
X6748228Y6551788D01*
Y6567979D01*
X6742032Y6582938D01*
X6735086Y6589884D01*
X6742032Y6596829D01*
X6748228Y6611788D01*
Y6627979D01*
X6742032Y6642938D01*
X6730583Y6654387D01*
X6715624Y6660584D01*
D02*
G37*
G36*
X2820624D02*
X2804432D01*
X2789473Y6654387D01*
X2782528Y6647442D01*
X2775583Y6654387D01*
X2760624Y6660584D01*
X2744433D01*
X2729474Y6654387D01*
X2718025Y6642938D01*
X2711828Y6627979D01*
Y6611788D01*
X2718025Y6596829D01*
X2724970Y6589884D01*
X2718025Y6582938D01*
X2711828Y6567979D01*
Y6551788D01*
X2718025Y6536829D01*
X2729474Y6525380D01*
X2744433Y6519184D01*
X2760624D01*
X2775583Y6525380D01*
X2782528Y6532325D01*
X2789473Y6525380D01*
X2804432Y6519184D01*
X2820624D01*
X2835583Y6525380D01*
X2847032Y6536829D01*
X2853228Y6551788D01*
Y6567979D01*
X2847032Y6582938D01*
X2840086Y6589884D01*
X2847032Y6596829D01*
X2853228Y6611788D01*
Y6627979D01*
X2847032Y6642938D01*
X2835583Y6654387D01*
X2820624Y6660584D01*
D02*
G37*
G36*
X2420624D02*
X2404432D01*
X2389474Y6654387D01*
X2382528Y6647442D01*
X2375583Y6654387D01*
X2360624Y6660584D01*
X2344433D01*
X2329474Y6654387D01*
X2318025Y6642938D01*
X2311828Y6627979D01*
Y6611788D01*
X2318025Y6596829D01*
X2324970Y6589884D01*
X2318025Y6582938D01*
X2311828Y6567979D01*
Y6551788D01*
X2318025Y6536829D01*
X2329474Y6525380D01*
X2344433Y6519184D01*
X2360624D01*
X2375583Y6525380D01*
X2382528Y6532325D01*
X2389474Y6525380D01*
X2404432Y6519184D01*
X2420624D01*
X2435583Y6525380D01*
X2447032Y6536829D01*
X2453228Y6551788D01*
Y6567979D01*
X2447032Y6582938D01*
X2440086Y6589884D01*
X2447032Y6596829D01*
X2453228Y6611788D01*
Y6627979D01*
X2447032Y6642938D01*
X2435583Y6654387D01*
X2420624Y6660584D01*
D02*
G37*
G36*
X7728096Y6520699D02*
X7711904D01*
X7696945Y6514503D01*
X7690000Y6507557D01*
X7683054Y6514503D01*
X7668096Y6520699D01*
X7651904D01*
X7636945Y6514503D01*
X7625496Y6503054D01*
X7619300Y6488095D01*
Y6471903D01*
X7625496Y6456945D01*
X7636945Y6445496D01*
X7651904Y6439299D01*
X7668096D01*
X7683054Y6445496D01*
X7690000Y6452441D01*
X7696945Y6445496D01*
X7711904Y6439299D01*
X7728096D01*
X7743054Y6445496D01*
X7754503Y6456945D01*
X7760700Y6471903D01*
Y6488095D01*
X7754503Y6503054D01*
X7743054Y6514503D01*
X7728096Y6520699D01*
D02*
G37*
G36*
X1668096D02*
X1651904D01*
X1636946Y6514503D01*
X1630000Y6507557D01*
X1623055Y6514503D01*
X1608096Y6520699D01*
X1591905D01*
X1576946Y6514503D01*
X1565497Y6503054D01*
X1559300Y6488095D01*
Y6471903D01*
X1565497Y6456945D01*
X1576946Y6445496D01*
X1591905Y6439299D01*
X1608096D01*
X1623055Y6445496D01*
X1630000Y6452441D01*
X1636946Y6445496D01*
X1651904Y6439299D01*
X1668096D01*
X1683055Y6445496D01*
X1694504Y6456945D01*
X1700700Y6471903D01*
Y6488095D01*
X1694504Y6503054D01*
X1683055Y6514503D01*
X1668096Y6520699D01*
D02*
G37*
G36*
X4097376Y6513439D02*
X4081184D01*
X4066225Y6507243D01*
X4059280Y6500298D01*
X4052335Y6507243D01*
X4037376Y6513439D01*
X4021184D01*
X4006225Y6507243D01*
X3994776Y6495794D01*
X3988580Y6480835D01*
Y6464644D01*
X3994776Y6449685D01*
X4006225Y6438236D01*
X4021184Y6432039D01*
X4037376D01*
X4052335Y6438236D01*
X4059280Y6445181D01*
X4066225Y6438236D01*
X4081184Y6432039D01*
X4097376D01*
X4112334Y6438236D01*
X4123783Y6449685D01*
X4129980Y6464644D01*
Y6480835D01*
X4123783Y6495794D01*
X4112334Y6507243D01*
X4097376Y6513439D01*
D02*
G37*
G36*
X7368096Y6370699D02*
X7351905D01*
X7336946Y6364503D01*
X7330000Y6357558D01*
X7323055Y6364503D01*
X7308096Y6370699D01*
X7291905D01*
X7276946Y6364503D01*
X7265497Y6353054D01*
X7259300Y6338095D01*
Y6321904D01*
X7265497Y6306945D01*
X7276946Y6295496D01*
X7291905Y6289299D01*
X7308096D01*
X7323055Y6295496D01*
X7330000Y6302441D01*
X7336946Y6295496D01*
X7351905Y6289299D01*
X7368096D01*
X7383055Y6295496D01*
X7394504Y6306945D01*
X7400700Y6321904D01*
Y6338095D01*
X7394504Y6353054D01*
X7383055Y6364503D01*
X7368096Y6370699D01*
D02*
G37*
G36*
X1708095Y6210699D02*
X1691904D01*
X1676945Y6204503D01*
X1670000Y6197557D01*
X1663054Y6204503D01*
X1648096Y6210699D01*
X1631904D01*
X1616945Y6204503D01*
X1605496Y6193054D01*
X1599300Y6178095D01*
Y6161903D01*
X1605496Y6146945D01*
X1616945Y6135495D01*
X1631904Y6129299D01*
X1648096D01*
X1663054Y6135495D01*
X1670000Y6142441D01*
X1676945Y6135495D01*
X1691904Y6129299D01*
X1708095D01*
X1723054Y6135495D01*
X1734503Y6146945D01*
X1740700Y6161903D01*
Y6178095D01*
X1734503Y6193054D01*
X1723054Y6204503D01*
X1708095Y6210699D01*
D02*
G37*
G36*
X6915478Y6188343D02*
X6899287D01*
X6884328Y6182147D01*
X6877383Y6175202D01*
X6870437Y6182147D01*
X6855479Y6188343D01*
X6839287D01*
X6824328Y6182147D01*
X6812879Y6170698D01*
X6806683Y6155739D01*
Y6139548D01*
X6812879Y6124589D01*
X6824328Y6113140D01*
X6839287Y6106944D01*
X6855479D01*
X6870437Y6113140D01*
X6877383Y6120085D01*
X6884328Y6113140D01*
X6899287Y6106944D01*
X6915478D01*
X6930437Y6113140D01*
X6941886Y6124589D01*
X6948083Y6139548D01*
Y6155739D01*
X6941886Y6170698D01*
X6930437Y6182147D01*
X6915478Y6188343D01*
D02*
G37*
G36*
X2620478D02*
X2604287D01*
X2589328Y6182147D01*
X2582383Y6175202D01*
X2575437Y6182147D01*
X2560478Y6188343D01*
X2544287D01*
X2529328Y6182147D01*
X2517879Y6170698D01*
X2511683Y6155739D01*
Y6139548D01*
X2517879Y6124589D01*
X2529328Y6113140D01*
X2544287Y6106944D01*
X2560478D01*
X2575437Y6113140D01*
X2582383Y6120085D01*
X2589328Y6113140D01*
X2604287Y6106944D01*
X2620478D01*
X2635437Y6113140D01*
X2646886Y6124589D01*
X2653083Y6139548D01*
Y6155739D01*
X2646886Y6170698D01*
X2635437Y6182147D01*
X2620478Y6188343D01*
D02*
G37*
G36*
X4865741Y6210537D02*
X4849549D01*
X4834591Y6204341D01*
X4823141Y6192892D01*
X4816945Y6177933D01*
Y6168111D01*
X4807123D01*
X4792164Y6161915D01*
X4780715Y6150466D01*
X4774519Y6135507D01*
Y6119316D01*
X4780715Y6104357D01*
X4792164Y6092908D01*
X4807123Y6086711D01*
X4823314D01*
X4838273Y6092908D01*
X4849722Y6104357D01*
X4855919Y6119316D01*
Y6129138D01*
X4865741D01*
X4880700Y6135334D01*
X4892149Y6146783D01*
X4898345Y6161742D01*
Y6177933D01*
X4892149Y6192892D01*
X4880700Y6204341D01*
X4865741Y6210537D01*
D02*
G37*
G36*
X7408095Y6060699D02*
X7391904D01*
X7376945Y6054503D01*
X7370000Y6047557D01*
X7363054Y6054503D01*
X7348096Y6060699D01*
X7331904D01*
X7316945Y6054503D01*
X7305496Y6043054D01*
X7299300Y6028095D01*
Y6011903D01*
X7305496Y5996945D01*
X7316945Y5985496D01*
X7331904Y5979299D01*
X7348096D01*
X7363054Y5985496D01*
X7370000Y5992441D01*
X7376945Y5985496D01*
X7391904Y5979299D01*
X7408095D01*
X7423054Y5985496D01*
X7434503Y5996945D01*
X7440700Y6011903D01*
Y6028095D01*
X7434503Y6043054D01*
X7423054Y6054503D01*
X7408095Y6060699D01*
D02*
G37*
G36*
X1348096D02*
X1331904D01*
X1316946Y6054503D01*
X1310000Y6047557D01*
X1303055Y6054503D01*
X1288096Y6060699D01*
X1271904D01*
X1256946Y6054503D01*
X1245497Y6043054D01*
X1239300Y6028095D01*
Y6011903D01*
X1245497Y5996945D01*
X1256946Y5985496D01*
X1271904Y5979299D01*
X1288096D01*
X1303055Y5985496D01*
X1310000Y5992441D01*
X1316946Y5985496D01*
X1331904Y5979299D01*
X1348096D01*
X1363055Y5985496D01*
X1374504Y5996945D01*
X1380700Y6011903D01*
Y6028095D01*
X1374504Y6043054D01*
X1363055Y6054503D01*
X1348096Y6060699D01*
D02*
G37*
G36*
X7728096Y5820699D02*
X7711904D01*
X7696945Y5814503D01*
X7690000Y5807558D01*
X7683054Y5814503D01*
X7668096Y5820699D01*
X7651904D01*
X7636945Y5814503D01*
X7625496Y5803054D01*
X7619300Y5788095D01*
Y5771904D01*
X7625496Y5756945D01*
X7636945Y5745496D01*
X7651904Y5739299D01*
X7668096D01*
X7683054Y5745496D01*
X7690000Y5752441D01*
X7696945Y5745496D01*
X7711904Y5739299D01*
X7728096D01*
X7743054Y5745496D01*
X7754503Y5756945D01*
X7760700Y5771904D01*
Y5788095D01*
X7754503Y5803054D01*
X7743054Y5814503D01*
X7728096Y5820699D01*
D02*
G37*
G36*
X1668096D02*
X1651904D01*
X1636946Y5814503D01*
X1630000Y5807558D01*
X1623055Y5814503D01*
X1608096Y5820699D01*
X1591905D01*
X1576946Y5814503D01*
X1565497Y5803054D01*
X1559300Y5788095D01*
Y5771904D01*
X1565497Y5756945D01*
X1576946Y5745496D01*
X1591905Y5739299D01*
X1608096D01*
X1623055Y5745496D01*
X1630000Y5752441D01*
X1636946Y5745496D01*
X1651904Y5739299D01*
X1668096D01*
X1683055Y5745496D01*
X1694504Y5756945D01*
X1700700Y5771904D01*
Y5788095D01*
X1694504Y5803054D01*
X1683055Y5814503D01*
X1668096Y5820699D01*
D02*
G37*
G36*
X2118124Y5780583D02*
X2101932D01*
X2086973Y5774387D01*
X2080028Y5767442D01*
X2073083Y5774387D01*
X2058124Y5780583D01*
X2041933D01*
X2026974Y5774387D01*
X2015525Y5762938D01*
X2009328Y5747979D01*
Y5731788D01*
X2015525Y5716829D01*
X2022470Y5709883D01*
X2015525Y5702938D01*
X2009328Y5687979D01*
Y5671788D01*
X2015525Y5656829D01*
X2026974Y5645380D01*
X2041933Y5639184D01*
X2058124D01*
X2073083Y5645380D01*
X2080028Y5652325D01*
X2086973Y5645380D01*
X2101932Y5639184D01*
X2118124D01*
X2133083Y5645380D01*
X2144532Y5656829D01*
X2150728Y5671788D01*
Y5687979D01*
X2144532Y5702938D01*
X2137586Y5709883D01*
X2144532Y5716829D01*
X2150728Y5731788D01*
Y5747979D01*
X2144532Y5762938D01*
X2133083Y5774387D01*
X2118124Y5780583D01*
D02*
G37*
G36*
X6411124Y5773825D02*
X6394932D01*
X6379973Y5767629D01*
X6373028Y5760683D01*
X6366083Y5767629D01*
X6351124Y5773825D01*
X6334932D01*
X6319974Y5767629D01*
X6308525Y5756180D01*
X6302328Y5741221D01*
Y5725029D01*
X6308525Y5710071D01*
X6315470Y5703125D01*
X6308525Y5696180D01*
X6302328Y5681221D01*
Y5665030D01*
X6308525Y5650071D01*
X6319974Y5638622D01*
X6334932Y5632425D01*
X6351124D01*
X6366083Y5638622D01*
X6373028Y5645567D01*
X6379973Y5638622D01*
X6394932Y5632425D01*
X6411124D01*
X6426082Y5638622D01*
X6437531Y5650071D01*
X6443728Y5665030D01*
Y5681221D01*
X6437531Y5696180D01*
X6430586Y5703125D01*
X6437531Y5710071D01*
X6443728Y5725029D01*
Y5741221D01*
X6437531Y5756180D01*
X6426082Y5767629D01*
X6411124Y5773825D01*
D02*
G37*
G36*
X7368096Y5670699D02*
X7351905D01*
X7336946Y5664503D01*
X7330000Y5657558D01*
X7323055Y5664503D01*
X7308096Y5670699D01*
X7291905D01*
X7276946Y5664503D01*
X7265497Y5653054D01*
X7259300Y5638095D01*
Y5621904D01*
X7265497Y5606945D01*
X7276946Y5595496D01*
X7291905Y5589299D01*
X7308096D01*
X7323055Y5595496D01*
X7330000Y5602441D01*
X7336946Y5595496D01*
X7351905Y5589299D01*
X7368096D01*
X7383055Y5595496D01*
X7394504Y5606945D01*
X7400700Y5621904D01*
Y5638095D01*
X7394504Y5653054D01*
X7383055Y5664503D01*
X7368096Y5670699D01*
D02*
G37*
G36*
X3678258Y5748345D02*
X3662067D01*
X3647108Y5742149D01*
X3635659Y5730700D01*
X3629463Y5715741D01*
Y5699549D01*
X3635659Y5684591D01*
X3647108Y5673142D01*
X3662067Y5666945D01*
X3671889D01*
Y5657123D01*
X3678085Y5642164D01*
X3689534Y5630715D01*
X3704493Y5624519D01*
X3720684D01*
X3735643Y5630715D01*
X3747092Y5642164D01*
X3753289Y5657123D01*
Y5673315D01*
X3747092Y5688273D01*
X3735643Y5699722D01*
X3720684Y5705919D01*
X3710863D01*
Y5715741D01*
X3704666Y5730700D01*
X3693217Y5742149D01*
X3678258Y5748345D01*
D02*
G37*
G36*
X5355741Y5710537D02*
X5339549D01*
X5324591Y5704341D01*
X5313142Y5692892D01*
X5306945Y5677933D01*
Y5668111D01*
X5297123D01*
X5282164Y5661915D01*
X5270715Y5650466D01*
X5264519Y5635507D01*
Y5619316D01*
X5270715Y5604357D01*
X5282164Y5592908D01*
X5297123Y5586711D01*
X5313314D01*
X5328273Y5592908D01*
X5339722Y5604357D01*
X5345919Y5619316D01*
Y5629138D01*
X5355741D01*
X5370700Y5635334D01*
X5382149Y5646783D01*
X5388345Y5661742D01*
Y5677933D01*
X5382149Y5692892D01*
X5370700Y5704341D01*
X5355741Y5710537D01*
D02*
G37*
G36*
X3065642Y5645520D02*
X3049450D01*
X3034491Y5639324D01*
X3023042Y5627875D01*
X3016846Y5612916D01*
Y5596725D01*
X3023042Y5581766D01*
X3034491Y5570317D01*
X3049450Y5564120D01*
X3059272D01*
Y5554298D01*
X3065469Y5539339D01*
X3076918Y5527890D01*
X3091876Y5521694D01*
X3108068D01*
X3123027Y5527890D01*
X3134476Y5539339D01*
X3140672Y5554298D01*
Y5570490D01*
X3134476Y5585449D01*
X3123027Y5596898D01*
X3108068Y5603094D01*
X3098246D01*
Y5612916D01*
X3092049Y5627875D01*
X3080600Y5639324D01*
X3065642Y5645520D01*
D02*
G37*
G36*
X1708095Y5510699D02*
X1691904D01*
X1676945Y5504503D01*
X1670000Y5497557D01*
X1663054Y5504503D01*
X1648096Y5510699D01*
X1631904D01*
X1616945Y5504503D01*
X1605496Y5493054D01*
X1599300Y5478095D01*
Y5461903D01*
X1605496Y5446945D01*
X1616945Y5435496D01*
X1631904Y5429299D01*
X1648096D01*
X1663054Y5435496D01*
X1670000Y5442441D01*
X1676945Y5435496D01*
X1691904Y5429299D01*
X1708095D01*
X1723054Y5435496D01*
X1734503Y5446945D01*
X1740700Y5461903D01*
Y5478095D01*
X1734503Y5493054D01*
X1723054Y5504503D01*
X1708095Y5510699D01*
D02*
G37*
G36*
X3009073Y5563952D02*
X2992881D01*
X2977923Y5557755D01*
X2966474Y5546306D01*
X2960277Y5531348D01*
Y5515156D01*
X2966474Y5500197D01*
X2977923Y5488748D01*
X2992881Y5482552D01*
X3002704D01*
Y5472730D01*
X3008900Y5457771D01*
X3020349Y5446322D01*
X3035308Y5440126D01*
X3051499D01*
X3066458Y5446322D01*
X3077907Y5457771D01*
X3084104Y5472730D01*
Y5488921D01*
X3077907Y5503880D01*
X3066458Y5515329D01*
X3051499Y5521525D01*
X3041677D01*
Y5531348D01*
X3035481Y5546306D01*
X3024032Y5557755D01*
X3009073Y5563952D01*
D02*
G37*
G36*
X4445741Y5620537D02*
X4429549D01*
X4414591Y5614341D01*
X4403142Y5602892D01*
X4396945Y5587933D01*
Y5578111D01*
X4387123D01*
X4372164Y5571915D01*
X4360715Y5560466D01*
X4354519Y5545507D01*
Y5529316D01*
X4360715Y5514357D01*
X4372164Y5502908D01*
X4387123Y5496711D01*
X4403315D01*
X4418273Y5502908D01*
X4425744Y5493302D01*
X4425496Y5493055D01*
X4419300Y5478096D01*
Y5461904D01*
X4425496Y5446945D01*
X4436945Y5435496D01*
X4451904Y5429300D01*
X4468096D01*
X4483055Y5435496D01*
X4494504Y5446945D01*
X4500700Y5461904D01*
Y5471726D01*
X4510522D01*
X4525481Y5477923D01*
X4536930Y5489372D01*
X4543126Y5504331D01*
Y5520522D01*
X4536930Y5535481D01*
X4525481Y5546930D01*
X4510522Y5553126D01*
X4494331D01*
X4479372Y5546930D01*
X4471902Y5556536D01*
X4472149Y5556783D01*
X4478345Y5571742D01*
Y5587933D01*
X4472149Y5602892D01*
X4460700Y5614341D01*
X4445741Y5620537D01*
D02*
G37*
G36*
X2747978Y5410844D02*
X2731787D01*
X2716828Y5404648D01*
X2709882Y5397702D01*
X2702937Y5404648D01*
X2687978Y5410844D01*
X2671787D01*
X2656828Y5404648D01*
X2645379Y5393199D01*
X2639182Y5378240D01*
Y5362048D01*
X2645379Y5347090D01*
X2656828Y5335641D01*
X2671787Y5329444D01*
X2687978D01*
X2702937Y5335641D01*
X2709882Y5342586D01*
X2716828Y5335641D01*
X2731787Y5329444D01*
X2747978D01*
X2762937Y5335641D01*
X2774386Y5347090D01*
X2780582Y5362048D01*
Y5378240D01*
X2774386Y5393199D01*
X2762937Y5404648D01*
X2747978Y5410844D01*
D02*
G37*
G36*
X7042978Y5400844D02*
X7026787D01*
X7011828Y5394648D01*
X7004882Y5387702D01*
X6997937Y5394648D01*
X6982978Y5400844D01*
X6966787D01*
X6951828Y5394648D01*
X6940379Y5383199D01*
X6934182Y5368240D01*
Y5352048D01*
X6940379Y5337090D01*
X6951828Y5325641D01*
X6966787Y5319444D01*
X6982978D01*
X6997937Y5325641D01*
X7004882Y5332586D01*
X7011828Y5325641D01*
X7026787Y5319444D01*
X7042978D01*
X7057937Y5325641D01*
X7069386Y5337090D01*
X7075582Y5352048D01*
Y5368240D01*
X7069386Y5383199D01*
X7057937Y5394648D01*
X7042978Y5400844D01*
D02*
G37*
G36*
X7408095Y5360699D02*
X7391904D01*
X7376945Y5354503D01*
X7370000Y5347558D01*
X7363054Y5354503D01*
X7348096Y5360699D01*
X7331904D01*
X7316945Y5354503D01*
X7305496Y5343054D01*
X7299300Y5328095D01*
Y5311904D01*
X7305496Y5296945D01*
X7316945Y5285496D01*
X7331904Y5279299D01*
X7348096D01*
X7363054Y5285496D01*
X7370000Y5292441D01*
X7376945Y5285496D01*
X7391904Y5279299D01*
X7408095D01*
X7423054Y5285496D01*
X7434503Y5296945D01*
X7440700Y5311904D01*
Y5328095D01*
X7434503Y5343054D01*
X7423054Y5354503D01*
X7408095Y5360699D01*
D02*
G37*
G36*
X1348096D02*
X1331904D01*
X1316946Y5354503D01*
X1310000Y5347558D01*
X1303055Y5354503D01*
X1288096Y5360699D01*
X1271904D01*
X1256946Y5354503D01*
X1245497Y5343054D01*
X1239300Y5328095D01*
Y5311904D01*
X1245497Y5296945D01*
X1256946Y5285496D01*
X1271904Y5279299D01*
X1288096D01*
X1303055Y5285496D01*
X1310000Y5292441D01*
X1316946Y5285496D01*
X1331904Y5279299D01*
X1348096D01*
X1363055Y5285496D01*
X1374504Y5296945D01*
X1380700Y5311904D01*
Y5328095D01*
X1374504Y5343054D01*
X1363055Y5354503D01*
X1348096Y5360699D01*
D02*
G37*
G36*
X4880741Y5443037D02*
X4864550D01*
X4849591Y5436841D01*
X4838142Y5425392D01*
X4831945Y5410433D01*
Y5400611D01*
X4822123D01*
X4807164Y5394415D01*
X4795715Y5382966D01*
X4789519Y5368007D01*
Y5351816D01*
X4795715Y5336857D01*
X4807164Y5325408D01*
X4822123Y5319211D01*
X4838315D01*
X4853274Y5325408D01*
X4864723Y5336857D01*
X4870919Y5351816D01*
Y5361637D01*
X4880741D01*
X4895700Y5367834D01*
X4907149Y5379283D01*
X4913345Y5394242D01*
Y5410433D01*
X4907149Y5425392D01*
X4895700Y5436841D01*
X4880741Y5443037D01*
D02*
G37*
G36*
X3318258Y5388345D02*
X3302067D01*
X3287108Y5382149D01*
X3275659Y5370700D01*
X3269463Y5355741D01*
Y5339549D01*
X3275659Y5324591D01*
X3287108Y5313142D01*
X3302067Y5306945D01*
X3311889D01*
Y5297123D01*
X3318085Y5282164D01*
X3329534Y5270715D01*
X3344493Y5264519D01*
X3360684D01*
X3375643Y5270715D01*
X3387092Y5282164D01*
X3393289Y5297123D01*
Y5313314D01*
X3387092Y5328273D01*
X3375643Y5339722D01*
X3360684Y5345919D01*
X3350862D01*
Y5355741D01*
X3344666Y5370700D01*
X3333217Y5382149D01*
X3318258Y5388345D01*
D02*
G37*
G36*
X5705741Y5350537D02*
X5689549D01*
X5674591Y5344341D01*
X5663142Y5332892D01*
X5656945Y5317933D01*
Y5308111D01*
X5647123D01*
X5632164Y5301915D01*
X5620715Y5290466D01*
X5614519Y5275507D01*
Y5259316D01*
X5620715Y5244357D01*
X5632164Y5232908D01*
X5647123Y5226711D01*
X5663315D01*
X5678273Y5232908D01*
X5689722Y5244357D01*
X5695919Y5259316D01*
Y5269138D01*
X5705741D01*
X5720700Y5275334D01*
X5732149Y5286783D01*
X5738345Y5301742D01*
Y5317933D01*
X5732149Y5332892D01*
X5720700Y5344341D01*
X5705741Y5350537D01*
D02*
G37*
G36*
X3215669Y5268127D02*
X3199478D01*
X3184519Y5261930D01*
X3173070Y5250481D01*
X3166874Y5235522D01*
Y5219331D01*
X3173070Y5204372D01*
X3184519Y5192923D01*
X3199478Y5186727D01*
X3209300D01*
Y5176905D01*
X3215496Y5161946D01*
X3226946Y5150497D01*
X3241904Y5144300D01*
X3258096D01*
X3273055Y5150497D01*
X3284504Y5161946D01*
X3290700Y5176905D01*
Y5193096D01*
X3284504Y5208055D01*
X3273055Y5219504D01*
X3258096Y5225700D01*
X3248274D01*
Y5235522D01*
X3242077Y5250481D01*
X3230628Y5261930D01*
X3215669Y5268127D01*
D02*
G37*
G36*
X7728096Y5120699D02*
X7711904D01*
X7696945Y5114503D01*
X7690000Y5107558D01*
X7683054Y5114503D01*
X7668096Y5120699D01*
X7651904D01*
X7636945Y5114503D01*
X7625496Y5103054D01*
X7619300Y5088095D01*
Y5071904D01*
X7625496Y5056945D01*
X7636945Y5045496D01*
X7651904Y5039300D01*
X7668096D01*
X7683054Y5045496D01*
X7690000Y5052441D01*
X7696945Y5045496D01*
X7711904Y5039300D01*
X7728096D01*
X7743054Y5045496D01*
X7754503Y5056945D01*
X7760700Y5071904D01*
Y5088095D01*
X7754503Y5103054D01*
X7743054Y5114503D01*
X7728096Y5120699D01*
D02*
G37*
G36*
X1668096D02*
X1651904D01*
X1636946Y5114503D01*
X1630000Y5107558D01*
X1623055Y5114503D01*
X1608096Y5120699D01*
X1591905D01*
X1576946Y5114503D01*
X1565497Y5103054D01*
X1559300Y5088095D01*
Y5071904D01*
X1565497Y5056945D01*
X1576946Y5045496D01*
X1591905Y5039300D01*
X1608096D01*
X1623055Y5045496D01*
X1630000Y5052441D01*
X1636946Y5045496D01*
X1651904Y5039300D01*
X1668096D01*
X1683055Y5045496D01*
X1694504Y5056945D01*
X1700700Y5071904D01*
Y5088095D01*
X1694504Y5103054D01*
X1683055Y5114503D01*
X1668096Y5120699D01*
D02*
G37*
G36*
X3365504Y5215515D02*
X3349312D01*
X3334353Y5209319D01*
X3322904Y5197870D01*
X3316708Y5182911D01*
Y5166720D01*
X3322904Y5151761D01*
X3334353Y5140312D01*
X3349312Y5134115D01*
X3359134D01*
Y5124293D01*
X3365331Y5109334D01*
X3376780Y5097885D01*
X3391738Y5091689D01*
X3407930D01*
X3422889Y5097885D01*
X3434338Y5109334D01*
X3440534Y5124293D01*
Y5140485D01*
X3434338Y5155444D01*
X3422889Y5166893D01*
X3407930Y5173089D01*
X3398108D01*
Y5182911D01*
X3391911Y5197870D01*
X3380462Y5209319D01*
X3365504Y5215515D01*
D02*
G37*
G36*
X5832912Y5213292D02*
X5816720D01*
X5801761Y5207096D01*
X5790312Y5195647D01*
X5784116Y5180688D01*
Y5170866D01*
X5774294D01*
X5759335Y5164669D01*
X5747886Y5153220D01*
X5741690Y5138262D01*
Y5122070D01*
X5747886Y5107111D01*
X5759335Y5095662D01*
X5774294Y5089466D01*
X5790485D01*
X5805444Y5095662D01*
X5816893Y5107111D01*
X5823089Y5122070D01*
Y5131892D01*
X5832912D01*
X5847870Y5138089D01*
X5859319Y5149538D01*
X5865516Y5164496D01*
Y5180688D01*
X5859319Y5195647D01*
X5847870Y5207096D01*
X5832912Y5213292D01*
D02*
G37*
G36*
X5936380Y5118984D02*
X5920188D01*
X5905229Y5112788D01*
X5893780Y5101339D01*
X5887584Y5086380D01*
Y5076558D01*
X5877762D01*
X5862803Y5070361D01*
X5851354Y5058912D01*
X5845157Y5043954D01*
Y5027762D01*
X5851354Y5012803D01*
X5862803Y5001354D01*
X5877762Y4995158D01*
X5893953D01*
X5908912Y5001354D01*
X5920361Y5012803D01*
X5926557Y5027762D01*
Y5037584D01*
X5936380D01*
X5951338Y5043781D01*
X5962787Y5055230D01*
X5968984Y5070188D01*
Y5086380D01*
X5962787Y5101339D01*
X5951338Y5112788D01*
X5936380Y5118984D01*
D02*
G37*
G36*
X3268096Y5115700D02*
X3251904D01*
X3236946Y5109504D01*
X3225496Y5098055D01*
X3219300Y5083096D01*
Y5066904D01*
X3225496Y5051945D01*
X3236946Y5040496D01*
X3251904Y5034300D01*
X3261727D01*
Y5024478D01*
X3267923Y5009519D01*
X3279372Y4998070D01*
X3294331Y4991874D01*
X3310522D01*
X3325481Y4998070D01*
X3336930Y5009519D01*
X3343126Y5024478D01*
Y5040669D01*
X3336930Y5055628D01*
X3325481Y5067077D01*
X3310522Y5073274D01*
X3300700D01*
Y5083096D01*
X3294504Y5098055D01*
X3283055Y5109504D01*
X3268096Y5115700D01*
D02*
G37*
G36*
X7368096Y4970699D02*
X7351905D01*
X7336946Y4964503D01*
X7330000Y4957558D01*
X7323055Y4964503D01*
X7308096Y4970699D01*
X7291905D01*
X7276946Y4964503D01*
X7265497Y4953054D01*
X7259300Y4938095D01*
Y4921904D01*
X7265497Y4906945D01*
X7276946Y4895496D01*
X7291905Y4889300D01*
X7308096D01*
X7323055Y4895496D01*
X7330000Y4902441D01*
X7336946Y4895496D01*
X7351905Y4889300D01*
X7368096D01*
X7383055Y4895496D01*
X7394504Y4906945D01*
X7400700Y4921904D01*
Y4938095D01*
X7394504Y4953054D01*
X7383055Y4964503D01*
X7368096Y4970699D01*
D02*
G37*
G36*
X5780522Y5063126D02*
X5764331D01*
X5749372Y5056930D01*
X5737923Y5045481D01*
X5731726Y5030522D01*
Y5020700D01*
X5721904D01*
X5706945Y5014504D01*
X5695496Y5003055D01*
X5689300Y4988096D01*
Y4971904D01*
X5695496Y4956945D01*
X5706945Y4945496D01*
X5721904Y4939300D01*
X5738096D01*
X5753055Y4945496D01*
X5764504Y4956945D01*
X5770700Y4971904D01*
Y4981726D01*
X5780522D01*
X5795481Y4987923D01*
X5806930Y4999372D01*
X5813126Y5014331D01*
Y5030522D01*
X5806930Y5045481D01*
X5795481Y5056930D01*
X5780522Y5063126D01*
D02*
G37*
G36*
X6037593Y4990198D02*
X6021401D01*
X6006443Y4984001D01*
X5994994Y4972552D01*
X5988797Y4957593D01*
Y4947771D01*
X5978975D01*
X5964016Y4941575D01*
X5952567Y4930126D01*
X5951931Y4928589D01*
X5940197Y4931402D01*
Y4947594D01*
X5934001Y4962552D01*
X5922552Y4974001D01*
X5907593Y4980198D01*
X5891402D01*
X5876443Y4974001D01*
X5864994Y4962552D01*
X5858798Y4947594D01*
Y4937771D01*
X5848975D01*
X5834017Y4931575D01*
X5822567Y4920126D01*
X5816371Y4905167D01*
Y4888976D01*
X5822567Y4874017D01*
X5834017Y4862568D01*
X5848975Y4856372D01*
X5865167D01*
X5880126Y4862568D01*
X5891575Y4874017D01*
X5897771Y4888976D01*
Y4898798D01*
X5907593D01*
X5922552Y4904994D01*
X5934001Y4916443D01*
X5934638Y4917980D01*
X5946371Y4915167D01*
Y4898975D01*
X5952567Y4884017D01*
X5964016Y4872568D01*
X5974250Y4868329D01*
X5975789Y4864807D01*
X5977097Y4855055D01*
X5977003Y4854488D01*
X5967849Y4845334D01*
X5961653Y4830375D01*
Y4820553D01*
X5951830D01*
X5936872Y4814357D01*
X5925422Y4802908D01*
X5919226Y4787949D01*
Y4771757D01*
X5925422Y4756798D01*
X5936872Y4745349D01*
X5951830Y4739153D01*
X5968022D01*
X5982981Y4745349D01*
X5994430Y4756798D01*
X6000626Y4771757D01*
Y4781579D01*
X6010448D01*
X6025407Y4787776D01*
X6036856Y4799225D01*
X6043052Y4814184D01*
Y4830375D01*
X6036856Y4845334D01*
X6025407Y4856783D01*
X6015173Y4861022D01*
X6013634Y4864543D01*
X6012326Y4874296D01*
X6012420Y4874862D01*
X6021574Y4884017D01*
X6027771Y4898975D01*
Y4908798D01*
X6037593D01*
X6052552Y4914994D01*
X6064001Y4926443D01*
X6070197Y4941402D01*
Y4957593D01*
X6064001Y4972552D01*
X6052552Y4984001D01*
X6037593Y4990198D01*
D02*
G37*
G36*
X2989812Y5043127D02*
X2973620D01*
X2958662Y5036930D01*
X2947213Y5025481D01*
X2941016Y5010522D01*
Y4994331D01*
X2947213Y4979372D01*
X2958662Y4967923D01*
X2973620Y4961727D01*
X2983047D01*
Y4952195D01*
X2989243Y4937236D01*
X3000692Y4925787D01*
X3015651Y4919591D01*
X3031842D01*
X3046801Y4925787D01*
X3058250Y4937236D01*
X3064446Y4952195D01*
Y4968386D01*
X3058250Y4983345D01*
X3046801Y4994794D01*
X3031842Y5000991D01*
X3022416D01*
Y5010522D01*
X3016220Y5025481D01*
X3004771Y5036930D01*
X2989812Y5043127D01*
D02*
G37*
G36*
X1708095Y4810699D02*
X1691904D01*
X1676945Y4804503D01*
X1670000Y4797558D01*
X1663054Y4804503D01*
X1648096Y4810699D01*
X1631904D01*
X1616945Y4804503D01*
X1605496Y4793054D01*
X1599300Y4778095D01*
Y4761904D01*
X1605496Y4746945D01*
X1616945Y4735496D01*
X1631904Y4729299D01*
X1648096D01*
X1663054Y4735496D01*
X1670000Y4742441D01*
X1676945Y4735496D01*
X1691904Y4729299D01*
X1708095D01*
X1723054Y4735496D01*
X1734503Y4746945D01*
X1740700Y4761904D01*
Y4778095D01*
X1734503Y4793054D01*
X1723054Y4804503D01*
X1708095Y4810699D01*
D02*
G37*
G36*
X2894827Y4914914D02*
X2878635D01*
X2863677Y4908717D01*
X2852227Y4897268D01*
X2846031Y4882310D01*
Y4866118D01*
X2852227Y4851159D01*
X2863677Y4839710D01*
X2878635Y4833514D01*
X2888458D01*
Y4823692D01*
X2894654Y4808733D01*
X2906103Y4797284D01*
X2921062Y4791087D01*
X2937253D01*
X2952212Y4797284D01*
X2963661Y4808733D01*
X2969857Y4823692D01*
Y4839883D01*
X2963661Y4854842D01*
X2952212Y4866291D01*
X2937253Y4872487D01*
X2927431D01*
Y4882310D01*
X2921235Y4897268D01*
X2909786Y4908717D01*
X2894827Y4914914D01*
D02*
G37*
G36*
X3048096Y4895699D02*
X3031904D01*
X3016945Y4889503D01*
X3005496Y4878053D01*
X2999300Y4863095D01*
Y4846903D01*
X3005496Y4831944D01*
X3016945Y4820495D01*
X3031904Y4814299D01*
X3041726D01*
Y4804477D01*
X3047923Y4789518D01*
X3059372Y4778069D01*
X3074331Y4771873D01*
X3090522D01*
X3105481Y4778069D01*
X3116930Y4789518D01*
X3123126Y4804477D01*
Y4820668D01*
X3116930Y4835627D01*
X3105481Y4847076D01*
X3090522Y4853272D01*
X3080700D01*
Y4863095D01*
X3074504Y4878053D01*
X3063055Y4889503D01*
X3048096Y4895699D01*
D02*
G37*
G36*
X6440479Y4863344D02*
X6424288D01*
X6409329Y4857148D01*
X6397880Y4845698D01*
X6391683Y4830740D01*
Y4814548D01*
X6397880Y4799589D01*
X6404825Y4792644D01*
X6397880Y4785699D01*
X6391683Y4770740D01*
Y4754548D01*
X6397880Y4739589D01*
X6409329Y4728140D01*
X6424288Y4721944D01*
X6440479D01*
X6455438Y4728140D01*
X6466887Y4739589D01*
X6473083Y4754548D01*
Y4770740D01*
X6466887Y4785699D01*
X6459942Y4792644D01*
X6466887Y4799589D01*
X6473083Y4814548D01*
Y4830740D01*
X6466887Y4845698D01*
X6455438Y4857148D01*
X6440479Y4863344D01*
D02*
G37*
G36*
X2145479D02*
X2129288D01*
X2114329Y4857148D01*
X2102880Y4845698D01*
X2096683Y4830740D01*
Y4814548D01*
X2102880Y4799589D01*
X2109825Y4792644D01*
X2102880Y4785699D01*
X2096683Y4770740D01*
Y4754548D01*
X2102880Y4739589D01*
X2114329Y4728140D01*
X2129288Y4721944D01*
X2145479D01*
X2160438Y4728140D01*
X2171887Y4739589D01*
X2178083Y4754548D01*
Y4770740D01*
X2171887Y4785699D01*
X2164942Y4792644D01*
X2171887Y4799589D01*
X2178083Y4814548D01*
Y4830740D01*
X2171887Y4845698D01*
X2160438Y4857148D01*
X2145479Y4863344D01*
D02*
G37*
G36*
X6080448Y4797979D02*
X6064257D01*
X6049298Y4791783D01*
X6037849Y4780334D01*
X6031653Y4765375D01*
Y4755553D01*
X6021830D01*
X6006872Y4749357D01*
X5995423Y4737907D01*
X5989226Y4722949D01*
Y4706757D01*
X5995423Y4691798D01*
X6006872Y4680349D01*
X6021830Y4674153D01*
X6038022D01*
X6052981Y4680349D01*
X6064430Y4691798D01*
X6070626Y4706757D01*
Y4716579D01*
X6080448D01*
X6095407Y4722776D01*
X6106856Y4734225D01*
X6113053Y4749184D01*
Y4765375D01*
X6106856Y4780334D01*
X6095407Y4791783D01*
X6080448Y4797979D01*
D02*
G37*
G36*
X7408095Y4660699D02*
X7391904D01*
X7376945Y4654503D01*
X7370000Y4647558D01*
X7363054Y4654503D01*
X7348096Y4660699D01*
X7331904D01*
X7316945Y4654503D01*
X7305496Y4643054D01*
X7299300Y4628095D01*
Y4611904D01*
X7305496Y4596945D01*
X7316945Y4585496D01*
X7331904Y4579299D01*
X7348096D01*
X7363054Y4585496D01*
X7370000Y4592441D01*
X7376945Y4585496D01*
X7391904Y4579299D01*
X7408095D01*
X7423054Y4585496D01*
X7434503Y4596945D01*
X7440700Y4611904D01*
Y4628095D01*
X7434503Y4643054D01*
X7423054Y4654503D01*
X7408095Y4660699D01*
D02*
G37*
G36*
X1348096D02*
X1331904D01*
X1316946Y4654503D01*
X1310000Y4647558D01*
X1303055Y4654503D01*
X1288096Y4660699D01*
X1271904D01*
X1256946Y4654503D01*
X1245497Y4643054D01*
X1239300Y4628095D01*
Y4611904D01*
X1245497Y4596945D01*
X1256946Y4585496D01*
X1271904Y4579299D01*
X1288096D01*
X1303055Y4585496D01*
X1310000Y4592441D01*
X1316946Y4585496D01*
X1331904Y4579299D01*
X1348096D01*
X1363055Y4585496D01*
X1374504Y4596945D01*
X1380700Y4611904D01*
Y4628095D01*
X1374504Y4643054D01*
X1363055Y4654503D01*
X1348096Y4660699D01*
D02*
G37*
G36*
X3454692Y4754874D02*
X3438501D01*
X3423542Y4748678D01*
X3412093Y4737229D01*
X3405896Y4722270D01*
Y4706079D01*
X3412093Y4691120D01*
X3423542Y4679671D01*
X3438501Y4673475D01*
X3448323D01*
Y4663652D01*
X3454519Y4648694D01*
X3465968Y4637244D01*
X3480927Y4631048D01*
X3497118D01*
X3512077Y4637244D01*
X3523526Y4648694D01*
X3529723Y4663652D01*
Y4679844D01*
X3523526Y4694803D01*
X3512077Y4706252D01*
X3497118Y4712448D01*
X3487296D01*
Y4722270D01*
X3481100Y4737229D01*
X3469651Y4748678D01*
X3454692Y4754874D01*
D02*
G37*
G36*
X2826383Y4586515D02*
X2810192D01*
X2795233Y4580319D01*
X2788288Y4573374D01*
X2781342Y4580319D01*
X2766383Y4586515D01*
X2750192D01*
X2735233Y4580319D01*
X2723784Y4568870D01*
X2717587Y4553911D01*
Y4537720D01*
X2723784Y4522761D01*
X2735233Y4511312D01*
X2743980Y4507689D01*
Y4493942D01*
X2735233Y4490319D01*
X2723784Y4478870D01*
X2717587Y4463911D01*
Y4447720D01*
X2723784Y4432761D01*
X2735233Y4421312D01*
X2750192Y4415115D01*
X2766383D01*
X2781342Y4421312D01*
X2788288Y4428257D01*
X2795233Y4421312D01*
X2810192Y4415115D01*
X2826383D01*
X2841342Y4421312D01*
X2852791Y4432761D01*
X2858987Y4447720D01*
Y4463911D01*
X2852791Y4478870D01*
X2841342Y4490319D01*
X2832595Y4493942D01*
Y4507689D01*
X2841342Y4511312D01*
X2852791Y4522761D01*
X2858987Y4537720D01*
Y4553911D01*
X2852791Y4568870D01*
X2841342Y4580319D01*
X2826383Y4586515D01*
D02*
G37*
G36*
X3385669Y4683126D02*
X3369478D01*
X3354519Y4676930D01*
X3343070Y4665481D01*
X3336874Y4650522D01*
Y4634331D01*
X3343070Y4619372D01*
X3354519Y4607923D01*
X3369478Y4601726D01*
X3379300D01*
Y4591904D01*
X3385496Y4576945D01*
X3396945Y4565496D01*
X3411904Y4559300D01*
X3428096D01*
X3443055Y4565496D01*
X3454504Y4576945D01*
X3460700Y4591904D01*
Y4608096D01*
X3454504Y4623055D01*
X3443055Y4634504D01*
X3428096Y4640700D01*
X3418274D01*
Y4650522D01*
X3412077Y4665481D01*
X3400628Y4676930D01*
X3385669Y4683126D01*
D02*
G37*
G36*
X3785741Y4660537D02*
X3769549D01*
X3754591Y4654341D01*
X3743142Y4642892D01*
X3736945Y4627933D01*
Y4618111D01*
X3727123D01*
X3712164Y4611915D01*
X3700715Y4600466D01*
X3694519Y4585507D01*
Y4569315D01*
X3700715Y4554357D01*
X3712164Y4542908D01*
X3727123Y4536711D01*
X3743315D01*
X3758273Y4542908D01*
X3769722Y4554357D01*
X3775919Y4569315D01*
Y4579137D01*
X3785741D01*
X3800700Y4585334D01*
X3812149Y4596783D01*
X3818345Y4611742D01*
Y4627933D01*
X3812149Y4642892D01*
X3800700Y4654341D01*
X3785741Y4660537D01*
D02*
G37*
G36*
X7728096Y4420700D02*
X7711904D01*
X7696945Y4414503D01*
X7690000Y4407558D01*
X7683054Y4414503D01*
X7668096Y4420700D01*
X7651904D01*
X7636945Y4414503D01*
X7625496Y4403054D01*
X7619300Y4388095D01*
Y4371904D01*
X7625496Y4356945D01*
X7636945Y4345496D01*
X7651904Y4339300D01*
X7668096D01*
X7683054Y4345496D01*
X7690000Y4352441D01*
X7696945Y4345496D01*
X7711904Y4339300D01*
X7728096D01*
X7743054Y4345496D01*
X7754503Y4356945D01*
X7760700Y4371904D01*
Y4388095D01*
X7754503Y4403054D01*
X7743054Y4414503D01*
X7728096Y4420700D01*
D02*
G37*
G36*
X1668096D02*
X1651904D01*
X1636946Y4414503D01*
X1630000Y4407558D01*
X1623055Y4414503D01*
X1608096Y4420700D01*
X1591905D01*
X1576946Y4414503D01*
X1565497Y4403054D01*
X1559300Y4388095D01*
Y4371904D01*
X1565497Y4356945D01*
X1576946Y4345496D01*
X1591905Y4339300D01*
X1608096D01*
X1623055Y4345496D01*
X1630000Y4352441D01*
X1636946Y4345496D01*
X1651904Y4339300D01*
X1668096D01*
X1683055Y4345496D01*
X1694504Y4356945D01*
X1700700Y4371904D01*
Y4388095D01*
X1694504Y4403054D01*
X1683055Y4414503D01*
X1668096Y4420700D01*
D02*
G37*
G36*
X5668170Y4400847D02*
X5651978D01*
X5637019Y4394651D01*
X5625570Y4383202D01*
X5619374Y4368243D01*
Y4358421D01*
X5609552D01*
X5594593Y4352225D01*
X5583144Y4340776D01*
X5576948Y4325817D01*
Y4309625D01*
X5583144Y4294667D01*
X5573820Y4286515D01*
X5573074Y4287262D01*
X5558115Y4293458D01*
X5541924D01*
X5526965Y4287262D01*
X5515516Y4275813D01*
X5509319Y4260854D01*
Y4251032D01*
X5499498D01*
X5484539Y4244835D01*
X5473090Y4233386D01*
X5466893Y4218427D01*
Y4202236D01*
X5473090Y4187277D01*
X5484539Y4175828D01*
X5499498Y4169632D01*
X5515689D01*
X5530648Y4175828D01*
X5542097Y4187277D01*
X5548293Y4202236D01*
Y4212058D01*
X5558115D01*
X5573074Y4218254D01*
X5584523Y4229704D01*
X5590719Y4244662D01*
Y4260854D01*
X5584523Y4275812D01*
X5593847Y4283964D01*
X5594593Y4283217D01*
X5609552Y4277021D01*
X5625743D01*
X5640702Y4283217D01*
X5652151Y4294667D01*
X5658348Y4309625D01*
Y4319448D01*
X5668170D01*
X5683129Y4325644D01*
X5694578Y4337093D01*
X5700774Y4352052D01*
Y4368243D01*
X5694578Y4383202D01*
X5683129Y4394651D01*
X5668170Y4400847D01*
D02*
G37*
G36*
X2326423Y4298988D02*
X2310231D01*
X2295273Y4292791D01*
X2283823Y4281342D01*
X2280200Y4272595D01*
X2266454D01*
X2262831Y4281342D01*
X2251382Y4292791D01*
X2236423Y4298988D01*
X2220231D01*
X2205272Y4292791D01*
X2193823Y4281342D01*
X2187627Y4266383D01*
Y4250192D01*
X2193823Y4235233D01*
X2200769Y4228288D01*
X2193823Y4221342D01*
X2187627Y4206383D01*
Y4190192D01*
X2193823Y4175233D01*
X2205272Y4163784D01*
X2220231Y4157588D01*
X2236423D01*
X2251382Y4163784D01*
X2262831Y4175233D01*
X2266454Y4183980D01*
X2280200D01*
X2283823Y4175233D01*
X2295273Y4163784D01*
X2310231Y4157588D01*
X2326423D01*
X2341382Y4163784D01*
X2352831Y4175233D01*
X2359027Y4190192D01*
Y4206383D01*
X2352831Y4221342D01*
X2345885Y4228288D01*
X2352831Y4235233D01*
X2359027Y4250192D01*
Y4266383D01*
X2352831Y4281342D01*
X2341382Y4292791D01*
X2326423Y4298988D01*
D02*
G37*
G36*
X7368096Y4270700D02*
X7351905D01*
X7336946Y4264503D01*
X7330000Y4257558D01*
X7323055Y4264503D01*
X7308096Y4270700D01*
X7291905D01*
X7276946Y4264503D01*
X7265497Y4253054D01*
X7259300Y4238095D01*
Y4221904D01*
X7265497Y4206945D01*
X7276946Y4195496D01*
X7291905Y4189300D01*
X7308096D01*
X7323055Y4195496D01*
X7330000Y4202441D01*
X7336946Y4195496D01*
X7351905Y4189300D01*
X7368096D01*
X7383055Y4195496D01*
X7394504Y4206945D01*
X7400700Y4221904D01*
Y4238095D01*
X7394504Y4253054D01*
X7383055Y4264503D01*
X7368096Y4270700D01*
D02*
G37*
G36*
X2983954Y4316557D02*
X2967763D01*
X2952804Y4310361D01*
X2941355Y4298912D01*
X2935158Y4283953D01*
Y4274131D01*
X2925336D01*
X2910377Y4267935D01*
X2898928Y4256486D01*
X2892732Y4241527D01*
Y4225335D01*
X2898928Y4210376D01*
X2910377Y4198927D01*
X2925336Y4192731D01*
X2941528D01*
X2956487Y4198927D01*
X2967936Y4210376D01*
X2974132Y4225335D01*
Y4235157D01*
X2983954D01*
X2998913Y4241354D01*
X3010362Y4252803D01*
X3016558Y4267762D01*
Y4283953D01*
X3010362Y4298912D01*
X2998913Y4310361D01*
X2983954Y4316557D01*
D02*
G37*
G36*
X6768044Y4280857D02*
X6751852D01*
X6736893Y4274660D01*
X6725444Y4263211D01*
X6719248Y4248252D01*
Y4232061D01*
X6725444Y4217102D01*
X6732390Y4210157D01*
X6725444Y4203211D01*
X6719248Y4188252D01*
Y4172061D01*
X6725444Y4157102D01*
X6736893Y4145653D01*
X6751852Y4139457D01*
X6768044D01*
X6783002Y4145653D01*
X6794451Y4157102D01*
X6800648Y4172061D01*
Y4188252D01*
X6794451Y4203211D01*
X6787506Y4210157D01*
X6794451Y4217102D01*
X6800648Y4232061D01*
Y4248252D01*
X6794451Y4263211D01*
X6783002Y4274660D01*
X6768044Y4280857D01*
D02*
G37*
G36*
X7058044Y4280856D02*
X7041852D01*
X7026893Y4274660D01*
X7015444Y4263211D01*
X7009248Y4248252D01*
Y4232061D01*
X7015444Y4217102D01*
X7022390Y4210156D01*
X7015444Y4203211D01*
X7009248Y4188252D01*
Y4172061D01*
X7015444Y4157102D01*
X7026893Y4145653D01*
X7041852Y4139457D01*
X7058044D01*
X7073003Y4145653D01*
X7084452Y4157102D01*
X7090648Y4172061D01*
Y4188252D01*
X7084452Y4203211D01*
X7077506Y4210156D01*
X7084452Y4217102D01*
X7090648Y4232061D01*
Y4248252D01*
X7084452Y4263211D01*
X7073003Y4274660D01*
X7058044Y4280856D01*
D02*
G37*
G36*
X1708095Y4110699D02*
X1691904D01*
X1676945Y4104503D01*
X1670000Y4097558D01*
X1663054Y4104503D01*
X1648096Y4110699D01*
X1631904D01*
X1616945Y4104503D01*
X1605496Y4093054D01*
X1599300Y4078095D01*
Y4061904D01*
X1605496Y4046945D01*
X1616945Y4035496D01*
X1631904Y4029300D01*
X1648096D01*
X1663054Y4035496D01*
X1670000Y4042441D01*
X1676945Y4035496D01*
X1691904Y4029300D01*
X1708095D01*
X1723054Y4035496D01*
X1734503Y4046945D01*
X1740700Y4061904D01*
Y4078095D01*
X1734503Y4093054D01*
X1723054Y4104503D01*
X1708095Y4110699D01*
D02*
G37*
G36*
X6108258Y4218345D02*
X6092067D01*
X6077108Y4212149D01*
X6065659Y4200700D01*
X6059463Y4185741D01*
Y4169549D01*
X6065659Y4154591D01*
X6077108Y4143142D01*
X6092067Y4136945D01*
X6101889D01*
Y4127123D01*
X6108085Y4112164D01*
X6119534Y4100715D01*
X6134493Y4094519D01*
X6150684D01*
X6165643Y4100715D01*
X6177092Y4112164D01*
X6183289Y4127123D01*
Y4143315D01*
X6177092Y4158273D01*
X6165643Y4169722D01*
X6150684Y4175919D01*
X6140862D01*
Y4185741D01*
X6134666Y4200700D01*
X6123217Y4212149D01*
X6108258Y4218345D01*
D02*
G37*
G36*
X3088954Y4210699D02*
X3072763D01*
X3057804Y4204503D01*
X3046355Y4193054D01*
X3040159Y4178095D01*
Y4168273D01*
X3030337D01*
X3015378Y4162077D01*
X3003929Y4150628D01*
X2997732Y4135669D01*
Y4119477D01*
X3003929Y4104519D01*
X3015378Y4093070D01*
X3030337Y4086873D01*
X3046528D01*
X3061487Y4093070D01*
X3072936Y4104519D01*
X3079132Y4119477D01*
Y4129300D01*
X3088954D01*
X3103913Y4135496D01*
X3115362Y4146945D01*
X3121559Y4161904D01*
Y4178095D01*
X3115362Y4193054D01*
X3103913Y4204503D01*
X3088954Y4210699D01*
D02*
G37*
G36*
X2933954Y4170700D02*
X2917762D01*
X2902803Y4164503D01*
X2891354Y4153054D01*
X2885158Y4138096D01*
Y4128273D01*
X2875336D01*
X2860377Y4122077D01*
X2848928Y4110628D01*
X2842732Y4095669D01*
Y4079478D01*
X2848928Y4064519D01*
X2860377Y4053070D01*
X2875336Y4046874D01*
X2891527D01*
X2906486Y4053070D01*
X2917935Y4064519D01*
X2924132Y4079478D01*
Y4089300D01*
X2933954D01*
X2948913Y4095496D01*
X2960362Y4106945D01*
X2966558Y4121904D01*
Y4138096D01*
X2960362Y4153054D01*
X2948913Y4164503D01*
X2933954Y4170700D01*
D02*
G37*
G36*
X5857385Y4167269D02*
X5841194D01*
X5826235Y4161072D01*
X5814786Y4149623D01*
X5808589Y4134665D01*
Y4118473D01*
X5814786Y4103514D01*
X5826235Y4092065D01*
X5841194Y4085869D01*
X5851016D01*
Y4076047D01*
X5857212Y4061088D01*
X5868661Y4049639D01*
X5883620Y4043443D01*
X5899811D01*
X5914770Y4049639D01*
X5926219Y4061088D01*
X5932416Y4076047D01*
Y4092238D01*
X5926219Y4107197D01*
X5914770Y4118646D01*
X5899811Y4124842D01*
X5889989D01*
Y4134665D01*
X5883793Y4149623D01*
X5872344Y4161072D01*
X5857385Y4167269D01*
D02*
G37*
G36*
X6298044Y4120856D02*
X6281852D01*
X6266893Y4114660D01*
X6255444Y4103211D01*
X6249248Y4088252D01*
Y4072061D01*
X6255444Y4057102D01*
X6262390Y4050156D01*
X6255444Y4043211D01*
X6249248Y4028252D01*
Y4012061D01*
X6255444Y3997102D01*
X6266893Y3985653D01*
X6281852Y3979457D01*
X6298044D01*
X6313003Y3985653D01*
X6324452Y3997102D01*
X6330648Y4012061D01*
Y4028252D01*
X6324452Y4043211D01*
X6317506Y4050156D01*
X6324452Y4057102D01*
X6330648Y4072061D01*
Y4088252D01*
X6324452Y4103211D01*
X6313003Y4114660D01*
X6298044Y4120856D01*
D02*
G37*
G36*
X5773954Y4080700D02*
X5757762D01*
X5742804Y4074504D01*
X5731355Y4063055D01*
X5725158Y4048096D01*
Y4031905D01*
X5731355Y4016946D01*
X5742804Y4005497D01*
X5757762Y3999300D01*
X5767584D01*
Y3989478D01*
X5773781Y3974519D01*
X5785230Y3963070D01*
X5800189Y3956874D01*
X5816380D01*
X5831339Y3963070D01*
X5842788Y3974519D01*
X5848984Y3989478D01*
Y4005670D01*
X5842788Y4020628D01*
X5831339Y4032078D01*
X5816380Y4038274D01*
X5806558D01*
Y4048096D01*
X5800362Y4063055D01*
X5788913Y4074504D01*
X5773954Y4080700D01*
D02*
G37*
G36*
X7408095Y3960699D02*
X7391904D01*
X7376945Y3954503D01*
X7370000Y3947558D01*
X7363054Y3954503D01*
X7348096Y3960699D01*
X7331904D01*
X7316945Y3954503D01*
X7305496Y3943054D01*
X7299300Y3928095D01*
Y3911904D01*
X7305496Y3896945D01*
X7316945Y3885496D01*
X7331904Y3879300D01*
X7348096D01*
X7363054Y3885496D01*
X7370000Y3892441D01*
X7376945Y3885496D01*
X7391904Y3879300D01*
X7408095D01*
X7423054Y3885496D01*
X7434503Y3896945D01*
X7440700Y3911904D01*
Y3928095D01*
X7434503Y3943054D01*
X7423054Y3954503D01*
X7408095Y3960699D01*
D02*
G37*
G36*
X1348096D02*
X1331904D01*
X1316946Y3954503D01*
X1310000Y3947558D01*
X1303055Y3954503D01*
X1288096Y3960699D01*
X1271904D01*
X1256946Y3954503D01*
X1245497Y3943054D01*
X1239300Y3928095D01*
Y3911904D01*
X1245497Y3896945D01*
X1256946Y3885496D01*
X1271904Y3879300D01*
X1288096D01*
X1303055Y3885496D01*
X1310000Y3892441D01*
X1316946Y3885496D01*
X1331904Y3879300D01*
X1348096D01*
X1363055Y3885496D01*
X1374504Y3896945D01*
X1380700Y3911904D01*
Y3928095D01*
X1374504Y3943054D01*
X1363055Y3954503D01*
X1348096Y3960699D01*
D02*
G37*
G36*
X5288170Y4060848D02*
X5271978D01*
X5257019Y4054651D01*
X5245570Y4043202D01*
X5239374Y4028243D01*
Y4018421D01*
X5229552D01*
X5214593Y4012225D01*
X5203144Y4000776D01*
X5196948Y3985817D01*
Y3969626D01*
X5203144Y3954667D01*
X5214593Y3943218D01*
X5229552Y3937021D01*
X5245743D01*
X5260702Y3943218D01*
X5272151Y3954667D01*
X5278348Y3969626D01*
Y3979448D01*
X5288170D01*
X5303128Y3985644D01*
X5314577Y3997093D01*
X5320774Y4012052D01*
Y4028243D01*
X5314577Y4043202D01*
X5303128Y4054651D01*
X5288170Y4060848D01*
D02*
G37*
G36*
X3042238Y4060700D02*
X3026047D01*
X3011088Y4054503D01*
X2999639Y4043054D01*
X2993443Y4028095D01*
Y4018273D01*
X2983620D01*
X2968662Y4012077D01*
X2957213Y4000628D01*
X2951016Y3985669D01*
Y3969478D01*
X2957213Y3954519D01*
X2968662Y3943070D01*
X2983620Y3936874D01*
X2999812D01*
X3014771Y3943070D01*
X3026220Y3954519D01*
X3032416Y3969478D01*
Y3979300D01*
X3042238D01*
X3057197Y3985496D01*
X3068646Y3996945D01*
X3074842Y4011904D01*
Y4028095D01*
X3068646Y4043054D01*
X3057197Y4054503D01*
X3042238Y4060700D01*
D02*
G37*
G36*
X5917385Y4017268D02*
X5901194D01*
X5886235Y4011072D01*
X5874786Y3999623D01*
X5868589Y3984664D01*
Y3968473D01*
X5874786Y3953514D01*
X5886235Y3942065D01*
X5901194Y3935868D01*
X5911016D01*
Y3926046D01*
X5917212Y3911087D01*
X5928661Y3899638D01*
X5943620Y3893442D01*
X5959812D01*
X5974770Y3899638D01*
X5986219Y3911087D01*
X5992416Y3926046D01*
Y3942238D01*
X5986219Y3957197D01*
X5974770Y3968646D01*
X5959812Y3974842D01*
X5949989D01*
Y3984664D01*
X5943793Y3999623D01*
X5932344Y4011072D01*
X5917385Y4017268D01*
D02*
G37*
G36*
X5838598Y3940197D02*
X5822407D01*
X5807448Y3934001D01*
X5795999Y3922552D01*
X5789802Y3907593D01*
Y3891401D01*
X5795999Y3876443D01*
X5807448Y3864994D01*
X5822407Y3858797D01*
X5832229D01*
Y3848975D01*
X5838425Y3834016D01*
X5849874Y3822567D01*
X5864833Y3816371D01*
X5881024D01*
X5895983Y3822567D01*
X5907432Y3834016D01*
X5913629Y3848975D01*
Y3865167D01*
X5907432Y3880125D01*
X5895983Y3891574D01*
X5881024Y3897771D01*
X5871202D01*
Y3907593D01*
X5865006Y3922552D01*
X5853557Y3934001D01*
X5838598Y3940197D01*
D02*
G37*
G36*
X3222704Y3868648D02*
X3206512D01*
X3191553Y3862451D01*
X3180104Y3851002D01*
X3173908Y3836043D01*
Y3819852D01*
X3180104Y3804893D01*
X3191553Y3793444D01*
X3206512Y3787248D01*
X3216334D01*
Y3777426D01*
X3222530Y3762467D01*
X3233979Y3751018D01*
X3248938Y3744822D01*
X3265130D01*
X3280088Y3751018D01*
X3291537Y3762467D01*
X3297734Y3777426D01*
Y3793617D01*
X3291537Y3808576D01*
X3280088Y3820025D01*
X3265130Y3826221D01*
X3255308D01*
Y3836043D01*
X3249112Y3851002D01*
X3237663Y3862451D01*
X3222704Y3868648D01*
D02*
G37*
G36*
X5741603Y3861985D02*
X5725412D01*
X5710453Y3855789D01*
X5699004Y3844340D01*
X5692808Y3829381D01*
Y3813189D01*
X5699004Y3798230D01*
X5710453Y3786781D01*
X5725412Y3780585D01*
X5735234D01*
Y3770763D01*
X5741430Y3755804D01*
X5752880Y3744355D01*
X5767838Y3738159D01*
X5784030D01*
X5798989Y3744355D01*
X5810438Y3755804D01*
X5816634Y3770763D01*
Y3786954D01*
X5810438Y3801913D01*
X5798989Y3813362D01*
X5784030Y3819559D01*
X5774208D01*
Y3829381D01*
X5768011Y3844340D01*
X5756562Y3855789D01*
X5741603Y3861985D01*
D02*
G37*
G36*
X7728096Y3720700D02*
X7711904D01*
X7696945Y3714503D01*
X7690000Y3707558D01*
X7683054Y3714503D01*
X7668096Y3720700D01*
X7651904D01*
X7636945Y3714503D01*
X7625496Y3703054D01*
X7619300Y3688095D01*
Y3671904D01*
X7625496Y3656945D01*
X7636945Y3645496D01*
X7651904Y3639300D01*
X7668096D01*
X7683054Y3645496D01*
X7690000Y3652442D01*
X7696945Y3645496D01*
X7711904Y3639300D01*
X7728096D01*
X7743054Y3645496D01*
X7754503Y3656945D01*
X7760700Y3671904D01*
Y3688095D01*
X7754503Y3703054D01*
X7743054Y3714503D01*
X7728096Y3720700D01*
D02*
G37*
G36*
X1668096D02*
X1651904D01*
X1636946Y3714503D01*
X1630000Y3707558D01*
X1623055Y3714503D01*
X1608096Y3720700D01*
X1591905D01*
X1576946Y3714503D01*
X1565497Y3703054D01*
X1559300Y3688095D01*
Y3671904D01*
X1565497Y3656945D01*
X1576946Y3645496D01*
X1591905Y3639300D01*
X1608096D01*
X1623055Y3645496D01*
X1630000Y3652442D01*
X1636946Y3645496D01*
X1651904Y3639300D01*
X1668096D01*
X1683055Y3645496D01*
X1694504Y3656945D01*
X1700700Y3671904D01*
Y3688095D01*
X1694504Y3703054D01*
X1683055Y3714503D01*
X1668096Y3720700D01*
D02*
G37*
G36*
X2158096Y3690700D02*
X2141904D01*
X2126945Y3684504D01*
X2115496Y3673055D01*
X2109300Y3658096D01*
Y3641904D01*
X2115496Y3626946D01*
X2126945Y3615496D01*
X2141904Y3609300D01*
X2158096D01*
X2173055Y3615496D01*
X2181132Y3623573D01*
X2190215Y3614490D01*
X2205173Y3608294D01*
X2221365D01*
X2236324Y3614490D01*
X2247773Y3625939D01*
X2253969Y3640898D01*
Y3657090D01*
X2247773Y3672049D01*
X2236324Y3683498D01*
X2221365Y3689694D01*
X2205173D01*
X2190215Y3683498D01*
X2182138Y3675421D01*
X2173055Y3684504D01*
X2158096Y3690700D01*
D02*
G37*
G36*
X6478148Y3710544D02*
X6461956D01*
X6446998Y3704347D01*
X6435548Y3692898D01*
X6429352Y3677939D01*
Y3661748D01*
X6435548Y3646789D01*
X6442494Y3639843D01*
X6435548Y3632898D01*
X6429352Y3617939D01*
Y3601748D01*
X6435548Y3586789D01*
X6446998Y3575340D01*
X6461956Y3569143D01*
X6478148D01*
X6493107Y3575340D01*
X6504556Y3586789D01*
X6510752Y3601748D01*
Y3617939D01*
X6504556Y3632898D01*
X6497610Y3639843D01*
X6504556Y3646789D01*
X6510752Y3661748D01*
Y3677939D01*
X6504556Y3692898D01*
X6493107Y3704347D01*
X6478148Y3710544D01*
D02*
G37*
G36*
X6338148D02*
X6321956D01*
X6306998Y3704347D01*
X6295548Y3692898D01*
X6289352Y3677939D01*
Y3661748D01*
X6295548Y3646789D01*
X6302494Y3639843D01*
X6295548Y3632898D01*
X6289352Y3617939D01*
Y3601748D01*
X6295548Y3586789D01*
X6306998Y3575340D01*
X6321956Y3569143D01*
X6338148D01*
X6353107Y3575340D01*
X6364556Y3586789D01*
X6370752Y3601748D01*
Y3617939D01*
X6364556Y3632898D01*
X6357610Y3639843D01*
X6364556Y3646789D01*
X6370752Y3661748D01*
Y3677939D01*
X6364556Y3692898D01*
X6353107Y3704347D01*
X6338148Y3710544D01*
D02*
G37*
G36*
X6128148D02*
X6111956D01*
X6096997Y3704347D01*
X6085548Y3692898D01*
X6079352Y3677939D01*
Y3661748D01*
X6085548Y3646789D01*
X6092494Y3639843D01*
X6085548Y3632898D01*
X6079352Y3617939D01*
Y3601748D01*
X6085548Y3586789D01*
X6096997Y3575340D01*
X6111956Y3569143D01*
X6128148D01*
X6143107Y3575340D01*
X6154556Y3586789D01*
X6160752Y3601748D01*
Y3617939D01*
X6154556Y3632898D01*
X6147610Y3639843D01*
X6154556Y3646789D01*
X6160752Y3661748D01*
Y3677939D01*
X6154556Y3692898D01*
X6143107Y3704347D01*
X6128148Y3710544D01*
D02*
G37*
G36*
X5988148D02*
X5971956D01*
X5956997Y3704347D01*
X5945548Y3692898D01*
X5939352Y3677939D01*
Y3661748D01*
X5945548Y3646789D01*
X5952494Y3639843D01*
X5945548Y3632898D01*
X5939352Y3617939D01*
Y3601748D01*
X5945548Y3586789D01*
X5956997Y3575340D01*
X5971956Y3569143D01*
X5988148D01*
X6003107Y3575340D01*
X6014556Y3586789D01*
X6020752Y3601748D01*
Y3617939D01*
X6014556Y3632898D01*
X6007610Y3639843D01*
X6014556Y3646789D01*
X6020752Y3661748D01*
Y3677939D01*
X6014556Y3692898D01*
X6003107Y3704347D01*
X5988148Y3710544D01*
D02*
G37*
G36*
X4740817Y3683052D02*
X4724626D01*
X4709667Y3676856D01*
X4698218Y3665407D01*
X4692021Y3650448D01*
Y3634257D01*
X4698218Y3619298D01*
X4709667Y3607849D01*
X4724626Y3601652D01*
X4734448D01*
Y3591830D01*
X4740644Y3576871D01*
X4752093Y3565422D01*
X4767052Y3559226D01*
X4783243D01*
X4798202Y3565422D01*
X4809651Y3576871D01*
X4815848Y3591830D01*
Y3608022D01*
X4809651Y3622981D01*
X4798202Y3634430D01*
X4783243Y3640626D01*
X4773421D01*
Y3650448D01*
X4767225Y3665407D01*
X4755776Y3676856D01*
X4740817Y3683052D01*
D02*
G37*
G36*
X7368096Y3570700D02*
X7351905D01*
X7336946Y3564503D01*
X7330000Y3557558D01*
X7323055Y3564503D01*
X7308096Y3570700D01*
X7291905D01*
X7276946Y3564503D01*
X7265497Y3553054D01*
X7259300Y3538096D01*
Y3521904D01*
X7265497Y3506945D01*
X7276946Y3495496D01*
X7291905Y3489300D01*
X7308096D01*
X7323055Y3495496D01*
X7330000Y3502442D01*
X7336946Y3495496D01*
X7351905Y3489300D01*
X7368096D01*
X7383055Y3495496D01*
X7394504Y3506945D01*
X7400700Y3521904D01*
Y3538096D01*
X7394504Y3553054D01*
X7383055Y3564503D01*
X7368096Y3570700D01*
D02*
G37*
G36*
X4228735Y3664710D02*
X4212543D01*
X4197584Y3658514D01*
X4186135Y3647065D01*
X4179939Y3632106D01*
Y3622284D01*
X4170117D01*
X4155158Y3616087D01*
X4143709Y3604638D01*
X4137513Y3589679D01*
Y3573488D01*
X4143709Y3558529D01*
X4155158Y3547080D01*
X4170117Y3540884D01*
X4186308D01*
X4201267Y3547080D01*
X4212716Y3558529D01*
X4218913Y3573488D01*
Y3583310D01*
X4228735D01*
X4243694Y3589506D01*
X4255143Y3600955D01*
X4261339Y3615914D01*
Y3632106D01*
X4255143Y3647065D01*
X4243694Y3658514D01*
X4228735Y3664710D01*
D02*
G37*
G36*
X6848044Y3640857D02*
X6831852D01*
X6816893Y3634660D01*
X6805444Y3623211D01*
X6799248Y3608252D01*
Y3592061D01*
X6805444Y3577102D01*
X6812390Y3570157D01*
X6805444Y3563211D01*
X6799248Y3548252D01*
Y3532061D01*
X6805444Y3517102D01*
X6816893Y3505653D01*
X6831852Y3499457D01*
X6848044D01*
X6863003Y3505653D01*
X6874452Y3517102D01*
X6880648Y3532061D01*
Y3548252D01*
X6874452Y3563211D01*
X6867506Y3570157D01*
X6874452Y3577102D01*
X6880648Y3592061D01*
Y3608252D01*
X6874452Y3623211D01*
X6863003Y3634660D01*
X6848044Y3640857D01*
D02*
G37*
G36*
X4665817Y3608052D02*
X4649625D01*
X4634667Y3601856D01*
X4623218Y3590407D01*
X4617021Y3575448D01*
Y3559257D01*
X4623218Y3544298D01*
X4634667Y3532849D01*
X4649625Y3526653D01*
X4659448D01*
Y3516830D01*
X4665644Y3501872D01*
X4677093Y3490423D01*
X4692052Y3484226D01*
X4708243D01*
X4723202Y3490423D01*
X4734651Y3501872D01*
X4740848Y3516830D01*
Y3533022D01*
X4734651Y3547981D01*
X4723202Y3559430D01*
X4708243Y3565626D01*
X4698421D01*
Y3575448D01*
X4692225Y3590407D01*
X4680776Y3601856D01*
X4665817Y3608052D01*
D02*
G37*
G36*
X2158096Y3565700D02*
X2141904D01*
X2126945Y3559504D01*
X2115496Y3548055D01*
X2109300Y3533096D01*
Y3516904D01*
X2115496Y3501945D01*
X2126945Y3490496D01*
X2141904Y3484300D01*
X2158096D01*
X2173055Y3490496D01*
X2181572Y3499014D01*
X2190522Y3490065D01*
X2205481Y3483868D01*
X2221672D01*
X2236631Y3490065D01*
X2248080Y3501514D01*
X2254277Y3516473D01*
Y3532664D01*
X2248080Y3547623D01*
X2236631Y3559072D01*
X2221672Y3565268D01*
X2205481D01*
X2190522Y3559072D01*
X2182004Y3550554D01*
X2173055Y3559504D01*
X2158096Y3565700D01*
D02*
G37*
G36*
X5687939Y3450648D02*
X5671748D01*
X5656789Y3444452D01*
X5649843Y3437506D01*
X5642898Y3444452D01*
X5627939Y3450648D01*
X5611748D01*
X5596789Y3444452D01*
X5585340Y3433003D01*
X5579144Y3418044D01*
Y3401852D01*
X5585340Y3386893D01*
X5596789Y3375444D01*
X5611748Y3369248D01*
X5627939D01*
X5642898Y3375444D01*
X5649843Y3382390D01*
X5656789Y3375444D01*
X5671748Y3369248D01*
X5687939D01*
X5702898Y3375444D01*
X5714347Y3386893D01*
X5720543Y3401852D01*
Y3418044D01*
X5714347Y3433003D01*
X5702898Y3444452D01*
X5687939Y3450648D01*
D02*
G37*
G36*
X2639808Y3439027D02*
X2623617D01*
X2608658Y3432831D01*
X2601712Y3425885D01*
X2594767Y3432831D01*
X2579808Y3439027D01*
X2563616D01*
X2548658Y3432831D01*
X2537209Y3421382D01*
X2531012Y3406423D01*
Y3390231D01*
X2537209Y3375272D01*
X2548658Y3363823D01*
X2563616Y3357627D01*
X2579808D01*
X2594767Y3363823D01*
X2601712Y3370769D01*
X2608658Y3363823D01*
X2623617Y3357627D01*
X2639808D01*
X2654767Y3363823D01*
X2666216Y3375272D01*
X2672412Y3390231D01*
Y3406423D01*
X2666216Y3421382D01*
X2654767Y3432831D01*
X2639808Y3439027D01*
D02*
G37*
G36*
X2221058Y3436849D02*
X2204867D01*
X2189908Y3430653D01*
X2181472Y3422217D01*
X2173343Y3430345D01*
X2158384Y3436542D01*
X2142193D01*
X2127234Y3430345D01*
X2115785Y3418896D01*
X2109589Y3403937D01*
Y3387746D01*
X2115785Y3372787D01*
X2127234Y3361338D01*
X2142193Y3355142D01*
X2158384D01*
X2173343Y3361338D01*
X2181779Y3369774D01*
X2189908Y3361645D01*
X2204867Y3355449D01*
X2221058D01*
X2236017Y3361645D01*
X2247466Y3373094D01*
X2253662Y3388053D01*
Y3404245D01*
X2247466Y3419203D01*
X2236017Y3430653D01*
X2221058Y3436849D01*
D02*
G37*
G36*
X5405507Y3525481D02*
X5389316D01*
X5374357Y3519285D01*
X5362908Y3507836D01*
X5356711Y3492877D01*
Y3476685D01*
X5362908Y3461727D01*
X5374357Y3450278D01*
X5389316Y3444081D01*
X5399138D01*
Y3434259D01*
X5405334Y3419300D01*
X5416783Y3407851D01*
X5431742Y3401655D01*
X5447933D01*
X5462892Y3407851D01*
X5474341Y3419300D01*
X5480537Y3434259D01*
Y3450451D01*
X5474341Y3465409D01*
X5462892Y3476858D01*
X5447933Y3483055D01*
X5438111D01*
Y3492877D01*
X5431915Y3507836D01*
X5420466Y3519285D01*
X5405507Y3525481D01*
D02*
G37*
G36*
X1708095Y3410700D02*
X1691904D01*
X1676945Y3404503D01*
X1670000Y3397558D01*
X1663054Y3404503D01*
X1648096Y3410700D01*
X1631904D01*
X1616945Y3404503D01*
X1605496Y3393054D01*
X1599300Y3378095D01*
Y3361904D01*
X1605496Y3346945D01*
X1616945Y3335496D01*
X1631904Y3329300D01*
X1648096D01*
X1663054Y3335496D01*
X1670000Y3342441D01*
X1676945Y3335496D01*
X1691904Y3329300D01*
X1708095D01*
X1723054Y3335496D01*
X1734503Y3346945D01*
X1740700Y3361904D01*
Y3378095D01*
X1734503Y3393054D01*
X1723054Y3404503D01*
X1708095Y3410700D01*
D02*
G37*
G36*
X3382877Y3483289D02*
X3366685D01*
X3351727Y3477092D01*
X3340278Y3465643D01*
X3334081Y3450684D01*
Y3440863D01*
X3324259D01*
X3309300Y3434666D01*
X3297851Y3423217D01*
X3291655Y3408258D01*
Y3392067D01*
X3297851Y3377108D01*
X3309300Y3365659D01*
X3324259Y3359463D01*
X3340451D01*
X3355409Y3365659D01*
X3366858Y3377108D01*
X3373055Y3392067D01*
Y3401889D01*
X3382877D01*
X3397836Y3408085D01*
X3409285Y3419534D01*
X3415481Y3434493D01*
Y3450684D01*
X3409285Y3465643D01*
X3397836Y3477092D01*
X3382877Y3483289D01*
D02*
G37*
G36*
X5057952Y3313084D02*
X5041760D01*
X5026801Y3306888D01*
X5019856Y3299942D01*
X5012911Y3306887D01*
X4997952Y3313084D01*
X4981760D01*
X4966802Y3306887D01*
X4955353Y3295438D01*
X4949156Y3280480D01*
Y3264288D01*
X4955353Y3249329D01*
X4966802Y3237880D01*
X4981760Y3231684D01*
X4997952D01*
X5012911Y3237880D01*
X5019856Y3244826D01*
X5026801Y3237880D01*
X5041760Y3231684D01*
X5057952D01*
X5072911Y3237880D01*
X5084360Y3249330D01*
X5090556Y3264288D01*
Y3280480D01*
X5084360Y3295439D01*
X5072911Y3306888D01*
X5057952Y3313084D01*
D02*
G37*
G36*
X6948253Y3280752D02*
X6932061D01*
X6917102Y3274556D01*
X6910157Y3267610D01*
X6903211Y3274556D01*
X6888252Y3280752D01*
X6872061D01*
X6857102Y3274556D01*
X6845653Y3263107D01*
X6839457Y3248148D01*
Y3231956D01*
X6845653Y3216998D01*
X6857102Y3205549D01*
X6872061Y3199352D01*
X6888252D01*
X6903211Y3205549D01*
X6910157Y3212494D01*
X6917102Y3205549D01*
X6932061Y3199352D01*
X6948253D01*
X6963211Y3205549D01*
X6974660Y3216998D01*
X6980857Y3231956D01*
Y3248148D01*
X6974660Y3263107D01*
X6963211Y3274556D01*
X6948253Y3280752D01*
D02*
G37*
G36*
X7408095Y3260700D02*
X7391904D01*
X7376945Y3254503D01*
X7370000Y3247558D01*
X7363054Y3254503D01*
X7348096Y3260700D01*
X7331904D01*
X7316945Y3254503D01*
X7305496Y3243054D01*
X7299300Y3228095D01*
Y3211904D01*
X7305496Y3196945D01*
X7316945Y3185496D01*
X7331904Y3179300D01*
X7348096D01*
X7363054Y3185496D01*
X7370000Y3192441D01*
X7376945Y3185496D01*
X7391904Y3179300D01*
X7408095D01*
X7423054Y3185496D01*
X7434503Y3196945D01*
X7440700Y3211904D01*
Y3228095D01*
X7434503Y3243054D01*
X7423054Y3254503D01*
X7408095Y3260700D01*
D02*
G37*
G36*
X1348096D02*
X1331904D01*
X1316946Y3254503D01*
X1310000Y3247558D01*
X1303055Y3254503D01*
X1288096Y3260700D01*
X1271904D01*
X1256946Y3254503D01*
X1245497Y3243054D01*
X1239300Y3228095D01*
Y3211904D01*
X1245497Y3196945D01*
X1256946Y3185496D01*
X1271904Y3179300D01*
X1288096D01*
X1303055Y3185496D01*
X1310000Y3192441D01*
X1316946Y3185496D01*
X1331904Y3179300D01*
X1348096D01*
X1363055Y3185496D01*
X1374504Y3196945D01*
X1380700Y3211904D01*
Y3228095D01*
X1374504Y3243054D01*
X1363055Y3254503D01*
X1348096Y3260700D01*
D02*
G37*
G36*
X5968148Y3350543D02*
X5951956D01*
X5936998Y3344347D01*
X5925548Y3332898D01*
X5919352Y3317939D01*
Y3301747D01*
X5925548Y3286788D01*
X5932494Y3279843D01*
X5925548Y3272898D01*
X5919352Y3257939D01*
Y3241748D01*
X5925548Y3226789D01*
X5936998Y3215340D01*
X5951956Y3209144D01*
X5968148D01*
X5983107Y3215340D01*
X5994556Y3226789D01*
X6000752Y3241748D01*
Y3257939D01*
X5994556Y3272898D01*
X5987611Y3279843D01*
X5994556Y3286788D01*
X6000752Y3301747D01*
Y3317939D01*
X5994556Y3332898D01*
X5983107Y3344347D01*
X5968148Y3350543D01*
D02*
G37*
G36*
X6948253Y3180752D02*
X6932061D01*
X6917102Y3174556D01*
X6910157Y3167610D01*
X6903211Y3174556D01*
X6888252Y3180752D01*
X6872061D01*
X6857102Y3174556D01*
X6845653Y3163107D01*
X6839457Y3148148D01*
Y3131956D01*
X6845653Y3116998D01*
X6857102Y3105549D01*
X6872061Y3099352D01*
X6888252D01*
X6903211Y3105549D01*
X6910157Y3112494D01*
X6917102Y3105549D01*
X6932061Y3099352D01*
X6948253D01*
X6963211Y3105549D01*
X6974660Y3116998D01*
X6980857Y3131956D01*
Y3148148D01*
X6974660Y3163107D01*
X6963211Y3174556D01*
X6948253Y3180752D01*
D02*
G37*
G36*
X2617951Y3125583D02*
X2601759D01*
X2586801Y3119386D01*
X2579855Y3112441D01*
X2572910Y3119386D01*
X2557951Y3125583D01*
X2541759D01*
X2526801Y3119386D01*
X2519855Y3112441D01*
X2512910Y3119386D01*
X2497951Y3125583D01*
X2481760D01*
X2466801Y3119386D01*
X2455352Y3107937D01*
X2449156Y3092979D01*
Y3076787D01*
X2455352Y3061828D01*
X2462297Y3054883D01*
X2455352Y3047938D01*
X2449156Y3032979D01*
Y3016787D01*
X2455352Y3001828D01*
X2462297Y2994883D01*
X2455352Y2987938D01*
X2449156Y2972979D01*
Y2956787D01*
X2455352Y2941829D01*
X2466801Y2930379D01*
X2481760Y2924183D01*
X2497951D01*
X2512910Y2930379D01*
X2519855Y2937325D01*
X2526801Y2930379D01*
X2541759Y2924183D01*
X2557951D01*
X2572910Y2930379D01*
X2579855Y2937325D01*
X2586801Y2930379D01*
X2601759Y2924183D01*
X2617951D01*
X2632910Y2930379D01*
X2644359Y2941829D01*
X2650555Y2956787D01*
Y2972979D01*
X2644359Y2987938D01*
X2637413Y2994883D01*
X2644359Y3001828D01*
X2650555Y3016787D01*
Y3032979D01*
X2644359Y3047938D01*
X2637413Y3054883D01*
X2644359Y3061828D01*
X2650555Y3076787D01*
Y3092979D01*
X2644359Y3107937D01*
X2632910Y3119386D01*
X2617951Y3125583D01*
D02*
G37*
G36*
X7728096Y3020700D02*
X7711904D01*
X7696945Y3014503D01*
X7690000Y3007558D01*
X7683054Y3014503D01*
X7668096Y3020700D01*
X7651904D01*
X7636945Y3014503D01*
X7625496Y3003054D01*
X7619300Y2988096D01*
Y2971904D01*
X7625496Y2956945D01*
X7636945Y2945496D01*
X7651904Y2939300D01*
X7668096D01*
X7683054Y2945496D01*
X7690000Y2952442D01*
X7696945Y2945496D01*
X7711904Y2939300D01*
X7728096D01*
X7743054Y2945496D01*
X7754503Y2956945D01*
X7760700Y2971904D01*
Y2988096D01*
X7754503Y3003054D01*
X7743054Y3014503D01*
X7728096Y3020700D01*
D02*
G37*
G36*
X1668096D02*
X1651904D01*
X1636946Y3014503D01*
X1630000Y3007558D01*
X1623055Y3014503D01*
X1608096Y3020700D01*
X1591905D01*
X1576946Y3014503D01*
X1565497Y3003054D01*
X1559300Y2988096D01*
Y2971904D01*
X1565497Y2956945D01*
X1576946Y2945496D01*
X1591905Y2939300D01*
X1608096D01*
X1623055Y2945496D01*
X1630000Y2952442D01*
X1636946Y2945496D01*
X1651904Y2939300D01*
X1668096D01*
X1683055Y2945496D01*
X1694504Y2956945D01*
X1700700Y2971904D01*
Y2988096D01*
X1694504Y3003054D01*
X1683055Y3014503D01*
X1668096Y3020700D01*
D02*
G37*
G36*
X6697978Y3000844D02*
X6681787D01*
X6666828Y2994647D01*
X6659883Y2987702D01*
X6652937Y2994647D01*
X6637978Y3000844D01*
X6621787D01*
X6606828Y2994647D01*
X6595379Y2983198D01*
X6589183Y2968239D01*
Y2952048D01*
X6595379Y2937089D01*
X6606828Y2925640D01*
X6621787Y2919444D01*
X6637978D01*
X6652937Y2925640D01*
X6659883Y2932585D01*
X6666828Y2925640D01*
X6681787Y2919444D01*
X6697978D01*
X6712937Y2925640D01*
X6724386Y2937089D01*
X6730582Y2952048D01*
Y2968239D01*
X6724386Y2983198D01*
X6712937Y2994647D01*
X6697978Y3000844D01*
D02*
G37*
G36*
X4408735Y3084710D02*
X4392543D01*
X4377584Y3078514D01*
X4366135Y3067065D01*
X4359939Y3052106D01*
Y3042284D01*
X4350117D01*
X4335158Y3036087D01*
X4323709Y3024638D01*
X4317513Y3009680D01*
Y2993488D01*
X4323709Y2978529D01*
X4335158Y2967080D01*
X4350117Y2960884D01*
X4366308D01*
X4381267Y2967080D01*
X4392716Y2978529D01*
X4398912Y2993488D01*
Y3003310D01*
X4408735D01*
X4423693Y3009507D01*
X4435143Y3020956D01*
X4441339Y3035914D01*
Y3052106D01*
X4435143Y3067065D01*
X4423693Y3078514D01*
X4408735Y3084710D01*
D02*
G37*
G36*
X5867939Y2960648D02*
X5851748D01*
X5836789Y2954452D01*
X5829843Y2947506D01*
X5822898Y2954452D01*
X5807939Y2960648D01*
X5791748D01*
X5776789Y2954452D01*
X5765340Y2943002D01*
X5759143Y2928044D01*
Y2911852D01*
X5765340Y2896893D01*
X5776789Y2885444D01*
X5791748Y2879248D01*
X5807939D01*
X5822898Y2885444D01*
X5829843Y2892390D01*
X5836789Y2885444D01*
X5851748Y2879248D01*
X5867939D01*
X5882898Y2885444D01*
X5894347Y2896893D01*
X5900543Y2911852D01*
Y2928044D01*
X5894347Y2943002D01*
X5882898Y2954452D01*
X5867939Y2960648D01*
D02*
G37*
G36*
X6837978Y2940843D02*
X6821787D01*
X6806828Y2934647D01*
X6799883Y2927702D01*
X6792937Y2934647D01*
X6777979Y2940843D01*
X6761787D01*
X6746828Y2934647D01*
X6735379Y2923198D01*
X6729183Y2908239D01*
Y2892048D01*
X6735379Y2877089D01*
X6746828Y2865640D01*
X6761787Y2859444D01*
X6777979D01*
X6792937Y2865640D01*
X6799883Y2872585D01*
X6806828Y2865640D01*
X6821787Y2859444D01*
X6837978D01*
X6852937Y2865640D01*
X6864386Y2877089D01*
X6870583Y2892048D01*
Y2908239D01*
X6864386Y2923198D01*
X6852937Y2934647D01*
X6837978Y2940843D01*
D02*
G37*
G36*
X4955507Y3045481D02*
X4939316D01*
X4924357Y3039285D01*
X4912908Y3027836D01*
X4906712Y3012877D01*
Y2996685D01*
X4912908Y2981727D01*
X4924357Y2970278D01*
X4939316Y2964081D01*
X4949138D01*
Y2954259D01*
X4955334Y2939300D01*
X4966783Y2927851D01*
X4981742Y2921655D01*
X4997933D01*
X5012892Y2927851D01*
X5024341Y2939300D01*
X5030538Y2954259D01*
Y2970450D01*
X5024341Y2985409D01*
X5012892Y2996858D01*
X4997933Y3003054D01*
X4988111D01*
Y3012877D01*
X4981915Y3027836D01*
X4970466Y3039285D01*
X4955507Y3045481D01*
D02*
G37*
G36*
X7368096Y2870700D02*
X7351905D01*
X7336946Y2864504D01*
X7330000Y2857558D01*
X7323055Y2864504D01*
X7308096Y2870700D01*
X7291905D01*
X7276946Y2864504D01*
X7265497Y2853054D01*
X7259300Y2838096D01*
Y2821904D01*
X7265497Y2806945D01*
X7276946Y2795496D01*
X7291905Y2789300D01*
X7308096D01*
X7323055Y2795496D01*
X7330000Y2802442D01*
X7336946Y2795496D01*
X7351905Y2789300D01*
X7368096D01*
X7383055Y2795496D01*
X7394504Y2806945D01*
X7400700Y2821904D01*
Y2838096D01*
X7394504Y2853054D01*
X7383055Y2864504D01*
X7368096Y2870700D01*
D02*
G37*
G36*
X7138253Y2830752D02*
X7122061D01*
X7107102Y2824556D01*
X7100157Y2817610D01*
X7093211Y2824556D01*
X7078253Y2830752D01*
X7062061D01*
X7047102Y2824556D01*
X7035653Y2813107D01*
X7029457Y2798148D01*
Y2781956D01*
X7035653Y2766998D01*
X7047102Y2755548D01*
X7062061Y2749352D01*
X7078253D01*
X7093211Y2755548D01*
X7100157Y2762494D01*
X7107102Y2755548D01*
X7122061Y2749352D01*
X7138253D01*
X7153212Y2755548D01*
X7164661Y2766998D01*
X7170857Y2781956D01*
Y2798148D01*
X7164661Y2813107D01*
X7153212Y2824556D01*
X7138253Y2830752D01*
D02*
G37*
G36*
X5977939Y2830648D02*
X5961748D01*
X5946789Y2824452D01*
X5939843Y2817506D01*
X5932898Y2824452D01*
X5917939Y2830648D01*
X5901748D01*
X5886789Y2824452D01*
X5875340Y2813003D01*
X5869143Y2798044D01*
Y2781852D01*
X5875340Y2766893D01*
X5886789Y2755444D01*
X5901748Y2749248D01*
X5917939D01*
X5932898Y2755444D01*
X5939843Y2762390D01*
X5946789Y2755444D01*
X5961748Y2749248D01*
X5977939D01*
X5992898Y2755444D01*
X6004347Y2766893D01*
X6010543Y2781852D01*
Y2798044D01*
X6004347Y2813003D01*
X5992898Y2824452D01*
X5977939Y2830648D01*
D02*
G37*
G36*
X6488252Y2770752D02*
X6472061D01*
X6457102Y2764556D01*
X6450157Y2757610D01*
X6443211Y2764555D01*
X6428253Y2770752D01*
X6412061D01*
X6397102Y2764555D01*
X6385653Y2753106D01*
X6379457Y2738147D01*
Y2721956D01*
X6385653Y2706997D01*
X6397102Y2695548D01*
X6412061Y2689352D01*
X6428253D01*
X6443211Y2695548D01*
X6450157Y2702493D01*
X6457102Y2695548D01*
X6472061Y2689352D01*
X6488252D01*
X6503211Y2695548D01*
X6514660Y2706997D01*
X6520857Y2721956D01*
Y2738148D01*
X6514660Y2753107D01*
X6503211Y2764556D01*
X6488252Y2770752D01*
D02*
G37*
G36*
X5538253Y2710752D02*
X5522061D01*
X5507102Y2704556D01*
X5500157Y2697610D01*
X5493211Y2704556D01*
X5478252Y2710752D01*
X5462061D01*
X5447102Y2704556D01*
X5435653Y2693107D01*
X5429457Y2678148D01*
Y2661956D01*
X5435653Y2646998D01*
X5447102Y2635548D01*
X5462061Y2629352D01*
X5478252D01*
X5493211Y2635548D01*
X5500157Y2642494D01*
X5507102Y2635548D01*
X5522061Y2629352D01*
X5538253D01*
X5553211Y2635548D01*
X5564660Y2646998D01*
X5570857Y2661956D01*
Y2678148D01*
X5564660Y2693107D01*
X5553211Y2704556D01*
X5538253Y2710752D01*
D02*
G37*
G36*
X1708095Y2710700D02*
X1691904D01*
X1676945Y2704503D01*
X1670000Y2697558D01*
X1663054Y2704503D01*
X1648096Y2710700D01*
X1631904D01*
X1616945Y2704503D01*
X1605496Y2693054D01*
X1599300Y2678095D01*
Y2661904D01*
X1605496Y2646945D01*
X1616945Y2635496D01*
X1631904Y2629300D01*
X1648096D01*
X1663054Y2635496D01*
X1670000Y2642442D01*
X1676945Y2635496D01*
X1691904Y2629300D01*
X1708095D01*
X1723054Y2635496D01*
X1734503Y2646945D01*
X1740700Y2661904D01*
Y2678095D01*
X1734503Y2693054D01*
X1723054Y2704503D01*
X1708095Y2710700D01*
D02*
G37*
G36*
X7408095Y2560700D02*
X7391904D01*
X7376945Y2554503D01*
X7370000Y2547558D01*
X7363054Y2554503D01*
X7348096Y2560700D01*
X7331904D01*
X7316945Y2554503D01*
X7305496Y2543054D01*
X7299300Y2528096D01*
Y2511904D01*
X7305496Y2496945D01*
X7316945Y2485496D01*
X7331904Y2479300D01*
X7348096D01*
X7363054Y2485496D01*
X7370000Y2492442D01*
X7376945Y2485496D01*
X7391904Y2479300D01*
X7408095D01*
X7423054Y2485496D01*
X7434503Y2496945D01*
X7440700Y2511904D01*
Y2528096D01*
X7434503Y2543054D01*
X7423054Y2554503D01*
X7408095Y2560700D01*
D02*
G37*
G36*
X1348096D02*
X1331904D01*
X1316946Y2554503D01*
X1310000Y2547558D01*
X1303055Y2554503D01*
X1288096Y2560700D01*
X1271904D01*
X1256946Y2554503D01*
X1245497Y2543054D01*
X1239300Y2528096D01*
Y2511904D01*
X1245497Y2496945D01*
X1256946Y2485496D01*
X1271904Y2479300D01*
X1288096D01*
X1303055Y2485496D01*
X1310000Y2492442D01*
X1316946Y2485496D01*
X1331904Y2479300D01*
X1348096D01*
X1363055Y2485496D01*
X1374504Y2496945D01*
X1380700Y2511904D01*
Y2528096D01*
X1374504Y2543054D01*
X1363055Y2554503D01*
X1348096Y2560700D01*
D02*
G37*
G36*
X7728096Y2320700D02*
X7711904D01*
X7696945Y2314504D01*
X7690000Y2307558D01*
X7683054Y2314504D01*
X7668096Y2320700D01*
X7651904D01*
X7636945Y2314504D01*
X7625496Y2303055D01*
X7619300Y2288096D01*
Y2271904D01*
X7625496Y2256945D01*
X7636945Y2245496D01*
X7651904Y2239300D01*
X7668096D01*
X7683054Y2245496D01*
X7690000Y2252442D01*
X7696945Y2245496D01*
X7711904Y2239300D01*
X7728096D01*
X7743054Y2245496D01*
X7754503Y2256945D01*
X7760700Y2271904D01*
Y2288096D01*
X7754503Y2303055D01*
X7743054Y2314504D01*
X7728096Y2320700D01*
D02*
G37*
G36*
X1668096D02*
X1651904D01*
X1636946Y2314504D01*
X1630000Y2307558D01*
X1623055Y2314504D01*
X1608096Y2320700D01*
X1591905D01*
X1576946Y2314504D01*
X1565497Y2303055D01*
X1559300Y2288096D01*
Y2271904D01*
X1565497Y2256945D01*
X1576946Y2245496D01*
X1591905Y2239300D01*
X1608096D01*
X1623055Y2245496D01*
X1630000Y2252442D01*
X1636946Y2245496D01*
X1651904Y2239300D01*
X1668096D01*
X1683055Y2245496D01*
X1694504Y2256945D01*
X1700700Y2271904D01*
Y2288096D01*
X1694504Y2303055D01*
X1683055Y2314504D01*
X1668096Y2320700D01*
D02*
G37*
G36*
X3617951Y2200583D02*
X3601759D01*
X3586801Y2194387D01*
X3579855Y2187441D01*
X3572910Y2194387D01*
X3557951Y2200583D01*
X3541759D01*
X3526801Y2194387D01*
X3519855Y2187441D01*
X3512910Y2194387D01*
X3497951Y2200583D01*
X3481760D01*
X3466801Y2194387D01*
X3455352Y2182937D01*
X3449156Y2167979D01*
Y2151787D01*
X3455352Y2136828D01*
X3462297Y2129883D01*
X3455352Y2122938D01*
X3449156Y2107979D01*
Y2091787D01*
X3455352Y2076828D01*
X3462297Y2069883D01*
X3455352Y2062938D01*
X3449156Y2047979D01*
Y2031787D01*
X3455352Y2016829D01*
X3466801Y2005380D01*
X3481760Y1999183D01*
X3497951D01*
X3512910Y2005380D01*
X3519855Y2012325D01*
X3526801Y2005380D01*
X3541759Y1999183D01*
X3557951D01*
X3572910Y2005380D01*
X3579855Y2012325D01*
X3586801Y2005380D01*
X3601759Y1999183D01*
X3617951D01*
X3632910Y2005380D01*
X3644359Y2016829D01*
X3650555Y2031787D01*
Y2047979D01*
X3644359Y2062938D01*
X3637413Y2069883D01*
X3644359Y2076828D01*
X3650555Y2091787D01*
Y2107979D01*
X3644359Y2122938D01*
X3637413Y2129883D01*
X3644359Y2136828D01*
X3650555Y2151787D01*
Y2167979D01*
X3644359Y2182937D01*
X3632910Y2194387D01*
X3617951Y2200583D01*
D02*
G37*
G36*
X2617951D02*
X2601759D01*
X2586801Y2194387D01*
X2579855Y2187441D01*
X2572910Y2194387D01*
X2557951Y2200583D01*
X2541759D01*
X2526801Y2194387D01*
X2519855Y2187441D01*
X2512910Y2194387D01*
X2497951Y2200583D01*
X2481760D01*
X2466801Y2194387D01*
X2455352Y2182937D01*
X2449156Y2167979D01*
Y2151787D01*
X2455352Y2136828D01*
X2462297Y2129883D01*
X2455352Y2122938D01*
X2449156Y2107979D01*
Y2091787D01*
X2455352Y2076828D01*
X2462297Y2069883D01*
X2455352Y2062938D01*
X2449156Y2047979D01*
Y2031787D01*
X2455352Y2016829D01*
X2466801Y2005380D01*
X2481760Y1999183D01*
X2497951D01*
X2512910Y2005380D01*
X2519855Y2012325D01*
X2526801Y2005380D01*
X2541759Y1999183D01*
X2557951D01*
X2572910Y2005380D01*
X2579855Y2012325D01*
X2586801Y2005379D01*
X2601760Y1999183D01*
X2617951D01*
X2632910Y2005379D01*
X2644359Y2016828D01*
X2650555Y2031787D01*
Y2047979D01*
X2644359Y2062937D01*
X2637413Y2069883D01*
X2644359Y2076828D01*
X2650555Y2091787D01*
Y2107979D01*
X2644359Y2122938D01*
X2637413Y2129883D01*
X2644359Y2136828D01*
X2650555Y2151787D01*
Y2167979D01*
X2644359Y2182937D01*
X2632910Y2194387D01*
X2617951Y2200583D01*
D02*
G37*
G36*
X7368096Y2170700D02*
X7351905D01*
X7336946Y2164504D01*
X7330000Y2157558D01*
X7323055Y2164504D01*
X7308096Y2170700D01*
X7291905D01*
X7276946Y2164504D01*
X7265497Y2153055D01*
X7259300Y2138096D01*
Y2121904D01*
X7265497Y2106945D01*
X7276946Y2095496D01*
X7291905Y2089300D01*
X7308096D01*
X7323055Y2095496D01*
X7330000Y2102442D01*
X7336946Y2095496D01*
X7351905Y2089300D01*
X7368096D01*
X7383055Y2095496D01*
X7394504Y2106945D01*
X7400700Y2121904D01*
Y2138096D01*
X7394504Y2153055D01*
X7383055Y2164504D01*
X7368096Y2170700D01*
D02*
G37*
G36*
X1708095Y2010700D02*
X1691904D01*
X1676945Y2004503D01*
X1670000Y1997558D01*
X1663054Y2004503D01*
X1648096Y2010700D01*
X1631904D01*
X1616945Y2004503D01*
X1605496Y1993054D01*
X1599300Y1978096D01*
Y1961904D01*
X1605496Y1946945D01*
X1616945Y1935496D01*
X1631904Y1929300D01*
X1648096D01*
X1663054Y1935496D01*
X1670000Y1942442D01*
X1676945Y1935496D01*
X1691904Y1929300D01*
X1708095D01*
X1723054Y1935496D01*
X1734503Y1946945D01*
X1740700Y1961904D01*
Y1978096D01*
X1734503Y1993054D01*
X1723054Y2004503D01*
X1708095Y2010700D01*
D02*
G37*
G36*
X6737951Y2010583D02*
X6721760D01*
X6706801Y2004387D01*
X6699856Y1997442D01*
X6692911Y2004387D01*
X6677952Y2010583D01*
X6661760D01*
X6646802Y2004387D01*
X6635352Y1992938D01*
X6629156Y1977979D01*
Y1961788D01*
X6635352Y1946829D01*
X6642298Y1939884D01*
X6635352Y1932938D01*
X6629156Y1917979D01*
Y1901788D01*
X6635352Y1886829D01*
X6646802Y1875380D01*
X6661760Y1869184D01*
X6677952D01*
X6692911Y1875380D01*
X6699856Y1882325D01*
X6706801Y1875380D01*
X6721760Y1869184D01*
X6737951D01*
X6752910Y1875380D01*
X6764359Y1886829D01*
X6770556Y1901788D01*
Y1917979D01*
X6764359Y1932938D01*
X6757414Y1939884D01*
X6764359Y1946829D01*
X6770556Y1961788D01*
Y1977979D01*
X6764359Y1992938D01*
X6752910Y2004387D01*
X6737951Y2010583D01*
D02*
G37*
G36*
X7408095Y1860700D02*
X7391904D01*
X7376945Y1854504D01*
X7370000Y1847558D01*
X7363054Y1854504D01*
X7348096Y1860700D01*
X7331904D01*
X7316945Y1854504D01*
X7305496Y1843054D01*
X7299300Y1828096D01*
Y1811904D01*
X7305496Y1796945D01*
X7316945Y1785496D01*
X7331904Y1779300D01*
X7348096D01*
X7363054Y1785496D01*
X7370000Y1792442D01*
X7376945Y1785496D01*
X7391904Y1779300D01*
X7408095D01*
X7423054Y1785496D01*
X7434503Y1796945D01*
X7440700Y1811904D01*
Y1828096D01*
X7434503Y1843054D01*
X7423054Y1854504D01*
X7408095Y1860700D01*
D02*
G37*
G36*
X1348096D02*
X1331904D01*
X1316946Y1854504D01*
X1310000Y1847558D01*
X1303055Y1854504D01*
X1288096Y1860700D01*
X1271904D01*
X1256946Y1854504D01*
X1245497Y1843054D01*
X1239300Y1828096D01*
Y1811904D01*
X1245497Y1796945D01*
X1256946Y1785496D01*
X1271904Y1779300D01*
X1288096D01*
X1303055Y1785496D01*
X1310000Y1792442D01*
X1316946Y1785496D01*
X1331904Y1779300D01*
X1348096D01*
X1363055Y1785496D01*
X1374504Y1796945D01*
X1380700Y1811904D01*
Y1828096D01*
X1374504Y1843054D01*
X1363055Y1854504D01*
X1348096Y1860700D01*
D02*
G37*
G36*
X7907951Y1510583D02*
X7891760D01*
X7876801Y1504387D01*
X7869856Y1497442D01*
X7862911Y1504387D01*
X7847952Y1510583D01*
X7831760D01*
X7816801Y1504387D01*
X7805352Y1492938D01*
X7799156Y1477979D01*
Y1461788D01*
X7805352Y1446829D01*
X7812298Y1439884D01*
X7805352Y1432938D01*
X7799156Y1417979D01*
Y1401788D01*
X7805352Y1386829D01*
X7816801Y1375380D01*
X7831760Y1369184D01*
X7847952D01*
X7862911Y1375380D01*
X7869856Y1382325D01*
X7876801Y1375380D01*
X7891760Y1369184D01*
X7907951D01*
X7922910Y1375380D01*
X7934359Y1386829D01*
X7940556Y1401788D01*
Y1417979D01*
X7934359Y1432938D01*
X7927414Y1439884D01*
X7934359Y1446829D01*
X7940556Y1461788D01*
Y1477979D01*
X7934359Y1492938D01*
X7922910Y1504387D01*
X7907951Y1510583D01*
D02*
G37*
G36*
X1167951D02*
X1151760D01*
X1136801Y1504387D01*
X1129856Y1497442D01*
X1122911Y1504387D01*
X1107952Y1510583D01*
X1091760D01*
X1076802Y1504387D01*
X1065352Y1492938D01*
X1059156Y1477979D01*
Y1461788D01*
X1065352Y1446829D01*
X1072298Y1439884D01*
X1065352Y1432938D01*
X1059156Y1417979D01*
Y1401788D01*
X1065352Y1386829D01*
X1076802Y1375380D01*
X1091760Y1369184D01*
X1107952D01*
X1122911Y1375380D01*
X1129856Y1382325D01*
X1136801Y1375380D01*
X1151760Y1369184D01*
X1167951D01*
X1182910Y1375380D01*
X1194359Y1386829D01*
X1200556Y1401788D01*
Y1417979D01*
X1194359Y1432938D01*
X1187414Y1439884D01*
X1194359Y1446829D01*
X1200556Y1461788D01*
Y1477979D01*
X1194359Y1492938D01*
X1182910Y1504387D01*
X1167951Y1510583D01*
D02*
G37*
G36*
X5603923Y1291488D02*
X5587731D01*
X5572772Y1285291D01*
X5561323Y1273842D01*
X5555127Y1258883D01*
Y1242692D01*
X5561323Y1227733D01*
X5572772Y1216284D01*
X5587731Y1210088D01*
X5603923D01*
X5618882Y1216284D01*
X5630331Y1227733D01*
X5636527Y1242692D01*
Y1258883D01*
X5630331Y1273842D01*
X5618882Y1285291D01*
X5603923Y1291488D01*
D02*
G37*
G36*
X6241423Y1288988D02*
X6225231D01*
X6210272Y1282791D01*
X6198823Y1271342D01*
X6192627Y1256384D01*
Y1240192D01*
X6198823Y1225233D01*
X6210272Y1213784D01*
X6225231Y1207588D01*
X6241423D01*
X6256381Y1213784D01*
X6267830Y1225233D01*
X6274027Y1240192D01*
Y1256384D01*
X6267830Y1271342D01*
X6256381Y1282791D01*
X6241423Y1288988D01*
D02*
G37*
G36*
X5961423D02*
X5945231D01*
X5930272Y1282791D01*
X5918823Y1271342D01*
X5912627Y1256384D01*
Y1240192D01*
X5918823Y1225233D01*
X5930272Y1213784D01*
X5945231Y1207588D01*
X5961423D01*
X5976381Y1213784D01*
X5987831Y1225233D01*
X5994027Y1240192D01*
Y1256384D01*
X5987831Y1271342D01*
X5976381Y1282791D01*
X5961423Y1288988D01*
D02*
G37*
G36*
X5348923D02*
X5332731D01*
X5317772Y1282791D01*
X5306323Y1271342D01*
X5300127Y1256384D01*
Y1240192D01*
X5306323Y1225233D01*
X5317772Y1213784D01*
X5332731Y1207588D01*
X5348923D01*
X5363882Y1213784D01*
X5375331Y1225233D01*
X5381527Y1240192D01*
Y1256384D01*
X5375331Y1271342D01*
X5363882Y1282791D01*
X5348923Y1288988D01*
D02*
G37*
G36*
X8500000Y918997D02*
X8445310Y915412D01*
X8391555Y904720D01*
X8339657Y887103D01*
X8290502Y862862D01*
X8244931Y832413D01*
X8203724Y796276D01*
X8167587Y755069D01*
X8137138Y709499D01*
X8112897Y660343D01*
X8095280Y608445D01*
X8084588Y554690D01*
X8081003Y500000D01*
X8084588Y445310D01*
X8095280Y391555D01*
X8112897Y339657D01*
X8137138Y290501D01*
X8167587Y244931D01*
X8203724Y203724D01*
X8244931Y167587D01*
X8290502Y137138D01*
X8339657Y112897D01*
X8391555Y95280D01*
X8445310Y84588D01*
X8500000Y81003D01*
X8554690Y84588D01*
X8608445Y95280D01*
X8660343Y112897D01*
X8709498Y137138D01*
X8755069Y167587D01*
X8796276Y203724D01*
X8832413Y244931D01*
X8862862Y290501D01*
X8887103Y339657D01*
X8904720Y391555D01*
X8915412Y445310D01*
X8918997Y500000D01*
X8915412Y554690D01*
X8904720Y608445D01*
X8887103Y660343D01*
X8862862Y709499D01*
X8832413Y755069D01*
X8796276Y796276D01*
X8755069Y832413D01*
X8709498Y862862D01*
X8660343Y887103D01*
X8608445Y904720D01*
X8554690Y915412D01*
X8500000Y918997D01*
D02*
G37*
G36*
X500000D02*
X445310Y915412D01*
X391555Y904720D01*
X339657Y887103D01*
X290502Y862862D01*
X244931Y832413D01*
X203724Y796276D01*
X167587Y755069D01*
X137138Y709499D01*
X112897Y660343D01*
X95280Y608445D01*
X84588Y554690D01*
X81003Y500000D01*
X84588Y445310D01*
X95280Y391555D01*
X112897Y339657D01*
X137138Y290501D01*
X167587Y244931D01*
X203724Y203724D01*
X244931Y167587D01*
X290501Y137138D01*
X339657Y112897D01*
X391555Y95280D01*
X445310Y84588D01*
X500000Y81003D01*
X554690Y84588D01*
X608445Y95280D01*
X660343Y112897D01*
X709499Y137138D01*
X755069Y167587D01*
X796276Y203724D01*
X832413Y244931D01*
X862862Y290501D01*
X887103Y339657D01*
X904720Y391555D01*
X915412Y445310D01*
X918997Y500000D01*
X915412Y554690D01*
X904720Y608445D01*
X887103Y660343D01*
X862862Y709499D01*
X832413Y755069D01*
X796276Y796276D01*
X755069Y832413D01*
X709499Y862862D01*
X660343Y887103D01*
X608445Y904720D01*
X554690Y915412D01*
X500000Y918997D01*
D02*
G37*
%LPD*%
D95*
X4637100Y699859D02*
X4611708Y725251D01*
X4560925D01*
X4535533Y699859D01*
Y674467D01*
X4560925Y649075D01*
X4586316D01*
X4560925D01*
X4535533Y623683D01*
Y598292D01*
X4560925Y572900D01*
X4611708D01*
X4637100Y598292D01*
D96*
X500000Y8500000D02*
D03*
X8500000D02*
D03*
X500000Y500000D02*
D03*
X8500000D02*
D03*
D97*
X323223Y8323223D02*
D03*
X500000Y8750000D02*
D03*
X676777Y8676777D02*
D03*
X750000Y8500000D02*
D03*
X676777Y8323223D02*
D03*
X500000Y8250000D02*
D03*
X323223Y8676777D02*
D03*
X250000Y8500000D02*
D03*
X8250000D02*
D03*
X8323223Y8676777D02*
D03*
X8500000Y8250000D02*
D03*
X8676777Y8323223D02*
D03*
X8750000Y8500000D02*
D03*
X8676777Y8676777D02*
D03*
X8500000Y8750000D02*
D03*
X8323223Y8323223D02*
D03*
X323223Y323223D02*
D03*
X500000Y750000D02*
D03*
X676777Y676777D02*
D03*
X750000Y500000D02*
D03*
X676777Y323223D02*
D03*
X500000Y250000D02*
D03*
X323223Y676777D02*
D03*
X250000Y500000D02*
D03*
X8250000D02*
D03*
X8323223Y676777D02*
D03*
X8500000Y250000D02*
D03*
X8676777Y323223D02*
D03*
X8750000Y500000D02*
D03*
X8676777Y676777D02*
D03*
X8500000Y750000D02*
D03*
X8323223Y323223D02*
D03*
D98*
X5663327Y3058288D02*
D03*
Y2998288D02*
D03*
X6008288Y2486673D02*
D03*
X5948288D02*
D03*
X4227645Y2822350D02*
D03*
X4270071Y2864776D02*
D03*
X3837645Y3212350D02*
D03*
X3880071Y3254776D02*
D03*
X3403230Y3333660D02*
D03*
X3445656Y3376087D02*
D03*
X3387645Y4332350D02*
D03*
X3430072Y4374776D02*
D03*
X4502426Y5512426D02*
D03*
X4460000Y5470000D02*
D03*
X3310163Y5347645D02*
D03*
X3352589Y5305219D02*
D03*
X3420000Y4600000D02*
D03*
X3377574Y4642426D02*
D03*
X6899999Y7712500D02*
D03*
X6774999D02*
D03*
X2213269Y3648994D02*
D03*
X2213577Y3524568D02*
D03*
X2212962Y3396149D02*
D03*
X4029280Y6472739D02*
D03*
X6524999Y7652500D02*
D03*
X6649999D02*
D03*
X4872645Y5402337D02*
D03*
X4830219Y5359911D02*
D03*
X2167448Y1305157D02*
D03*
Y1245157D02*
D03*
X3957552Y1304843D02*
D03*
Y1244843D02*
D03*
X5340827Y1248288D02*
D03*
X5595827Y1250788D02*
D03*
X5953327Y1248288D02*
D03*
X6233327D02*
D03*
X5865000Y1145000D02*
D03*
X6843327Y2178288D02*
D03*
Y2238288D02*
D03*
X6643327Y2538288D02*
D03*
Y2598288D02*
D03*
X5516673Y3249212D02*
D03*
Y3189212D02*
D03*
X5619843Y3409948D02*
D03*
X5679843D02*
D03*
X5444212Y2853327D02*
D03*
X5384212D02*
D03*
X5881712Y6218327D02*
D03*
X5821712D02*
D03*
X5881712Y6473327D02*
D03*
X5821712D02*
D03*
X3171712Y6063327D02*
D03*
X3111712D02*
D03*
X3265786Y3466731D02*
D03*
X3332355Y3400163D02*
D03*
X2671712Y3773327D02*
D03*
X2611712D02*
D03*
X2631712Y3398327D02*
D03*
X2571712D02*
D03*
X2631712Y3523327D02*
D03*
X2571712D02*
D03*
X2150289Y3395842D02*
D03*
X2150000Y3525000D02*
D03*
Y3650000D02*
D03*
X3214608Y3827948D02*
D03*
X3034143Y4020000D02*
D03*
X2991716Y3977573D02*
D03*
X3777645Y4619837D02*
D03*
X3735219Y4577411D02*
D03*
X4437645Y5579837D02*
D03*
X4395219Y5537411D02*
D03*
X4089280Y6472739D02*
D03*
X4232739Y6460720D02*
D03*
Y6400720D02*
D03*
X4963028Y7223125D02*
D03*
X5023028D02*
D03*
Y7283125D02*
D03*
X4963028D02*
D03*
X3973028Y7223125D02*
D03*
X4033028D02*
D03*
Y7283125D02*
D03*
X3973028D02*
D03*
X3972460Y6879529D02*
D03*
X4032460D02*
D03*
Y6939529D02*
D03*
X3972460D02*
D03*
X5173028Y6879628D02*
D03*
X5233028D02*
D03*
Y6939628D02*
D03*
X5173028D02*
D03*
Y7023125D02*
D03*
X5233028D02*
D03*
Y7083125D02*
D03*
X5173028D02*
D03*
X3973028Y7023125D02*
D03*
X4033028D02*
D03*
Y7083125D02*
D03*
X3973028D02*
D03*
X2137383Y7392644D02*
D03*
X2197383D02*
D03*
X6257739Y4530720D02*
D03*
Y4470720D02*
D03*
X4470720Y6257261D02*
D03*
X4530720D02*
D03*
X4924214Y6103269D02*
D03*
X4857645Y6169838D02*
D03*
X4881787Y6060842D02*
D03*
X4815219Y6127411D02*
D03*
X5959926Y4779853D02*
D03*
X5857071Y4897071D02*
D03*
X5899497Y4939498D02*
D03*
X6029926Y4714853D02*
D03*
X6072353Y4757279D02*
D03*
X2818287Y4545815D02*
D03*
X2758287Y4455815D02*
D03*
X2818287D02*
D03*
X2758287Y4545815D02*
D03*
X2228327Y4258288D02*
D03*
Y4198288D02*
D03*
X2318327Y4258288D02*
D03*
Y4198288D02*
D03*
X3057546Y5604820D02*
D03*
X3099972Y5562394D02*
D03*
X3446596Y4714174D02*
D03*
X3489023Y4671748D02*
D03*
X3000977Y5523252D02*
D03*
X3043404Y5480825D02*
D03*
X3098746Y5010290D02*
D03*
X3056716Y5052427D02*
D03*
X2981716Y5002427D02*
D03*
X3023747Y4960291D02*
D03*
X6100163Y4177645D02*
D03*
X6142589Y4135219D02*
D03*
X6166731Y4244214D02*
D03*
X6209158Y4201787D02*
D03*
X6782384Y2490144D02*
D03*
Y2430144D02*
D03*
X6669856Y1969884D02*
D03*
X6729856D02*
D03*
Y1909884D02*
D03*
X6669856D02*
D03*
X4358213Y3001584D02*
D03*
X4400639Y3044010D02*
D03*
X4178213Y3581584D02*
D03*
X4220639Y3624010D02*
D03*
X4989838Y2962355D02*
D03*
X4947411Y3004781D02*
D03*
X4923269Y2895786D02*
D03*
X4880843Y2938213D02*
D03*
X4989856Y3272384D02*
D03*
X5049856Y3272384D02*
D03*
X5280074Y4020148D02*
D03*
X5237648Y3977721D02*
D03*
X5330843Y3418213D02*
D03*
X5373269Y3375786D02*
D03*
X5397411Y3484781D02*
D03*
X5439837Y3442355D02*
D03*
X3308213Y3509158D02*
D03*
X3374781Y3442589D02*
D03*
X2929157Y4831787D02*
D03*
X2886731Y4874214D02*
D03*
X2862589Y4765219D02*
D03*
X2820163Y4807645D02*
D03*
X3419158Y5371787D02*
D03*
X3376731Y5414214D02*
D03*
X3779158Y5731787D02*
D03*
X3736731Y5774214D02*
D03*
X3712589Y5665219D02*
D03*
X3670163Y5707645D02*
D03*
X5371787Y5560843D02*
D03*
X5414214Y5603269D02*
D03*
X5305219Y5627411D02*
D03*
X5347645Y5669838D02*
D03*
X5721787Y5200843D02*
D03*
X5764214Y5243269D02*
D03*
X5655219Y5267411D02*
D03*
X5697645Y5309837D02*
D03*
X5666939Y3754716D02*
D03*
X5709366Y3712290D02*
D03*
X5733508Y3821285D02*
D03*
X5775934Y3778859D02*
D03*
X5507593Y4210332D02*
D03*
X5550019Y4252758D02*
D03*
X5960052Y3309843D02*
D03*
Y3249844D02*
D03*
X6689882Y2960144D02*
D03*
X6629883D02*
D03*
X6769883Y2900144D02*
D03*
X6829883D02*
D03*
X7070157Y2790052D02*
D03*
X7130157D02*
D03*
X6432383Y7397644D02*
D03*
X6492383D02*
D03*
X6139856Y2999883D02*
D03*
X6199855D02*
D03*
Y3059883D02*
D03*
X6139856D02*
D03*
X6199855Y2939883D02*
D03*
X6139856D02*
D03*
X6259855Y3059883D02*
D03*
Y2999883D02*
D03*
X6259855Y2939883D02*
D03*
X6480157Y2730052D02*
D03*
X6420157Y2730052D02*
D03*
X5909843Y2789948D02*
D03*
X5969843D02*
D03*
X5470157Y2670052D02*
D03*
X5530157D02*
D03*
X6880157Y3240052D02*
D03*
X6940157D02*
D03*
X6680157Y3290052D02*
D03*
X6740157D02*
D03*
X6880157Y3140052D02*
D03*
X6940157D02*
D03*
X4700148Y3524926D02*
D03*
X4657721Y3567353D02*
D03*
X4732721Y3642352D02*
D03*
X4775148Y3599926D02*
D03*
X5617648Y4317721D02*
D03*
X5660074Y4360147D02*
D03*
X6002352Y4822279D02*
D03*
X7049948Y4240156D02*
D03*
Y4180156D02*
D03*
X3257034Y3785522D02*
D03*
X5859843Y2919948D02*
D03*
X5799843D02*
D03*
X6839948Y3600157D02*
D03*
Y3540157D02*
D03*
X6759948Y4240157D02*
D03*
Y4180157D02*
D03*
X6289948Y4020157D02*
D03*
Y4080156D02*
D03*
X6470052Y3609843D02*
D03*
Y3669844D02*
D03*
X6330052Y3609843D02*
D03*
Y3669844D02*
D03*
X6120052Y3609843D02*
D03*
Y3669844D02*
D03*
X5980052D02*
D03*
Y3609843D02*
D03*
X2104999Y7647500D02*
D03*
X2229999D02*
D03*
X2479999D02*
D03*
X2604999D02*
D03*
X2354999D02*
D03*
X2604999Y7707500D02*
D03*
X2479999D02*
D03*
X2354999D02*
D03*
X2229999D02*
D03*
X2104999D02*
D03*
X5270117Y7389856D02*
D03*
X5210118D02*
D03*
X4619856Y6869882D02*
D03*
Y6929882D02*
D03*
X6343028Y5733125D02*
D03*
X6403028D02*
D03*
Y5673125D02*
D03*
X6343028D02*
D03*
X6432383Y4822644D02*
D03*
X5824816Y5172592D02*
D03*
X6907383Y6147644D02*
D03*
X6847383D02*
D03*
X6620000Y5940000D02*
D03*
X6680000D02*
D03*
X6620000Y6000000D02*
D03*
Y6060000D02*
D03*
X6680000D02*
D03*
Y6000000D02*
D03*
X6974882Y5360144D02*
D03*
Y5272644D02*
D03*
X7034882D02*
D03*
Y5360144D02*
D03*
X6707528Y6559884D02*
D03*
X7047528D02*
D03*
X7107528D02*
D03*
X6647528D02*
D03*
X7047528Y6619884D02*
D03*
X6647528D02*
D03*
X6707528D02*
D03*
X7107528D02*
D03*
X6432383Y4762644D02*
D03*
X6187500Y5360000D02*
D03*
X6247500D02*
D03*
X2050028Y5739883D02*
D03*
X2110028D02*
D03*
Y5679883D02*
D03*
X2050028D02*
D03*
X3250000Y5185000D02*
D03*
X3207574Y5227427D02*
D03*
X3399834Y5132389D02*
D03*
X3357408Y5174815D02*
D03*
X5928284Y5078284D02*
D03*
X5885857Y5035858D02*
D03*
X5772426Y5022426D02*
D03*
X5730000Y4980000D02*
D03*
X5987071Y4907071D02*
D03*
X6029497Y4949498D02*
D03*
X5782390Y5130166D02*
D03*
X3302426Y5032574D02*
D03*
X3260000Y5075000D02*
D03*
X3080859Y4170000D02*
D03*
X3038432Y4127573D02*
D03*
X2975858Y4275857D02*
D03*
X2933432Y4233431D02*
D03*
X5765858Y4040000D02*
D03*
X5808284Y3997574D02*
D03*
X5830502Y3899497D02*
D03*
X5872929Y3857071D02*
D03*
X1660000Y2980000D02*
D03*
Y4380000D02*
D03*
Y5079999D02*
D03*
Y5779999D02*
D03*
Y6479999D02*
D03*
X7340000Y1820000D02*
D03*
Y2520000D02*
D03*
Y3220000D02*
D03*
Y3920000D02*
D03*
Y4619999D02*
D03*
Y5319999D02*
D03*
Y6019999D02*
D03*
X6649999Y7712500D02*
D03*
X6774999Y7652500D02*
D03*
X6399999D02*
D03*
X6899999D02*
D03*
X6399999Y7712500D02*
D03*
X6524999D02*
D03*
X2609855Y2039883D02*
D03*
X4220000Y1960000D02*
D03*
Y1900000D02*
D03*
Y1800000D02*
D03*
Y1740000D02*
D03*
Y1650000D02*
D03*
Y1590000D02*
D03*
Y1500000D02*
D03*
Y1440000D02*
D03*
X3647528Y1744884D02*
D03*
X3707528D02*
D03*
Y1804884D02*
D03*
X3647528D02*
D03*
X2642528Y1744884D02*
D03*
X2702528D02*
D03*
Y1804884D02*
D03*
X2642528D02*
D03*
X2290000Y2520000D02*
D03*
X2350000D02*
D03*
Y2580000D02*
D03*
X2290000D02*
D03*
X3179855Y1269883D02*
D03*
Y1329883D02*
D03*
Y1209883D02*
D03*
X2999855Y1269883D02*
D03*
X3059855D02*
D03*
Y1329883D02*
D03*
X2999855D02*
D03*
X3059855Y1209883D02*
D03*
X2999855D02*
D03*
X3119855D02*
D03*
Y1329883D02*
D03*
Y1269883D02*
D03*
X2609855Y3024883D02*
D03*
Y3084883D02*
D03*
Y2964883D02*
D03*
X2489856D02*
D03*
X2549855D02*
D03*
X2489856Y3084883D02*
D03*
X2549855D02*
D03*
Y3024883D02*
D03*
X2489856D02*
D03*
X2609855Y2099883D02*
D03*
Y2159883D02*
D03*
X2489856Y2039883D02*
D03*
X2549855D02*
D03*
X2489856Y2159883D02*
D03*
X2549855D02*
D03*
Y2099883D02*
D03*
X2489856D02*
D03*
X3489856D02*
D03*
X3549855D02*
D03*
Y2159883D02*
D03*
X3489856D02*
D03*
X3549855Y2039883D02*
D03*
X3489856D02*
D03*
X3609855D02*
D03*
Y2159883D02*
D03*
Y2099883D02*
D03*
X2352528Y6559884D02*
D03*
X2412528D02*
D03*
Y6619884D02*
D03*
X2352528D02*
D03*
X2752528Y6559884D02*
D03*
X2812528D02*
D03*
Y6619884D02*
D03*
X2752528D02*
D03*
X2739882Y5282644D02*
D03*
Y5370144D02*
D03*
X1892500Y5360000D02*
D03*
X1952500D02*
D03*
X2137383Y4762644D02*
D03*
X2679882Y5370144D02*
D03*
Y5282644D02*
D03*
X2612383Y6147644D02*
D03*
X2552383D02*
D03*
X2385000Y6000000D02*
D03*
Y6060000D02*
D03*
Y5940000D02*
D03*
X2325000Y6000000D02*
D03*
Y6060000D02*
D03*
Y5940000D02*
D03*
X2137383Y4822644D02*
D03*
X7839856Y1469884D02*
D03*
X7899856D02*
D03*
Y1409884D02*
D03*
X7839856D02*
D03*
X1099856D02*
D03*
X1159856D02*
D03*
Y1469884D02*
D03*
X1099856D02*
D03*
X3082426Y4812573D02*
D03*
X3040000Y4854999D02*
D03*
X7360000Y6329999D02*
D03*
X1640000Y1970000D02*
D03*
X1660000Y2280000D02*
D03*
X1280000Y1820000D02*
D03*
X1580000Y2070000D02*
D03*
X1600000Y2280000D02*
D03*
X1340000Y1820000D02*
D03*
X1700000Y1970000D02*
D03*
X1580000Y2130000D02*
D03*
X1640000Y2670000D02*
D03*
X1280000Y2520000D02*
D03*
X1600000Y2980000D02*
D03*
X1340000Y2520000D02*
D03*
X1700000Y2670000D02*
D03*
X1580000Y2830000D02*
D03*
X1640000Y3370000D02*
D03*
X1600000Y3680000D02*
D03*
X1340000Y3220000D02*
D03*
X1700000Y3370000D02*
D03*
X1580000Y3530000D02*
D03*
X1640000Y4069999D02*
D03*
X1600000Y4380000D02*
D03*
X1340000Y3920000D02*
D03*
X1700000Y4069999D02*
D03*
X1580000Y4229999D02*
D03*
X1640000Y4769999D02*
D03*
X1600000Y5079999D02*
D03*
X1340000Y4619999D02*
D03*
X1700000Y4769999D02*
D03*
X1580000Y4929999D02*
D03*
X1640000Y5469999D02*
D03*
X1600000Y5779999D02*
D03*
X1340000Y5319999D02*
D03*
X1700000Y5469999D02*
D03*
X1580000Y5629999D02*
D03*
X1640000Y6169999D02*
D03*
X1280000Y6019999D02*
D03*
X1580000Y6269999D02*
D03*
X1600000Y6479999D02*
D03*
X1340000Y6019999D02*
D03*
X1700000Y6169999D02*
D03*
X1580000Y6329999D02*
D03*
X7360000Y7029999D02*
D03*
X7340000Y6719999D02*
D03*
X7420000Y6929999D02*
D03*
X7400000Y6719999D02*
D03*
X7660000Y7179999D02*
D03*
X7300000Y7029999D02*
D03*
X7420000Y6869999D02*
D03*
Y6229999D02*
D03*
X7400000Y6019999D02*
D03*
X7660000Y6479999D02*
D03*
X7300000Y6329999D02*
D03*
X7420000Y6169999D02*
D03*
X7360000Y5629999D02*
D03*
X7400000Y5319999D02*
D03*
X7660000Y5779999D02*
D03*
X7300000Y5629999D02*
D03*
X7420000Y5469999D02*
D03*
X7360000Y4930000D02*
D03*
X7420000Y4829999D02*
D03*
X7400000Y4619999D02*
D03*
X7660000Y5079999D02*
D03*
X7300000Y4930000D02*
D03*
X7420000Y4770000D02*
D03*
X7360000Y4230000D02*
D03*
X7420000Y4130000D02*
D03*
X7400000Y3920000D02*
D03*
X7660000Y4380000D02*
D03*
X7300000Y4230000D02*
D03*
X7420000Y4070000D02*
D03*
X7360000Y3530000D02*
D03*
X7420000Y3430000D02*
D03*
X7400000Y3220000D02*
D03*
X7660000Y3680000D02*
D03*
X7300000Y3530000D02*
D03*
X7420000Y3370000D02*
D03*
X7360000Y2830000D02*
D03*
X7420000Y2730000D02*
D03*
X7400000Y2520000D02*
D03*
X7660000Y2980000D02*
D03*
X7300000Y2830000D02*
D03*
X7420000Y2670000D02*
D03*
X7360000Y2130000D02*
D03*
X7400000Y1820000D02*
D03*
X7660000Y2280000D02*
D03*
X7300000Y2130000D02*
D03*
X7420000Y1970000D02*
D03*
X1580000Y2770000D02*
D03*
X1660000Y3680000D02*
D03*
X1580000Y3470000D02*
D03*
X1280000Y3220000D02*
D03*
X1580000Y4170000D02*
D03*
Y4869999D02*
D03*
X1280000Y4619999D02*
D03*
X1580000Y5569999D02*
D03*
X1280000Y5319999D02*
D03*
X7720000Y6479999D02*
D03*
X7420000Y5529999D02*
D03*
X7720000Y5079999D02*
D03*
Y3680000D02*
D03*
X7420000Y2030000D02*
D03*
X1580000Y7030000D02*
D03*
Y6970000D02*
D03*
X1640000Y6870000D02*
D03*
X7720000Y7179999D02*
D03*
X5891716Y4084142D02*
D03*
X5849289Y4126569D02*
D03*
X5909289Y3976568D02*
D03*
X5951716Y3934142D02*
D03*
X2925858Y4130000D02*
D03*
X2883432Y4087573D02*
D03*
X1280000Y3920000D02*
D03*
X1660000Y7180000D02*
D03*
X1600000D02*
D03*
X1340000Y6720000D02*
D03*
X7720000Y5779999D02*
D03*
Y4380000D02*
D03*
Y2980000D02*
D03*
Y2280000D02*
D03*
X1699999Y6870000D02*
D03*
X1280000Y6720000D02*
D03*
%TF.MD5,e22301709a480a80ac8ebe7a8781eef0*%
M02*
