%TF.GenerationSoftware,Altium Limited,Altium Designer,24.0.1 (36)*%
G04 Layer_Physical_Order=4*
G04 Layer_Color=255*
%FSLAX45Y45*%
%MOMM*%
%TF.SameCoordinates,E594D193-3514-40B7-BCFE-BF8AFB9400D8*%
%TF.FilePolarity,Positive*%
%TF.FileFunction,Copper,L4,Bot,Signal*%
%TF.Part,Single*%
G01*
G75*
%TA.AperFunction,Conductor*%
%ADD84C,0.25000*%
%ADD86C,0.25400*%
%ADD88C,0.37000*%
%ADD89C,0.20320*%
%ADD90C,0.60000*%
%ADD93C,0.36876*%
%ADD94C,1.20000*%
%TA.AperFunction,NonConductor*%
%ADD95C,0.25400*%
%TA.AperFunction,ComponentPad*%
%ADD96C,7.00000*%
%ADD97C,1.52400*%
%TA.AperFunction,ViaPad*%
%ADD98C,0.56000*%
G36*
X6929999Y7622500D02*
X6870000D01*
X6869999Y7742500D01*
X6930000D01*
X6929999Y7622500D01*
D02*
G37*
G36*
X6804999D02*
X6745000D01*
X6744999Y7742500D01*
X6805000D01*
X6804999Y7622500D01*
D02*
G37*
G36*
X6679999D02*
X6620000D01*
X6619999Y7742500D01*
X6680000D01*
X6679999Y7622500D01*
D02*
G37*
G36*
X6554999D02*
X6495000D01*
X6494999Y7742500D01*
X6555000D01*
X6554999Y7622500D01*
D02*
G37*
G36*
X6429999D02*
X6370000D01*
X6369999Y7742500D01*
X6430000D01*
X6429999Y7622500D01*
D02*
G37*
G36*
X2634999Y7617500D02*
X2575000D01*
X2574999Y7737500D01*
X2635000D01*
X2634999Y7617500D01*
D02*
G37*
G36*
X2509999D02*
X2450000D01*
X2449999Y7737500D01*
X2510000D01*
X2509999Y7617500D01*
D02*
G37*
G36*
X2384999D02*
X2325000D01*
X2324999Y7737500D01*
X2385000D01*
X2384999Y7617500D01*
D02*
G37*
G36*
X2259999D02*
X2200000D01*
X2199999Y7737500D01*
X2260000D01*
X2259999Y7617500D01*
D02*
G37*
G36*
X2134999D02*
X2075000D01*
X2074999Y7737500D01*
X2135000D01*
X2134999Y7617500D01*
D02*
G37*
G36*
X6522383Y7367643D02*
X6402383D01*
Y7427643D01*
X6522383D01*
Y7367643D01*
D02*
G37*
G36*
X2227383Y7362643D02*
X2107383D01*
Y7422643D01*
X2227383D01*
Y7362643D01*
D02*
G37*
G36*
X5300117Y7359856D02*
X5180118D01*
X5180117Y7419856D01*
X5300117Y7419856D01*
Y7359856D01*
D02*
G37*
G36*
X5053028Y7193242D02*
X4933028D01*
Y7313125D01*
X5053028D01*
Y7193242D01*
D02*
G37*
G36*
X4063028D02*
X3943028D01*
Y7313125D01*
X4063028D01*
Y7193242D01*
D02*
G37*
G36*
X1690000Y7150000D02*
X1570000D01*
Y7210000D01*
X1690000D01*
Y7150000D01*
D02*
G37*
G36*
X7750000Y7209999D02*
Y7149999D01*
X7630000D01*
Y7209999D01*
X7750000Y7209999D01*
D02*
G37*
G36*
X7390000Y6999999D02*
X7270000D01*
Y7059999D01*
X7390000D01*
Y6999999D01*
D02*
G37*
G36*
X5263028Y6993242D02*
X5143028D01*
Y7113125D01*
X5263028D01*
Y6993242D01*
D02*
G37*
G36*
X4063028D02*
X3943028D01*
Y7113125D01*
X4063028D01*
Y6993242D01*
D02*
G37*
G36*
X1610000Y6940000D02*
X1550000D01*
Y7060000D01*
X1610000D01*
X1610000Y6940000D01*
D02*
G37*
G36*
X5263028Y6853242D02*
X5143028D01*
Y6970000D01*
X5263028D01*
Y6853242D01*
D02*
G37*
G36*
X4063028D02*
X3943028D01*
Y6970000D01*
X4063028D01*
Y6853242D01*
D02*
G37*
G36*
X1730000Y6840000D02*
X1610000D01*
Y6900000D01*
X1730000D01*
Y6840000D01*
D02*
G37*
G36*
X7450000Y6839999D02*
X7390000D01*
X7390000Y6959999D01*
X7450000D01*
Y6839999D01*
D02*
G37*
G36*
X4649856Y6839882D02*
X4589856D01*
Y6959882D01*
X4649856Y6959882D01*
X4649856Y6839882D01*
D02*
G37*
G36*
X1370000Y6690000D02*
X1250000Y6690000D01*
Y6750000D01*
X1370000D01*
Y6690000D01*
D02*
G37*
G36*
X7430000Y6689999D02*
X7310000D01*
Y6749999D01*
X7430000D01*
Y6689999D01*
D02*
G37*
G36*
X7137529Y6530000D02*
X7017529D01*
Y6649884D01*
X7137529D01*
Y6530000D01*
D02*
G37*
G36*
X6737529D02*
X6617529D01*
Y6649884D01*
X6737529D01*
Y6530000D01*
D02*
G37*
G36*
X2842528D02*
X2722528D01*
Y6649884D01*
X2842528D01*
Y6530000D01*
D02*
G37*
G36*
X2442529D02*
X2322529D01*
Y6649884D01*
X2442529D01*
Y6530000D01*
D02*
G37*
G36*
X7750000Y6509999D02*
Y6449999D01*
X7630000D01*
Y6509999D01*
X7750000Y6509999D01*
D02*
G37*
G36*
X1690000Y6449999D02*
X1570000D01*
Y6509999D01*
X1690000D01*
Y6449999D01*
D02*
G37*
G36*
X5911568Y6443210D02*
X5791568Y6443210D01*
X5791569Y6503211D01*
X5911568Y6503211D01*
Y6443210D01*
D02*
G37*
G36*
X4119424Y6502856D02*
Y6442856D01*
X3999424Y6442856D01*
Y6502856D01*
X4119424Y6502856D01*
D02*
G37*
G36*
X4262856Y6370576D02*
X4202856D01*
X4202856Y6490576D01*
X4262856D01*
X4262856Y6370576D01*
D02*
G37*
G36*
X7390000Y6299999D02*
X7270000D01*
Y6359999D01*
X7390000D01*
Y6299999D01*
D02*
G37*
G36*
X1610000Y6239999D02*
X1550000D01*
Y6359999D01*
X1610000D01*
X1610000Y6239999D01*
D02*
G37*
G36*
X4560576Y6227144D02*
X4440576D01*
Y6287144D01*
X4560576Y6287144D01*
Y6227144D01*
D02*
G37*
G36*
X5911568Y6188210D02*
X5791568Y6188210D01*
X5791569Y6248211D01*
X5911568Y6248211D01*
Y6188210D01*
D02*
G37*
G36*
X7450000Y6139999D02*
X7390000D01*
X7390000Y6259999D01*
X7450000D01*
Y6139999D01*
D02*
G37*
G36*
X1730000Y6139999D02*
X1610000D01*
Y6199999D01*
X1730000D01*
Y6139999D01*
D02*
G37*
G36*
X6937383Y6117643D02*
X6817383D01*
Y6177643D01*
X6937383D01*
Y6117643D01*
D02*
G37*
G36*
X2642383D02*
X2522383D01*
Y6177643D01*
X2642383D01*
Y6117643D01*
D02*
G37*
G36*
X4900052Y6169653D02*
X4815200Y6084800D01*
X4772773Y6127227D01*
X4857626Y6212080D01*
X4900052Y6169653D01*
D02*
G37*
G36*
X3201568Y6033210D02*
X3081568Y6033210D01*
X3081569Y6093211D01*
X3201568Y6093211D01*
Y6033210D01*
D02*
G37*
G36*
X4966621Y6103085D02*
X4881768Y6018232D01*
X4839342Y6060658D01*
X4924194Y6145511D01*
X4966621Y6103085D01*
D02*
G37*
G36*
X7430000Y5989999D02*
X7310000D01*
Y6049999D01*
X7430000D01*
Y5989999D01*
D02*
G37*
G36*
X1370000Y5989999D02*
X1250000Y5989999D01*
Y6049999D01*
X1370000D01*
Y5989999D01*
D02*
G37*
G36*
X6710000Y6030000D02*
Y5970000D01*
Y5910000D01*
X6590000Y5910000D01*
Y5970000D01*
Y6030000D01*
X6710000D01*
X6590000Y6030000D01*
Y6090000D01*
X6710000D01*
Y6030000D01*
D02*
G37*
G36*
X2415000D02*
Y5970000D01*
Y5910000D01*
X2295000Y5910000D01*
Y5970000D01*
Y6030000D01*
X2415000D01*
X2295000Y6030000D01*
Y6090000D01*
X2415000D01*
Y6030000D01*
D02*
G37*
G36*
X7750000Y5809999D02*
Y5749999D01*
X7630000D01*
Y5810000D01*
X7750000Y5809999D01*
D02*
G37*
G36*
X1690000Y5749999D02*
X1570000D01*
Y5809999D01*
X1690000D01*
Y5749999D01*
D02*
G37*
G36*
X3821768Y5731768D02*
X3779342Y5689342D01*
X3694489Y5774194D01*
X3736915Y5816621D01*
X3821768Y5731768D01*
D02*
G37*
G36*
X2140028Y5650000D02*
X2020028D01*
Y5769883D01*
X2140028D01*
Y5650000D01*
D02*
G37*
G36*
X6433028Y5643242D02*
X6313028D01*
Y5763125D01*
X6433028D01*
Y5643242D01*
D02*
G37*
G36*
X3755200Y5665200D02*
X3712773Y5622773D01*
X3627920Y5707626D01*
X3670347Y5750053D01*
X3755200Y5665200D01*
D02*
G37*
G36*
X7390000Y5599999D02*
X7270000D01*
Y5660000D01*
X7390000D01*
Y5599999D01*
D02*
G37*
G36*
X5390052Y5669653D02*
X5305200Y5584800D01*
X5262773Y5627227D01*
X5347626Y5712080D01*
X5390052Y5669653D01*
D02*
G37*
G36*
X1610000Y5539999D02*
X1550000D01*
Y5659999D01*
X1610000D01*
X1610000Y5539999D01*
D02*
G37*
G36*
X3142583Y5562375D02*
X3100156Y5519948D01*
X3015303Y5604801D01*
X3057730Y5647228D01*
X3142583Y5562375D01*
D02*
G37*
G36*
X5456621Y5603085D02*
X5371768Y5518232D01*
X5329342Y5560658D01*
X5414194Y5645511D01*
X5456621Y5603085D01*
D02*
G37*
G36*
X4480053Y5579653D02*
X4395200Y5494800D01*
X4352773Y5537227D01*
X4437626Y5622080D01*
X4480053Y5579653D01*
D02*
G37*
G36*
X7450000Y5440000D02*
X7390000D01*
X7390000Y5560000D01*
X7450000D01*
Y5440000D01*
D02*
G37*
G36*
X1730000Y5439999D02*
X1610000D01*
Y5499999D01*
X1730000D01*
Y5439999D01*
D02*
G37*
G36*
X3086015Y5480806D02*
X3043588Y5438380D01*
X2958735Y5523233D01*
X3001162Y5565659D01*
X3086015Y5480806D01*
D02*
G37*
G36*
X4546621Y5513085D02*
X4461768Y5428232D01*
X4419342Y5470658D01*
X4504194Y5555511D01*
X4546621Y5513085D01*
D02*
G37*
G36*
X2770000Y5340000D02*
X2650000Y5340000D01*
Y5400000D01*
X2770000D01*
Y5340000D01*
D02*
G37*
G36*
X7064882Y5330144D02*
X6944882Y5330144D01*
Y5390144D01*
X7064882D01*
Y5330144D01*
D02*
G37*
G36*
X6277500Y5330000D02*
X6157500Y5330001D01*
Y5390000D01*
X6277500D01*
Y5330000D01*
D02*
G37*
G36*
X1982500D02*
X1862500Y5330001D01*
Y5390000D01*
X1982500D01*
Y5330000D01*
D02*
G37*
G36*
X3461768Y5371768D02*
X3419342Y5329342D01*
X3334489Y5414194D01*
X3369601Y5449306D01*
X3384230D01*
X3461768Y5371768D01*
D02*
G37*
G36*
X4915053Y5402153D02*
X4830200Y5317300D01*
X4787774Y5359727D01*
X4872626Y5444580D01*
X4915053Y5402153D01*
D02*
G37*
G36*
X7430000Y5289999D02*
X7310000D01*
Y5349999D01*
X7430000D01*
Y5289999D01*
D02*
G37*
G36*
X1370000Y5289999D02*
X1250000Y5289999D01*
Y5349999D01*
X1370000D01*
Y5289999D01*
D02*
G37*
G36*
X3395200Y5305200D02*
X3352773Y5262773D01*
X3267920Y5347626D01*
X3310347Y5390052D01*
X3395200Y5305200D01*
D02*
G37*
G36*
X2769882Y5252644D02*
X2649882Y5252644D01*
Y5312644D01*
X2769882D01*
Y5252644D01*
D02*
G37*
G36*
X7065393Y5242692D02*
X6945393Y5242692D01*
Y5302692D01*
X7065393D01*
Y5242692D01*
D02*
G37*
G36*
X5740053Y5309653D02*
X5655200Y5224800D01*
X5612773Y5267227D01*
X5697626Y5352080D01*
X5740053Y5309653D01*
D02*
G37*
G36*
X5806621Y5243085D02*
X5721768Y5158232D01*
X5679342Y5200658D01*
X5764194Y5285511D01*
X5806621Y5243085D01*
D02*
G37*
G36*
X3292426Y5185000D02*
X3250000Y5142574D01*
X3165147Y5227426D01*
X3207574Y5269853D01*
X3292426Y5185000D01*
D02*
G37*
G36*
X3442261Y5132390D02*
X3399834Y5089963D01*
X3314982Y5174816D01*
X3357408Y5217242D01*
X3442261Y5132390D01*
D02*
G37*
G36*
X5867243Y5172592D02*
X5782390Y5087739D01*
X5739964Y5130166D01*
X5824816Y5215018D01*
X5867243Y5172592D01*
D02*
G37*
G36*
X7750000Y5109999D02*
Y5050000D01*
X7630000D01*
Y5110000D01*
X7750000Y5109999D01*
D02*
G37*
G36*
X1690000Y5049999D02*
X1570000D01*
Y5109999D01*
X1690000D01*
Y5049999D01*
D02*
G37*
G36*
X5970710Y5078284D02*
X5885858Y4993432D01*
X5843431Y5035858D01*
X5928284Y5120711D01*
X5970710Y5078284D01*
D02*
G37*
G36*
X3344853Y5032574D02*
X3302426Y4990147D01*
X3217574Y5075000D01*
X3260000Y5117426D01*
X3344853Y5032574D01*
D02*
G37*
G36*
X3141569Y5010000D02*
X3099142Y4967574D01*
X3014289Y5052427D01*
X3056716Y5094853D01*
X3141569Y5010000D01*
D02*
G37*
G36*
X5814853Y5022426D02*
X5730000Y4937574D01*
X5687574Y4980000D01*
X5772426Y5064853D01*
X5814853Y5022426D01*
D02*
G37*
G36*
X3066569Y4960000D02*
X3024142Y4917574D01*
X2939290Y5002427D01*
X2981716Y5044853D01*
X3066569Y4960000D01*
D02*
G37*
G36*
X7390000Y4900000D02*
X7270000D01*
Y4960000D01*
X7390000D01*
Y4900000D01*
D02*
G37*
G36*
X6071924Y4949498D02*
X5987071Y4864645D01*
X5944644Y4907071D01*
X6029497Y4991924D01*
X6071924Y4949498D01*
D02*
G37*
G36*
X5941924Y4939498D02*
X5857071Y4854645D01*
X5814645Y4897071D01*
X5899497Y4981924D01*
X5941924Y4939498D01*
D02*
G37*
G36*
X1610000Y4839999D02*
X1550000D01*
Y4959999D01*
X1610000D01*
X1610000Y4839999D01*
D02*
G37*
G36*
X2971768Y4831768D02*
X2929342Y4789342D01*
X2844489Y4874194D01*
X2886915Y4916621D01*
X2971768Y4831768D01*
D02*
G37*
G36*
X3124853Y4812573D02*
X3082426Y4770146D01*
X2997574Y4854999D01*
X3040000Y4897425D01*
X3124853Y4812573D01*
D02*
G37*
G36*
X7450000Y4740000D02*
X7390000D01*
X7390000Y4860000D01*
X7450000D01*
Y4740000D01*
D02*
G37*
G36*
X1730000Y4739999D02*
X1610000D01*
Y4799999D01*
X1730000D01*
Y4739999D01*
D02*
G37*
G36*
X6044780Y4822279D02*
X5959927Y4737427D01*
X5917500Y4779853D01*
X5989587Y4851940D01*
X5996791Y4854925D01*
X6004463Y4862596D01*
X6044780Y4822279D01*
D02*
G37*
G36*
X6462383Y4732644D02*
X6402383D01*
X6402383Y4852644D01*
X6462383D01*
Y4732644D01*
D02*
G37*
G36*
X2167383D02*
X2107383D01*
X2107383Y4852644D01*
X2167383D01*
Y4732644D01*
D02*
G37*
G36*
X2905200Y4765200D02*
X2862773Y4722773D01*
X2777920Y4807626D01*
X2820347Y4850053D01*
X2905200Y4765200D01*
D02*
G37*
G36*
X6114780Y4757279D02*
X6029927Y4672427D01*
X5987500Y4714853D01*
X6072353Y4799706D01*
X6114780Y4757279D01*
D02*
G37*
G36*
X3531265Y4671767D02*
X3488838Y4629341D01*
X3403985Y4714194D01*
X3446412Y4756620D01*
X3531265Y4671767D01*
D02*
G37*
G36*
X7430000Y4589999D02*
X7310000D01*
Y4650000D01*
X7430000D01*
Y4589999D01*
D02*
G37*
G36*
X1370000Y4589999D02*
X1250000Y4589999D01*
Y4649999D01*
X1370000D01*
Y4589999D01*
D02*
G37*
G36*
X3462427Y4597574D02*
X3420000Y4555147D01*
X3335147Y4640000D01*
X3377574Y4682426D01*
X3462427Y4597574D01*
D02*
G37*
G36*
X3820053Y4619653D02*
X3735200Y4534800D01*
X3692773Y4577227D01*
X3777626Y4662080D01*
X3820053Y4619653D01*
D02*
G37*
G36*
X2848431Y4575932D02*
X2848431Y4515932D01*
X2728431Y4515932D01*
Y4575932D01*
X2848431Y4575932D01*
D02*
G37*
G36*
X6287856Y4440576D02*
X6227856D01*
X6227856Y4560576D01*
X6287856D01*
Y4440576D01*
D02*
G37*
G36*
X2848431Y4425932D02*
X2728431Y4425932D01*
Y4485932D01*
X2848431Y4485932D01*
X2848431Y4425932D01*
D02*
G37*
G36*
X7750000Y4410000D02*
Y4350000D01*
X7630000D01*
Y4410000D01*
X7750000Y4410000D01*
D02*
G37*
G36*
X1690000Y4349999D02*
X1570000D01*
Y4410000D01*
X1690000D01*
Y4349999D01*
D02*
G37*
G36*
X3472479Y4374592D02*
X3387626Y4289739D01*
X3345199Y4332166D01*
X3430052Y4417019D01*
X3472479Y4374592D01*
D02*
G37*
G36*
X5702500Y4360147D02*
X5620805Y4278452D01*
X5614490D01*
X5575220Y4317721D01*
X5660074Y4402574D01*
X5702500Y4360147D01*
D02*
G37*
G36*
X7390000Y4200000D02*
X7270000D01*
Y4260000D01*
X7390000D01*
Y4200000D01*
D02*
G37*
G36*
X3018285Y4275857D02*
X2933432Y4191005D01*
X2891006Y4233431D01*
X2975859Y4318284D01*
X3018285Y4275857D01*
D02*
G37*
G36*
X2348210Y4288431D02*
X2348210Y4168432D01*
X2288210D01*
X2288210Y4288432D01*
X2348210Y4288431D01*
D02*
G37*
G36*
X2258211D02*
X2258211Y4168432D01*
X2198210D01*
X2198210Y4288432D01*
X2258211Y4288431D01*
D02*
G37*
G36*
X5592446Y4252758D02*
X5507593Y4167905D01*
X5465166Y4210332D01*
X5550019Y4295185D01*
X5592446Y4252758D01*
D02*
G37*
G36*
X6251768Y4201768D02*
X6209342Y4159342D01*
X6124489Y4244194D01*
X6166915Y4286621D01*
X6251768Y4201768D01*
D02*
G37*
G36*
X6789948Y4150157D02*
X6729947Y4150156D01*
X6729948Y4270156D01*
X6789948Y4270157D01*
Y4150157D01*
D02*
G37*
G36*
X7079948Y4150156D02*
X7019948Y4150156D01*
X7019948Y4270156D01*
X7079948Y4270156D01*
Y4150156D01*
D02*
G37*
G36*
X1610000Y4139999D02*
X1550000D01*
Y4259999D01*
X1610000D01*
X1610000Y4139999D01*
D02*
G37*
G36*
X6185200Y4135200D02*
X6142773Y4092773D01*
X6057920Y4177626D01*
X6100347Y4220053D01*
X6185200Y4135200D01*
D02*
G37*
G36*
X3123285Y4170000D02*
X3038433Y4085147D01*
X2996006Y4127573D01*
X3080859Y4212426D01*
X3123285Y4170000D01*
D02*
G37*
G36*
X2968285Y4130000D02*
X2883432Y4045147D01*
X2841005Y4087573D01*
X2925858Y4172426D01*
X2968285Y4130000D01*
D02*
G37*
G36*
X5934142Y4084143D02*
X5891716Y4041716D01*
X5806863Y4126569D01*
X5849289Y4168995D01*
X5934142Y4084143D01*
D02*
G37*
G36*
X7450000Y4040000D02*
X7390000D01*
X7390000Y4160000D01*
X7450000D01*
Y4040000D01*
D02*
G37*
G36*
X1730000Y4039999D02*
X1610000D01*
Y4099999D01*
X1730000D01*
Y4039999D01*
D02*
G37*
G36*
X6319948Y3990156D02*
X6259948Y3990156D01*
X6259948Y4110156D01*
X6319948Y4110156D01*
Y3990156D01*
D02*
G37*
G36*
X5850711Y3997574D02*
X5808284Y3955147D01*
X5723432Y4040000D01*
X5765858Y4082426D01*
X5850711Y3997574D01*
D02*
G37*
G36*
X5322500Y4020148D02*
X5237647Y3935295D01*
X5195220Y3977721D01*
X5280073Y4062574D01*
X5322500Y4020148D01*
D02*
G37*
G36*
X3076569Y4020000D02*
X2991716Y3935147D01*
X2949290Y3977573D01*
X3034143Y4062426D01*
X3076569Y4020000D01*
D02*
G37*
G36*
X5994142Y3934143D02*
X5951716Y3891716D01*
X5866863Y3976569D01*
X5909289Y4018995D01*
X5994142Y3934143D01*
D02*
G37*
G36*
X7430000Y3890000D02*
X7310000D01*
Y3950000D01*
X7430000D01*
Y3890000D01*
D02*
G37*
G36*
X1370000Y3889999D02*
X1250000Y3890000D01*
Y3949999D01*
X1370000D01*
Y3889999D01*
D02*
G37*
G36*
X5913903Y3855619D02*
X5872929Y3814644D01*
X5788076Y3899497D01*
X5829050Y3940472D01*
X5913903Y3855619D01*
D02*
G37*
G36*
X2701568Y3743210D02*
X2581568Y3743210D01*
X2581569Y3803211D01*
X2701568Y3803211D01*
Y3743210D01*
D02*
G37*
G36*
X3299461Y3785522D02*
X3257034Y3743095D01*
X3173232Y3826896D01*
X3215659Y3869323D01*
X3299461Y3785522D01*
D02*
G37*
G36*
X5818545Y3778839D02*
X5776118Y3736413D01*
X5691265Y3821265D01*
X5733692Y3863692D01*
X5818545Y3778839D01*
D02*
G37*
G36*
X5751976Y3712271D02*
X5711517Y3671811D01*
X5707583D01*
X5624697Y3754697D01*
X5667124Y3797124D01*
X5751976Y3712271D01*
D02*
G37*
G36*
X7750000Y3710000D02*
Y3650000D01*
X7630000D01*
Y3710000D01*
X7750000Y3710000D01*
D02*
G37*
G36*
X1690000Y3650000D02*
X1570000D01*
Y3710000D01*
X1690000D01*
Y3650000D01*
D02*
G37*
G36*
X2254068Y3618210D02*
X2134068Y3618210D01*
X2134069Y3678211D01*
X2254068Y3678211D01*
Y3618210D01*
D02*
G37*
G36*
X6500052Y3579844D02*
X6440052Y3579843D01*
Y3699844D01*
X6500052Y3699844D01*
Y3579844D01*
D02*
G37*
G36*
X6360052D02*
X6300052Y3579843D01*
Y3699844D01*
X6360052Y3699844D01*
Y3579844D01*
D02*
G37*
G36*
X6150052D02*
X6090052Y3579843D01*
Y3699844D01*
X6150052Y3699844D01*
Y3579844D01*
D02*
G37*
G36*
X6010052D02*
X5950052Y3579843D01*
Y3699844D01*
X6010052Y3699844D01*
Y3579844D01*
D02*
G37*
G36*
X4817574Y3599927D02*
X4775148Y3557500D01*
X4690295Y3642353D01*
X4732721Y3684780D01*
X4817574Y3599927D01*
D02*
G37*
G36*
X4263085Y3624194D02*
X4178232Y3539341D01*
X4135805Y3581768D01*
X4220658Y3666621D01*
X4263085Y3624194D01*
D02*
G37*
G36*
X6869948Y3510157D02*
X6809948Y3510156D01*
X6809948Y3630156D01*
X6869948Y3630157D01*
Y3510157D01*
D02*
G37*
G36*
X7390000Y3500000D02*
X7270000D01*
Y3560000D01*
X7390000D01*
Y3500000D01*
D02*
G37*
G36*
X2661568Y3493210D02*
X2541568Y3493210D01*
X2541568Y3553211D01*
X2661568Y3553211D01*
Y3493210D01*
D02*
G37*
G36*
X2254068D02*
X2134068Y3493210D01*
X2134069Y3553211D01*
X2254068Y3553211D01*
Y3493210D01*
D02*
G37*
G36*
X4742574Y3524927D02*
X4700148Y3482500D01*
X4615295Y3567353D01*
X4657721Y3609780D01*
X4742574Y3524927D01*
D02*
G37*
G36*
X1610000Y3439999D02*
X1550000D01*
Y3559999D01*
X1610000D01*
X1610000Y3439999D01*
D02*
G37*
G36*
X3350658Y3509342D02*
X3265806Y3424489D01*
X3223379Y3466915D01*
X3308232Y3551768D01*
X3350658Y3509342D01*
D02*
G37*
G36*
X5482080Y3442374D02*
X5439653Y3399947D01*
X5354800Y3484800D01*
X5397227Y3527227D01*
X5482080Y3442374D01*
D02*
G37*
G36*
X5709844Y3379948D02*
X5589844Y3379948D01*
X5589844Y3439948D01*
X5709844D01*
X5709844Y3379948D01*
D02*
G37*
G36*
X2661568Y3368210D02*
X2541568Y3368210D01*
X2541568Y3428211D01*
X2661568Y3428211D01*
Y3368210D01*
D02*
G37*
G36*
X2254068Y3365710D02*
X2134068Y3365710D01*
X2134069Y3425710D01*
X2254068Y3425711D01*
Y3365710D01*
D02*
G37*
G36*
X3417227Y3442773D02*
X3332374Y3357920D01*
X3289947Y3400347D01*
X3374800Y3485200D01*
X3417227Y3442773D01*
D02*
G37*
G36*
X7450000Y3340000D02*
X7390000D01*
X7390000Y3460000D01*
X7450000D01*
Y3340000D01*
D02*
G37*
G36*
X1730000Y3339999D02*
X1610000D01*
Y3400000D01*
X1730000D01*
Y3339999D01*
D02*
G37*
G36*
X5415511Y3375806D02*
X5373085Y3333379D01*
X5288232Y3418232D01*
X5330658Y3460658D01*
X5415511Y3375806D01*
D02*
G37*
G36*
X3488063Y3375902D02*
X3403210Y3291050D01*
X3360784Y3333476D01*
X3445636Y3418329D01*
X3488063Y3375902D01*
D02*
G37*
G36*
X6770156Y3320052D02*
X6770156Y3260052D01*
X6650156Y3260052D01*
X6650156Y3320053D01*
X6770156Y3320052D01*
D02*
G37*
G36*
X5080000Y3242500D02*
X4960000Y3242500D01*
Y3302501D01*
X5080000D01*
Y3242500D01*
D02*
G37*
G36*
X5990052Y3219844D02*
X5930052Y3219843D01*
Y3339843D01*
X5990053Y3339844D01*
X5990052Y3219844D01*
D02*
G37*
G36*
X6970156Y3270052D02*
X6970156Y3210053D01*
X6850156Y3210052D01*
X6850156Y3270053D01*
X6970156Y3270052D01*
D02*
G37*
G36*
X7430000Y3190000D02*
X7310000D01*
Y3250000D01*
X7430000D01*
Y3190000D01*
D02*
G37*
G36*
X1370000Y3189999D02*
X1250000Y3190000D01*
Y3250000D01*
X1370000D01*
Y3189999D01*
D02*
G37*
G36*
X3922479Y3254592D02*
X3837626Y3169739D01*
X3795199Y3212166D01*
X3880052Y3297019D01*
X3922479Y3254592D01*
D02*
G37*
G36*
X5546790Y3165746D02*
X5486789D01*
X5486789Y3279068D01*
X5546790D01*
X5546790Y3165746D01*
D02*
G37*
G36*
X6970156Y3170052D02*
X6970156Y3110052D01*
X6850156Y3110052D01*
X6850156Y3170053D01*
X6970156Y3170052D01*
D02*
G37*
G36*
X5693211Y3088431D02*
X5693211Y2968432D01*
X5633210D01*
X5633210Y3088432D01*
X5693211Y3088431D01*
D02*
G37*
G36*
X4443085Y3044195D02*
X4358232Y2959342D01*
X4315805Y3001768D01*
X4400658Y3086621D01*
X4443085Y3044195D01*
D02*
G37*
G36*
X7750000Y3010000D02*
Y2950000D01*
X7630000D01*
Y3010000D01*
X7750000Y3010000D01*
D02*
G37*
G36*
X1690000Y2950000D02*
X1570000D01*
Y3010000D01*
X1690000D01*
Y2950000D01*
D02*
G37*
G36*
X2639999Y2932500D02*
X2459856D01*
Y3114883D01*
X2639999D01*
Y2932500D01*
D02*
G37*
G36*
X6719883Y2930143D02*
X6599883D01*
Y2990143D01*
X6719883D01*
Y2930143D01*
D02*
G37*
G36*
X5032080Y2962374D02*
X4989653Y2919947D01*
X4904800Y3004800D01*
X4947227Y3047227D01*
X5032080Y2962374D01*
D02*
G37*
G36*
X6289999Y2907500D02*
X6109856D01*
Y3089883D01*
X6289999D01*
Y2907500D01*
D02*
G37*
G36*
X5889844Y2889947D02*
X5769844Y2889948D01*
X5769843Y2949948D01*
X5889843D01*
X5889844Y2889947D01*
D02*
G37*
G36*
X6859883Y2870143D02*
X6739883D01*
Y2930143D01*
X6859883D01*
Y2870143D01*
D02*
G37*
G36*
X4965512Y2895805D02*
X4923085Y2853379D01*
X4838232Y2938232D01*
X4880659Y2980658D01*
X4965512Y2895805D01*
D02*
G37*
G36*
X5474068Y2879595D02*
Y2823210D01*
X5354068Y2823210D01*
X5354069Y2883210D01*
X5470453Y2883211D01*
X5474068Y2879595D01*
D02*
G37*
G36*
X7390000Y2800000D02*
X7270000D01*
Y2860000D01*
X7390000D01*
Y2800000D01*
D02*
G37*
G36*
X4312479Y2864592D02*
X4227626Y2779739D01*
X4185199Y2822166D01*
X4270052Y2907019D01*
X4312479Y2864592D01*
D02*
G37*
G36*
X7160156Y2820052D02*
X7160157Y2760052D01*
X7040157Y2760052D01*
X7040156Y2820053D01*
X7160156Y2820052D01*
D02*
G37*
G36*
X5999844Y2759947D02*
X5879844Y2759948D01*
X5879843Y2819948D01*
X5999843D01*
X5999844Y2759947D01*
D02*
G37*
G36*
X1610000Y2740000D02*
X1550000D01*
Y2860000D01*
X1610000D01*
X1610000Y2740000D01*
D02*
G37*
G36*
X6510156Y2760052D02*
X6510157Y2700052D01*
X6390157D01*
X6390156Y2760052D01*
X6510156Y2760052D01*
D02*
G37*
G36*
X5560156Y2700052D02*
X5560157Y2640052D01*
X5440157Y2640052D01*
X5440156Y2700053D01*
X5560156Y2700052D01*
D02*
G37*
G36*
X7450000Y2640000D02*
X7390000D01*
X7390000Y2760000D01*
X7450000D01*
Y2640000D01*
D02*
G37*
G36*
X1730000Y2640000D02*
X1610000D01*
Y2700000D01*
X1730000D01*
Y2640000D01*
D02*
G37*
G36*
X2322039Y2609576D02*
X2321627Y2609181D01*
X2321220Y2608780D01*
X2320819Y2608373D01*
X2320424Y2607961D01*
X2320035Y2607544D01*
X2320000Y2607505D01*
X2319965Y2607544D01*
X2319576Y2607961D01*
X2319181Y2608373D01*
X2318780Y2608780D01*
X2318374Y2609181D01*
X2317961Y2609576D01*
X2317631Y2609884D01*
X2322369D01*
X2322039Y2609576D01*
D02*
G37*
G36*
X2382528Y2604463D02*
X2382521Y2604474D01*
X2382174Y2604928D01*
X2381821Y2605377D01*
X2381462Y2605820D01*
X2381097Y2606259D01*
X2380726Y2606693D01*
X2380349Y2607121D01*
X2379965Y2607544D01*
X2379576Y2607961D01*
X2379181Y2608373D01*
X2378780Y2608780D01*
X2378374Y2609181D01*
X2377961Y2609576D01*
X2377631Y2609884D01*
X2382528D01*
Y2604463D01*
D02*
G37*
G36*
X2320035Y2552456D02*
X2320424Y2552039D01*
X2320819Y2551626D01*
X2321220Y2551220D01*
X2321627Y2550819D01*
X2322039Y2550424D01*
X2322456Y2550035D01*
X2322495Y2550000D01*
X2322456Y2549965D01*
X2322039Y2549576D01*
X2321627Y2549181D01*
X2321220Y2548780D01*
X2320819Y2548374D01*
X2320424Y2547961D01*
X2320035Y2547544D01*
X2320000Y2547505D01*
X2319965Y2547544D01*
X2319576Y2547961D01*
X2319181Y2548374D01*
X2318780Y2548780D01*
X2318374Y2549181D01*
X2317961Y2549576D01*
X2317544Y2549965D01*
X2317505Y2550000D01*
X2317544Y2550035D01*
X2317961Y2550424D01*
X2318374Y2550819D01*
X2318780Y2551220D01*
X2319181Y2551626D01*
X2319576Y2552039D01*
X2319965Y2552456D01*
X2320000Y2552495D01*
X2320035Y2552456D01*
D02*
G37*
G36*
X2382528Y2544464D02*
X2382521Y2544474D01*
X2382174Y2544928D01*
X2381821Y2545377D01*
X2381462Y2545820D01*
X2381097Y2546259D01*
X2380726Y2546693D01*
X2380349Y2547121D01*
X2379965Y2547544D01*
X2379576Y2547961D01*
X2379181Y2548374D01*
X2378780Y2548780D01*
X2378374Y2549181D01*
X2377961Y2549576D01*
X2377544Y2549965D01*
X2377506Y2550000D01*
X2377544Y2550035D01*
X2377961Y2550424D01*
X2378374Y2550819D01*
X2378780Y2551220D01*
X2379181Y2551626D01*
X2379576Y2552039D01*
X2379965Y2552456D01*
X2380349Y2552879D01*
X2380726Y2553307D01*
X2381097Y2553741D01*
X2381462Y2554180D01*
X2381821Y2554623D01*
X2382174Y2555072D01*
X2382521Y2555526D01*
X2382528Y2555536D01*
Y2544464D01*
D02*
G37*
G36*
X6673210Y2628431D02*
X6673211Y2508432D01*
X6613210D01*
X6613210Y2628432D01*
X6673210Y2628431D01*
D02*
G37*
G36*
X2382528Y2490000D02*
X2377506D01*
X2377544Y2490035D01*
X2377961Y2490424D01*
X2378374Y2490819D01*
X2378780Y2491220D01*
X2379181Y2491626D01*
X2379576Y2492039D01*
X2379965Y2492456D01*
X2380349Y2492879D01*
X2380726Y2493307D01*
X2381097Y2493741D01*
X2381462Y2494180D01*
X2381821Y2494623D01*
X2382174Y2495072D01*
X2382521Y2495526D01*
X2382528Y2495537D01*
Y2490000D01*
D02*
G37*
G36*
X2320035Y2492456D02*
X2320424Y2492039D01*
X2320819Y2491626D01*
X2321220Y2491220D01*
X2321627Y2490819D01*
X2322039Y2490424D01*
X2322456Y2490035D01*
X2322494Y2490000D01*
X2317506D01*
X2317544Y2490035D01*
X2317961Y2490424D01*
X2318374Y2490819D01*
X2318780Y2491220D01*
X2319181Y2491626D01*
X2319576Y2492039D01*
X2319965Y2492456D01*
X2320000Y2492495D01*
X2320035Y2492456D01*
D02*
G37*
G36*
X7430000Y2490000D02*
X7310000D01*
Y2550000D01*
X7430000D01*
Y2490000D01*
D02*
G37*
G36*
X1370000Y2490000D02*
X1250000Y2490000D01*
Y2550000D01*
X1370000D01*
Y2490000D01*
D02*
G37*
G36*
X6038432Y2516790D02*
X6038431Y2456790D01*
X5918432Y2456789D01*
Y2516790D01*
X6038432Y2516790D01*
D02*
G37*
G36*
X6812500Y2400000D02*
X6752500D01*
X6752500Y2520000D01*
X6812500D01*
Y2400000D01*
D02*
G37*
G36*
X7750000Y2310000D02*
Y2250000D01*
X7630000D01*
Y2310000D01*
X7750000Y2310000D01*
D02*
G37*
G36*
X1690000Y2250000D02*
X1570000D01*
Y2310000D01*
X1690000D01*
Y2250000D01*
D02*
G37*
G36*
X6873211Y2268432D02*
X6873211Y2148432D01*
X6813210D01*
X6813210Y2268432D01*
X6873211Y2268432D01*
D02*
G37*
G36*
X7390000Y2100000D02*
X7270000D01*
Y2160000D01*
X7390000D01*
Y2100000D01*
D02*
G37*
G36*
X1610000Y2040000D02*
X1550000D01*
Y2160000D01*
X1610000D01*
X1610000Y2040000D01*
D02*
G37*
G36*
X3639999Y2007500D02*
X3459856D01*
Y2189883D01*
X3639999D01*
Y2007500D01*
D02*
G37*
G36*
X2639999D02*
X2459856D01*
Y2189883D01*
X2639999D01*
Y2007500D01*
D02*
G37*
G36*
X7450000Y1940000D02*
X7390000D01*
X7390000Y2060000D01*
X7450000D01*
Y1940000D01*
D02*
G37*
G36*
X1730000Y1940000D02*
X1610000D01*
Y2000000D01*
X1730000D01*
Y1940000D01*
D02*
G37*
G36*
X6759856Y1880000D02*
X6639856D01*
Y1999883D01*
X6759856D01*
Y1880000D01*
D02*
G37*
G36*
X4250000Y1870000D02*
X4190000Y1870000D01*
X4190000Y1990000D01*
X4250000D01*
Y1870000D01*
D02*
G37*
G36*
X7430000Y1790000D02*
X7310000D01*
Y1850000D01*
X7430000D01*
Y1790000D01*
D02*
G37*
G36*
X1370000Y1790000D02*
X1250000Y1790000D01*
Y1850000D01*
X1370000D01*
Y1790000D01*
D02*
G37*
G36*
X3737528Y1715000D02*
X3617528D01*
Y1834884D01*
X3737528D01*
Y1715000D01*
D02*
G37*
G36*
X2732528D02*
X2612528D01*
Y1834884D01*
X2732528D01*
Y1715000D01*
D02*
G37*
G36*
X4250000Y1710000D02*
X4190000Y1710000D01*
X4190000Y1830000D01*
X4250000D01*
Y1710000D01*
D02*
G37*
G36*
Y1560000D02*
X4190000Y1560000D01*
X4190000Y1680000D01*
X4250000D01*
Y1560000D01*
D02*
G37*
G36*
Y1410000D02*
X4190000Y1410000D01*
X4190000Y1530000D01*
X4250000D01*
Y1410000D01*
D02*
G37*
G36*
X7929856Y1380000D02*
X7809856D01*
Y1499883D01*
X7929856D01*
Y1380000D01*
D02*
G37*
G36*
X1189856D02*
X1069856D01*
Y1499883D01*
X1189856D01*
Y1380000D01*
D02*
G37*
G36*
X2197448Y1215157D02*
X2137448Y1215156D01*
X2137448Y1335156D01*
X2197448Y1335157D01*
Y1215157D01*
D02*
G37*
G36*
X3987552Y1214844D02*
X3927552Y1214843D01*
Y1334843D01*
X3987552Y1334844D01*
Y1214844D01*
D02*
G37*
G36*
X3210000Y1177499D02*
X2969855D01*
Y1359882D01*
X3210000D01*
Y1177499D01*
D02*
G37*
D84*
X3930000Y4940000D02*
X4460000Y5470000D01*
X3930000Y4620000D02*
Y4940000D01*
X3420000Y4600000D02*
X3450000Y4570000D01*
X3620000D01*
X5867242Y4252758D02*
X6060000Y4060000D01*
X6269792D02*
X6289948Y4080156D01*
X6060000Y4060000D02*
X6269792D01*
X5455000Y3120000D02*
X6760000D01*
X6780052Y3140052D02*
X6880157D01*
X6760000Y3120000D02*
X6780052Y3140052D01*
X5305000Y3270000D02*
X5455000Y3120000D01*
X2213936Y3648327D02*
X2333327D01*
X2213269Y3648994D02*
X2213936Y3648327D01*
X2213577Y3524568D02*
X2214818Y3523327D01*
X2313327D01*
X2450000Y3660000D01*
X2212962Y3396149D02*
X2213284Y3395827D01*
X2305827D01*
X2333327Y3648327D02*
X2395000Y3710000D01*
X2354999Y7570001D02*
Y7645001D01*
Y7570001D02*
X3050000Y6875000D01*
Y6500000D02*
Y6875000D01*
X4375000Y6075000D02*
X4925000Y5525000D01*
Y5454692D02*
Y5525000D01*
X4872645Y5402337D02*
X4925000Y5454692D01*
X3050000Y6500000D02*
X3475000Y6075000D01*
X4375000D01*
X6650143Y2900144D02*
X6769883D01*
X6610000Y2680000D02*
Y2860000D01*
X6650143Y2900144D01*
X6530000Y2600000D02*
X6610000Y2680000D01*
X5790000Y2600000D02*
X6530000D01*
X5040715Y3270000D02*
X5305000D01*
X2520000Y3610000D02*
X2920000D01*
X2305827Y3395827D02*
X2520000Y3610000D01*
X2920000D02*
X3930000Y4620000D01*
X2395000Y3710000D02*
X2867808D01*
X3735219Y4577411D01*
X2900000Y3660000D02*
X3860000Y4620000D01*
X2450000Y3660000D02*
X2900000D01*
X4870000Y3160000D02*
X5286697D01*
X4360000Y3670000D02*
X4870000Y3160000D01*
X4260784Y3670000D02*
X4360000D01*
X4220725Y3629941D02*
X4260784Y3670000D01*
X3860000Y4620000D02*
Y5002192D01*
X2810859Y3900000D02*
X3038432Y4127573D01*
X2864143Y3850000D02*
X2991716Y3977573D01*
X3620000Y4570000D02*
X3725000Y4675000D01*
Y5325000D01*
X3530000Y4630000D02*
X3590000D01*
X3480000Y4680000D02*
X3530000Y4630000D01*
X3590000D02*
X3675000Y4715000D01*
Y5285000D01*
X3480000Y4680000D02*
X3480000D01*
X3485000Y5475000D02*
X3675000Y5285000D01*
X3860000Y5002192D02*
X4395219Y5537411D01*
X6078388Y4990000D02*
X6950000D01*
X7010001Y4930000D02*
X7299999D01*
X6950000Y4990000D02*
X7010001Y4930000D01*
X7299999D02*
X7300000Y4930000D01*
X6037886Y4949498D02*
X6078388Y4990000D01*
X6029497Y4949498D02*
X6037886D01*
X6010000Y5050000D02*
X6950000D01*
X5893715Y4933715D02*
X6010000Y5050000D01*
X2365815Y4465815D02*
X2755815D01*
X2318327Y4258288D02*
Y4408327D01*
X2308327D02*
X2365815Y4465815D01*
X2230000Y4260000D02*
Y4440000D01*
X2335815Y4545815D01*
X2758287D01*
X3487606Y5562394D02*
X3725000Y5325000D01*
X3099972Y5562394D02*
X3487606D01*
X3049229Y5475000D02*
X3485000D01*
X3043404Y5480825D02*
X3049229Y5475000D01*
X2859143Y5125000D02*
X2981716Y5002427D01*
X2005000Y5125000D02*
X2859143D01*
X1700000Y5475000D02*
X1705001Y5469999D01*
X2815000Y5075000D02*
X3068365Y4821635D01*
X2125000Y5075000D02*
X2815000D01*
X5552758Y4252758D02*
X5867242D01*
X4478929Y3122300D02*
X5267700D01*
X4400639Y3044010D02*
X4478929Y3122300D01*
X4180000Y3580000D02*
Y3590000D01*
X5267700Y3122300D02*
X5790000Y2600000D01*
X5286697Y3160000D02*
X5806697Y2640000D01*
X4550000Y3540000D02*
X4890000Y3200000D01*
X5310000D01*
X5720052Y2789948D01*
X5229926Y3970000D02*
X5240000D01*
X5159926Y3900000D02*
X5229926Y3970000D01*
X4550000Y3760000D02*
X4690000Y3900000D01*
X5159926D01*
X4550000Y3540000D02*
Y3760000D01*
X5720052Y2789948D02*
X5909843D01*
X5806697Y2640000D02*
X6500000D01*
X6560144Y2700144D01*
X6574789Y2960144D02*
X6629883D01*
X6560144Y2700144D02*
Y2945499D01*
X6574789Y2960144D01*
X5960052Y3370052D02*
X6000000Y3410000D01*
X5960052Y3309843D02*
Y3370052D01*
X6000000Y3409948D02*
X6769948D01*
X6840000Y3480000D02*
Y3550000D01*
X6769948Y3409948D02*
X6840000Y3480000D01*
X5891716Y4084142D02*
X6025858Y3950000D01*
X6925000D01*
X7075000Y4100000D01*
X6975000Y3900000D02*
X7100000Y3775000D01*
X5985858Y3900000D02*
X6975000D01*
X5951716Y3934142D02*
X5985858Y3900000D01*
X6950000Y3850000D02*
X7050000Y3750000D01*
X5808284Y3997574D02*
X5955858Y3850000D01*
X6950000D01*
X6920000Y3800000D02*
X7000000Y3720000D01*
X5881317Y3857071D02*
X5938388Y3800000D01*
X6920000D01*
X5209856Y7389856D02*
X5210000Y7390000D01*
X4729856Y7389856D02*
X5209856D01*
X4619856Y7279856D02*
X4729856Y7389856D01*
X4619856Y6929882D02*
Y7279856D01*
X5815000Y5175000D02*
X5824816D01*
X5902224Y5250000D02*
X6425000D01*
X5824816Y5172592D02*
X5902224Y5250000D01*
X6500000Y5325000D02*
Y6100000D01*
X6425000Y5250000D02*
X6500000Y5325000D01*
X6547643Y6147644D02*
X6847383D01*
X6500000Y6100000D02*
X6547643Y6147644D01*
X7075000Y5575000D02*
Y6200000D01*
X7025000Y5600000D02*
Y6225000D01*
X7075000Y6200000D02*
X7204999Y6329999D01*
X7025000Y6225000D02*
X7200000Y6400000D01*
X5958388Y5100000D02*
X6775000D01*
X5900000Y5150000D02*
X6725000D01*
X6775000Y5100000D02*
X6900000Y5225000D01*
X6725000Y5150000D02*
X6850000Y5275000D01*
X6950000Y5050000D02*
X7150000Y5250000D01*
X6900000Y5225000D02*
Y5400000D01*
X6850000Y5275000D02*
Y5425000D01*
X7150000Y5550000D02*
X7230000Y5629999D01*
X7150000Y5250000D02*
Y5550000D01*
X6900000Y5400000D02*
X7075000Y5575000D01*
X6850000Y5425000D02*
X7025000Y5600000D01*
X2890000Y5300000D02*
X3232223D01*
X3350000Y5182223D01*
X2825000Y5365000D02*
X2890000Y5300000D01*
X2102672Y5175000D02*
X3160000D01*
X3260000Y5075000D01*
X3200002Y5227427D02*
X3207574D01*
X3177429Y5250000D02*
X3200002Y5227427D01*
X3075000Y5250000D02*
X3177429D01*
X2250000Y5225000D02*
X3050000D01*
X3075000Y5250000D01*
X3350000Y5175000D02*
Y5182223D01*
X2175000Y5300000D02*
X2250000Y5225000D01*
X5872929Y3857071D02*
X5881317D01*
X7075000Y4100000D02*
X7205000Y4230000D01*
X1950000Y5575000D02*
X2027672Y5497328D01*
X1950000Y5575000D02*
Y6075000D01*
X2027672Y5250000D02*
Y5497328D01*
X1850000Y6175000D02*
X1925000Y6100000D01*
Y6100000D02*
X1950000Y6075000D01*
X2175000Y5300000D02*
Y6575000D01*
X1875000Y6875000D02*
X2175000Y6575000D01*
X5936672Y5078284D02*
X5958388Y5100000D01*
X5928284Y5078284D02*
X5936672D01*
X5772426Y5022426D02*
X5900000Y5150000D01*
X1825000Y4775000D02*
X2125000Y5075000D01*
X1827672Y5302328D02*
X2005000Y5125000D01*
X2027672Y5250000D02*
X2102672Y5175000D01*
X2006631Y3850000D02*
X2864143D01*
X2003316Y3900000D02*
X2810859D01*
X2000000Y3950000D02*
X2745858D01*
X2883432Y4087573D01*
X1900000Y4000000D02*
X2700001D01*
X2933432Y4233431D01*
X7295000Y2130000D02*
X7300000Y2125000D01*
X2933431Y4233431D02*
X2933432D01*
X2825000Y5365000D02*
Y6075000D01*
X2752357Y6147644D02*
X2825000Y6075000D01*
X2612383Y6147644D02*
X2752357D01*
X7200000Y6400000D02*
Y7000000D01*
X7229999Y7029999D01*
X7300000D01*
X7204999Y6329999D02*
X7295001D01*
X1827672Y5302328D02*
Y5432328D01*
X1790001Y5469999D02*
X1827672Y5432328D01*
X1705001Y5469999D02*
X1790001D01*
X7230000Y5629999D02*
X7295000D01*
X7300000Y5625000D01*
X1845000Y1970000D02*
X1962700Y2087700D01*
X1705000Y1970000D02*
X1845000D01*
X1825000Y2675000D02*
X1925000Y2775000D01*
X1700000Y2675000D02*
X1825000D01*
X1820000Y3370000D02*
X1887300Y3437300D01*
X1705000Y3370000D02*
X1820000D01*
X1700000Y4075000D02*
X1825000D01*
X1900000Y4000000D01*
X1887300Y3837300D02*
X2000000Y3950000D01*
X1925000Y3821685D02*
X2003316Y3900000D01*
X1962700Y3806069D02*
X2006631Y3850000D01*
X1887300Y3437300D02*
Y3837300D01*
X1925000Y2775000D02*
Y3821685D01*
X1962700Y2087700D02*
Y3806069D01*
X7050000Y2975000D02*
X7200000Y2825000D01*
X7300000D01*
X7000000Y2250000D02*
X7120000Y2130000D01*
X7295000D01*
X7100000Y3600000D02*
Y3775000D01*
Y3600000D02*
X7175000Y3525000D01*
X7300000D01*
X7050000Y2975000D02*
Y3750000D01*
X7000000Y2250000D02*
Y3720000D01*
X7205000Y4230000D02*
X7295000D01*
X1700000Y6875000D02*
X1875000D01*
X1700000Y6175000D02*
X1850000D01*
X1700000Y4775000D02*
X1825000D01*
X1700000Y1975000D02*
X1705000Y1970000D01*
X1700000Y3375000D02*
X1705000Y3370000D01*
X7295000Y4230000D02*
X7300000Y4225000D01*
X7295001Y6329999D02*
X7300000Y6325000D01*
D86*
X5950000Y1250000D02*
X6230000D01*
X5590000D02*
X5740000D01*
X5340000D02*
X5590000D01*
X5740000D02*
X5950000D01*
D88*
X5370000Y3820000D02*
Y4300000D01*
X5720000Y4650000D02*
X5830073D01*
X5370000Y4300000D02*
X5720000Y4650000D01*
X5741072Y4581072D02*
X5871072D01*
X5430000Y3840000D02*
Y4270000D01*
X5741072Y4581072D01*
X5830073Y4650000D02*
X5959926Y4779853D01*
X5871072Y4581072D02*
X6010000Y4720000D01*
X4700000Y3830000D02*
X5280000D01*
X4610000Y3740000D02*
X4700000Y3830000D01*
X4610000Y3615000D02*
Y3740000D01*
X5280000Y3830000D02*
X5585000Y3525000D01*
X5260000Y3770000D02*
X5554638Y3475362D01*
X4730286Y3770000D02*
X5260000D01*
X5585000Y3525000D02*
X6300000D01*
X5370000Y3820000D02*
X5610000Y3580000D01*
X5948878D01*
X4610000Y3615000D02*
X4650000Y3575000D01*
X4650000D01*
X4690000Y3690215D02*
X4732721Y3647494D01*
X4690000Y3729714D02*
X4730286Y3770000D01*
X4690000Y3690215D02*
Y3729714D01*
X4732721Y3642352D02*
Y3647494D01*
X4730000Y3645074D02*
X4775148Y3599926D01*
X4730000Y3645074D02*
X4730301D01*
X6300000Y3525000D02*
X6330052Y3555052D01*
X5950000Y3750000D02*
X6098326D01*
X5630000Y3640000D02*
X5840000D01*
X5950000Y3750000D01*
X5430000Y3840000D02*
X5630000Y3640000D01*
X5978722Y3609843D02*
X5980052D01*
X5948878Y3580000D02*
X5978722Y3609843D01*
X5980052Y3610000D02*
X5980052Y3610000D01*
Y3669844D01*
X6330052Y3555052D02*
Y3609843D01*
X6120000Y3669896D02*
Y3728326D01*
X6098326Y3750000D02*
X6120000Y3728326D01*
Y3669896D02*
X6120052Y3669844D01*
D89*
X5663071Y4360147D02*
X5702924Y4400000D01*
X6975000D01*
X5660074Y4360147D02*
X5663071D01*
X6975000Y4400000D02*
X7050000Y4325000D01*
Y4250000D02*
Y4325000D01*
D90*
X6159948Y2730052D02*
X6420157D01*
X5970052Y2919948D02*
X6159948Y2730052D01*
X5859843Y2919948D02*
X5970052D01*
X6419948Y2730052D02*
X6480157D01*
D93*
X5554638Y3475362D02*
X6400362D01*
X6470052Y3545052D02*
Y3609843D01*
X6400362Y3475362D02*
X6470052Y3545052D01*
D94*
X6700000Y1999739D02*
Y2175000D01*
X6500000Y2375000D02*
X6700000Y2175000D01*
X7077500Y6620000D02*
Y7227500D01*
X1720000Y7430000D02*
X2382500Y6767500D01*
Y6590000D02*
Y6767500D01*
X1210000Y7430000D02*
X1720000D01*
X1130000Y7350000D02*
X1210000Y7430000D01*
X1130000Y1470000D02*
Y7350000D01*
X2825000Y2375000D02*
X6500000D01*
X2609855Y2159855D02*
X2825000Y2375000D01*
X7870000Y1470000D02*
Y7352206D01*
X7799706Y7422500D02*
X7870000Y7352206D01*
X7272500Y7422500D02*
X7799706D01*
X7077500Y7227500D02*
X7272500Y7422500D01*
D95*
X4735924Y572900D02*
Y725251D01*
X4812100Y649075D01*
X4710533D01*
D96*
X500000Y8500000D02*
D03*
X8500000D02*
D03*
X500000Y500000D02*
D03*
X8500000D02*
D03*
D97*
X323223Y8323223D02*
D03*
X500000Y8750000D02*
D03*
X676777Y8676777D02*
D03*
X750000Y8500000D02*
D03*
X676777Y8323223D02*
D03*
X500000Y8250000D02*
D03*
X323223Y8676777D02*
D03*
X250000Y8500000D02*
D03*
X8250000D02*
D03*
X8323223Y8676777D02*
D03*
X8500000Y8250000D02*
D03*
X8676777Y8323223D02*
D03*
X8750000Y8500000D02*
D03*
X8676777Y8676777D02*
D03*
X8500000Y8750000D02*
D03*
X8323223Y8323223D02*
D03*
X323223Y323223D02*
D03*
X500000Y750000D02*
D03*
X676777Y676777D02*
D03*
X750000Y500000D02*
D03*
X676777Y323223D02*
D03*
X500000Y250000D02*
D03*
X323223Y676777D02*
D03*
X250000Y500000D02*
D03*
X8250000D02*
D03*
X8323223Y676777D02*
D03*
X8500000Y250000D02*
D03*
X8676777Y323223D02*
D03*
X8750000Y500000D02*
D03*
X8676777Y676777D02*
D03*
X8500000Y750000D02*
D03*
X8323223Y323223D02*
D03*
D98*
X5663327Y3058288D02*
D03*
Y2998288D02*
D03*
X6008288Y2486673D02*
D03*
X5948288D02*
D03*
X4227645Y2822350D02*
D03*
X4270071Y2864776D02*
D03*
X3837645Y3212350D02*
D03*
X3880071Y3254776D02*
D03*
X3403230Y3333660D02*
D03*
X3445656Y3376087D02*
D03*
X3387645Y4332350D02*
D03*
X3430072Y4374776D02*
D03*
X4502426Y5512426D02*
D03*
X4460000Y5470000D02*
D03*
X3310163Y5347645D02*
D03*
X3352589Y5305219D02*
D03*
X3420000Y4600000D02*
D03*
X3377574Y4642426D02*
D03*
X6899999Y7712500D02*
D03*
X6774999D02*
D03*
X2213269Y3648994D02*
D03*
X2213577Y3524568D02*
D03*
X2212962Y3396149D02*
D03*
X4029280Y6472739D02*
D03*
X6524999Y7652500D02*
D03*
X6649999D02*
D03*
X4872645Y5402337D02*
D03*
X4830219Y5359911D02*
D03*
X2167448Y1305157D02*
D03*
Y1245157D02*
D03*
X3957552Y1304843D02*
D03*
Y1244843D02*
D03*
X5340827Y1248288D02*
D03*
X5595827Y1250788D02*
D03*
X5953327Y1248288D02*
D03*
X6233327D02*
D03*
X5865000Y1145000D02*
D03*
X6843327Y2178288D02*
D03*
Y2238288D02*
D03*
X6643327Y2538288D02*
D03*
Y2598288D02*
D03*
X5516673Y3249212D02*
D03*
Y3189212D02*
D03*
X5619843Y3409948D02*
D03*
X5679843D02*
D03*
X5444212Y2853327D02*
D03*
X5384212D02*
D03*
X5881712Y6218327D02*
D03*
X5821712D02*
D03*
X5881712Y6473327D02*
D03*
X5821712D02*
D03*
X3171712Y6063327D02*
D03*
X3111712D02*
D03*
X3265786Y3466731D02*
D03*
X3332355Y3400163D02*
D03*
X2671712Y3773327D02*
D03*
X2611712D02*
D03*
X2631712Y3398327D02*
D03*
X2571712D02*
D03*
X2631712Y3523327D02*
D03*
X2571712D02*
D03*
X2150289Y3395842D02*
D03*
X2150000Y3525000D02*
D03*
Y3650000D02*
D03*
X3214608Y3827948D02*
D03*
X3034143Y4020000D02*
D03*
X2991716Y3977573D02*
D03*
X3777645Y4619837D02*
D03*
X3735219Y4577411D02*
D03*
X4437645Y5579837D02*
D03*
X4395219Y5537411D02*
D03*
X4089280Y6472739D02*
D03*
X4232739Y6460720D02*
D03*
Y6400720D02*
D03*
X4963028Y7223125D02*
D03*
X5023028D02*
D03*
Y7283125D02*
D03*
X4963028D02*
D03*
X3973028Y7223125D02*
D03*
X4033028D02*
D03*
Y7283125D02*
D03*
X3973028D02*
D03*
X3972460Y6879529D02*
D03*
X4032460D02*
D03*
Y6939529D02*
D03*
X3972460D02*
D03*
X5173028Y6879628D02*
D03*
X5233028D02*
D03*
Y6939628D02*
D03*
X5173028D02*
D03*
Y7023125D02*
D03*
X5233028D02*
D03*
Y7083125D02*
D03*
X5173028D02*
D03*
X3973028Y7023125D02*
D03*
X4033028D02*
D03*
Y7083125D02*
D03*
X3973028D02*
D03*
X2137383Y7392644D02*
D03*
X2197383D02*
D03*
X6257739Y4530720D02*
D03*
Y4470720D02*
D03*
X4470720Y6257261D02*
D03*
X4530720D02*
D03*
X4924214Y6103269D02*
D03*
X4857645Y6169838D02*
D03*
X4881787Y6060842D02*
D03*
X4815219Y6127411D02*
D03*
X5959926Y4779853D02*
D03*
X5857071Y4897071D02*
D03*
X5899497Y4939498D02*
D03*
X6029926Y4714853D02*
D03*
X6072353Y4757279D02*
D03*
X2818287Y4545815D02*
D03*
X2758287Y4455815D02*
D03*
X2818287D02*
D03*
X2758287Y4545815D02*
D03*
X2228327Y4258288D02*
D03*
Y4198288D02*
D03*
X2318327Y4258288D02*
D03*
Y4198288D02*
D03*
X3057546Y5604820D02*
D03*
X3099972Y5562394D02*
D03*
X3446596Y4714174D02*
D03*
X3489023Y4671748D02*
D03*
X3000977Y5523252D02*
D03*
X3043404Y5480825D02*
D03*
X3098746Y5010290D02*
D03*
X3056716Y5052427D02*
D03*
X2981716Y5002427D02*
D03*
X3023747Y4960291D02*
D03*
X6100163Y4177645D02*
D03*
X6142589Y4135219D02*
D03*
X6166731Y4244214D02*
D03*
X6209158Y4201787D02*
D03*
X6782384Y2490144D02*
D03*
Y2430144D02*
D03*
X6669856Y1969884D02*
D03*
X6729856D02*
D03*
Y1909884D02*
D03*
X6669856D02*
D03*
X4358213Y3001584D02*
D03*
X4400639Y3044010D02*
D03*
X4178213Y3581584D02*
D03*
X4220639Y3624010D02*
D03*
X4989838Y2962355D02*
D03*
X4947411Y3004781D02*
D03*
X4923269Y2895786D02*
D03*
X4880843Y2938213D02*
D03*
X4989856Y3272384D02*
D03*
X5049856Y3272384D02*
D03*
X5280074Y4020148D02*
D03*
X5237648Y3977721D02*
D03*
X5330843Y3418213D02*
D03*
X5373269Y3375786D02*
D03*
X5397411Y3484781D02*
D03*
X5439837Y3442355D02*
D03*
X3308213Y3509158D02*
D03*
X3374781Y3442589D02*
D03*
X2929157Y4831787D02*
D03*
X2886731Y4874214D02*
D03*
X2862589Y4765219D02*
D03*
X2820163Y4807645D02*
D03*
X3419158Y5371787D02*
D03*
X3376731Y5414214D02*
D03*
X3779158Y5731787D02*
D03*
X3736731Y5774214D02*
D03*
X3712589Y5665219D02*
D03*
X3670163Y5707645D02*
D03*
X5371787Y5560843D02*
D03*
X5414214Y5603269D02*
D03*
X5305219Y5627411D02*
D03*
X5347645Y5669838D02*
D03*
X5721787Y5200843D02*
D03*
X5764214Y5243269D02*
D03*
X5655219Y5267411D02*
D03*
X5697645Y5309837D02*
D03*
X5666939Y3754716D02*
D03*
X5709366Y3712290D02*
D03*
X5733508Y3821285D02*
D03*
X5775934Y3778859D02*
D03*
X5507593Y4210332D02*
D03*
X5550019Y4252758D02*
D03*
X5960052Y3309843D02*
D03*
Y3249844D02*
D03*
X6689882Y2960144D02*
D03*
X6629883D02*
D03*
X6769883Y2900144D02*
D03*
X6829883D02*
D03*
X7070157Y2790052D02*
D03*
X7130157D02*
D03*
X6432383Y7397644D02*
D03*
X6492383D02*
D03*
X6139856Y2999883D02*
D03*
X6199855D02*
D03*
Y3059883D02*
D03*
X6139856D02*
D03*
X6199855Y2939883D02*
D03*
X6139856D02*
D03*
X6259855Y3059883D02*
D03*
Y2999883D02*
D03*
X6259855Y2939883D02*
D03*
X6480157Y2730052D02*
D03*
X6420157Y2730052D02*
D03*
X5909843Y2789948D02*
D03*
X5969843D02*
D03*
X5470157Y2670052D02*
D03*
X5530157D02*
D03*
X6880157Y3240052D02*
D03*
X6940157D02*
D03*
X6680157Y3290052D02*
D03*
X6740157D02*
D03*
X6880157Y3140052D02*
D03*
X6940157D02*
D03*
X4700148Y3524926D02*
D03*
X4657721Y3567353D02*
D03*
X4732721Y3642352D02*
D03*
X4775148Y3599926D02*
D03*
X5617648Y4317721D02*
D03*
X5660074Y4360147D02*
D03*
X6002352Y4822279D02*
D03*
X7049948Y4240156D02*
D03*
Y4180156D02*
D03*
X3257034Y3785522D02*
D03*
X5859843Y2919948D02*
D03*
X5799843D02*
D03*
X6839948Y3600157D02*
D03*
Y3540157D02*
D03*
X6759948Y4240157D02*
D03*
Y4180157D02*
D03*
X6289948Y4020157D02*
D03*
Y4080156D02*
D03*
X6470052Y3609843D02*
D03*
Y3669844D02*
D03*
X6330052Y3609843D02*
D03*
Y3669844D02*
D03*
X6120052Y3609843D02*
D03*
Y3669844D02*
D03*
X5980052D02*
D03*
Y3609843D02*
D03*
X2104999Y7647500D02*
D03*
X2229999D02*
D03*
X2479999D02*
D03*
X2604999D02*
D03*
X2354999D02*
D03*
X2604999Y7707500D02*
D03*
X2479999D02*
D03*
X2354999D02*
D03*
X2229999D02*
D03*
X2104999D02*
D03*
X5270117Y7389856D02*
D03*
X5210118D02*
D03*
X4619856Y6869882D02*
D03*
Y6929882D02*
D03*
X6343028Y5733125D02*
D03*
X6403028D02*
D03*
Y5673125D02*
D03*
X6343028D02*
D03*
X6432383Y4822644D02*
D03*
X5824816Y5172592D02*
D03*
X6907383Y6147644D02*
D03*
X6847383D02*
D03*
X6620000Y5940000D02*
D03*
X6680000D02*
D03*
X6620000Y6000000D02*
D03*
Y6060000D02*
D03*
X6680000D02*
D03*
Y6000000D02*
D03*
X6974882Y5360144D02*
D03*
Y5272644D02*
D03*
X7034882D02*
D03*
Y5360144D02*
D03*
X6707528Y6559884D02*
D03*
X7047528D02*
D03*
X7107528D02*
D03*
X6647528D02*
D03*
X7047528Y6619884D02*
D03*
X6647528D02*
D03*
X6707528D02*
D03*
X7107528D02*
D03*
X6432383Y4762644D02*
D03*
X6187500Y5360000D02*
D03*
X6247500D02*
D03*
X2050028Y5739883D02*
D03*
X2110028D02*
D03*
Y5679883D02*
D03*
X2050028D02*
D03*
X3250000Y5185000D02*
D03*
X3207574Y5227427D02*
D03*
X3399834Y5132389D02*
D03*
X3357408Y5174815D02*
D03*
X5928284Y5078284D02*
D03*
X5885857Y5035858D02*
D03*
X5772426Y5022426D02*
D03*
X5730000Y4980000D02*
D03*
X5987071Y4907071D02*
D03*
X6029497Y4949498D02*
D03*
X5782390Y5130166D02*
D03*
X3302426Y5032574D02*
D03*
X3260000Y5075000D02*
D03*
X3080859Y4170000D02*
D03*
X3038432Y4127573D02*
D03*
X2975858Y4275857D02*
D03*
X2933432Y4233431D02*
D03*
X5765858Y4040000D02*
D03*
X5808284Y3997574D02*
D03*
X5830502Y3899497D02*
D03*
X5872929Y3857071D02*
D03*
X1660000Y2980000D02*
D03*
Y4380000D02*
D03*
Y5079999D02*
D03*
Y5779999D02*
D03*
Y6479999D02*
D03*
X7340000Y1820000D02*
D03*
Y2520000D02*
D03*
Y3220000D02*
D03*
Y3920000D02*
D03*
Y4619999D02*
D03*
Y5319999D02*
D03*
Y6019999D02*
D03*
X6649999Y7712500D02*
D03*
X6774999Y7652500D02*
D03*
X6399999D02*
D03*
X6899999D02*
D03*
X6399999Y7712500D02*
D03*
X6524999D02*
D03*
X2609855Y2039883D02*
D03*
X4220000Y1960000D02*
D03*
Y1900000D02*
D03*
Y1800000D02*
D03*
Y1740000D02*
D03*
Y1650000D02*
D03*
Y1590000D02*
D03*
Y1500000D02*
D03*
Y1440000D02*
D03*
X3647528Y1744884D02*
D03*
X3707528D02*
D03*
Y1804884D02*
D03*
X3647528D02*
D03*
X2642528Y1744884D02*
D03*
X2702528D02*
D03*
Y1804884D02*
D03*
X2642528D02*
D03*
X2290000Y2520000D02*
D03*
X2350000D02*
D03*
Y2580000D02*
D03*
X2290000D02*
D03*
X3179855Y1269883D02*
D03*
Y1329883D02*
D03*
Y1209883D02*
D03*
X2999855Y1269883D02*
D03*
X3059855D02*
D03*
Y1329883D02*
D03*
X2999855D02*
D03*
X3059855Y1209883D02*
D03*
X2999855D02*
D03*
X3119855D02*
D03*
Y1329883D02*
D03*
Y1269883D02*
D03*
X2609855Y3024883D02*
D03*
Y3084883D02*
D03*
Y2964883D02*
D03*
X2489856D02*
D03*
X2549855D02*
D03*
X2489856Y3084883D02*
D03*
X2549855D02*
D03*
Y3024883D02*
D03*
X2489856D02*
D03*
X2609855Y2099883D02*
D03*
Y2159883D02*
D03*
X2489856Y2039883D02*
D03*
X2549855D02*
D03*
X2489856Y2159883D02*
D03*
X2549855D02*
D03*
Y2099883D02*
D03*
X2489856D02*
D03*
X3489856D02*
D03*
X3549855D02*
D03*
Y2159883D02*
D03*
X3489856D02*
D03*
X3549855Y2039883D02*
D03*
X3489856D02*
D03*
X3609855D02*
D03*
Y2159883D02*
D03*
Y2099883D02*
D03*
X2352528Y6559884D02*
D03*
X2412528D02*
D03*
Y6619884D02*
D03*
X2352528D02*
D03*
X2752528Y6559884D02*
D03*
X2812528D02*
D03*
Y6619884D02*
D03*
X2752528D02*
D03*
X2739882Y5282644D02*
D03*
Y5370144D02*
D03*
X1892500Y5360000D02*
D03*
X1952500D02*
D03*
X2137383Y4762644D02*
D03*
X2679882Y5370144D02*
D03*
Y5282644D02*
D03*
X2612383Y6147644D02*
D03*
X2552383D02*
D03*
X2385000Y6000000D02*
D03*
Y6060000D02*
D03*
Y5940000D02*
D03*
X2325000Y6000000D02*
D03*
Y6060000D02*
D03*
Y5940000D02*
D03*
X2137383Y4822644D02*
D03*
X7839856Y1469884D02*
D03*
X7899856D02*
D03*
Y1409884D02*
D03*
X7839856D02*
D03*
X1099856D02*
D03*
X1159856D02*
D03*
Y1469884D02*
D03*
X1099856D02*
D03*
X3082426Y4812573D02*
D03*
X3040000Y4854999D02*
D03*
X7360000Y6329999D02*
D03*
X1640000Y1970000D02*
D03*
X1660000Y2280000D02*
D03*
X1280000Y1820000D02*
D03*
X1580000Y2070000D02*
D03*
X1600000Y2280000D02*
D03*
X1340000Y1820000D02*
D03*
X1700000Y1970000D02*
D03*
X1580000Y2130000D02*
D03*
X1640000Y2670000D02*
D03*
X1280000Y2520000D02*
D03*
X1600000Y2980000D02*
D03*
X1340000Y2520000D02*
D03*
X1700000Y2670000D02*
D03*
X1580000Y2830000D02*
D03*
X1640000Y3370000D02*
D03*
X1600000Y3680000D02*
D03*
X1340000Y3220000D02*
D03*
X1700000Y3370000D02*
D03*
X1580000Y3530000D02*
D03*
X1640000Y4069999D02*
D03*
X1600000Y4380000D02*
D03*
X1340000Y3920000D02*
D03*
X1700000Y4069999D02*
D03*
X1580000Y4229999D02*
D03*
X1640000Y4769999D02*
D03*
X1600000Y5079999D02*
D03*
X1340000Y4619999D02*
D03*
X1700000Y4769999D02*
D03*
X1580000Y4929999D02*
D03*
X1640000Y5469999D02*
D03*
X1600000Y5779999D02*
D03*
X1340000Y5319999D02*
D03*
X1700000Y5469999D02*
D03*
X1580000Y5629999D02*
D03*
X1640000Y6169999D02*
D03*
X1280000Y6019999D02*
D03*
X1580000Y6269999D02*
D03*
X1600000Y6479999D02*
D03*
X1340000Y6019999D02*
D03*
X1700000Y6169999D02*
D03*
X1580000Y6329999D02*
D03*
X7360000Y7029999D02*
D03*
X7340000Y6719999D02*
D03*
X7420000Y6929999D02*
D03*
X7400000Y6719999D02*
D03*
X7660000Y7179999D02*
D03*
X7300000Y7029999D02*
D03*
X7420000Y6869999D02*
D03*
Y6229999D02*
D03*
X7400000Y6019999D02*
D03*
X7660000Y6479999D02*
D03*
X7300000Y6329999D02*
D03*
X7420000Y6169999D02*
D03*
X7360000Y5629999D02*
D03*
X7400000Y5319999D02*
D03*
X7660000Y5779999D02*
D03*
X7300000Y5629999D02*
D03*
X7420000Y5469999D02*
D03*
X7360000Y4930000D02*
D03*
X7420000Y4829999D02*
D03*
X7400000Y4619999D02*
D03*
X7660000Y5079999D02*
D03*
X7300000Y4930000D02*
D03*
X7420000Y4770000D02*
D03*
X7360000Y4230000D02*
D03*
X7420000Y4130000D02*
D03*
X7400000Y3920000D02*
D03*
X7660000Y4380000D02*
D03*
X7300000Y4230000D02*
D03*
X7420000Y4070000D02*
D03*
X7360000Y3530000D02*
D03*
X7420000Y3430000D02*
D03*
X7400000Y3220000D02*
D03*
X7660000Y3680000D02*
D03*
X7300000Y3530000D02*
D03*
X7420000Y3370000D02*
D03*
X7360000Y2830000D02*
D03*
X7420000Y2730000D02*
D03*
X7400000Y2520000D02*
D03*
X7660000Y2980000D02*
D03*
X7300000Y2830000D02*
D03*
X7420000Y2670000D02*
D03*
X7360000Y2130000D02*
D03*
X7400000Y1820000D02*
D03*
X7660000Y2280000D02*
D03*
X7300000Y2130000D02*
D03*
X7420000Y1970000D02*
D03*
X1580000Y2770000D02*
D03*
X1660000Y3680000D02*
D03*
X1580000Y3470000D02*
D03*
X1280000Y3220000D02*
D03*
X1580000Y4170000D02*
D03*
Y4869999D02*
D03*
X1280000Y4619999D02*
D03*
X1580000Y5569999D02*
D03*
X1280000Y5319999D02*
D03*
X7720000Y6479999D02*
D03*
X7420000Y5529999D02*
D03*
X7720000Y5079999D02*
D03*
Y3680000D02*
D03*
X7420000Y2030000D02*
D03*
X1580000Y7030000D02*
D03*
Y6970000D02*
D03*
X1640000Y6870000D02*
D03*
X7720000Y7179999D02*
D03*
X5891716Y4084142D02*
D03*
X5849289Y4126569D02*
D03*
X5909289Y3976568D02*
D03*
X5951716Y3934142D02*
D03*
X2925858Y4130000D02*
D03*
X2883432Y4087573D02*
D03*
X1280000Y3920000D02*
D03*
X1660000Y7180000D02*
D03*
X1600000D02*
D03*
X1340000Y6720000D02*
D03*
X7720000Y5779999D02*
D03*
Y4380000D02*
D03*
Y2980000D02*
D03*
Y2280000D02*
D03*
X1699999Y6870000D02*
D03*
X1280000Y6720000D02*
D03*
%TF.MD5,39f220bf42db44fe6ee02a6af23dd154*%
M02*
