%TF.GenerationSoftware,Altium Limited,Altium Designer,24.0.1 (36)*%
G04 Layer_Color=16711935*
%FSLAX45Y45*%
%MOMM*%
%TF.SameCoordinates,E594D193-3514-40B7-BCFE-BF8AFB9400D8*%
%TF.FilePolarity,Negative*%
%TF.FileFunction,Soldermask,Bot*%
%TF.Part,Single*%
G01*
G75*
%TA.AperFunction,ComponentPad*%
%ADD137C,7.15000*%
%ADD138C,1.67400*%
D137*
X500000Y8500000D02*
D03*
X8500000D02*
D03*
X500000Y500000D02*
D03*
X8500000D02*
D03*
D138*
X323223Y8323223D02*
D03*
X500000Y8750000D02*
D03*
X676777Y8676777D02*
D03*
X750000Y8500000D02*
D03*
X676777Y8323223D02*
D03*
X500000Y8250000D02*
D03*
X323223Y8676777D02*
D03*
X250000Y8500000D02*
D03*
X8250000D02*
D03*
X8323223Y8676777D02*
D03*
X8500000Y8250000D02*
D03*
X8676777Y8323223D02*
D03*
X8750000Y8500000D02*
D03*
X8676777Y8676777D02*
D03*
X8500000Y8750000D02*
D03*
X8323223Y8323223D02*
D03*
X323223Y323223D02*
D03*
X500000Y750000D02*
D03*
X676777Y676777D02*
D03*
X750000Y500000D02*
D03*
X676777Y323223D02*
D03*
X500000Y250000D02*
D03*
X323223Y676777D02*
D03*
X250000Y500000D02*
D03*
X8250000D02*
D03*
X8323223Y676777D02*
D03*
X8500000Y250000D02*
D03*
X8676777Y323223D02*
D03*
X8750000Y500000D02*
D03*
X8676777Y676777D02*
D03*
X8500000Y750000D02*
D03*
X8323223Y323223D02*
D03*
%TF.MD5,0746c2b4efe581ceeee88a5d6c23172b*%
M02*
