<svg width="90.00000034mm" height="90.00000034mm" viewBox="0 0 35433071 35433071"  version="1.1" xmlns="http://www.w3.org/2000/svg" xmlns:xlink="http://www.w3.org/1999/xlink">
<desc>
Origin 0 0 Bound 0 0 35433071 35433071
</desc>
<g fill-rule="evenodd" fill="rgb(0, 0, 255)" stroke="black" stroke-width="1" transform="translate(0, 35433071) scale(1, -1) translate(0, 0)">
<path id="N" d="M 33464553.56 33464526.54 m -1579715.41 0 a 1579715.41 1579715.41 0 1 1 3159430.82 0a 1579715.41 1579715.41 0 1 1 -3159430.82 0M 33464571.06 33464545.42 m -989035.58 0 a 989035.58 989035.58 0 1 1 1978071.15 0a 989035.58 989035.58 0 1 1 -1978071.15 0"/>
<path id="N" d="M 1968490.56 33464526.54 m -1579715.41 0 a 1579715.41 1579715.41 0 1 1 3159430.82 0a 1579715.41 1579715.41 0 1 1 -3159430.82 0M 1968508.06 33464545.42 m -989035.58 0 a 989035.58 989035.58 0 1 1 1978071.15 0a 989035.58 989035.58 0 1 1 -1978071.15 0"/>
<path id="N" d="M 33464553.56 1968463.54 m -1579715.41 0 a 1579715.41 1579715.41 0 1 1 3159430.82 0a 1579715.41 1579715.41 0 1 1 -3159430.82 0M 33464571.06 1968482.42 m -989035.58 0 a 989035.58 989035.58 0 1 1 1978071.15 0a 989035.58 989035.58 0 1 1 -1978071.15 0"/>
<path id="N" d="M 1968490.56 1968463.54 m -1579715.41 0 a 1579715.41 1579715.41 0 1 1 3159430.82 0a 1579715.41 1579715.41 0 1 1 -3159430.82 0M 1968508.06 1968482.42 m -989035.58 0 a 989035.58 989035.58 0 1 1 1978071.15 0a 989035.58 989035.58 0 1 1 -1978071.15 0"/>
<path id="N" d="M 23463614.47 40227164.47 m -100354.75 0 a 100354.75 100354.75 0 1 1 200709.51 0a 100354.75 100354.75 0 1 1 -200709.51 0"/>
<path id="N" d="M 22597473.47 40227164.47 m -100354.75 0 a 100354.75 100354.75 0 1 1 200709.51 0a 100354.75 100354.75 0 1 1 -200709.51 0"/>
<path id="N" d="M 23030544.47 40227163.47 m -100354.75 0 a 100354.75 100354.75 0 1 1 200709.51 0a 100354.75 100354.75 0 1 1 -200709.51 0"/>
<path id="N" d="M 18391818.47 40121618.47 m -100354.75 0 a 100354.75 100354.75 0 1 1 200709.51 0a 100354.75 100354.75 0 1 1 -200709.51 0"/>
<path id="N" d="M 17525677.47 40121618.47 m -100354.75 0 a 100354.75 100354.75 0 1 1 200709.51 0a 100354.75 100354.75 0 1 1 -200709.51 0"/>
<path id="N" d="M 17958748.47 40121617.47 m -100354.75 0 a 100354.75 100354.75 0 1 1 200709.51 0a 100354.75 100354.75 0 1 1 -200709.51 0"/>
<path id="N" d="M 23463615.47 39794093.47 m -100354.75 0 a 100354.75 100354.75 0 1 1 200709.51 0a 100354.75 100354.75 0 1 1 -200709.51 0"/>
<path id="N" d="M 23030544.47 39794093.47 m -100354.75 0 a 100354.75 100354.75 0 1 1 200709.51 0a 100354.75 100354.75 0 1 1 -200709.51 0"/>
<path id="N" d="M 22597473.47 39794092.47 m -100354.75 0 a 100354.75 100354.75 0 1 1 200709.51 0a 100354.75 100354.75 0 1 1 -200709.51 0"/>
<path id="N" d="M 18391819.47 39688547.47 m -100354.75 0 a 100354.75 100354.75 0 1 1 200709.51 0a 100354.75 100354.75 0 1 1 -200709.51 0"/>
<path id="N" d="M 17958748.47 39688547.47 m -100354.75 0 a 100354.75 100354.75 0 1 1 200709.51 0a 100354.75 100354.75 0 1 1 -200709.51 0"/>
<path id="N" d="M 17525677.47 39688546.47 m -100354.75 0 a 100354.75 100354.75 0 1 1 200709.51 0a 100354.75 100354.75 0 1 1 -200709.51 0"/>
<path id="N" d="M 23463614.47 39361023.47 m -100354.75 0 a 100354.75 100354.75 0 1 1 200709.51 0a 100354.75 100354.75 0 1 1 -200709.51 0"/>
<path id="N" d="M 23030544.47 39361023.47 m -100354.75 0 a 100354.75 100354.75 0 1 1 200709.51 0a 100354.75 100354.75 0 1 1 -200709.51 0"/>
<path id="N" d="M 22597473.47 39361023.47 m -100354.75 0 a 100354.75 100354.75 0 1 1 200709.51 0a 100354.75 100354.75 0 1 1 -200709.51 0"/>
<path id="N" d="M 18391818.47 39255477.47 m -100354.75 0 a 100354.75 100354.75 0 1 1 200709.51 0a 100354.75 100354.75 0 1 1 -200709.51 0"/>
<path id="N" d="M 17958748.47 39255477.47 m -100354.75 0 a 100354.75 100354.75 0 1 1 200709.51 0a 100354.75 100354.75 0 1 1 -200709.51 0"/>
<path id="N" d="M 17525677.47 39255477.47 m -100354.75 0 a 100354.75 100354.75 0 1 1 200709.51 0a 100354.75 100354.75 0 1 1 -200709.51 0"/>
</g>
</svg>
