<svg width="90.00000034mm" height="90.00000034mm" viewBox="0 0 35433071 35433071"  version="1.1" xmlns="http://www.w3.org/2000/svg" xmlns:xlink="http://www.w3.org/1999/xlink">
<desc>
Origin 0 0 Bound 0 0 35433071 35433071
</desc>
<g fill-rule="evenodd" fill="rgb(255, 0, 255)" stroke="black" stroke-width="1" transform="translate(0, 35433071) scale(1, -1) translate(0, 0)">
<path id="N" d="M 35433071.00 31496063.00 L 33464567.00 29527559.00 L 33464567.00 5905512.00 L 35433071.00 3937008.00 L 35433071.00 0.00 L 31496063.00 0.00 L 29527559.00 1968504.00 L 5905512.00 1968504.00 L 3937008.00 0.00 L 0.00 0.00 L 0.00 3937008.00 L 1968504.00 5905512.00 L 1968504.00 29527559.00 L 0.00 31496063.00 L 0.00 35433071.00 L 3937008.00 35433071.00 L 5905512.00 33464567.00 L 29527559.00 33464567.00 L 31496063.00 35433071.00 L 35433071.00 35433071.00 L 35433071.00 31496063.00  zM 1968504.28 1968492.62 m -1609303.38 0 a 1609303.38 1609303.38 0 1 1 3218606.77 0a 1609303.38 1609303.38 0 1 1 -3218606.77 0M 1968504.28 33464555.62 m -1609303.38 0 a 1609303.38 1609303.38 0 1 1 3218606.77 0a 1609303.38 1609303.38 0 1 1 -3218606.77 0M 33464567.28 1968492.62 m -1609303.38 0 a 1609303.38 1609303.38 0 1 1 3218606.77 0a 1609303.38 1609303.38 0 1 1 -3218606.77 0M 33464567.28 33464555.62 m -1609303.38 0 a 1609303.38 1609303.38 0 1 1 3218606.77 0a 1609303.38 1609303.38 0 1 1 -3218606.77 0"/>
</g>
</svg>
