<svg width="90.00000034mm" height="90.00000034mm" viewBox="0 0 35433071 35433071"  version="1.1" xmlns="http://www.w3.org/2000/svg" xmlns:xlink="http://www.w3.org/1999/xlink">
<desc>
Origin 0 0 Bound 0 0 35433071 35433071
</desc>
<g fill-rule="evenodd" fill="rgb(128, 0, 128)" stroke="black" stroke-width="1" transform="translate(0, 35433071) scale(1, -1) translate(0, 0)">
<path id="N" d="M 35433071.00 31496063.00 L 33464567.00 29527559.00 L 33464567.00 5905512.00 L 35433071.00 3937008.00 L 35433071.00 0.00 L 31496063.00 0.00 L 29527559.00 1968504.00 L 5905512.00 1968504.00 L 3937008.00 0.00 L 0.00 0.00 L 0.00 3937008.00 L 1968504.00 5905512.00 L 1968504.00 29527559.00 L 0.00 31496063.00 L 0.00 35433071.00 L 3937008.00 35433071.00 L 5905512.00 33464567.00 L 29527559.00 33464567.00 L 31496063.00 35433071.00 L 35433071.00 35433071.00 L 35433071.00 31496063.00  zM 1968504.28 1968492.62 m -1609303.38 0 a 1609303.38 1609303.38 0 1 1 3218606.77 0a 1609303.38 1609303.38 0 1 1 -3218606.77 0M 3120079.00 8769684.00 L 2057087.00 8769684.00 L 2057087.00 8375984.00 L 3120079.00 8375984.00 L 3120079.00 8769684.00  zM 4783465.00 9041337.00 L 4566929.00 9041337.00 L 4566929.00 8765747.00 L 4783465.00 8765747.00 L 4783465.00 9041337.00  zM 5039370.00 9041337.00 L 4822834.00 9041337.00 L 4822834.00 8765747.00 L 5039370.00 8765747.00 L 5039370.00 9041337.00  zM 5295276.00 9041337.00 L 5078740.00 9041337.00 L 5078740.00 8765747.00 L 5295276.00 8765747.00 L 5295276.00 9041337.00  zM 9714567.00 5065748.00 L 9183071.00 5065748.00 L 9183071.00 4534252.00 L 9714567.00 4534252.00 L 9714567.00 5065748.00  zM 6530014.00 8715052.00 L 6306324.00 8715052.00 L 6306324.00 8489670.00 L 6530014.00 8489670.00 L 6530014.00 8715052.00  zM 6173992.00 8715052.00 L 5950302.00 8715052.00 L 5950302.00 8489670.00 L 6173992.00 8489670.00 L 6173992.00 8715052.00  zM 5551181.00 9041337.00 L 5334645.00 9041337.00 L 5334645.00 8765747.00 L 5551181.00 8765747.00 L 5551181.00 9041337.00  zM 6625748.00 9262861.00 L 6405748.00 9262861.00 L 6405748.00 8972861.00 L 6625748.00 8972861.00 L 6625748.00 9262861.00  zM 9907874.00 3132284.00 L 9514174.00 3132284.00 L 9514174.00 2029922.00 L 9907874.00 2029922.00 L 9907874.00 3132284.00  zM 10557480.00 4234645.00 L 10321260.00 4234645.00 L 10321260.00 3565355.00 L 10557480.00 3565355.00 L 10557480.00 4234645.00  zM 10816929.00 5065748.00 L 10285433.00 5065748.00 L 10285433.00 4534252.00 L 10816929.00 4534252.00 L 10816929.00 5065748.00  zM 10062205.00 5637795.00 L 9806299.00 5637795.00 L 9806299.00 5362205.00 L 10062205.00 5362205.00 L 10062205.00 5637795.00  zM 10593701.00 5637795.00 L 10337795.00 5637795.00 L 10337795.00 5362205.00 L 10593701.00 5362205.00 L 10593701.00 5637795.00  zM 10529134.00 6383464.00 L 10135432.00 6383464.00 L 10135432.00 6225984.00 L 10529134.00 6225984.00 L 10529134.00 5832283.00 L 10686614.00 5832283.00 L 10686614.00 6225985.00 L 10529134.00 6225985.00 L 10529134.00 6383464.00  zM 10529134.00 6580315.00 L 10135432.00 6580315.00 L 10135432.00 6422835.00 L 10529134.00 6422835.00 L 10529134.00 6580315.00  zM 10529134.00 6777165.00 L 10135432.00 6777165.00 L 10135432.00 6619685.00 L 10529134.00 6619685.00 L 10529134.00 6777165.00  zM 10686614.00 7367717.00 L 10529134.00 7367717.00 L 10529134.00 6974016.00 L 10135432.00 6974016.00 L 10135432.00 6816536.00 L 10529134.00 6816536.00 L 10529134.00 6974015.00 L 10686614.00 6974015.00 L 10686614.00 7367717.00  zM 11049606.00 4234645.00 L 10813386.00 4234645.00 L 10813386.00 3565355.00 L 11049606.00 3565355.00 L 11049606.00 4234645.00  zM 11541732.00 4234645.00 L 11305512.00 4234645.00 L 11305512.00 3565355.00 L 11541732.00 3565355.00 L 11541732.00 4234645.00  zM 11757481.00 5160631.00 L 11442519.00 5160631.00 L 11442519.00 4845669.00 L 11757481.00 4845669.00 L 11757481.00 5160631.00  zM 11237795.00 5160629.00 L 10962205.00 5160629.00 L 10962205.00 4885039.00 L 11237795.00 4885039.00 L 11237795.00 5160629.00  zM 11237795.00 5514961.00 L 10962205.00 5514961.00 L 10962205.00 5239371.00 L 11237795.00 5239371.00 L 11237795.00 5514961.00  zM 11757481.00 5554332.00 L 11442519.00 5554332.00 L 11442519.00 5239370.00 L 11757481.00 5239370.00 L 11757481.00 5554332.00  zM 11080315.00 6225985.00 L 10922835.00 6225985.00 L 10922835.00 5832283.00 L 11080315.00 5832283.00 L 11080315.00 6225985.00  zM 11474016.00 6225985.00 L 11316536.00 6225985.00 L 11316536.00 5832283.00 L 11474016.00 5832283.00 L 11474016.00 6225985.00  zM 11277165.00 6225985.00 L 11119685.00 6225985.00 L 11119685.00 5832283.00 L 11277165.00 5832283.00 L 11277165.00 6225985.00  zM 10883464.00 6225985.00 L 10725984.00 6225985.00 L 10725984.00 5832283.00 L 10883464.00 5832283.00 L 10883464.00 6225985.00  zM 11661024.00 6964173.00 L 10538976.00 6964173.00 L 10538976.00 6235827.00 L 11661024.00 6235827.00 L 11661024.00 6964173.00  zM 12064568.00 6383464.00 L 11670866.00 6383464.00 L 11670866.00 6225985.00 L 11513386.00 6225985.00 L 11513386.00 5832283.00 L 11670866.00 5832283.00 L 11670866.00 6225984.00 L 12064568.00 6225984.00 L 12064568.00 6383464.00  zM 10883464.00 7367717.00 L 10725984.00 7367717.00 L 10725984.00 6974015.00 L 10883464.00 6974015.00 L 10883464.00 7367717.00  zM 11670866.00 7367717.00 L 11513386.00 7367717.00 L 11513386.00 6974015.00 L 11670866.00 6974015.00 L 11670866.00 6816536.00 L 12064568.00 6816536.00 L 12064568.00 6974016.00 L 11670866.00 6974016.00 L 11670866.00 7367717.00  zM 11277165.00 7367717.00 L 11119685.00 7367717.00 L 11119685.00 6974015.00 L 11277165.00 6974015.00 L 11277165.00 7367717.00  zM 11080315.00 7367717.00 L 10922835.00 7367717.00 L 10922835.00 6974015.00 L 11080315.00 6974015.00 L 11080315.00 7367717.00  zM 11474016.00 7367717.00 L 11316536.00 7367717.00 L 11316536.00 6974015.00 L 11474016.00 6974015.00 L 11474016.00 7367717.00  zM 11561417.00 7818110.00 L 11325197.00 7818110.00 L 11325197.00 7581890.00 L 11561417.00 7581890.00 L 11561417.00 7818110.00  zM 3120079.00 10718502.00 L 2057087.00 10718502.00 L 2057087.00 10324802.00 L 3120079.00 10324802.00 L 3120079.00 10718502.00  zM 4183070.00 9419290.00 L 3513780.00 9419290.00 L 3513780.00 9183070.00 L 4183070.00 9183070.00 L 4183070.00 9419290.00  zM 3120079.00 11427163.00 L 2057087.00 11427163.00 L 2057087.00 11033463.00 L 3120079.00 11033463.00 L 3120079.00 11427163.00  zM 4183070.00 9911416.00 L 3513780.00 9911416.00 L 3513780.00 9675196.00 L 4183070.00 9675196.00 L 4183070.00 9911416.00  zM 5039370.00 11698816.00 L 4822834.00 11698816.00 L 4822834.00 11423226.00 L 5039370.00 11423226.00 L 5039370.00 11698816.00  zM 3120079.00 13375981.00 L 2057087.00 13375981.00 L 2057087.00 12982281.00 L 3120079.00 12982281.00 L 3120079.00 13375981.00  zM 4183070.00 12076769.00 L 3513780.00 12076769.00 L 3513780.00 11840549.00 L 4183070.00 11840549.00 L 4183070.00 12076769.00  zM 4183070.00 12568895.00 L 3513780.00 12568895.00 L 3513780.00 12332675.00 L 4183070.00 12332675.00 L 4183070.00 12568895.00  zM 4783465.00 11698816.00 L 4566929.00 11698816.00 L 4566929.00 11423226.00 L 4783465.00 11423226.00 L 4783465.00 11698816.00  zM 5551181.00 10143700.00 L 5334645.00 10143700.00 L 5334645.00 9982282.00 L 5295276.00 9982282.00 L 5295276.00 10143700.00 L 5078740.00 10143700.00 L 5078740.00 9982282.00 L 5039370.00 9982282.00 L 5039370.00 10143700.00 L 4822834.00 10143700.00 L 4822834.00 9982282.00 L 4783465.00 9982282.00 L 4783465.00 10143700.00 L 4566929.00 10143700.00 L 4566929.00 9982282.00 L 4488189.00 9982282.00 L 4488189.00 9246062.00 L 5629921.00 9246062.00 L 5629921.00 9982282.00 L 5551181.00 9982282.00 L 5551181.00 10143700.00  zM 6250748.00 10042884.00 L 6030748.00 10042884.00 L 6030748.00 9752884.00 L 6250748.00 9752884.00 L 6250748.00 10042884.00  zM 6173992.00 11372531.00 L 5950302.00 11372531.00 L 5950302.00 11147149.00 L 6173992.00 11147149.00 L 6173992.00 11372531.00  zM 5295276.00 11698816.00 L 5078740.00 11698816.00 L 5078740.00 11423226.00 L 5295276.00 11423226.00 L 5295276.00 11698816.00  zM 6530014.00 11372531.00 L 6306324.00 11372531.00 L 6306324.00 11147149.00 L 6530014.00 11147149.00 L 6530014.00 11372531.00  zM 5551181.00 11698816.00 L 5334645.00 11698816.00 L 5334645.00 11423226.00 L 5551181.00 11423226.00 L 5551181.00 11698816.00  zM 5551181.00 12801179.00 L 5334645.00 12801179.00 L 5334645.00 12639761.00 L 5295276.00 12639761.00 L 5295276.00 12801179.00 L 5078740.00 12801179.00 L 5078740.00 12639761.00 L 5039370.00 12639761.00 L 5039370.00 12801179.00 L 4822834.00 12801179.00 L 4822834.00 12639761.00 L 4783465.00 12639761.00 L 4783465.00 12801179.00 L 4566929.00 12801179.00 L 4566929.00 12639761.00 L 4488189.00 12639761.00 L 4488189.00 11903541.00 L 5629921.00 11903541.00 L 5629921.00 12639761.00 L 5551181.00 12639761.00 L 5551181.00 12801179.00  zM 6625748.00 11920340.00 L 6405748.00 11920340.00 L 6405748.00 11630340.00 L 6625748.00 11630340.00 L 6625748.00 11920340.00  zM 6250748.00 12700363.00 L 6030748.00 12700363.00 L 6030748.00 12410363.00 L 6250748.00 12410363.00 L 6250748.00 12700363.00  zM 7000748.00 10042884.00 L 6780748.00 10042884.00 L 6780748.00 9752884.00 L 7000748.00 9752884.00 L 7000748.00 10042884.00  zM 8267323.00 11729725.00 L 7932677.00 11729725.00 L 7932677.00 11070275.00 L 8267323.00 11070275.00 L 8267323.00 11729725.00  zM 8767323.00 11729725.00 L 8432677.00 11729725.00 L 8432677.00 11070275.00 L 8767323.00 11070275.00 L 8767323.00 11729725.00  zM 8833834.00 10693006.00 L 8649514.00 10693006.00 L 8649514.00 10506994.00 L 8833834.00 10506994.00 L 8833834.00 10693006.00  zM 9150485.00 10693006.00 L 8966165.00 10693006.00 L 8966165.00 10506994.00 L 9150485.00 10506994.00 L 9150485.00 10693006.00  zM 7000748.00 12700363.00 L 6780748.00 12700363.00 L 6780748.00 12410363.00 L 7000748.00 12410363.00 L 7000748.00 12700363.00  zM 9509448.00 12969687.00 L 8190550.00 12969687.00 L 8190550.00 11965749.00 L 9509448.00 11965749.00 L 9509448.00 12969687.00  zM 9267323.00 11729725.00 L 8932677.00 11729725.00 L 8932677.00 11070275.00 L 9267323.00 11070275.00 L 9267323.00 11729725.00  zM 9767323.00 11729725.00 L 9432677.00 11729725.00 L 9432677.00 11070275.00 L 9767323.00 11070275.00 L 9767323.00 11729725.00  zM 9762207.00 10737795.00 L 9506301.00 10737795.00 L 9506301.00 10462205.00 L 9762207.00 10462205.00 L 9762207.00 10737795.00  zM 10293703.00 10737796.00 L 10037797.00 10737796.00 L 10037797.00 10462206.00 L 10293703.00 10462206.00 L 10293703.00 10737796.00  zM 10333835.00 11193006.00 L 10149515.00 11193006.00 L 10149515.00 11006994.00 L 10333835.00 11006994.00 L 10333835.00 11193006.00  zM 10650485.00 11193006.00 L 10466165.00 11193006.00 L 10466165.00 11006994.00 L 10650485.00 11006994.00 L 10650485.00 11193006.00  zM 11162205.00 11237795.00 L 10906299.00 11237795.00 L 10906299.00 10962205.00 L 11162205.00 10962205.00 L 11162205.00 11237795.00  zM 11229725.00 11967323.00 L 10570275.00 11967323.00 L 10570275.00 11632677.00 L 11229725.00 11632677.00 L 11229725.00 11967323.00  zM 11693701.00 11237795.00 L 11437795.00 11237795.00 L 11437795.00 10962205.00 L 11693701.00 10962205.00 L 11693701.00 11237795.00  zM 11229725.00 12467323.00 L 10570275.00 12467323.00 L 10570275.00 12132677.00 L 11229725.00 12132677.00 L 11229725.00 12467323.00  zM 11229725.00 12967323.00 L 10570275.00 12967323.00 L 10570275.00 12632677.00 L 11229725.00 12632677.00 L 11229725.00 12967323.00  zM 12033858.00 4234645.00 L 11797638.00 4234645.00 L 11797638.00 3565355.00 L 12033858.00 3565355.00 L 12033858.00 4234645.00  zM 12525984.00 4234645.00 L 12289764.00 4234645.00 L 12289764.00 3565355.00 L 12525984.00 3565355.00 L 12525984.00 4234645.00  zM 13014567.00 5065748.00 L 12483071.00 5065748.00 L 12483071.00 4534252.00 L 13014567.00 4534252.00 L 13014567.00 5065748.00  zM 12257481.00 5160630.00 L 11942519.00 5160630.00 L 11942519.00 4845668.00 L 12257481.00 4845668.00 L 12257481.00 5160630.00  zM 12257481.00 5554331.00 L 11942519.00 5554331.00 L 11942519.00 5239369.00 L 12257481.00 5239369.00 L 12257481.00 5554331.00  zM 13018110.00 4234645.00 L 12781890.00 4234645.00 L 12781890.00 3565355.00 L 13018110.00 3565355.00 L 13018110.00 4234645.00  zM 14002362.00 4234645.00 L 13766142.00 4234645.00 L 13766142.00 3565355.00 L 14002362.00 3565355.00 L 14002362.00 4234645.00  zM 13510236.00 4234645.00 L 13274016.00 4234645.00 L 13274016.00 3565355.00 L 13510236.00 3565355.00 L 13510236.00 4234645.00  zM 14116929.00 5065748.00 L 13585433.00 5065748.00 L 13585433.00 4534252.00 L 14116929.00 4534252.00 L 14116929.00 5065748.00  zM 12064568.00 6580315.00 L 11670866.00 6580315.00 L 11670866.00 6422835.00 L 12064568.00 6422835.00 L 12064568.00 6580315.00  zM 12632377.00 6529226.00 L 12367623.00 6529226.00 L 12367623.00 6266166.00 L 12632377.00 6266166.00 L 12632377.00 6529226.00  zM 12632377.00 6133834.00 L 12367623.00 6133834.00 L 12367623.00 5870774.00 L 12632377.00 5870774.00 L 12632377.00 6133834.00  zM 13362205.00 5637795.00 L 13106299.00 5637795.00 L 13106299.00 5362205.00 L 13362205.00 5362205.00 L 13362205.00 5637795.00  zM 13729134.00 6580315.00 L 13335432.00 6580315.00 L 13335432.00 6422835.00 L 13729134.00 6422835.00 L 13729134.00 6580315.00  zM 13893701.00 5637795.00 L 13637795.00 5637795.00 L 13637795.00 5362205.00 L 13893701.00 5362205.00 L 13893701.00 5637795.00  zM 14083464.00 6225985.00 L 13925984.00 6225985.00 L 13925984.00 5832283.00 L 14083464.00 5832283.00 L 14083464.00 6225985.00  zM 13729134.00 6383464.00 L 13335432.00 6383464.00 L 13335432.00 6225984.00 L 13729134.00 6225984.00 L 13729134.00 5832283.00 L 13886614.00 5832283.00 L 13886614.00 6225985.00 L 13729134.00 6225985.00 L 13729134.00 6383464.00  zM 14280315.00 6225985.00 L 14122835.00 6225985.00 L 14122835.00 5832283.00 L 14280315.00 5832283.00 L 14280315.00 6225985.00  zM 15793700.00 3132284.00 L 15400000.00 3132284.00 L 15400000.00 2029922.00 L 15793700.00 2029922.00 L 15793700.00 3132284.00  zM 14986614.00 4234645.00 L 14750394.00 4234645.00 L 14750394.00 3565355.00 L 14986614.00 3565355.00 L 14986614.00 4234645.00  zM 14494488.00 4234645.00 L 14258268.00 4234645.00 L 14258268.00 3565355.00 L 14494488.00 3565355.00 L 14494488.00 4234645.00  zM 15132377.00 5133834.00 L 14867623.00 5133834.00 L 14867623.00 4870774.00 L 15132377.00 4870774.00 L 15132377.00 5133834.00  zM 15657481.00 5160630.00 L 15342519.00 5160630.00 L 15342519.00 4845668.00 L 15657481.00 4845668.00 L 15657481.00 5160630.00  zM 14637795.00 5160629.00 L 14362205.00 5160629.00 L 14362205.00 4885039.00 L 14637795.00 4885039.00 L 14637795.00 5160629.00  zM 14637795.00 5514961.00 L 14362205.00 5514961.00 L 14362205.00 5239371.00 L 14637795.00 5239371.00 L 14637795.00 5514961.00  zM 15132377.00 5529226.00 L 14867623.00 5529226.00 L 14867623.00 5266166.00 L 15132377.00 5266166.00 L 15132377.00 5529226.00  zM 15657481.00 5554331.00 L 15342519.00 5554331.00 L 15342519.00 5239369.00 L 15657481.00 5239369.00 L 15657481.00 5554331.00  zM 14477165.00 6225985.00 L 14319685.00 6225985.00 L 14319685.00 5832283.00 L 14477165.00 5832283.00 L 14477165.00 6225985.00  zM 14674016.00 6225985.00 L 14516536.00 6225985.00 L 14516536.00 5832283.00 L 14674016.00 5832283.00 L 14674016.00 6225985.00  zM 15264568.00 6383464.00 L 14870866.00 6383464.00 L 14870866.00 6225985.00 L 14713386.00 6225985.00 L 14713386.00 5832283.00 L 14870866.00 5832283.00 L 14870866.00 6225984.00 L 15264568.00 6225984.00 L 15264568.00 6383464.00  zM 15264568.00 6580315.00 L 14870866.00 6580315.00 L 14870866.00 6422835.00 L 15264568.00 6422835.00 L 15264568.00 6580315.00  zM 15857481.00 6160631.00 L 15542519.00 6160631.00 L 15542519.00 5845669.00 L 15857481.00 5845669.00 L 15857481.00 6160631.00  zM 15857481.00 6554332.00 L 15542519.00 6554332.00 L 15542519.00 6239370.00 L 15857481.00 6239370.00 L 15857481.00 6554332.00  zM 16995668.00 6448031.00 L 16704330.00 6448031.00 L 16704330.00 5349607.00 L 16995668.00 5349607.00 L 16995668.00 6448031.00  zM 17995669.00 6448031.00 L 17704331.00 6448031.00 L 17704331.00 5349607.00 L 17995669.00 5349607.00 L 17995669.00 6448031.00  zM 17495669.00 6448031.00 L 17204331.00 6448031.00 L 17204331.00 5349607.00 L 17495669.00 5349607.00 L 17495669.00 6448031.00  zM 12064568.00 6777165.00 L 11670866.00 6777165.00 L 11670866.00 6619685.00 L 12064568.00 6619685.00 L 12064568.00 6777165.00  zM 12598425.00 7236220.00 L 12401575.00 7236220.00 L 12401575.00 7078740.00 L 12598425.00 7078740.00 L 12598425.00 7236220.00  zM 11974803.00 7818110.00 L 11738583.00 7818110.00 L 11738583.00 7581890.00 L 11974803.00 7581890.00 L 11974803.00 7818110.00  zM 12598425.00 6921260.00 L 12401575.00 6921260.00 L 12401575.00 6763780.00 L 12598425.00 6763780.00 L 12598425.00 6921260.00  zM 13729134.00 6777165.00 L 13335432.00 6777165.00 L 13335432.00 6619685.00 L 13729134.00 6619685.00 L 13729134.00 6777165.00  zM 13886614.00 7367717.00 L 13729134.00 7367717.00 L 13729134.00 6974016.00 L 13335432.00 6974016.00 L 13335432.00 6816536.00 L 13729134.00 6816536.00 L 13729134.00 6974015.00 L 13886614.00 6974015.00 L 13886614.00 7367717.00  zM 14083464.00 7367717.00 L 13925984.00 7367717.00 L 13925984.00 6974015.00 L 14083464.00 6974015.00 L 14083464.00 7367717.00  zM 14861024.00 6964173.00 L 13738976.00 6964173.00 L 13738976.00 6235827.00 L 14861024.00 6235827.00 L 14861024.00 6964173.00  zM 14280315.00 7367717.00 L 14122835.00 7367717.00 L 14122835.00 6974015.00 L 14280315.00 6974015.00 L 14280315.00 7367717.00  zM 14477165.00 7367717.00 L 14319685.00 7367717.00 L 14319685.00 6974015.00 L 14477165.00 6974015.00 L 14477165.00 7367717.00  zM 14674016.00 7367717.00 L 14516536.00 7367717.00 L 14516536.00 6974015.00 L 14674016.00 6974015.00 L 14674016.00 7367717.00  zM 14870866.00 7367717.00 L 14713386.00 7367717.00 L 14713386.00 6974015.00 L 14870866.00 6974015.00 L 14870866.00 6816536.00 L 15264568.00 6816536.00 L 15264568.00 6974016.00 L 14870866.00 6974016.00 L 14870866.00 7367717.00  zM 15264568.00 6777165.00 L 14870866.00 6777165.00 L 14870866.00 6619685.00 L 15264568.00 6619685.00 L 15264568.00 6777165.00  zM 15798425.00 6921260.00 L 15601575.00 6921260.00 L 15601575.00 6763780.00 L 15798425.00 6763780.00 L 15798425.00 6921260.00  zM 15798425.00 7236220.00 L 15601575.00 7236220.00 L 15601575.00 7078740.00 L 15798425.00 7078740.00 L 15798425.00 7236220.00  zM 16995668.00 8050393.00 L 16704330.00 8050393.00 L 16704330.00 6951969.00 L 16995668.00 6951969.00 L 16995668.00 8050393.00  zM 17495669.00 8050393.00 L 17204331.00 8050393.00 L 17204331.00 6951969.00 L 17495669.00 6951969.00 L 17495669.00 8050393.00  zM 17995669.00 8050393.00 L 17704331.00 8050393.00 L 17704331.00 6951969.00 L 17995669.00 6951969.00 L 17995669.00 8050393.00  zM 15210631.00 7907481.00 L 14895669.00 7907481.00 L 14895669.00 7592519.00 L 15210631.00 7592519.00 L 15210631.00 7907481.00  zM 13365159.00 11967323.00 L 12705709.00 11967323.00 L 12705709.00 11632677.00 L 13365159.00 11632677.00 L 13365159.00 11967323.00  zM 14766968.00 12221865.00 L 14233032.00 12221865.00 L 14233032.00 11806655.00 L 14766968.00 11806655.00 L 14766968.00 12221865.00  zM 13365159.00 12467323.00 L 12705709.00 12467323.00 L 12705709.00 12132677.00 L 13365159.00 12132677.00 L 13365159.00 12467323.00  zM 13937795.00 12162205.00 L 13662205.00 12162205.00 L 13662205.00 11906299.00 L 13937795.00 11906299.00 L 13937795.00 12162205.00  zM 12469686.00 13209449.00 L 11465748.00 13209449.00 L 11465748.00 11890551.00 L 12469686.00 11890551.00 L 12469686.00 13209449.00  zM 13365159.00 12967323.00 L 12705709.00 12967323.00 L 12705709.00 12632677.00 L 13365159.00 12632677.00 L 13365159.00 12967323.00  zM 13937795.00 12693701.00 L 13662205.00 12693701.00 L 13662205.00 12437795.00 L 13937795.00 12437795.00 L 13937795.00 12693701.00  zM 14766968.00 12793345.00 L 14233032.00 12793345.00 L 14233032.00 12378135.00 L 14766968.00 12378135.00 L 14766968.00 12793345.00  zM 15604332.00 7907481.00 L 15289370.00 7907481.00 L 15289370.00 7592519.00 L 15604332.00 7592519.00 L 15604332.00 7907481.00  zM 16632863.00 11843134.00 L 16489397.00 11699668.00 L 16620927.00 11568138.00 L 16764393.00 11711604.00 L 16632863.00 11843134.00  zM 15596897.00 12021793.00 L 15402025.00 11826921.00 L 15763929.00 11465017.00 L 15958801.00 11659889.00 L 15596897.00 12021793.00  zM 16125836.00 12550731.00 L 15930964.00 12355859.00 L 16292868.00 11993955.00 L 16487740.00 12188827.00 L 16125836.00 12550731.00  zM 16843638.00 12053909.00 L 16700172.00 11910443.00 L 16831702.00 11778913.00 L 16975168.00 11922379.00 L 16843638.00 12053909.00  zM 16498586.00 13436312.00 L 16081002.00 13018728.00 L 16498584.00 12601146.00 L 16916168.00 13018730.00 L 16498586.00 13436312.00  zM 16916169.00 13018729.00 L 16498585.00 12601145.00 L 16776973.00 12322757.00 L 17194557.00 12740341.00 L 16916169.00 13018729.00  zM 17194558.00 12740341.00 L 16776974.00 12322757.00 L 17055362.00 12044369.00 L 17472946.00 12461953.00 L 17194558.00 12740341.00  zM 18099318.00 12601147.00 L 17960124.00 12461953.00 L 18377708.00 12044369.00 L 18516902.00 12183563.00 L 18099318.00 12601147.00  zM 3120079.00 14084642.00 L 2057087.00 14084642.00 L 2057087.00 13690942.00 L 3120079.00 13690942.00 L 3120079.00 14084642.00  zM 4183070.00 14734248.00 L 3513780.00 14734248.00 L 3513780.00 14498028.00 L 4183070.00 14498028.00 L 4183070.00 14734248.00  zM 4183070.00 15226374.00 L 3513780.00 15226374.00 L 3513780.00 14990154.00 L 4183070.00 14990154.00 L 4183070.00 15226374.00  zM 3120079.00 16033460.00 L 2057087.00 16033460.00 L 2057087.00 15639760.00 L 3120079.00 15639760.00 L 3120079.00 16033460.00  zM 3120079.00 16742121.00 L 2057087.00 16742121.00 L 2057087.00 16348421.00 L 3120079.00 16348421.00 L 3120079.00 16742121.00  zM 4783465.00 14356295.00 L 4566929.00 14356295.00 L 4566929.00 14080705.00 L 4783465.00 14080705.00 L 4783465.00 14356295.00  zM 5039370.00 14356295.00 L 4822834.00 14356295.00 L 4822834.00 14080705.00 L 5039370.00 14080705.00 L 5039370.00 14356295.00  zM 5551181.00 15458658.00 L 5334645.00 15458658.00 L 5334645.00 15297240.00 L 5295276.00 15297240.00 L 5295276.00 15458658.00 L 5078740.00 15458658.00 L 5078740.00 15297240.00 L 5039370.00 15297240.00 L 5039370.00 15458658.00 L 4822834.00 15458658.00 L 4822834.00 15297240.00 L 4783465.00 15297240.00 L 4783465.00 15458658.00 L 4566929.00 15458658.00 L 4566929.00 15297240.00 L 4488189.00 15297240.00 L 4488189.00 14561020.00 L 5629921.00 14561020.00 L 5629921.00 15297240.00 L 5551181.00 15297240.00 L 5551181.00 15458658.00  zM 4783465.00 17013774.00 L 4566929.00 17013774.00 L 4566929.00 16738184.00 L 4783465.00 16738184.00 L 4783465.00 17013774.00  zM 5039370.00 17013774.00 L 4822834.00 17013774.00 L 4822834.00 16738184.00 L 5039370.00 16738184.00 L 5039370.00 17013774.00  zM 5295276.00 14356295.00 L 5078740.00 14356295.00 L 5078740.00 14080705.00 L 5295276.00 14080705.00 L 5295276.00 14356295.00  zM 6173992.00 14030010.00 L 5950302.00 14030010.00 L 5950302.00 13804628.00 L 6173992.00 13804628.00 L 6173992.00 14030010.00  zM 6530014.00 14030010.00 L 6306324.00 14030010.00 L 6306324.00 13804628.00 L 6530014.00 13804628.00 L 6530014.00 14030010.00  zM 5551181.00 14356295.00 L 5334645.00 14356295.00 L 5334645.00 14080705.00 L 5551181.00 14080705.00 L 5551181.00 14356295.00  zM 6250748.00 15357842.00 L 6030748.00 15357842.00 L 6030748.00 15067842.00 L 6250748.00 15067842.00 L 6250748.00 15357842.00  zM 5295276.00 17013774.00 L 5078740.00 17013774.00 L 5078740.00 16738184.00 L 5295276.00 16738184.00 L 5295276.00 17013774.00  zM 5551181.00 17013774.00 L 5334645.00 17013774.00 L 5334645.00 16738184.00 L 5551181.00 16738184.00 L 5551181.00 17013774.00  zM 6173992.00 16687489.00 L 5950302.00 16687489.00 L 5950302.00 16462107.00 L 6173992.00 16462107.00 L 6173992.00 16687489.00  zM 6530014.00 16687489.00 L 6306324.00 16687489.00 L 6306324.00 16462107.00 L 6530014.00 16462107.00 L 6530014.00 16687489.00  zM 3120079.00 18690939.00 L 2057087.00 18690939.00 L 2057087.00 18297239.00 L 3120079.00 18297239.00 L 3120079.00 18690939.00  zM 4183070.00 17391727.00 L 3513780.00 17391727.00 L 3513780.00 17155507.00 L 4183070.00 17155507.00 L 4183070.00 17391727.00  zM 3120079.00 19399600.00 L 2057087.00 19399600.00 L 2057087.00 19005900.00 L 3120079.00 19005900.00 L 3120079.00 19399600.00  zM 4183070.00 17883853.00 L 3513780.00 17883853.00 L 3513780.00 17647633.00 L 4183070.00 17647633.00 L 4183070.00 17883853.00  zM 5551181.00 18116137.00 L 5334645.00 18116137.00 L 5334645.00 17954719.00 L 5295276.00 17954719.00 L 5295276.00 18116137.00 L 5078740.00 18116137.00 L 5078740.00 17954719.00 L 5039370.00 17954719.00 L 5039370.00 18116137.00 L 4822834.00 18116137.00 L 4822834.00 17954719.00 L 4783465.00 17954719.00 L 4783465.00 18116137.00 L 4566929.00 18116137.00 L 4566929.00 17954719.00 L 4488189.00 17954719.00 L 4488189.00 17218499.00 L 5629921.00 17218499.00 L 5629921.00 17954719.00 L 5551181.00 17954719.00 L 5551181.00 18116137.00  zM 6250748.00 18015321.00 L 6030748.00 18015321.00 L 6030748.00 17725321.00 L 6250748.00 17725321.00 L 6250748.00 18015321.00  zM 6173992.00 19344968.00 L 5950302.00 19344968.00 L 5950302.00 19119586.00 L 6173992.00 19119586.00 L 6173992.00 19344968.00  zM 5295276.00 19671253.00 L 5078740.00 19671253.00 L 5078740.00 19395663.00 L 5295276.00 19395663.00 L 5295276.00 19671253.00  zM 6530014.00 19344968.00 L 6306324.00 19344968.00 L 6306324.00 19119586.00 L 6530014.00 19119586.00 L 6530014.00 19344968.00  zM 3120079.00 21348418.00 L 2057087.00 21348418.00 L 2057087.00 20954718.00 L 3120079.00 20954718.00 L 3120079.00 21348418.00  zM 3120079.00 22057079.00 L 2057087.00 22057079.00 L 2057087.00 21663379.00 L 3120079.00 21663379.00 L 3120079.00 22057079.00  zM 4183070.00 20541332.00 L 3513780.00 20541332.00 L 3513780.00 20305112.00 L 4183070.00 20305112.00 L 4183070.00 20541332.00  zM 4183070.00 20049206.00 L 3513780.00 20049206.00 L 3513780.00 19812986.00 L 4183070.00 19812986.00 L 4183070.00 20049206.00  zM 4783465.00 19671253.00 L 4566929.00 19671253.00 L 4566929.00 19395663.00 L 4783465.00 19395663.00 L 4783465.00 19671253.00  zM 5039370.00 19671253.00 L 4822834.00 19671253.00 L 4822834.00 19395663.00 L 5039370.00 19395663.00 L 5039370.00 19671253.00  zM 5551181.00 20773616.00 L 5334645.00 20773616.00 L 5334645.00 20612198.00 L 5295276.00 20612198.00 L 5295276.00 20773616.00 L 5078740.00 20773616.00 L 5078740.00 20612198.00 L 5039370.00 20612198.00 L 5039370.00 20773616.00 L 4822834.00 20773616.00 L 4822834.00 20612198.00 L 4783465.00 20612198.00 L 4783465.00 20773616.00 L 4566929.00 20773616.00 L 4566929.00 20612198.00 L 4488189.00 20612198.00 L 4488189.00 19875978.00 L 5629921.00 19875978.00 L 5629921.00 20612198.00 L 5551181.00 20612198.00 L 5551181.00 20773616.00  zM 5551181.00 19671253.00 L 5334645.00 19671253.00 L 5334645.00 19395663.00 L 5551181.00 19395663.00 L 5551181.00 19671253.00  zM 6250748.00 20672800.00 L 6030748.00 20672800.00 L 6030748.00 20382800.00 L 6250748.00 20382800.00 L 6250748.00 20672800.00  zM 3120079.00 24005897.00 L 2057087.00 24005897.00 L 2057087.00 23612197.00 L 3120079.00 23612197.00 L 3120079.00 24005897.00  zM 4183070.00 22706685.00 L 3513780.00 22706685.00 L 3513780.00 22470465.00 L 4183070.00 22470465.00 L 4183070.00 22706685.00  zM 3120079.00 24714558.00 L 2057087.00 24714558.00 L 2057087.00 24320858.00 L 3120079.00 24320858.00 L 3120079.00 24714558.00  zM 4183070.00 23198811.00 L 3513780.00 23198811.00 L 3513780.00 22962591.00 L 4183070.00 22962591.00 L 4183070.00 23198811.00  zM 4783465.00 22328732.00 L 4566929.00 22328732.00 L 4566929.00 22053142.00 L 4783465.00 22053142.00 L 4783465.00 22328732.00  zM 5039370.00 22328732.00 L 4822834.00 22328732.00 L 4822834.00 22053142.00 L 5039370.00 22053142.00 L 5039370.00 22328732.00  zM 5551181.00 23431095.00 L 5334645.00 23431095.00 L 5334645.00 23269677.00 L 5295276.00 23269677.00 L 5295276.00 23431095.00 L 5078740.00 23431095.00 L 5078740.00 23269677.00 L 5039370.00 23269677.00 L 5039370.00 23431095.00 L 4822834.00 23431095.00 L 4822834.00 23269677.00 L 4783465.00 23269677.00 L 4783465.00 23431095.00 L 4566929.00 23431095.00 L 4566929.00 23269677.00 L 4488189.00 23269677.00 L 4488189.00 22533457.00 L 5629921.00 22533457.00 L 5629921.00 23269677.00 L 5551181.00 23269677.00 L 5551181.00 23431095.00  zM 4783465.00 24986211.00 L 4566929.00 24986211.00 L 4566929.00 24710621.00 L 4783465.00 24710621.00 L 4783465.00 24986211.00  zM 5039370.00 24986211.00 L 4822834.00 24986211.00 L 4822834.00 24710621.00 L 5039370.00 24710621.00 L 5039370.00 24986211.00  zM 5551181.00 22328732.00 L 5334645.00 22328732.00 L 5334645.00 22053142.00 L 5551181.00 22053142.00 L 5551181.00 22328732.00  zM 6173992.00 22002447.00 L 5950302.00 22002447.00 L 5950302.00 21777065.00 L 6173992.00 21777065.00 L 6173992.00 22002447.00  zM 6530014.00 22002447.00 L 6306324.00 22002447.00 L 6306324.00 21777065.00 L 6530014.00 21777065.00 L 6530014.00 22002447.00  zM 5295276.00 22328732.00 L 5078740.00 22328732.00 L 5078740.00 22053142.00 L 5295276.00 22053142.00 L 5295276.00 22328732.00  zM 6250748.00 23330279.00 L 6030748.00 23330279.00 L 6030748.00 23040279.00 L 6250748.00 23040279.00 L 6250748.00 23330279.00  zM 5295276.00 24986211.00 L 5078740.00 24986211.00 L 5078740.00 24710621.00 L 5295276.00 24710621.00 L 5295276.00 24986211.00  zM 5551181.00 24986211.00 L 5334645.00 24986211.00 L 5334645.00 24710621.00 L 5551181.00 24710621.00 L 5551181.00 24986211.00  zM 6173992.00 24659926.00 L 5950302.00 24659926.00 L 5950302.00 24434544.00 L 6173992.00 24434544.00 L 6173992.00 24659926.00  zM 6530014.00 24659926.00 L 6306324.00 24659926.00 L 6306324.00 24434544.00 L 6530014.00 24434544.00 L 6530014.00 24659926.00  zM 3120079.00 26663376.00 L 2057087.00 26663376.00 L 2057087.00 26269676.00 L 3120079.00 26269676.00 L 3120079.00 26663376.00  zM 4183070.00 25364164.00 L 3513780.00 25364164.00 L 3513780.00 25127944.00 L 4183070.00 25127944.00 L 4183070.00 25364164.00  zM 3120079.00 27372037.00 L 2057087.00 27372037.00 L 2057087.00 26978337.00 L 3120079.00 26978337.00 L 3120079.00 27372037.00  zM 4183070.00 25856290.00 L 3513780.00 25856290.00 L 3513780.00 25620070.00 L 4183070.00 25620070.00 L 4183070.00 25856290.00  zM 5551181.00 26088574.00 L 5334645.00 26088574.00 L 5334645.00 25927156.00 L 5295276.00 25927156.00 L 5295276.00 26088574.00 L 5078740.00 26088574.00 L 5078740.00 25927156.00 L 5039370.00 25927156.00 L 5039370.00 26088574.00 L 4822834.00 26088574.00 L 4822834.00 25927156.00 L 4783465.00 25927156.00 L 4783465.00 26088574.00 L 4566929.00 26088574.00 L 4566929.00 25927156.00 L 4488189.00 25927156.00 L 4488189.00 25190936.00 L 5629921.00 25190936.00 L 5629921.00 25927156.00 L 5551181.00 25927156.00 L 5551181.00 26088574.00  zM 6250748.00 25987758.00 L 6030748.00 25987758.00 L 6030748.00 25697758.00 L 6250748.00 25697758.00 L 6250748.00 25987758.00  zM 6173992.00 27317405.00 L 5950302.00 27317405.00 L 5950302.00 27092023.00 L 6173992.00 27092023.00 L 6173992.00 27317405.00  zM 5551181.00 27643690.00 L 5334645.00 27643690.00 L 5334645.00 27368100.00 L 5551181.00 27368100.00 L 5551181.00 27643690.00  zM 6530014.00 27317405.00 L 6306324.00 27317405.00 L 6306324.00 27092023.00 L 6530014.00 27092023.00 L 6530014.00 27317405.00  zM 4183070.00 28021643.00 L 3513780.00 28021643.00 L 3513780.00 27785423.00 L 4183070.00 27785423.00 L 4183070.00 28021643.00  zM 4783465.00 27643690.00 L 4566929.00 27643690.00 L 4566929.00 27368100.00 L 4783465.00 27368100.00 L 4783465.00 27643690.00  zM 5039370.00 27643690.00 L 4822834.00 27643690.00 L 4822834.00 27368100.00 L 5039370.00 27368100.00 L 5039370.00 27643690.00  zM 5295276.00 27643690.00 L 5078740.00 27643690.00 L 5078740.00 27368100.00 L 5295276.00 27368100.00 L 5295276.00 27643690.00  zM 5551181.00 28746053.00 L 5334645.00 28746053.00 L 5334645.00 28584635.00 L 5295276.00 28584635.00 L 5295276.00 28746053.00 L 5078740.00 28746053.00 L 5078740.00 28584635.00 L 5039370.00 28584635.00 L 5039370.00 28746053.00 L 4822834.00 28746053.00 L 4822834.00 28584635.00 L 4783465.00 28584635.00 L 4783465.00 28746053.00 L 4566929.00 28746053.00 L 4566929.00 28584635.00 L 4488189.00 28584635.00 L 4488189.00 27848415.00 L 5629921.00 27848415.00 L 5629921.00 28584635.00 L 5551181.00 28584635.00 L 5551181.00 28746053.00  zM 4183070.00 28513769.00 L 3513780.00 28513769.00 L 3513780.00 28277549.00 L 4183070.00 28277549.00 L 4183070.00 28513769.00  zM 6250748.00 28645237.00 L 6030748.00 28645237.00 L 6030748.00 28355237.00 L 6250748.00 28355237.00 L 6250748.00 28645237.00  zM 3120079.00 29320855.00 L 2057087.00 29320855.00 L 2057087.00 28927155.00 L 3120079.00 28927155.00 L 3120079.00 29320855.00  zM 1968504.28 33464555.62 m -1609303.38 0 a 1609303.38 1609303.38 0 1 1 3218606.77 0a 1609303.38 1609303.38 0 1 1 -3218606.77 0M 6625748.00 14577819.00 L 6405748.00 14577819.00 L 6405748.00 14287819.00 L 6625748.00 14287819.00 L 6625748.00 14577819.00  zM 8267322.00 13865158.00 L 7932676.00 13865158.00 L 7932676.00 13205708.00 L 8267322.00 13205708.00 L 8267322.00 13865158.00  zM 7000748.00 15357842.00 L 6780748.00 15357842.00 L 6780748.00 15067842.00 L 7000748.00 15067842.00 L 7000748.00 15357842.00  zM 8767322.00 13865158.00 L 8432676.00 13865158.00 L 8432676.00 13205708.00 L 8767322.00 13205708.00 L 8767322.00 13865158.00  zM 8662204.00 14437796.00 L 8406298.00 14437796.00 L 8406298.00 14162206.00 L 8662204.00 14162206.00 L 8662204.00 14437796.00  zM 9267322.00 13865160.00 L 8932676.00 13865160.00 L 8932676.00 13205710.00 L 9267322.00 13205710.00 L 9267322.00 13865160.00  zM 9193701.00 14437796.00 L 8937795.00 14437796.00 L 8937795.00 14162206.00 L 9193701.00 14162206.00 L 9193701.00 14437796.00  zM 9767324.00 13865158.00 L 9432678.00 13865158.00 L 9432678.00 13205708.00 L 9767324.00 13205708.00 L 9767324.00 13865158.00  zM 11229725.00 13467323.00 L 10570275.00 13467323.00 L 10570275.00 13132677.00 L 11229725.00 13132677.00 L 11229725.00 13467323.00  zM 6625748.00 17235298.00 L 6405748.00 17235298.00 L 6405748.00 16945298.00 L 6625748.00 16945298.00 L 6625748.00 17235298.00  zM 7000748.00 18015321.00 L 6780748.00 18015321.00 L 6780748.00 17725321.00 L 7000748.00 17725321.00 L 7000748.00 18015321.00  zM 11699668.00 18943673.00 L 11568138.00 18812143.00 L 11711604.00 18668677.00 L 11843134.00 18800207.00 L 11699668.00 18943673.00  zM 11910443.00 18732898.00 L 11778913.00 18601368.00 L 11922379.00 18457902.00 L 12053909.00 18589432.00 L 11910443.00 18732898.00  zM 11826921.00 19834196.00 L 11465017.00 19472292.00 L 11659889.00 19277420.00 L 12021793.00 19639324.00 L 11826921.00 19834196.00  zM 12601147.00 17333751.00 L 12183563.00 16916167.00 L 12601145.00 16498585.00 L 13018729.00 16916169.00 L 12601147.00 17333751.00  zM 12461953.00 17472946.00 L 12044369.00 17055362.00 L 12183563.00 16916168.00 L 12601147.00 17333752.00 L 12461953.00 17472946.00  zM 12183563.00 18516902.00 L 12044369.00 18377708.00 L 12461953.00 17960124.00 L 12601147.00 18099318.00 L 12183563.00 18516902.00  zM 12355859.00 19305257.00 L 11993955.00 18943353.00 L 12188827.00 18748481.00 L 12550731.00 19110385.00 L 12355859.00 19305257.00  zM 13365159.00 13467323.00 L 12705709.00 13467323.00 L 12705709.00 13132677.00 L 13365159.00 13132677.00 L 13365159.00 13467323.00  zM 13181020.00 15084203.00 L 13037554.00 14940737.00 L 13169084.00 14809207.00 L 13312550.00 14952673.00 L 13181020.00 15084203.00  zM 13391795.00 15294978.00 L 13248329.00 15151512.00 L 13379859.00 15019982.00 L 13523325.00 15163448.00 L 13391795.00 15294978.00  zM 14755823.00 13706251.00 L 14612357.00 13562785.00 L 14743887.00 13431255.00 L 14887353.00 13574721.00 L 14755823.00 13706251.00  zM 14689061.00 15245837.00 L 14271477.00 14828253.00 L 14689059.00 14410671.00 L 15106643.00 14828255.00 L 14689061.00 15245837.00  zM 14966598.00 13917026.00 L 14823132.00 13773560.00 L 14954662.00 13642030.00 L 15098128.00 13785496.00 L 14966598.00 13917026.00  zM 15106644.00 14828254.00 L 14689060.00 14410670.00 L 15385030.00 13714700.00 L 15802614.00 14132284.00 L 15106644.00 14828254.00  zM 15802615.00 14132283.00 L 15385031.00 13714699.00 L 15802613.00 13297117.00 L 16220197.00 13714701.00 L 15802615.00 14132283.00  zM 16220198.00 13714701.00 L 15802614.00 13297117.00 L 16081002.00 13018729.00 L 16498586.00 13436313.00 L 16220198.00 13714701.00  zM 13018730.00 16916168.00 L 12601146.00 16498584.00 L 12879534.00 16220196.00 L 13297118.00 16637780.00 L 13018730.00 16916168.00  zM 13297119.00 16637780.00 L 12879535.00 16220196.00 L 13297117.00 15802614.00 L 13714701.00 16220198.00 L 13297119.00 16637780.00  zM 13714701.00 16220197.00 L 13297117.00 15802613.00 L 13575505.00 15524225.00 L 13993089.00 15941809.00 L 13714701.00 16220197.00  zM 13993090.00 15941808.00 L 13575506.00 15524224.00 L 13993088.00 15106642.00 L 14410672.00 15524226.00 L 13993090.00 15941808.00  zM 14410673.00 15524226.00 L 13993089.00 15106642.00 L 14271476.00 14828254.00 L 14689060.00 15245838.00 L 14549867.00 15385032.00 L 14410673.00 15524226.00  zM 12601145.00 18934485.00 L 12183563.00 18516903.00 L 12601147.00 18099319.00 L 13018729.00 18516901.00 L 12601145.00 18934485.00  zM 12879534.00 19212874.00 L 12601146.00 18934486.00 L 13018730.00 18516902.00 L 13297118.00 18795290.00 L 12879534.00 19212874.00  zM 13297117.00 19630456.00 L 12879535.00 19212874.00 L 13297119.00 18795290.00 L 13714701.00 19212872.00 L 13297117.00 19630456.00  zM 13575505.00 19908845.00 L 13297117.00 19630457.00 L 13714701.00 19212873.00 L 13993089.00 19491261.00 L 13575505.00 19908845.00  zM 6625748.00 19892777.00 L 6405748.00 19892777.00 L 6405748.00 19602777.00 L 6625748.00 19602777.00 L 6625748.00 19892777.00  zM 7000748.00 20672800.00 L 6780748.00 20672800.00 L 6780748.00 20382800.00 L 7000748.00 20382800.00 L 7000748.00 20672800.00  zM 6625748.00 22550256.00 L 6405748.00 22550256.00 L 6405748.00 22260256.00 L 6625748.00 22260256.00 L 6625748.00 22550256.00  zM 7000748.00 23330279.00 L 6780748.00 23330279.00 L 6780748.00 23040279.00 L 7000748.00 23040279.00 L 7000748.00 23330279.00  zM 13077620.00 20518477.00 L 12946090.00 20386947.00 L 13089556.00 20243481.00 L 13221086.00 20375011.00 L 13077620.00 20518477.00  zM 6625748.00 25207735.00 L 6405748.00 25207735.00 L 6405748.00 24917735.00 L 6625748.00 24917735.00 L 6625748.00 25207735.00  zM 7000748.00 25987758.00 L 6780748.00 25987758.00 L 6780748.00 25697758.00 L 7000748.00 25697758.00 L 7000748.00 25987758.00  zM 6625748.00 27865214.00 L 6405748.00 27865214.00 L 6405748.00 27575214.00 L 6625748.00 27575214.00 L 6625748.00 27865214.00  zM 7000748.00 28645237.00 L 6780748.00 28645237.00 L 6780748.00 28355237.00 L 7000748.00 28355237.00 L 7000748.00 28645237.00  zM 13288395.00 20307702.00 L 13156865.00 20176172.00 L 13300331.00 20032706.00 L 13431861.00 20164236.00 L 13288395.00 20307702.00  zM 13993088.00 20326428.00 L 13575506.00 19908846.00 L 13993090.00 19491262.00 L 14410672.00 19908844.00 L 13993088.00 20326428.00  zM 14271476.00 20604816.00 L 13993089.00 20326428.00 L 14410673.00 19908844.00 L 14689060.00 20187232.00 L 14271476.00 20604816.00  zM 14689059.00 21022399.00 L 14271477.00 20604817.00 L 14689061.00 20187233.00 L 15106643.00 20604815.00 L 14689059.00 21022399.00  zM 15385030.00 21718370.00 L 14689060.00 21022400.00 L 15106644.00 20604816.00 L 15802614.00 21300786.00 L 15385030.00 21718370.00  zM 14560961.00 21791041.00 L 14429431.00 21659511.00 L 14572897.00 21516045.00 L 14704427.00 21647575.00 L 14560961.00 21791041.00  zM 14771736.00 21580266.00 L 14640206.00 21448736.00 L 14783672.00 21305270.00 L 14915202.00 21436800.00 L 14771736.00 21580266.00  zM 14709986.00 24716519.00 L 14709986.00 24127963.00 A 116841.04 116841.04 0 0 1 14943662.00 24127963.00 L 14943662.00 24716519.00 A 116841.04 116841.04 0 1 1 14709986.00 24716519.00  zM 14709986.00 26580717.00 L 14709986.00 25992161.00 A 116841.04 116841.04 0 0 1 14943662.00 25992161.00 L 14943662.00 26580717.00 A 116841.04 116841.04 0 0 1 14709986.00 26580717.00  zM 15802613.00 22135953.00 L 15385031.00 21718371.00 L 15802615.00 21300787.00 L 16220197.00 21718369.00 L 15802613.00 22135953.00  zM 16081002.00 22414341.00 L 15802614.00 22135953.00 L 16220198.00 21718369.00 L 16498586.00 21996757.00 L 16081002.00 22414341.00  zM 16498584.00 22831924.00 L 16081002.00 22414342.00 L 16498586.00 21996758.00 L 16916168.00 22414340.00 L 16498584.00 22831924.00  zM 16776973.00 23110313.00 L 16498585.00 22831925.00 L 16916169.00 22414341.00 L 17194557.00 22692729.00 L 16776973.00 23110313.00  zM 17055362.00 23388701.00 L 16776974.00 23110313.00 L 17194558.00 22692729.00 L 17472946.00 22971117.00 L 17055362.00 23388701.00  zM 16332615.00 23562695.00 L 16201085.00 23431165.00 L 16344551.00 23287699.00 L 16476081.00 23419229.00 L 16332615.00 23562695.00  zM 16543390.00 23351920.00 L 16411860.00 23220390.00 L 16555326.00 23076924.00 L 16686856.00 23208454.00 L 16543390.00 23351920.00  zM 16949358.00 24519348.00 L 16763346.00 24519348.00 L 16763346.00 24316456.00 L 16949358.00 24316456.00 L 16949358.00 24519348.00  zM 18377708.00 23388701.00 L 17960124.00 22971117.00 L 18099318.00 22831923.00 L 18516902.00 23249507.00 L 18377708.00 23388701.00  zM 15209987.00 24716519.00 L 15209987.00 24127963.00 A 116841.04 116841.04 0 0 1 15443663.00 24127963.00 L 15443663.00 24716519.00 A 116841.04 116841.04 0 1 1 15209987.00 24716519.00  zM 15709986.00 24716519.00 L 15709986.00 24127963.00 A 116841.04 116841.04 0 0 1 15943662.00 24127963.00 L 15943662.00 24716519.00 A 116841.04 116841.04 0 1 1 15709986.00 24716519.00  zM 16209986.00 24716520.00 L 16209986.00 24127964.00 A 116841.04 116841.04 0 0 1 16443662.00 24127964.00 L 16443662.00 24716520.00 A 116841.04 116841.04 0 0 1 16209986.00 24716520.00  zM 16949359.00 24817425.00 L 16763347.00 24817425.00 L 16763347.00 24614533.00 L 16949359.00 24614533.00 L 16949359.00 24817425.00  zM 17713871.00 24685654.00 L 17179935.00 24685654.00 L 17179935.00 24270444.00 L 17713871.00 24270444.00 L 17713871.00 24685654.00  zM 15209985.00 26580717.00 L 15209985.00 25992161.00 A 116841.04 116841.04 0 0 1 15443661.00 25992161.00 L 15443661.00 26580717.00 A 116841.04 116841.04 0 1 1 15209985.00 26580717.00  zM 15709986.00 26580717.00 L 15709986.00 25992161.00 A 116841.04 116841.04 0 0 1 15943662.00 25992161.00 L 15943662.00 26580717.00 A 116841.04 116841.04 0 0 1 15709986.00 26580717.00  zM 17713871.00 25257135.00 L 17179935.00 25257135.00 L 17179935.00 24841925.00 L 17713871.00 24841925.00 L 17713871.00 25257135.00  zM 16441417.00 26695311.00 L 16212231.00 26695311.00 L 16212231.00 25877569.00 L 16441417.00 25877569.00 L 16441417.00 26695311.00  zM 21153935.00 3147638.00 L 20760235.00 3147638.00 L 20760235.00 2045276.00 L 21153935.00 2045276.00 L 21153935.00 3147638.00  zM 21803542.00 4249999.00 L 21567322.00 4249999.00 L 21567322.00 3580709.00 L 21803542.00 3580709.00 L 21803542.00 4249999.00  zM 20814961.00 4737795.00 L 20539371.00 4737795.00 L 20539371.00 4462205.00 L 20814961.00 4462205.00 L 20814961.00 4737795.00  zM 20460629.00 4737795.00 L 20185039.00 4737795.00 L 20185039.00 4462205.00 L 20460629.00 4462205.00 L 20460629.00 4737795.00  zM 20460629.00 5137795.00 L 20185039.00 5137795.00 L 20185039.00 4862205.00 L 20460629.00 4862205.00 L 20460629.00 5137795.00  zM 18495669.00 6448030.00 L 18204331.00 6448030.00 L 18204331.00 5349606.00 L 18495669.00 5349606.00 L 18495669.00 6448030.00  zM 18995669.00 6448031.00 L 18704331.00 6448031.00 L 18704331.00 5349607.00 L 18995669.00 5349607.00 L 18995669.00 6448031.00  zM 19995669.00 6448031.00 L 19704331.00 6448031.00 L 19704331.00 5349607.00 L 19995669.00 5349607.00 L 19995669.00 6448031.00  zM 20814961.00 5137795.00 L 20539371.00 5137795.00 L 20539371.00 4862205.00 L 20814961.00 4862205.00 L 20814961.00 5137795.00  zM 22329528.00 5579331.00 L 21970472.00 5579331.00 L 21970472.00 4870275.00 L 22329528.00 4870275.00 L 22329528.00 5579331.00  zM 22295669.00 4249999.00 L 22059449.00 4249999.00 L 22059449.00 3580709.00 L 22295669.00 3580709.00 L 22295669.00 4249999.00  zM 22787792.00 4249999.00 L 22551572.00 4249999.00 L 22551572.00 3580709.00 L 22787792.00 3580709.00 L 22787792.00 4249999.00  zM 23279920.00 4249999.00 L 23043700.00 4249999.00 L 23043700.00 3580709.00 L 23279920.00 3580709.00 L 23279920.00 4249999.00  zM 22829528.00 5579331.00 L 22470472.00 5579331.00 L 22470472.00 4870275.00 L 22829528.00 4870275.00 L 22829528.00 5579331.00  zM 23329528.00 5579331.00 L 22970472.00 5579331.00 L 22970472.00 4870275.00 L 23329528.00 4870275.00 L 23329528.00 5579331.00  zM 23772045.00 4249999.00 L 23535825.00 4249999.00 L 23535825.00 3580709.00 L 23772045.00 3580709.00 L 23772045.00 4249999.00  zM 24264171.00 4249999.00 L 24027951.00 4249999.00 L 24027951.00 3580709.00 L 24264171.00 3580709.00 L 24264171.00 4249999.00  zM 23829528.00 5579331.00 L 23470472.00 5579331.00 L 23470472.00 4870275.00 L 23829528.00 4870275.00 L 23829528.00 5579331.00  zM 24329528.00 5579331.00 L 23970472.00 5579331.00 L 23970472.00 4870275.00 L 24329528.00 4870275.00 L 24329528.00 5579331.00  zM 19495668.00 6448031.00 L 19204330.00 6448031.00 L 19204330.00 5349607.00 L 19495668.00 5349607.00 L 19495668.00 6448031.00  zM 19995669.00 8050393.00 L 19704331.00 8050393.00 L 19704331.00 6951969.00 L 19995669.00 6951969.00 L 19995669.00 8050393.00  zM 18995669.00 8050393.00 L 18704331.00 8050393.00 L 18704331.00 6951969.00 L 18995669.00 6951969.00 L 18995669.00 8050393.00  zM 18495669.00 8050394.00 L 18204331.00 8050394.00 L 18204331.00 6951970.00 L 18495669.00 6951970.00 L 18495669.00 8050394.00  zM 19495668.00 8050393.00 L 19204330.00 8050393.00 L 19204330.00 6951969.00 L 19495668.00 6951969.00 L 19495668.00 8050393.00  zM 21318110.00 9611417.00 L 21081890.00 9611417.00 L 21081890.00 9375197.00 L 21318110.00 9375197.00 L 21318110.00 9611417.00  zM 21318110.00 10024803.00 L 21081890.00 10024803.00 L 21081890.00 9788583.00 L 21318110.00 9788583.00 L 21318110.00 10024803.00  zM 21793006.00 9652406.00 L 21606994.00 9652406.00 L 21606994.00 9449514.00 L 21793006.00 9449514.00 L 21793006.00 9652406.00  zM 21793006.00 9950487.00 L 21606994.00 9950487.00 L 21606994.00 9747595.00 L 21793006.00 9747595.00 L 21793006.00 9950487.00  zM 22329528.00 8929725.00 L 21970472.00 8929725.00 L 21970472.00 8220669.00 L 22329528.00 8220669.00 L 22329528.00 8929725.00  zM 22829528.00 8929725.00 L 22470472.00 8929725.00 L 22470472.00 8220669.00 L 22829528.00 8220669.00 L 22829528.00 8929725.00  zM 22493006.00 9952405.00 L 22306994.00 9952405.00 L 22306994.00 9749513.00 L 22493006.00 9749513.00 L 22493006.00 9952405.00  zM 22493006.00 10250486.00 L 22306994.00 10250486.00 L 22306994.00 10047594.00 L 22493006.00 10047594.00 L 22493006.00 10250486.00  zM 22993006.00 9952405.00 L 22806994.00 9952405.00 L 22806994.00 9749513.00 L 22993006.00 9749513.00 L 22993006.00 9952405.00  zM 23329528.00 8929725.00 L 22970472.00 8929725.00 L 22970472.00 8220669.00 L 23329528.00 8220669.00 L 23329528.00 8929725.00  zM 23829528.00 8929725.00 L 23470472.00 8929725.00 L 23470472.00 8220669.00 L 23829528.00 8220669.00 L 23829528.00 8929725.00  zM 24329528.00 8929725.00 L 23970472.00 8929725.00 L 23970472.00 8220669.00 L 24329528.00 8220669.00 L 24329528.00 8929725.00  zM 22993006.00 10250486.00 L 22806994.00 10250486.00 L 22806994.00 10047594.00 L 22993006.00 10047594.00 L 22993006.00 10250486.00  zM 18516901.00 13018729.00 L 18099319.00 12601147.00 L 18516903.00 12183563.00 L 18934485.00 12601145.00 L 18516901.00 13018729.00  zM 19993307.00 11773228.00 L 19698031.00 11773228.00 L 19698031.00 11399212.00 L 19993307.00 11399212.00 L 19993307.00 11773228.00  zM 18795290.00 13297118.00 L 18516902.00 13018730.00 L 18934486.00 12601146.00 L 19212874.00 12879534.00 L 18795290.00 13297118.00  zM 19993307.00 11300788.00 L 19698031.00 11300788.00 L 19698031.00 10926772.00 L 19993307.00 10926772.00 L 19993307.00 11300788.00  zM 20701969.00 11300788.00 L 20406693.00 11300788.00 L 20406693.00 10926772.00 L 20701969.00 10926772.00 L 20701969.00 11300788.00  zM 20701969.00 11773228.00 L 20406693.00 11773228.00 L 20406693.00 11399212.00 L 20701969.00 11399212.00 L 20701969.00 11773228.00  zM 21411417.00 12218110.00 L 21175197.00 12218110.00 L 21175197.00 11981890.00 L 21411417.00 11981890.00 L 21411417.00 12218110.00  zM 21433834.00 11682377.00 L 21170774.00 11682377.00 L 21170774.00 11417623.00 L 21433834.00 11417623.00 L 21433834.00 11682377.00  zM 21829226.00 11682377.00 L 21566166.00 11682377.00 L 21566166.00 11417623.00 L 21829226.00 11417623.00 L 21829226.00 11682377.00  zM 22776806.00 11162008.00 L 22474226.00 11162008.00 A 50984.45 50984.45 0 1 1 22474226.00 11060040.00 L 22776806.00 11060040.00 A 50984.45 50984.45 0 0 1 22776806.00 11162008.00  zM 22776806.00 11358858.00 L 22474226.00 11358858.00 A 50984.45 50984.45 0 0 1 22474226.00 11256890.00 L 22776806.00 11256890.00 A 50984.45 50984.45 0 0 1 22776806.00 11358858.00  zM 22776806.00 11555709.00 L 22474226.00 11555709.00 A 50984.45 50984.45 0 0 1 22474226.00 11453741.00 L 22776806.00 11453741.00 A 50984.45 50984.45 0 0 1 22776806.00 11555709.00  zM 22776806.00 11752559.00 L 22474226.00 11752559.00 A 50984.45 50984.45 0 0 1 22474226.00 11650591.00 L 22776806.00 11650591.00 A 50984.45 50984.45 0 0 1 22776806.00 11752559.00  zM 22776806.00 11949409.00 L 22474226.00 11949409.00 A 50984.45 50984.45 0 0 1 22474226.00 11847441.00 L 22776806.00 11847441.00 A 50984.45 50984.45 0 0 1 22776806.00 11949409.00  zM 21824803.00 12218110.00 L 21588583.00 12218110.00 L 21588583.00 11981890.00 L 21824803.00 11981890.00 L 21824803.00 12218110.00  zM 22776806.00 12343110.00 L 22474226.00 12343110.00 A 50984.45 50984.45 0 0 1 22474226.00 12241142.00 L 22776806.00 12241142.00 A 50984.45 50984.45 0 0 1 22776806.00 12343110.00  zM 22776806.00 12146260.00 L 22474226.00 12146260.00 A 50984.45 50984.45 0 0 1 22474226.00 12044292.00 L 22776806.00 12044292.00 A 50984.45 50984.45 0 0 1 22776806.00 12146260.00  zM 22776806.00 12539961.00 L 22474226.00 12539961.00 A 50984.45 50984.45 0 0 1 22474226.00 12437993.00 L 22776806.00 12437993.00 A 50984.45 50984.45 0 0 1 22776806.00 12539961.00  zM 22958127.00 11023909.00 L 22863921.00 11023909.00 L 22863921.00 10627123.00 L 22958127.00 10627123.00 L 22958127.00 11023909.00  zM 23056890.00 10976806.00 L 23056890.00 10674226.00 A 50984.45 50984.45 0 0 1 23158858.00 10674226.00 L 23158858.00 10976806.00 A 50984.45 50984.45 0 0 1 23056890.00 10976806.00  zM 23253741.00 10976806.00 L 23253741.00 10674226.00 A 50984.45 50984.45 0 0 1 23355709.00 10674226.00 L 23355709.00 10976806.00 A 50984.45 50984.45 0 0 1 23253741.00 10976806.00  zM 23450591.00 10976806.00 L 23450591.00 10674226.00 A 50984.45 50984.45 0 1 1 23552559.00 10674226.00 L 23552559.00 10976806.00 A 50984.45 50984.45 0 0 1 23450591.00 10976806.00  zM 23647441.00 10976806.00 L 23647441.00 10674226.00 A 50984.45 50984.45 0 0 1 23749409.00 10674226.00 L 23749409.00 10976806.00 A 50984.45 50984.45 0 0 1 23647441.00 10976806.00  zM 23844292.00 10976806.00 L 23844292.00 10674226.00 A 50984.45 50984.45 0 1 1 23946260.00 10674226.00 L 23946260.00 10976806.00 A 50984.45 50984.45 0 0 1 23844292.00 10976806.00  zM 24041142.00 10976806.00 L 24041142.00 10674226.00 A 50984.45 50984.45 0 0 1 24143110.00 10674226.00 L 24143110.00 10976806.00 A 50984.45 50984.45 0 0 1 24041142.00 10976806.00  zM 24237993.00 10976806.00 L 24237993.00 10674226.00 A 50984.45 50984.45 0 0 1 24339961.00 10674226.00 L 24339961.00 10976806.00 A 50984.45 50984.45 0 0 1 24237993.00 10976806.00  zM 24725775.00 11555709.00 L 24423195.00 11555709.00 A 50984.45 50984.45 0 0 1 24423195.00 11453741.00 L 24725775.00 11453741.00 A 50984.45 50984.45 0 1 1 24725775.00 11555709.00  zM 24229921.00 12429921.00 L 22970079.00 12429921.00 L 22970079.00 11170079.00 L 24229921.00 11170079.00 L 24229921.00 12429921.00  zM 23647441.00 12925775.00 L 23647441.00 12623195.00 A 50984.45 50984.45 0 0 1 23749409.00 12623195.00 L 23749409.00 12925775.00 A 50984.45 50984.45 0 0 1 23647441.00 12925775.00  zM 23253741.00 12925775.00 L 23253741.00 12623195.00 A 50984.45 50984.45 0 0 1 23355709.00 12623195.00 L 23355709.00 12925775.00 A 50984.45 50984.45 0 0 1 23253741.00 12925775.00  zM 22860039.00 12925775.00 L 22860039.00 12623195.00 A 50984.45 50984.45 0 0 1 22962007.00 12623195.00 L 22962007.00 12925775.00 A 50984.45 50984.45 0 0 1 22860039.00 12925775.00  zM 24237993.00 12925775.00 L 24237993.00 12623195.00 A 50984.45 50984.45 0 0 1 24339961.00 12623195.00 L 24339961.00 12925775.00 A 50984.45 50984.45 0 0 1 24237993.00 12925775.00  zM 23056889.00 12925775.00 L 23056889.00 12623195.00 A 50984.45 50984.45 0 0 1 23158857.00 12623195.00 L 23158857.00 12925775.00 A 50984.45 50984.45 0 0 1 23056889.00 12925775.00  zM 23450591.00 12925775.00 L 23450591.00 12623195.00 A 50984.45 50984.45 0 0 1 23552559.00 12623195.00 L 23552559.00 12925775.00 A 50984.45 50984.45 0 0 1 23450591.00 12925775.00  zM 23844292.00 12925775.00 L 23844292.00 12623195.00 A 50984.45 50984.45 0 0 1 23946260.00 12623195.00 L 23946260.00 12925775.00 A 50984.45 50984.45 0 0 1 23844292.00 12925775.00  zM 24041143.00 12925775.00 L 24041143.00 12623195.00 A 50984.45 50984.45 0 0 1 24143111.00 12623195.00 L 24143111.00 12925775.00 A 50984.45 50984.45 0 0 1 24041143.00 12925775.00  zM 24756298.00 4249999.00 L 24520078.00 4249999.00 L 24520078.00 3580709.00 L 24756298.00 3580709.00 L 24756298.00 4249999.00  zM 25248425.00 4249999.00 L 25012205.00 4249999.00 L 25012205.00 3580709.00 L 25248425.00 3580709.00 L 25248425.00 4249999.00  zM 25740550.00 4249999.00 L 25504330.00 4249999.00 L 25504330.00 3580709.00 L 25740550.00 3580709.00 L 25740550.00 4249999.00  zM 27039762.00 3147638.00 L 26646062.00 3147638.00 L 26646062.00 2045276.00 L 27039762.00 2045276.00 L 27039762.00 3147638.00  zM 26232677.00 4249999.00 L 25996457.00 4249999.00 L 25996457.00 3580709.00 L 26232677.00 3580709.00 L 26232677.00 4249999.00  zM 25829528.00 5579331.00 L 25470472.00 5579331.00 L 25470472.00 4870275.00 L 25829528.00 4870275.00 L 25829528.00 5579331.00  zM 27622834.00 4759055.00 L 27347244.00 4759055.00 L 27347244.00 4483465.00 L 27622834.00 4483465.00 L 27622834.00 4759055.00  zM 28034645.00 4238189.00 L 27365355.00 4238189.00 L 27365355.00 3864173.00 L 28034645.00 3864173.00 L 28034645.00 4238189.00  zM 27622834.00 5152756.00 L 27347244.00 5152756.00 L 27347244.00 4877166.00 L 27622834.00 4877166.00 L 27622834.00 5152756.00  zM 24829528.00 5579331.00 L 24470472.00 5579331.00 L 24470472.00 4870275.00 L 24829528.00 4870275.00 L 24829528.00 5579331.00  zM 25329528.00 5579331.00 L 24970472.00 5579331.00 L 24970472.00 4870275.00 L 25329528.00 4870275.00 L 25329528.00 5579331.00  zM 25329528.00 8929725.00 L 24970472.00 8929725.00 L 24970472.00 8220669.00 L 25329528.00 8220669.00 L 25329528.00 8929725.00  zM 24829528.00 8929725.00 L 24470472.00 8929725.00 L 24470472.00 8220669.00 L 24829528.00 8220669.00 L 24829528.00 8929725.00  zM 25829528.00 8929725.00 L 25470472.00 8929725.00 L 25470472.00 8220669.00 L 25829528.00 8220669.00 L 25829528.00 8929725.00  zM 26864660.00 9156564.00 L 26678648.00 9156564.00 L 26678648.00 8953672.00 L 26864660.00 8953672.00 L 26864660.00 9156564.00  zM 26864660.00 9454645.00 L 26678648.00 9454645.00 L 26678648.00 9251753.00 L 26864660.00 9251753.00 L 26864660.00 9454645.00  zM 26662205.00 10437795.00 L 26406299.00 10437795.00 L 26406299.00 10162205.00 L 26662205.00 10162205.00 L 26662205.00 10437795.00  zM 27193701.00 10437795.00 L 26937795.00 10437795.00 L 26937795.00 10162205.00 L 27193701.00 10162205.00 L 27193701.00 10437795.00  zM 28034645.00 3135827.00 L 27365355.00 3135827.00 L 27365355.00 2761811.00 L 28034645.00 2761811.00 L 28034645.00 3135827.00  zM 27977166.00 4759055.00 L 27701576.00 4759055.00 L 27701576.00 4483465.00 L 27977166.00 4483465.00 L 27977166.00 4759055.00  zM 33464567.28 1968492.62 m -1609303.38 0 a 1609303.38 1609303.38 0 1 1 3218606.77 0a 1609303.38 1609303.38 0 1 1 -3218606.77 0M 27977166.00 5152756.00 L 27701576.00 5152756.00 L 27701576.00 4877166.00 L 27977166.00 4877166.00 L 27977166.00 5152756.00  zM 33375985.00 8769685.00 L 32312993.00 8769685.00 L 32312993.00 8375985.00 L 33375985.00 8375985.00 L 33375985.00 8769685.00  zM 28652324.00 9341603.00 L 28432324.00 9341603.00 L 28432324.00 9051603.00 L 28652324.00 9051603.00 L 28652324.00 9341603.00  zM 29402324.00 9341603.00 L 29182324.00 9341603.00 L 29182324.00 9051603.00 L 29402324.00 9051603.00 L 29402324.00 9341603.00  zM 30944883.00 9848425.00 L 29803151.00 9848425.00 L 29803151.00 9112205.00 L 29881891.00 9112205.00 L 29881891.00 8950787.00 L 30098427.00 8950787.00 L 30098427.00 9112205.00 L 30137796.00 9112205.00 L 30137796.00 8950787.00 L 30354332.00 8950787.00 L 30354332.00 9112205.00 L 30393702.00 9112205.00 L 30393702.00 8950787.00 L 30610238.00 8950787.00 L 30610238.00 9112205.00 L 30649607.00 9112205.00 L 30649607.00 8950787.00 L 30866143.00 8950787.00 L 30866143.00 9112205.00 L 30944883.00 9112205.00 L 30944883.00 9848425.00  zM 31919292.00 9419291.00 L 31250002.00 9419291.00 L 31250002.00 9183071.00 L 31919292.00 9183071.00 L 31919292.00 9419291.00  zM 29027324.00 10121626.00 L 28807324.00 10121626.00 L 28807324.00 9831626.00 L 29027324.00 9831626.00 L 29027324.00 10121626.00  zM 29126748.00 10604817.00 L 28903058.00 10604817.00 L 28903058.00 10379435.00 L 29126748.00 10379435.00 L 29126748.00 10604817.00  zM 29482770.00 10604817.00 L 29259080.00 10604817.00 L 29259080.00 10379435.00 L 29482770.00 10379435.00 L 29482770.00 10604817.00  zM 30098427.00 10328740.00 L 29881891.00 10328740.00 L 29881891.00 10053150.00 L 30098427.00 10053150.00 L 30098427.00 10328740.00  zM 30354332.00 10328740.00 L 30137796.00 10328740.00 L 30137796.00 10053150.00 L 30354332.00 10053150.00 L 30354332.00 10328740.00  zM 30610238.00 10328740.00 L 30393702.00 10328740.00 L 30393702.00 10053150.00 L 30610238.00 10053150.00 L 30610238.00 10328740.00  zM 30866143.00 10328740.00 L 30649607.00 10328740.00 L 30649607.00 10053150.00 L 30866143.00 10053150.00 L 30866143.00 10328740.00  zM 31919292.00 9911417.00 L 31250002.00 9911417.00 L 31250002.00 9675197.00 L 31919292.00 9675197.00 L 31919292.00 9911417.00  zM 33375985.00 10718503.00 L 32312993.00 10718503.00 L 32312993.00 10324803.00 L 33375985.00 10324803.00 L 33375985.00 10718503.00  zM 24725775.00 11162007.00 L 24423195.00 11162007.00 A 50984.45 50984.45 0 0 1 24423195.00 11060039.00 L 24725775.00 11060039.00 A 50984.45 50984.45 0 1 1 24725775.00 11162007.00  zM 24725775.00 11358857.00 L 24423195.00 11358857.00 A 50984.45 50984.45 0 0 1 24423195.00 11256889.00 L 24725775.00 11256889.00 A 50984.45 50984.45 0 1 1 24725775.00 11358857.00  zM 24725775.00 11752559.00 L 24423195.00 11752559.00 A 50984.45 50984.45 0 0 1 24423195.00 11650591.00 L 24725775.00 11650591.00 A 50984.45 50984.45 0 1 1 24725775.00 11752559.00  zM 24725775.00 11949409.00 L 24423195.00 11949409.00 A 50984.45 50984.45 0 0 1 24423195.00 11847441.00 L 24725775.00 11847441.00 A 50984.45 50984.45 0 1 1 24725775.00 11949409.00  zM 24725775.00 12146260.00 L 24423195.00 12146260.00 A 50984.45 50984.45 0 0 1 24423195.00 12044292.00 L 24725775.00 12044292.00 A 50984.45 50984.45 0 1 1 24725775.00 12146260.00  zM 24725775.00 12539961.00 L 24423195.00 12539961.00 A 50984.45 50984.45 0 0 1 24423195.00 12437993.00 L 24725775.00 12437993.00 A 50984.45 50984.45 0 1 1 24725775.00 12539961.00  zM 24725775.00 12343111.00 L 24423195.00 12343111.00 A 50984.45 50984.45 0 0 1 24423195.00 12241143.00 L 24725775.00 12241143.00 A 50984.45 50984.45 0 1 1 24725775.00 12343111.00  zM 25493006.00 12452406.00 L 25306994.00 12452406.00 L 25306994.00 12249514.00 L 25493006.00 12249514.00 L 25493006.00 12452406.00  zM 25493006.00 12750487.00 L 25306994.00 12750487.00 L 25306994.00 12547595.00 L 25493006.00 12547595.00 L 25493006.00 12750487.00  zM 25611417.00 11418110.00 L 25375197.00 11418110.00 L 25375197.00 11181890.00 L 25611417.00 11181890.00 L 25611417.00 11418110.00  zM 26601446.00 10893006.00 L 26398554.00 10893006.00 L 26398554.00 10706994.00 L 26601446.00 10706994.00 L 26601446.00 10893006.00  zM 26611652.00 11423359.00 L 26395116.00 11423359.00 L 26395116.00 11167453.00 L 26611652.00 11167453.00 L 26611652.00 11423359.00  zM 26899527.00 10893006.00 L 26696635.00 10893006.00 L 26696635.00 10706994.00 L 26899527.00 10706994.00 L 26899527.00 10893006.00  zM 27054566.00 11423359.00 L 26700234.00 11423359.00 L 26700234.00 11167453.00 L 27054566.00 11167453.00 L 27054566.00 11423359.00  zM 26024803.00 11418110.00 L 25788583.00 11418110.00 L 25788583.00 11181890.00 L 26024803.00 11181890.00 L 26024803.00 11418110.00  zM 26965983.00 12368241.00 L 26395117.00 12368241.00 L 26395117.00 12112335.00 L 26965983.00 12112335.00 L 26965983.00 12368241.00  zM 25993006.00 12452406.00 L 25806994.00 12452406.00 L 25806994.00 12249514.00 L 25993006.00 12249514.00 L 25993006.00 12452406.00  zM 25993006.00 12750487.00 L 25806994.00 12750487.00 L 25806994.00 12547595.00 L 25993006.00 12547595.00 L 25993006.00 12750487.00  zM 27359684.00 12368241.00 L 27143148.00 12368241.00 L 27143148.00 12112335.00 L 27359684.00 12112335.00 L 27359684.00 12368241.00  zM 27052405.00 12793006.00 L 26849513.00 12793006.00 L 26849513.00 12606994.00 L 27052405.00 12606994.00 L 27052405.00 12793006.00  zM 27350486.00 12793006.00 L 27147594.00 12793006.00 L 27147594.00 12606994.00 L 27350486.00 12606994.00 L 27350486.00 12793006.00  zM 27359684.00 11423359.00 L 27143148.00 11423359.00 L 27143148.00 11167453.00 L 27359684.00 11167453.00 L 27359684.00 11423359.00  zM 28660660.00 11881311.00 L 28440660.00 11881311.00 L 28440660.00 11591311.00 L 28660660.00 11591311.00 L 28660660.00 11881311.00  zM 29410660.00 11881311.00 L 29190660.00 11881311.00 L 29190660.00 11591311.00 L 29410660.00 11591311.00 L 29410660.00 11881311.00  zM 29035660.00 12661333.00 L 28815660.00 12661333.00 L 28815660.00 12371333.00 L 29035660.00 12371333.00 L 29035660.00 12661333.00  zM 29133834.00 13112691.00 L 28910144.00 13112691.00 L 28910144.00 12887309.00 L 29133834.00 12887309.00 L 29133834.00 13112691.00  zM 29489856.00 13112691.00 L 29266166.00 13112691.00 L 29266166.00 12887309.00 L 29489856.00 12887309.00 L 29489856.00 13112691.00  zM 30958947.00 12427656.00 L 29817215.00 12427656.00 L 29817215.00 11691435.00 L 29895954.00 11691435.00 L 29895954.00 11530018.00 L 30112490.00 11530018.00 L 30112490.00 11691435.00 L 30151860.00 11691435.00 L 30151860.00 11530016.00 L 30368396.00 11530016.00 L 30368396.00 11691435.00 L 30407765.00 11691435.00 L 30407765.00 11530018.00 L 30624301.00 11530018.00 L 30624301.00 11691435.00 L 30663672.00 11691435.00 L 30663672.00 11530018.00 L 30880208.00 11530018.00 L 30880208.00 11691435.00 L 30958947.00 11691435.00 L 30958947.00 12427656.00  zM 30368396.00 12907970.00 L 30151860.00 12907970.00 L 30151860.00 12632380.00 L 30368396.00 12632380.00 L 30368396.00 12907970.00  zM 30624302.00 12907970.00 L 30407766.00 12907970.00 L 30407766.00 12632380.00 L 30624302.00 12632380.00 L 30624302.00 12907970.00  zM 30112491.00 12907970.00 L 29895955.00 12907970.00 L 29895955.00 12632380.00 L 30112491.00 12632380.00 L 30112491.00 12907970.00  zM 30880207.00 12907970.00 L 30663671.00 12907970.00 L 30663671.00 12632380.00 L 30880207.00 12632380.00 L 30880207.00 12907970.00  zM 31919292.00 12076770.00 L 31250002.00 12076770.00 L 31250002.00 11840550.00 L 31919292.00 11840550.00 L 31919292.00 12076770.00  zM 33375985.00 11427164.00 L 32312993.00 11427164.00 L 32312993.00 11033464.00 L 33375985.00 11033464.00 L 33375985.00 11427164.00  zM 31919292.00 12568896.00 L 31250002.00 12568896.00 L 31250002.00 12332676.00 L 31919292.00 12332676.00 L 31919292.00 12568896.00  zM 33375985.00 13375982.00 L 32312993.00 13375982.00 L 32312993.00 12982282.00 L 33375985.00 12982282.00 L 33375985.00 13375982.00  zM 19212872.00 13714701.00 L 18795290.00 13297119.00 L 19212874.00 12879535.00 L 19630456.00 13297117.00 L 19212872.00 13714701.00  zM 19491261.00 13993089.00 L 19212873.00 13714701.00 L 19630457.00 13297117.00 L 19908845.00 13575505.00 L 19491261.00 13993089.00  zM 19908844.00 14410672.00 L 19491262.00 13993090.00 L 19908846.00 13575506.00 L 20326428.00 13993088.00 L 19908844.00 14410672.00  zM 20361086.00 13628712.00 L 20229556.00 13497182.00 L 20373022.00 13353716.00 L 20504552.00 13485246.00 L 20361086.00 13628712.00  zM 20187232.00 14689060.00 L 19908844.00 14410673.00 L 20326428.00 13993089.00 L 20604816.00 14271476.00 L 20187232.00 14689060.00  zM 20571861.00 13417937.00 L 20440331.00 13286407.00 L 20583797.00 13142941.00 L 20715327.00 13274471.00 L 20571861.00 13417937.00  zM 21949814.00 14795890.00 L 21818284.00 14664360.00 L 21961750.00 14520894.00 L 22093280.00 14652424.00 L 21949814.00 14795890.00  zM 20604815.00 15106643.00 L 20187233.00 14689061.00 L 20604817.00 14271477.00 L 21022399.00 14689059.00 L 20604815.00 15106643.00  zM 21300786.00 15802614.00 L 20604816.00 15106644.00 L 21022400.00 14689060.00 L 21718370.00 15385030.00 L 21300786.00 15802614.00  zM 21739039.00 15006665.00 L 21607509.00 14875135.00 L 21750975.00 14731669.00 L 21882505.00 14863199.00 L 21739039.00 15006665.00  zM 21718369.00 16220197.00 L 21300787.00 15802615.00 L 21718371.00 15385031.00 L 22135953.00 15802613.00 L 21718369.00 16220197.00  zM 21996757.00 16498586.00 L 21718369.00 16220198.00 L 22135953.00 15802614.00 L 22414341.00 16081002.00 L 21996757.00 16498586.00  zM 22414340.00 16916168.00 L 21996758.00 16498586.00 L 22414342.00 16081002.00 L 22831924.00 16498584.00 L 22414340.00 16916168.00  zM 22414342.00 19352068.00 L 21996758.00 18934484.00 L 22414340.00 18516902.00 L 22831924.00 18934486.00 L 22414342.00 19352068.00  zM 22831925.00 18934485.00 L 22414341.00 18516901.00 L 22692729.00 18238513.00 L 23110313.00 18656097.00 L 22831925.00 18934485.00  zM 22135953.00 19630456.00 L 21718369.00 19212872.00 L 21996757.00 18934484.00 L 22414341.00 19352068.00 L 22135953.00 19630456.00  zM 21718371.00 20048039.00 L 21300787.00 19630455.00 L 21718369.00 19212873.00 L 22135953.00 19630457.00 L 21718371.00 20048039.00  zM 20604817.00 21161593.00 L 20187233.00 20744009.00 L 20604815.00 20326427.00 L 21022399.00 20744011.00 L 20604817.00 21161593.00  zM 21022400.00 20744010.00 L 20604816.00 20326426.00 L 21300786.00 19630456.00 L 21718370.00 20048040.00 L 21022400.00 20744010.00  zM 24911417.00 13818110.00 L 24675197.00 13818110.00 L 24675197.00 13581890.00 L 24911417.00 13581890.00 L 24911417.00 13818110.00  zM 25324803.00 13818110.00 L 25088583.00 13818110.00 L 25088583.00 13581890.00 L 25324803.00 13581890.00 L 25324803.00 13818110.00  zM 24911417.00 14318110.00 L 24675197.00 14318110.00 L 24675197.00 14081890.00 L 24911417.00 14081890.00 L 24911417.00 14318110.00  zM 25324803.00 14318110.00 L 25088583.00 14318110.00 L 25088583.00 14081890.00 L 25324803.00 14081890.00 L 25324803.00 14318110.00  zM 25821260.00 13798425.00 L 25545670.00 13798425.00 L 25545670.00 13601575.00 L 25821260.00 13601575.00 L 25821260.00 13798425.00  zM 26254330.00 13798425.00 L 25978740.00 13798425.00 L 25978740.00 13601575.00 L 26254330.00 13601575.00 L 26254330.00 13798425.00  zM 26254330.00 14298425.00 L 25978740.00 14298425.00 L 25978740.00 14101575.00 L 26254330.00 14101575.00 L 26254330.00 14298425.00  zM 26862205.00 13337795.00 L 26606299.00 13337795.00 L 26606299.00 13062205.00 L 26862205.00 13062205.00 L 26862205.00 13337795.00  zM 27393701.00 13337795.00 L 27137795.00 13337795.00 L 27137795.00 13062205.00 L 27393701.00 13062205.00 L 27393701.00 13337795.00  zM 22692729.00 17194557.00 L 22414341.00 16916169.00 L 22831925.00 16498585.00 L 23110313.00 16776973.00 L 22692729.00 17194557.00  zM 23510692.00 16975168.00 L 23379162.00 16843638.00 L 23522628.00 16700172.00 L 23654158.00 16831702.00 L 23510692.00 16975168.00  zM 23721467.00 16764393.00 L 23589937.00 16632863.00 L 23733403.00 16489397.00 L 23864933.00 16620927.00 L 23721467.00 16764393.00  zM 22971117.00 17472946.00 L 22692729.00 17194558.00 L 23110313.00 16776974.00 L 23388701.00 17055362.00 L 22971117.00 17472946.00  zM 23110313.00 18656096.00 L 22692729.00 18238512.00 L 22971117.00 17960124.00 L 23388701.00 18377708.00 L 23110313.00 18656096.00  zM 25821260.00 14298425.00 L 25545670.00 14298425.00 L 25545670.00 14101575.00 L 25821260.00 14101575.00 L 25821260.00 14298425.00  zM 28652324.00 14656561.00 L 28432324.00 14656561.00 L 28432324.00 14366561.00 L 28652324.00 14366561.00 L 28652324.00 14656561.00  zM 28652324.00 17314040.00 L 28432324.00 17314040.00 L 28432324.00 17024040.00 L 28652324.00 17024040.00 L 28652324.00 17314040.00  zM 28652324.00 19971519.00 L 28432324.00 19971519.00 L 28432324.00 19681519.00 L 28652324.00 19681519.00 L 28652324.00 19971519.00  zM 29402324.00 14656561.00 L 29182324.00 14656561.00 L 29182324.00 14366561.00 L 29402324.00 14366561.00 L 29402324.00 14656561.00  zM 29027324.00 15436584.00 L 28807324.00 15436584.00 L 28807324.00 15146584.00 L 29027324.00 15146584.00 L 29027324.00 15436584.00  zM 30098427.00 15643698.00 L 29881891.00 15643698.00 L 29881891.00 15368108.00 L 30098427.00 15368108.00 L 30098427.00 15643698.00  zM 30944883.00 15163383.00 L 29803151.00 15163383.00 L 29803151.00 14427163.00 L 29881891.00 14427163.00 L 29881891.00 14265745.00 L 30098427.00 14265745.00 L 30098427.00 14427163.00 L 30137796.00 14427163.00 L 30137796.00 14265745.00 L 30354332.00 14265745.00 L 30354332.00 14427163.00 L 30393702.00 14427163.00 L 30393702.00 14265745.00 L 30610238.00 14265745.00 L 30610238.00 14427163.00 L 30649607.00 14427163.00 L 30649607.00 14265745.00 L 30866143.00 14265745.00 L 30866143.00 14427163.00 L 30944883.00 14427163.00 L 30944883.00 15163383.00  zM 30354332.00 15643698.00 L 30137796.00 15643698.00 L 30137796.00 15368108.00 L 30354332.00 15368108.00 L 30354332.00 15643698.00  zM 29126748.00 15919775.00 L 28903058.00 15919775.00 L 28903058.00 15694393.00 L 29126748.00 15694393.00 L 29126748.00 15919775.00  zM 29482770.00 15919775.00 L 29259080.00 15919775.00 L 29259080.00 15694393.00 L 29482770.00 15694393.00 L 29482770.00 15919775.00  zM 29402324.00 17314040.00 L 29182324.00 17314040.00 L 29182324.00 17024040.00 L 29402324.00 17024040.00 L 29402324.00 17314040.00  zM 30944883.00 17820862.00 L 29803151.00 17820862.00 L 29803151.00 17084642.00 L 29881891.00 17084642.00 L 29881891.00 16923224.00 L 30098427.00 16923224.00 L 30098427.00 17084642.00 L 30137796.00 17084642.00 L 30137796.00 16923224.00 L 30354332.00 16923224.00 L 30354332.00 17084642.00 L 30393702.00 17084642.00 L 30393702.00 16923224.00 L 30610238.00 16923224.00 L 30610238.00 17084642.00 L 30649607.00 17084642.00 L 30649607.00 16923224.00 L 30866143.00 16923224.00 L 30866143.00 17084642.00 L 30944883.00 17084642.00 L 30944883.00 17820862.00  zM 30610238.00 15643698.00 L 30393702.00 15643698.00 L 30393702.00 15368108.00 L 30610238.00 15368108.00 L 30610238.00 15643698.00  zM 30866143.00 15643698.00 L 30649607.00 15643698.00 L 30649607.00 15368108.00 L 30866143.00 15368108.00 L 30866143.00 15643698.00  zM 31919292.00 15226375.00 L 31250002.00 15226375.00 L 31250002.00 14990155.00 L 31919292.00 14990155.00 L 31919292.00 15226375.00  zM 31919292.00 14734249.00 L 31250002.00 14734249.00 L 31250002.00 14498029.00 L 31919292.00 14498029.00 L 31919292.00 14734249.00  zM 33375985.00 14084643.00 L 32312993.00 14084643.00 L 32312993.00 13690943.00 L 33375985.00 13690943.00 L 33375985.00 14084643.00  zM 33375985.00 16033461.00 L 32312993.00 16033461.00 L 32312993.00 15639761.00 L 33375985.00 15639761.00 L 33375985.00 16033461.00  zM 33375985.00 16742122.00 L 32312993.00 16742122.00 L 32312993.00 16348422.00 L 33375985.00 16348422.00 L 33375985.00 16742122.00  zM 31919292.00 17391728.00 L 31250002.00 17391728.00 L 31250002.00 17155508.00 L 31919292.00 17155508.00 L 31919292.00 17391728.00  zM 31919292.00 17883854.00 L 31250002.00 17883854.00 L 31250002.00 17647634.00 L 31919292.00 17647634.00 L 31919292.00 17883854.00  zM 29027324.00 18094063.00 L 28807324.00 18094063.00 L 28807324.00 17804063.00 L 29027324.00 17804063.00 L 29027324.00 18094063.00  zM 29126748.00 18577254.00 L 28903058.00 18577254.00 L 28903058.00 18351872.00 L 29126748.00 18351872.00 L 29126748.00 18577254.00  zM 29482770.00 18577254.00 L 29259080.00 18577254.00 L 29259080.00 18351872.00 L 29482770.00 18351872.00 L 29482770.00 18577254.00  zM 30098427.00 18301177.00 L 29881891.00 18301177.00 L 29881891.00 18025587.00 L 30098427.00 18025587.00 L 30098427.00 18301177.00  zM 30354332.00 18301177.00 L 30137796.00 18301177.00 L 30137796.00 18025587.00 L 30354332.00 18025587.00 L 30354332.00 18301177.00  zM 29402324.00 19971519.00 L 29182324.00 19971519.00 L 29182324.00 19681519.00 L 29402324.00 19681519.00 L 29402324.00 19971519.00  zM 29027324.00 20751542.00 L 28807324.00 20751542.00 L 28807324.00 20461542.00 L 29027324.00 20461542.00 L 29027324.00 20751542.00  zM 30098427.00 20958656.00 L 29881891.00 20958656.00 L 29881891.00 20683066.00 L 30098427.00 20683066.00 L 30098427.00 20958656.00  zM 30354332.00 20958656.00 L 30137796.00 20958656.00 L 30137796.00 20683066.00 L 30354332.00 20683066.00 L 30354332.00 20958656.00  zM 30610238.00 18301177.00 L 30393702.00 18301177.00 L 30393702.00 18025587.00 L 30610238.00 18025587.00 L 30610238.00 18301177.00  zM 30866143.00 18301177.00 L 30649607.00 18301177.00 L 30649607.00 18025587.00 L 30866143.00 18025587.00 L 30866143.00 18301177.00  zM 30944883.00 20478341.00 L 29803151.00 20478341.00 L 29803151.00 19742121.00 L 29881891.00 19742121.00 L 29881891.00 19580703.00 L 30098427.00 19580703.00 L 30098427.00 19742121.00 L 30137796.00 19742121.00 L 30137796.00 19580703.00 L 30354332.00 19580703.00 L 30354332.00 19742121.00 L 30393702.00 19742121.00 L 30393702.00 19580703.00 L 30610238.00 19580703.00 L 30610238.00 19742121.00 L 30649607.00 19742121.00 L 30649607.00 19580703.00 L 30866143.00 19580703.00 L 30866143.00 19742121.00 L 30944883.00 19742121.00 L 30944883.00 20478341.00  zM 30610238.00 20958656.00 L 30393702.00 20958656.00 L 30393702.00 20683066.00 L 30610238.00 20683066.00 L 30610238.00 20958656.00  zM 30866143.00 20958656.00 L 30649607.00 20958656.00 L 30649607.00 20683066.00 L 30866143.00 20683066.00 L 30866143.00 20958656.00  zM 33375985.00 18690940.00 L 32312993.00 18690940.00 L 32312993.00 18297240.00 L 33375985.00 18297240.00 L 33375985.00 18690940.00  zM 33375985.00 19399601.00 L 32312993.00 19399601.00 L 32312993.00 19005901.00 L 33375985.00 19005901.00 L 33375985.00 19399601.00  zM 31919292.00 20049207.00 L 31250002.00 20049207.00 L 31250002.00 19812987.00 L 31919292.00 19812987.00 L 31919292.00 20049207.00  zM 31919292.00 20541333.00 L 31250002.00 20541333.00 L 31250002.00 20305113.00 L 31919292.00 20305113.00 L 31919292.00 20541333.00  zM 19212874.00 22553535.00 L 18795290.00 22135951.00 L 19212872.00 21718369.00 L 19630456.00 22135953.00 L 19212874.00 22553535.00  zM 18934486.00 22831924.00 L 18516902.00 22414340.00 L 18795290.00 22135952.00 L 19212874.00 22553536.00 L 18934486.00 22831924.00  zM 19283382.00 22958219.00 L 19139916.00 22814753.00 L 19271446.00 22683223.00 L 19414912.00 22826689.00 L 19283382.00 22958219.00  zM 18516903.00 23249507.00 L 18099319.00 22831923.00 L 18516901.00 22414341.00 L 18934485.00 22831925.00 L 18516903.00 23249507.00  zM 18995069.00 23260457.00 L 18851603.00 23116991.00 L 18983133.00 22985461.00 L 19126599.00 23128927.00 L 18995069.00 23260457.00  zM 19630457.00 22135953.00 L 19212873.00 21718369.00 L 19491261.00 21439981.00 L 19908845.00 21857565.00 L 19630457.00 22135953.00  zM 19585620.00 22669906.00 L 19442154.00 22526440.00 L 19573684.00 22394910.00 L 19717150.00 22538376.00 L 19585620.00 22669906.00  zM 19494157.00 23168994.00 L 19350691.00 23025528.00 L 19482221.00 22893998.00 L 19625687.00 23037464.00 L 19494157.00 23168994.00  zM 19796395.00 22880681.00 L 19652929.00 22737215.00 L 19784459.00 22605685.00 L 19927925.00 22749151.00 L 19796395.00 22880681.00  zM 19908846.00 21857564.00 L 19491262.00 21439980.00 L 19908844.00 21022398.00 L 20326428.00 21439982.00 L 19908846.00 21857564.00  zM 20326428.00 21439981.00 L 19908844.00 21022397.00 L 20187232.00 20744010.00 L 20604816.00 21161594.00 L 20465621.50 21300787.50 L 20326428.00 21439981.00  zM 21357274.00 21095103.00 L 21213808.00 20951637.00 L 21345338.00 20820107.00 L 21488804.00 20963573.00 L 21357274.00 21095103.00  zM 20080720.00 22440945.00 L 19899767.00 22259992.00 L 20094638.00 22065121.00 L 20275591.00 22246074.00 L 20080720.00 22440945.00  zM 20456544.00 22816769.00 L 20275591.00 22635816.00 L 20470462.00 22440945.00 L 20651415.00 22621898.00 L 20456544.00 22816769.00  zM 21568049.00 21305878.00 L 21424583.00 21162412.00 L 21556113.00 21030882.00 L 21699579.00 21174348.00 L 21568049.00 21305878.00  zM 28652324.00 22628998.00 L 28432324.00 22628998.00 L 28432324.00 22338998.00 L 28652324.00 22338998.00 L 28652324.00 22628998.00  zM 29126748.00 21234733.00 L 28903058.00 21234733.00 L 28903058.00 21009351.00 L 29126748.00 21009351.00 L 29126748.00 21234733.00  zM 29027324.00 23409021.00 L 28807324.00 23409021.00 L 28807324.00 23119021.00 L 29027324.00 23119021.00 L 29027324.00 23409021.00  zM 18702767.00 23818898.00 L 18521814.00 23637945.00 L 18716685.00 23443074.00 L 18897638.00 23624027.00 L 18702767.00 23818898.00  zM 19205844.00 23471232.00 L 19062378.00 23327766.00 L 19193908.00 23196236.00 L 19337374.00 23339702.00 L 19205844.00 23471232.00  zM 19078591.00 24194722.00 L 18897638.00 24013769.00 L 19092509.00 23818898.00 L 19273462.00 23999851.00 L 19078591.00 24194722.00  zM 23772047.00 31838976.00 L 23535827.00 31838976.00 L 23535827.00 31169686.00 L 23772047.00 31169686.00 L 23772047.00 31838976.00  zM 24264173.00 31838976.00 L 24027953.00 31838976.00 L 24027953.00 31169686.00 L 24264173.00 31169686.00 L 24264173.00 31838976.00  zM 23122441.00 33295669.00 L 22728741.00 33295669.00 L 22728741.00 32232677.00 L 23122441.00 32232677.00 L 23122441.00 33295669.00  zM 25071259.00 33295669.00 L 24677559.00 33295669.00 L 24677559.00 32232677.00 L 25071259.00 32232677.00 L 25071259.00 33295669.00  zM 26472047.00 31838976.00 L 26235827.00 31838976.00 L 26235827.00 31169686.00 L 26472047.00 31169686.00 L 26472047.00 31838976.00  zM 25822441.00 33295669.00 L 25428741.00 33295669.00 L 25428741.00 32232677.00 L 25822441.00 32232677.00 L 25822441.00 33295669.00  zM 29126748.00 23892212.00 L 28903058.00 23892212.00 L 28903058.00 23666830.00 L 29126748.00 23666830.00 L 29126748.00 23892212.00  zM 28652324.00 25286477.00 L 28432324.00 25286477.00 L 28432324.00 24996477.00 L 28652324.00 24996477.00 L 28652324.00 25286477.00  zM 29027324.00 26066500.00 L 28807324.00 26066500.00 L 28807324.00 25776500.00 L 29027324.00 25776500.00 L 29027324.00 26066500.00  zM 29126748.00 26549691.00 L 28903058.00 26549691.00 L 28903058.00 26324309.00 L 29126748.00 26324309.00 L 29126748.00 26549691.00  zM 28652324.00 27943956.00 L 28432324.00 27943956.00 L 28432324.00 27653956.00 L 28652324.00 27653956.00 L 28652324.00 27943956.00  zM 29027324.00 28723979.00 L 28807324.00 28723979.00 L 28807324.00 28433979.00 L 29027324.00 28433979.00 L 29027324.00 28723979.00  zM 29126748.00 29207170.00 L 28903058.00 29207170.00 L 28903058.00 28981788.00 L 29126748.00 28981788.00 L 29126748.00 29207170.00  zM 26964173.00 31838976.00 L 26727953.00 31838976.00 L 26727953.00 31169686.00 L 26964173.00 31169686.00 L 26964173.00 31838976.00  zM 27771259.00 33295669.00 L 27377559.00 33295669.00 L 27377559.00 32232677.00 L 27771259.00 32232677.00 L 27771259.00 33295669.00  zM 29482770.00 21234733.00 L 29259080.00 21234733.00 L 29259080.00 21009351.00 L 29482770.00 21009351.00 L 29482770.00 21234733.00  zM 29402324.00 22628998.00 L 29182324.00 22628998.00 L 29182324.00 22338998.00 L 29402324.00 22338998.00 L 29402324.00 22628998.00  zM 30944883.00 23135820.00 L 29803151.00 23135820.00 L 29803151.00 22399600.00 L 29881891.00 22399600.00 L 29881891.00 22238182.00 L 30098427.00 22238182.00 L 30098427.00 22399600.00 L 30137796.00 22399600.00 L 30137796.00 22238182.00 L 30354332.00 22238182.00 L 30354332.00 22399600.00 L 30393702.00 22399600.00 L 30393702.00 22238182.00 L 30610238.00 22238182.00 L 30610238.00 22399600.00 L 30649607.00 22399600.00 L 30649607.00 22238182.00 L 30866143.00 22238182.00 L 30866143.00 22399600.00 L 30944883.00 22399600.00 L 30944883.00 23135820.00  zM 30098427.00 23616135.00 L 29881891.00 23616135.00 L 29881891.00 23340545.00 L 30098427.00 23340545.00 L 30098427.00 23616135.00  zM 30610238.00 23616135.00 L 30393702.00 23616135.00 L 30393702.00 23340545.00 L 30610238.00 23340545.00 L 30610238.00 23616135.00  zM 33375985.00 21348419.00 L 32312993.00 21348419.00 L 32312993.00 20954719.00 L 33375985.00 20954719.00 L 33375985.00 21348419.00  zM 33375985.00 22057080.00 L 32312993.00 22057080.00 L 32312993.00 21663380.00 L 33375985.00 21663380.00 L 33375985.00 22057080.00  zM 31919292.00 22706686.00 L 31250002.00 22706686.00 L 31250002.00 22470466.00 L 31919292.00 22470466.00 L 31919292.00 22706686.00  zM 31919292.00 23198812.00 L 31250002.00 23198812.00 L 31250002.00 22962592.00 L 31919292.00 22962592.00 L 31919292.00 23198812.00  zM 29482770.00 23892212.00 L 29259080.00 23892212.00 L 29259080.00 23666830.00 L 29482770.00 23666830.00 L 29482770.00 23892212.00  zM 30354332.00 23616135.00 L 30137796.00 23616135.00 L 30137796.00 23340545.00 L 30354332.00 23340545.00 L 30354332.00 23616135.00  zM 30866143.00 23616135.00 L 30649607.00 23616135.00 L 30649607.00 23340545.00 L 30866143.00 23340545.00 L 30866143.00 23616135.00  zM 29402324.00 25286477.00 L 29182324.00 25286477.00 L 29182324.00 24996477.00 L 29402324.00 24996477.00 L 29402324.00 25286477.00  zM 30944883.00 25793299.00 L 29803151.00 25793299.00 L 29803151.00 25057079.00 L 29881891.00 25057079.00 L 29881891.00 24895661.00 L 30098427.00 24895661.00 L 30098427.00 25057079.00 L 30137796.00 25057079.00 L 30137796.00 24895661.00 L 30354332.00 24895661.00 L 30354332.00 25057079.00 L 30393702.00 25057079.00 L 30393702.00 24895661.00 L 30610238.00 24895661.00 L 30610238.00 25057079.00 L 30649607.00 25057079.00 L 30649607.00 24895661.00 L 30866143.00 24895661.00 L 30866143.00 25057079.00 L 30944883.00 25057079.00 L 30944883.00 25793299.00  zM 33375985.00 24005898.00 L 32312993.00 24005898.00 L 32312993.00 23612198.00 L 33375985.00 23612198.00 L 33375985.00 24005898.00  zM 33375985.00 24714559.00 L 32312993.00 24714559.00 L 32312993.00 24320859.00 L 33375985.00 24320859.00 L 33375985.00 24714559.00  zM 31919292.00 25364165.00 L 31250002.00 25364165.00 L 31250002.00 25127945.00 L 31919292.00 25127945.00 L 31919292.00 25364165.00  zM 31919292.00 25856291.00 L 31250002.00 25856291.00 L 31250002.00 25620071.00 L 31919292.00 25620071.00 L 31919292.00 25856291.00  zM 30098427.00 26273614.00 L 29881891.00 26273614.00 L 29881891.00 25998024.00 L 30098427.00 25998024.00 L 30098427.00 26273614.00  zM 30354332.00 26273614.00 L 30137796.00 26273614.00 L 30137796.00 25998024.00 L 30354332.00 25998024.00 L 30354332.00 26273614.00  zM 30610238.00 26273614.00 L 30393702.00 26273614.00 L 30393702.00 25998024.00 L 30610238.00 25998024.00 L 30610238.00 26273614.00  zM 29482770.00 26549691.00 L 29259080.00 26549691.00 L 29259080.00 26324309.00 L 29482770.00 26324309.00 L 29482770.00 26549691.00  zM 29402324.00 27943956.00 L 29182324.00 27943956.00 L 29182324.00 27653956.00 L 29402324.00 27653956.00 L 29402324.00 27943956.00  zM 30866143.00 26273614.00 L 30649607.00 26273614.00 L 30649607.00 25998024.00 L 30866143.00 25998024.00 L 30866143.00 26273614.00  zM 31919292.00 28021644.00 L 31250002.00 28021644.00 L 31250002.00 27785424.00 L 31919292.00 27785424.00 L 31919292.00 28021644.00  zM 33375985.00 26663377.00 L 32312993.00 26663377.00 L 32312993.00 26269677.00 L 33375985.00 26269677.00 L 33375985.00 26663377.00  zM 33375985.00 27372038.00 L 32312993.00 27372038.00 L 32312993.00 26978338.00 L 33375985.00 26978338.00 L 33375985.00 27372038.00  zM 30944883.00 28450778.00 L 29803151.00 28450778.00 L 29803151.00 27714558.00 L 29881891.00 27714558.00 L 29881891.00 27553140.00 L 30098427.00 27553140.00 L 30098427.00 27714558.00 L 30137796.00 27714558.00 L 30137796.00 27553140.00 L 30354332.00 27553140.00 L 30354332.00 27714558.00 L 30393702.00 27714558.00 L 30393702.00 27553140.00 L 30610238.00 27553140.00 L 30610238.00 27714558.00 L 30649607.00 27714558.00 L 30649607.00 27553140.00 L 30866143.00 27553140.00 L 30866143.00 27714558.00 L 30944883.00 27714558.00 L 30944883.00 28450778.00  zM 30354332.00 28931093.00 L 30137796.00 28931093.00 L 30137796.00 28655503.00 L 30354332.00 28655503.00 L 30354332.00 28931093.00  zM 30098427.00 28931093.00 L 29881891.00 28931093.00 L 29881891.00 28655503.00 L 30098427.00 28655503.00 L 30098427.00 28931093.00  zM 30866143.00 28931093.00 L 30649607.00 28931093.00 L 30649607.00 28655503.00 L 30866143.00 28655503.00 L 30866143.00 28931093.00  zM 31919292.00 28513770.00 L 31250002.00 28513770.00 L 31250002.00 28277550.00 L 31919292.00 28277550.00 L 31919292.00 28513770.00  zM 29482770.00 29207170.00 L 29259080.00 29207170.00 L 29259080.00 28981788.00 L 29482770.00 28981788.00 L 29482770.00 29207170.00  zM 30610238.00 28931093.00 L 30393702.00 28931093.00 L 30393702.00 28655503.00 L 30610238.00 28655503.00 L 30610238.00 28931093.00  zM 33375985.00 29320856.00 L 32312993.00 29320856.00 L 32312993.00 28927156.00 L 33375985.00 28927156.00 L 33375985.00 29320856.00  zM 33464567.28 33464555.62 m -1609303.38 0 a 1609303.38 1609303.38 0 1 1 3218606.77 0a 1609303.38 1609303.38 0 1 1 -3218606.77 0"/>
</g>
</svg>
