**ABCDEFGHIJKLMNOPQRSTUVWXYZabcdefghijklmnopqrstuvwxyz**************************
**PARASOLID !"#$%&'()*+,-./:;<=>?@[\]^_`{|}~0123456789**************************
**PART1;
MC=AMD64;
MC_MODEL=AMD64 Family 23 Model 1 Stepping 2, AuthenticAMD;
MC_ID=unknown;
OS=Windows_NT;
OS_RELEASE=unknown;
FRU=CAD Exchanger 3.13.0 (cadexchanger.com);
APPL=unknown;
SITE=unknown;
USER=unknown;
FORMAT=text;
GUISE=transmit;
KEY=SMD-0603_CMP-0220-00157-1;
FILE=SMD-0603_CMP-0220-00157-1.x_t;
DATE=Mon Dec 18 23:48:34 2023;
**PART2;
SCH=SCH_1200000_12103;
USFLD_SIZE=0;
**PART3;
**END_OF_HEADER*****************************************************************
T51 : TRANSMIT FILE created by modeller version 120000017 SCH_1200000_121030 74
 3 1 3 0 2 189 470 12 2 124 0 3 0 0 0 0 1000.0 1.0e-08 0 0 0 1 0 1 1 12 14 20 18
 9 19 17 70 3 0 2 0 0 4 1 20 0 4 4 1 T74 20 4 1 0 5 0 0 0 0 0 0 0 0 0 0 0 0 0 0
 0 0 0 0 0 81 1 5 7 6 13 0 0 42 0 8 80 1 6 0 7 8001 0 0 0 0 3 5 0 0 0 FFFFTFTFFF
FFFF2 79 15 7 SDL/TYSA_COLOUR83 3 8 0.2000000029802323 0.2000000029802323 0.2000
000029802323 19 9 1 0 2 11 0 10 V13 10 2 0 2 0 0 0 0 9 13 19 11 3 0 2 0 9 12 S13
 12 4 0 2 0 13 0 0 11 0 14 13 5 5 1.0e-08 40 0 15 12 14 -0 0 40 0 10 50 14 6 0 1
3 41 0 0 +-5.0e-04 -4.0002769518006485e-04 -9.7214298647945726e-06 4.27482341657
81343e-20 6.9813164408781904e-04 0.999999756306074 6.1232325035418338e-17 0.9999
99756306074 -6.9813164408781904e-04 15 15 8 0 16 13 0 17 16 0 15 24 36 17 21 19
 0 29 -18 17 9 0 16 0 22 18 ?2 29 18 10 0 17 23 0 5.0e-04 -3.8002770005394338e-0
4 -9.7353924976762976e-06 16 19 11 0 ?21 0 27 20 0 0 2 30 20 12 0 19 28 0 0 +5.0
e-04 -4.0002769518006493e-04 -9.7214298647945726e-06 6.1232325035418338e-17 0.99
9999756306074 -6.9813164408781904e-04 17 21 0 73 78 74 22 16 19 0 36 +18 22 13 0
 21 17 25 23 ?2 29 23 14 0 22 26 18 5.0e-04 3.7997211473867298e-04 -1.0265972547
183089e-05 17 24 0 15 30 16 25 29 27 0 35 -18 25 15 0 24 22 31 26 ?2 29 26 16 0
 25 32 23 -5.0e-04 -3.8002770005394334e-04 -9.7353924976762976e-06 16 27 17 0 ?2
9 19 33 28 0 0 2 30 28 18 0 27 34 20 0 +-5.0e-04 -3.8002770005394334e-04 -9.7353
924976762976e-06 1.0 -6.123233995736765e-17 -6.0185310762101123e-36 17 29 0 188
 77 129 17 24 27 0 74 +17 30 0 15 36 24 31 35 33 0 39 +18 31 19 0 30 25 46 32 ?2
 29 32 20 0 31 47 26 -5.0e-04 3.7997211473867308e-04 -1.0265972547183089e-05 16
 33 21 0 ?30 27 37 34 0 0 2 30 34 22 0 33 38 28 0 +-5.0e-04 -4.0002769518006485e
-04 -9.7214298647945726e-06 6.1232325035418338e-17 0.999999756306074 -6.98131644
08781904e-04 17 35 0 125 126 148 25 30 33 0 129 -17 36 0 15 16 30 22 39 37 0 83
 +16 37 23 0 ?36 33 48 38 0 0 2 30 38 24 0 37 49 34 0 +-5.0e-04 3.79972114738673
08e-04 -1.0265972547183089e-05 1.0 -6.123233995736765e-17 -6.0185310762101123e-3
6 17 39 0 156 151 83 31 36 37 0 148 -14 40 25 42 1.0e-08 69 13 44 12 41 +0 0 69
 13 10 50 41 26 0 40 70 14 0 +5.0e-04 -4.0002769518006493e-04 -9.721429864794572
6e-06 -6.1232325035418338e-17 -0.999999756306074 6.9813164408781904e-04 4.274823
4165781343e-20 6.9813164408781904e-04 0.999999756306074 81 1 42 27 6 40 0 0 71 5
 43 83 3 43 0.2000000029802323 0.2000000029802323 0.2000000029802323 15 44 28 0
 45 40 0 17 45 0 44 53 65 46 50 48 0 58 +18 46 29 0 45 31 51 47 ?2 29 47 30 0 46
 52 32 -5.0e-04 -4.0001373254718304e-04 1.0278565261326922e-05 16 48 31 0 ?45 37
 56 49 0 0 2 30 49 32 0 48 57 38 0 +-5.0e-04 -3.9946918986479454e-04 7.902783751
8006478e-04 -4.2748234165781343e-20 -6.9813164408781904e-04 -0.999999756306074 1
7 50 0 125 120 126 51 45 48 0 65 -18 51 33 0 50 46 54 52 ?2 29 52 34 0 51 55 47
 -5.0e-04 -3.994831524976763e-04 7.7027838005394314e-04 17 53 0 44 59 45 54 58 5
6 0 64 +18 54 35 0 53 51 60 55 ?2 29 55 36 0 54 61 52 5.0e-04 -4.000137325471830
4e-04 1.0278565261326922e-05 16 56 37 0 ?53 48 62 57 0 0 2 30 57 38 0 56 63 49 0
 +5.0e-04 -4.0001373254718304e-04 1.0278565261326922e-05 1.0 -6.123233995736765e
-17 -6.0185310762101123e-36 17 58 0 188 129 77 46 53 56 0 126 -17 59 0 44 65 53
 60 64 62 0 68 +18 60 39 0 59 54 79 61 ?2 29 61 40 0 60 80 55 5.0e-04 -3.9948315
249767634e-04 7.7027838005394314e-04 16 62 41 0 ?59 56 66 63 0 0 2 30 63 42 0 62
 67 57 0 +5.0e-04 -4.0002769518006493e-04 -9.7214298647945726e-06 4.274823416578
1343e-20 6.9813164408781904e-04 0.999999756306074 17 64 0 73 74 102 54 59 62 0 7
7 -17 65 0 44 45 59 51 68 66 0 117 +16 66 43 0 ?65 62 75 67 0 0 2 30 67 44 0 66
 76 63 0 +-5.0e-04 -3.994831524976763e-04 7.7027838005394314e-04 -1.0 6.12323399
5736765e-17 6.0185310762101123e-36 17 68 0 110 105 117 60 65 66 0 102 -14 69 45
 71 1.0e-08 106 40 73 12 70 -0 0 106 40 10 50 70 46 0 69 107 41 0 +5.0e-04 -4.00
02769518006493e-04 -9.7214298647945726e-06 -1.0 6.123233995736765e-17 6.01853107
62101123e-36 -6.1232325035418338e-17 -0.999999756306074 6.9813164408781904e-04 8
1 1 71 47 6 69 0 0 108 42 72 83 3 72 0.2000000029802323 0.2000000029802323 0.200
0000029802323 15 73 48 0 64 69 0 17 74 0 73 21 64 17 77 75 0 0 -16 75 49 0 ?77 6
6 81 76 0 0 2 31 76 50 0 75 82 67 0 +5.0e-04 -3.8001373742106162e-04 1.026460262
8445196e-05 -1.0 6.123233995736765e-17 6.0185310762101123e-36 -6.123232503541833
8e-17 -0.999999756306074 6.9813164408781904e-04 2.0e-05 17 77 0 188 58 29 54 74
 75 0 0 +17 78 0 73 84 21 79 83 81 0 89 -18 79 51 0 78 60 85 80 ?2 29 80 52 0 79
 86 61 5.0e-04 3.9998607249767626e-04 9.720059946056681e-06 16 81 53 0 ?83 75 87
 82 0 0 2 31 82 54 0 81 88 76 0 +5.0e-04 3.7998607737155474e-04 9.73402257893840
62e-06 -1.0 6.123233995736765e-17 6.0185310762101123e-36 -6.1232325035418338e-17
 -0.999999756306074 6.9813164408781904e-04 2.0e-05 17 83 0 156 39 157 22 78 81 0
 0 +17 84 0 73 90 78 85 89 87 0 95 +18 85 55 0 84 79 91 86 ?2 29 86 56 0 85 92 8
0 5.0e-04 4.0051665254718296e-04 7.6971987473867306e-04 16 87 57 0 ?84 81 93 88
 0 0 2 30 88 58 0 87 94 82 0 +5.0e-04 3.9997210986479446e-04 -1.0279935180064814
e-05 4.2748234165781343e-20 6.9813164408781904e-04 0.999999756306074 17 89 0 183
 160 178 79 84 87 0 157 -17 90 0 73 96 84 91 95 93 0 101 -18 91 59 0 90 85 97 92
 ?2 29 92 60 0 91 98 86 5.0e-04 3.8053062005394326e-04 7.8973383249767632e-04 16
 93 61 0 ?95 87 99 94 0 0 2 31 94 62 0 93 100 88 0 +5.0e-04 3.805166574210615e-0
4 7.6973383737155476e-04 -1.0 6.123233995736765e-17 6.0185310762101123e-36 -6.12
32325035418338e-17 -0.999999756306074 6.9813164408781904e-04 2.0e-05 17 95 0 174
 175 169 85 90 93 0 178 +17 96 0 73 102 90 97 101 99 0 105 -18 97 63 0 96 91 112
 98 ?2 29 98 64 0 97 113 92 5.0e-04 -3.7946919473867308e-04 7.9026441254718308e-
04 16 99 65 0 ?101 93 103 100 0 0 2 30 100 66 0 99 104 94 0 +5.0e-04 -3.99469189
86479458e-04 7.9027837518006478e-04 6.1232325035418338e-17 0.999999756306074 -6.
9813164408781904e-04 17 101 0 165 166 116 91 96 99 0 169 +17 102 0 73 64 96 60 1
05 103 0 0 -16 103 67 0 ?105 99 114 104 0 0 2 31 104 68 0 103 115 100 0 +5.0e-04
 -3.7948315737155488e-04 7.702644174210616e-04 -1.0 6.123233995736765e-17 6.0185
310762101123e-36 -6.1232325035418338e-17 -0.999999756306074 6.9813164408781904e-
04 2.0e-05 17 105 0 110 111 68 97 102 103 0 116 +14 106 69 108 1.0e-08 121 69 11
0 12 107 +0 0 121 69 10 51 107 70 0 106 122 70 0 +5.0e-04 -3.7948315737155488e-0
4 7.702644174210616e-04 -1.0 6.123233995736765e-17 6.0185310762101123e-36 2.0e-0
5 6.1232325035418338e-17 0.999999756306074 -6.9813164408781904e-04 81 1 108 71 6
 106 0 0 123 71 109 83 3 109 0.2000000029802323 0.2000000029802323 0.20000000298
02323 15 110 72 0 105 106 0 17 111 0 110 117 105 112 116 114 0 120 +18 112 73 0
 111 97 131 113 ?2 29 113 74 0 112 132 98 -5.0e-04 -3.7946919473867302e-04 7.902
6441254718308e-04 16 114 75 0 ?111 103 118 115 0 0 2 30 115 76 0 114 119 104 0 +
5.0e-04 -3.7946919473867308e-04 7.9026441254718308e-04 -1.0 6.123233995736765e-1
7 6.0185310762101123e-36 17 116 0 165 101 135 97 111 114 0 0 -17 117 0 110 68 11
1 51 120 118 0 0 +16 118 77 0 ?117 114 127 119 0 0 2 31 119 78 0 118 128 115 0 +
-5.0e-04 -3.7948315737155482e-04 7.702644174210616e-04 1.0 -6.123233995736765e-1
7 -6.0185310762101123e-36 6.1232325035418338e-17 0.999999756306074 -6.9813164408
781904e-04 2.0e-05 17 120 0 125 130 50 112 117 118 0 135 -14 121 79 123 1.0e-08
 152 106 125 12 122 -0 0 152 106 10 50 122 80 0 121 153 107 0 +-5.0e-04 -3.99469
18986479454e-04 7.9027837518006478e-04 1.0 -6.123233995736765e-17 -6.01853107621
01123e-36 6.1232325035418338e-17 0.999999756306074 -6.9813164408781904e-04 81 1
 123 81 6 121 0 0 154 108 124 83 3 124 0.2000000029802323 0.2000000029802323 0.2
000000029802323 15 125 82 0 35 121 0 17 126 0 125 50 35 46 129 127 0 0 -16 127 8
3 0 ?129 118 133 128 0 0 2 31 128 84 0 127 134 119 0 +-5.0e-04 -3.80013737421061
58e-04 1.0264602628445196e-05 1.0 -6.123233995736765e-17 -6.0185310762101123e-36
 6.1232325035418338e-17 0.999999756306074 -6.9813164408781904e-04 2.0e-05 17 129
 0 188 29 58 25 126 127 0 0 +17 130 0 125 136 120 131 135 133 0 141 +18 131 85 0
 130 112 137 132 ?2 29 132 86 0 131 138 113 -5.0e-04 3.8053062005394334e-04 7.89
73383249767632e-04 16 133 87 0 ?130 127 139 134 0 0 2 30 134 88 0 133 140 128 0
 +-5.0e-04 -3.9946918986479454e-04 7.9027837518006478e-04 6.1232325035418338e-17
 0.999999756306074 -6.9813164408781904e-04 17 135 0 165 116 166 112 130 133 0 0
 -17 136 0 125 142 130 137 141 139 0 147 -18 137 89 0 136 131 143 138 ?2 29 138
 90 0 137 144 132 -5.0e-04 4.0051665254718305e-04 7.6971987473867306e-04 16 139
 91 0 ?141 133 145 140 0 0 2 31 140 92 0 139 146 134 0 +-5.0e-04 3.8051665742106
158e-04 7.6973383737155476e-04 1.0 -6.123233995736765e-17 -6.0185310762101123e-3
6 6.1232325035418338e-17 0.999999756306074 -6.9813164408781904e-04 2.0e-05 17 14
1 0 174 169 175 131 136 139 0 166 +17 142 0 125 148 136 143 147 145 0 151 +18 14
3 93 0 142 137 0 144 ?2 29 144 94 0 143 0 138 -5.0e-04 3.9998607249767634e-04 9.
720059946056681e-06 16 145 95 0 ?142 139 149 146 0 0 2 30 146 96 0 145 150 140 0
 +-5.0e-04 4.0053061518006485e-04 7.8971986986479452e-04 -4.2748234165781343e-20
 -6.9813164408781904e-04 -0.999999756306074 17 147 0 183 178 160 137 142 145 0 1
75 -17 148 0 125 35 142 31 151 149 0 0 -16 149 97 0 ?151 145 158 150 0 0 2 31 15
0 98 0 149 159 146 0 +-5.0e-04 3.7998607737155484e-04 9.7340225789384062e-06 1.0
 -6.123233995736765e-17 -6.0185310762101123e-36 6.1232325035418338e-17 0.9999997
56306074 -6.9813164408781904e-04 2.0e-05 17 151 0 156 157 39 143 148 149 0 160 +
14 152 99 154 1.0e-08 161 121 156 12 153 +0 0 161 121 10 51 153 100 0 152 162 12
2 0 +-5.0e-04 3.7998607737155484e-04 9.7340225789384062e-06 -1.0 6.1232339957367
65e-17 6.0185310762101123e-36 2.0e-05 6.1232325035418338e-17 0.999999756306074 -
6.9813164408781904e-04 81 1 154 101 6 152 0 0 163 123 155 83 3 155 0.20000000298
02323 0.2000000029802323 0.2000000029802323 15 156 102 0 151 152 0 17 157 0 156
 83 151 79 160 158 0 0 +16 158 103 0 ?157 149 167 159 0 0 2 30 159 104 0 158 168
 150 0 +5.0e-04 3.9998607249767626e-04 9.720059946056681e-06 1.0 -6.123233995736
765e-17 -6.0185310762101123e-36 17 160 0 183 147 89 143 157 158 0 0 -14 161 105
 163 1.0e-08 170 152 165 12 162 -0 0 170 152 10 50 162 106 0 161 171 153 0 +5.0e
-04 -3.9946918986479458e-04 7.9027837518006478e-04 -4.2748234165781343e-20 -6.98
13164408781904e-04 -0.999999756306074 -6.1232325035418338e-17 -0.999999756306074
 6.9813164408781904e-04 81 1 163 107 6 161 0 0 172 154 164 83 3 164 0.2000000029
802323 0.2000000029802323 0.2000000029802323 15 165 108 0 101 161 0 17 166 0 165
 135 101 131 169 167 0 0 +16 167 109 0 ?166 158 176 168 0 0 2 30 168 110 0 167 1
77 159 0 +5.0e-04 3.8053062005394326e-04 7.8973383249767632e-04 -1.0 6.123233995
736765e-17 6.0185310762101123e-36 17 169 0 174 95 141 91 166 167 0 0 -14 170 111
 172 1.0e-08 179 161 174 12 171 +0 0 179 161 10 51 171 112 0 170 180 162 0 +5.0e
-04 3.805166574210615e-04 7.6973383737155476e-04 1.0 -6.123233995736765e-17 -6.0
185310762101123e-36 2.0e-05 -6.1232325035418338e-17 -0.999999756306074 6.9813164
408781904e-04 81 1 172 113 6 170 0 0 181 163 173 83 3 173 0.2000000029802323 0.2
000000029802323 0.2000000029802323 15 174 114 0 95 170 0 17 175 0 174 141 95 137
 178 176 0 0 +16 176 115 0 ?175 167 0 177 0 0 2 30 177 116 0 176 0 168 0 +5.0e-0
4 4.0051665254718296e-04 7.6971987473867306e-04 -1.0 6.123233995736765e-17 6.018
5310762101123e-36 17 178 0 183 89 147 85 175 176 0 0 -14 179 117 181 1.0e-08 184
 170 183 12 180 -0 0 184 170 10 50 180 118 0 179 185 171 0 +5.0e-04 3.9997210986
479446e-04 -1.0279935180064814e-05 -6.1232325035418338e-17 -0.999999756306074 6.
9813164408781904e-04 4.2748234165781343e-20 6.9813164408781904e-04 0.99999975630
6074 81 1 181 119 6 179 0 0 186 172 182 83 3 182 0.2000000029802323 0.2000000029
802323 0.2000000029802323 15 183 120 0 89 179 0 14 184 121 186 1.0e-08 0 179 188
 12 185 +0 0 0 179 10 51 185 122 0 184 0 180 0 +5.0e-04 -3.8001373742106162e-04
 1.0264602628445196e-05 1.0 -6.123233995736765e-17 -6.0185310762101123e-36 2.0e-
05 -6.1232325035418338e-17 -0.999999756306074 6.9813164408781904e-04 81 1 186 12
3 6 184 0 0 0 181 187 83 3 187 0.2000000029802323 0.2000000029802323 0.200000002
9802323 15 188 124 0 129 184 0 12 189 188 0 190 0 0 0 0 1000.0 1.0e-08 0 0 0 1 0
 1 1 197 199 205 203 194 204 202 70 190 0 189 0 0 4 1 20 0 191 191 1 T74 20 191
 1 0 192 0 0 0 0 0 0 0 0 0 0 0 0 0 0 0 0 0 0 0 81 1 192 7 6 198 0 0 227 0 193 83
 3 193 1.0 1.0 1.0 19 194 1 0 189 196 0 195 V13 195 2 0 189 0 0 0 0 194 198 19 1
96 3 0 189 0 194 197 S13 197 4 0 189 0 198 0 0 196 0 14 198 5 192 1.0e-08 225 0
 200 197 199 -0 0 225 0 195 50 199 6 0 198 226 0 0 +8.0e-04 -4.0002769518006476e
-04 -9.7214298647941836e-06 4.2748234165781343e-20 6.9813164408781904e-04 0.9999
99756306074 6.1232325035418338e-17 0.999999756306074 -6.9813164408781904e-04 15
 200 8 0 201 198 0 17 201 0 200 209 221 202 206 204 0 214 +18 202 9 0 201 0 207
 203 ?189 29 203 10 0 202 208 0 5.0e-04 3.7997211473867316e-04 -1.02659725471827
e-05 16 204 11 0 ?201 0 212 205 0 0 189 30 205 12 0 204 213 0 0 +5.0e-04 -4.0002
769518006476e-04 -9.7214298647941836e-06 6.1232325035418338e-17 0.99999975630607
4 -6.9813164408781904e-04 17 206 0 279 290 286 207 201 204 0 221 -18 207 13 0 20
6 202 210 208 ?189 29 208 14 0 207 211 203 5.0e-04 -3.800277000539432e-04 -9.735
3924976759104e-06 17 209 0 200 215 201 210 214 212 0 220 -18 210 15 0 209 207 21
6 211 ?189 29 211 16 0 210 217 208 7.7999999999999998e-04 3.7997211473867316e-04
 -1.02659725471827e-05 16 212 17 0 ?214 204 218 213 0 0 189 30 213 18 0 212 219
 205 0 +8.0e-04 3.7997211473867316e-04 -1.02659725471827e-05 -1.0 6.123233995736
765e-17 6.0185310762101123e-36 17 214 0 408 289 403 202 209 212 0 286 +17 215 0
 200 221 209 216 220 218 0 224 -18 216 19 0 215 210 231 217 ?189 29 217 20 0 216
 232 211 7.7999999999999998e-04 -3.800277000539432e-04 -9.7353924976759104e-06 1
6 218 21 0 ?220 212 222 219 0 0 189 30 219 22 0 218 223 213 0 +7.799999999999999
8e-04 -4.0002769518006476e-04 -9.7214298647941836e-06 6.1232325035418338e-17 0.9
99999756306074 -6.9813164408781904e-04 17 220 0 390 391 385 210 215 218 0 394 +1
7 221 0 200 201 215 207 224 222 0 295 +16 222 23 0 ?221 218 233 223 0 0 189 30 2
23 24 0 222 234 219 0 +8.0e-04 -3.800277000539432e-04 -9.7353924976759104e-06 -1
.0 6.123233995736765e-17 6.0185310762101123e-36 17 224 0 422 381 295 216 221 222
 0 378 -14 225 25 227 1.0e-08 254 198 229 197 226 +0 0 254 198 195 51 226 26 0 2
25 255 199 0 +8.0e-04 3.8051665742106162e-04 7.6973383737155522e-04 1.0 -6.12323
3995736765e-17 -6.0185310762101123e-36 2.0e-05 -6.1232325035418338e-17 -0.999999
756306074 6.9813164408781904e-04 81 1 227 27 6 225 0 0 256 192 228 83 3 228 1.0
 1.0 1.0 15 229 28 0 230 225 0 17 230 0 229 238 250 231 235 233 0 243 -18 231 29
 0 230 216 236 232 ?189 29 232 30 0 231 237 217 7.7999999999999998e-04 4.0051665
254718314e-04 7.697198747386734e-04 16 233 31 0 ?235 222 241 234 0 0 189 31 234
 32 0 233 242 223 0 +7.8000000000000008e-04 3.8051665742106162e-04 7.69733837371
55522e-04 1.0 -6.123233995736765e-17 -6.0185310762101123e-36 6.1232325035418338e
-17 0.999999756306074 -6.9813164408781904e-04 2.0e-05 17 235 0 469 366 353 236 2
30 233 0 250 +18 236 33 0 235 231 239 237 ?189 29 237 34 0 236 240 232 7.7999999
999999998e-04 3.8053062005394338e-04 7.897338324976766e-04 17 238 0 229 244 230
 239 243 241 0 249 +18 239 35 0 238 236 245 240 ?189 29 240 36 0 239 246 237 5.0
e-04 4.0051665254718323e-04 7.697198747386734e-04 16 241 37 0 ?238 233 247 242 0
 0 189 30 242 38 0 241 248 234 0 +8.0e-04 4.0051665254718314e-04 7.6971987473867
34e-04 -1.0 6.123233995736765e-17 6.0185310762101123e-36 17 243 0 417 349 285 23
1 238 241 0 346 -17 244 0 229 250 238 245 249 247 0 253 +18 245 39 0 244 239 263
 246 ?189 29 246 40 0 245 264 240 5.0e-04 3.8053062005394338e-04 7.8973383249767
66e-04 16 247 41 0 ?244 241 251 248 0 0 189 31 248 42 0 247 252 242 0 +5.0e-04 3
.8051665742106168e-04 7.6973383737155522e-04 1.0 -6.123233995736765e-17 -6.01853
10762101123e-36 6.1232325035418338e-17 0.999999756306074 -6.9813164408781904e-04
 2.0e-05 17 249 0 279 280 270 239 244 247 0 285 -17 250 0 229 230 244 236 253 25
1 0 259 -16 251 43 0 ?253 247 260 252 0 0 189 30 252 44 0 251 261 248 0 +8.0e-04
 3.8053062005394338e-04 7.897338324976766e-04 -1.0 6.123233995736765e-17 6.01853
10762101123e-36 17 253 0 258 265 259 245 250 251 0 270 +14 254 45 256 1.0e-08 27
5 225 258 197 255 -0 0 275 225 195 50 255 46 0 254 276 226 0 +8.0e-04 4.00530615
18006485e-04 7.8971986986479488e-04 -4.2748234165777195e-20 -6.9813164408775128e
-04 -0.999999756306074 -6.1232325035418338e-17 -0.999999756306074 6.981316440877
5128e-04 81 1 256 47 6 254 0 0 277 227 257 83 3 257 1.0 1.0 1.0 15 258 48 0 259
 254 0 17 259 0 258 253 271 236 262 260 0 363 -16 260 49 0 ?262 251 268 261 0 0
 189 30 261 50 0 260 269 252 0 +7.7999999999999998e-04 4.0053061518006485e-04 7.
8971986986479488e-04 -6.1232325035418338e-17 -0.999999756306074 6.98131644087751
28e-04 17 262 0 358 359 363 263 259 260 0 271 +18 263 51 0 262 245 266 264 ?189
 29 264 52 0 263 267 246 7.7999999999999998e-04 -3.7946919473867294e-04 7.902644
1254718342e-04 17 265 0 258 271 253 266 270 268 0 274 +18 266 53 0 265 263 281 2
67 ?189 29 267 54 0 266 282 264 5.0e-04 -3.7946919473867294e-04 7.90264412547183
42e-04 16 268 55 0 ?265 260 272 269 0 0 189 30 269 56 0 268 273 261 0 +5.0e-04 4
.0053061518006485e-04 7.8971986986479488e-04 -6.1232325035418338e-17 -0.99999975
6306074 6.9813164408775128e-04 17 270 0 279 249 302 245 265 268 0 0 -17 271 0 25
8 259 265 263 274 272 0 362 -16 272 57 0 ?274 268 283 273 0 0 189 30 273 58 0 27
2 284 269 0 +8.0e-04 -3.7946919473867294e-04 7.9026441254718342e-04 -1.0 6.12323
3995736765e-17 6.0185310762101123e-36 17 274 0 446 305 447 266 271 272 0 302 +14
 275 59 277 1.0e-08 306 254 279 197 276 -0 0 306 254 195 50 276 60 0 275 307 255
 0 +5.0e-04 3.9997210986479464e-04 -1.0279935180064426e-05 1.0 -6.12323399573676
5e-17 -6.0185310762101123e-36 6.1232325035418338e-17 0.999999756306074 -6.981316
4408781904e-04 81 1 277 61 6 275 0 0 308 256 278 83 3 278 1.0 1.0 1.0 15 279 62
 0 270 275 0 17 280 0 279 286 249 281 285 283 0 289 -18 281 63 0 280 266 291 282
 ?189 29 282 64 0 281 292 267 5.0e-04 3.999860724976764e-04 9.7200599460570682e-
06 16 283 65 0 ?285 272 287 284 0 0 189 30 284 66 0 283 288 273 0 +5.0e-04 3.999
7210986479464e-04 -1.0279935180064426e-05 4.2748234165789647e-20 6.9813164408795
458e-04 0.999999756306074 17 285 0 417 243 412 239 280 283 0 0 +17 286 0 279 206
 280 202 289 287 0 0 -16 287 67 0 ?289 283 293 288 0 0 189 31 288 68 0 287 294 2
84 0 +5.0e-04 3.7998607737155488e-04 9.7340225789387952e-06 1.0 -6.1232339957367
65e-17 -6.0185310762101123e-36 6.1232325035418338e-17 0.999999756306074 -6.98131
64408781904e-04 2.0e-05 17 289 0 408 409 214 281 286 287 0 412 +17 290 0 279 296
 206 291 295 293 0 301 -18 291 69 0 290 281 297 292 ?189 29 292 70 0 291 298 282
 5.0e-04 -4.0001373254718295e-04 1.027856526132731e-05 16 293 71 0 ?295 287 299
 294 0 0 189 31 294 72 0 293 300 288 0 +5.0e-04 -3.8001373742106154e-04 1.026460
2628445585e-05 1.0 -6.123233995736765e-17 -6.0185310762101123e-36 6.123232503541
8338e-17 0.999999756306074 -6.9813164408781904e-04 2.0e-05 17 295 0 422 224 423
 207 290 293 0 0 +17 296 0 279 302 290 297 301 299 0 305 -18 297 73 0 296 291 31
2 298 ?189 29 298 74 0 297 313 292 5.0e-04 -3.9948315249767616e-04 7.70278380053
94376e-04 16 299 75 0 ?301 293 303 300 0 0 189 30 300 76 0 299 304 294 0 +5.0e-0
4 -3.9946918986479444e-04 7.9027837518006514e-04 -4.2748234165773047e-20 -6.9813
164408768352e-04 -0.999999756306074 17 301 0 431 426 438 291 296 299 0 423 +17 3
02 0 279 270 296 266 305 303 0 0 -16 303 77 0 ?305 299 314 304 0 0 189 31 304 78
 0 303 315 300 0 +5.0e-04 -3.794831573715547e-04 7.7026441742106204e-04 1.0 -6.1
23233995736765e-17 -6.0185310762101123e-36 6.1232325035418338e-17 0.999999756306
074 -6.9813164408781904e-04 2.0e-05 17 305 0 446 441 274 297 302 303 0 438 +14 3
06 79 308 1.0e-08 335 275 310 197 307 +0 0 335 275 195 50 307 80 0 306 336 276 0
 +8.0e-04 3.9997210986479464e-04 -1.0279935180064426e-05 1.0 -6.123233995736765e
-17 -6.0185310762101123e-36 6.1232325035418338e-17 0.999999756306074 -6.98131644
08781904e-04 81 1 308 81 6 306 0 0 337 277 309 83 3 309 1.0 1.0 1.0 15 310 82 0
 311 306 0 17 311 0 310 319 331 312 316 314 0 324 +18 312 83 0 311 297 317 313 ?
189 29 313 84 0 312 318 298 8.0e-04 3.7998607737155488e-04 9.7340225789387952e-0
6 16 314 85 0 ?311 303 322 315 0 0 189 30 315 86 0 314 323 304 0 +8.0e-04 3.9998
60724976764e-04 9.7200599460570682e-06 6.1232325035418338e-17 0.999999756306074
 -6.9813164408781904e-04 17 316 0 390 385 391 317 311 314 0 331 -18 317 87 0 316
 312 320 318 ?189 29 318 88 0 317 321 313 8.0e-04 -3.8001373742106154e-04 1.0264
602628445585e-05 17 319 0 310 325 311 320 324 322 0 330 +18 320 89 0 319 317 326
 321 ?189 29 321 90 0 320 327 318 8.0e-04 3.8051665742106162e-04 7.6973383737155
522e-04 16 322 91 0 ?319 314 328 323 0 0 189 30 323 92 0 322 329 315 0 +8.0e-04
 3.8053062005394338e-04 7.897338324976766e-04 4.2748234165789647e-20 6.981316440
8795458e-04 0.999999756306074 17 324 0 339 340 350 312 319 322 0 345 -17 325 0 3
10 331 319 326 330 328 0 334 +18 326 93 0 325 320 341 327 ?189 29 327 94 0 326 3
42 321 8.0e-04 -3.7948315737155478e-04 7.7026441742106204e-04 16 328 95 0 ?325 3
22 332 329 0 0 189 30 329 96 0 328 333 323 0 +8.0e-04 -3.994831524976762e-04 7.7
027838005394376e-04 -6.1232325035418338e-17 -0.999999756306074 6.981316440877512
8e-04 17 330 0 358 363 359 320 325 328 0 350 -17 331 0 310 311 325 317 334 332 0
 377 +16 332 97 0 ?331 328 343 333 0 0 189 30 333 98 0 332 344 329 0 +8.0e-04 -3
.800277000539432e-04 -9.7353924976759104e-06 -4.2748234165773047e-20 -6.98131644
08768352e-04 -0.999999756306074 17 334 0 455 456 377 326 331 332 0 359 -14 335 9
9 337 1.0e-08 354 306 339 197 336 +0 0 354 306 195 51 336 100 0 335 355 307 0 +7
.8000000000000008e-04 3.7997211473867316e-04 -1.02659725471827e-05 4.27482341657
89647e-20 6.9813164408795458e-04 0.999999756306074 2.0e-05 -6.1232325035418338e-
17 -0.999999756306074 6.9813164408795458e-04 81 1 337 101 6 335 0 0 356 308 338
 83 3 338 1.0 1.0 1.0 15 339 102 0 340 335 0 17 340 0 339 346 324 341 345 343 0
 349 -18 341 103 0 340 326 373 342 ?189 29 342 104 0 341 374 327 7.7999999999999
998e-04 3.999860724976764e-04 9.7200599460570682e-06 16 343 105 0 ?345 332 347 3
44 0 0 189 31 344 106 0 343 348 333 0 +7.8000000000000008e-04 3.7998607737155488
e-04 9.7340225789387952e-06 -4.2748234165781334e-20 -6.9813164408781904e-04 -0.9
99999756306074 -6.1232325035418338e-17 -0.999999756306074 6.9813164408781904e-04
 2.0e-05 17 345 0 399 394 400 312 340 343 0 391 +17 346 0 339 350 340 231 349 34
7 0 353 +16 347 107 0 ?346 343 351 348 0 0 189 30 348 108 0 347 352 344 0 +7.799
9999999999998e-04 3.9997210986479464e-04 -1.0279935180064426e-05 4.2748234165789
647e-20 6.9813164408795458e-04 0.999999756306074 17 349 0 417 412 243 341 346 34
7 0 400 -17 350 0 339 324 346 320 353 351 0 366 -16 351 109 0 ?353 347 360 352 0
 0 189 31 352 110 0 351 361 348 0 +7.8000000000000008e-04 3.8051665742106162e-04
 7.6973383737155522e-04 4.2748234165781334e-20 6.9813164408781904e-04 0.99999975
6306074 6.1232325035418338e-17 0.999999756306074 -6.9813164408781904e-04 2.0e-05
 17 353 0 469 235 366 231 350 351 0 0 +14 354 111 356 1.0e-08 367 335 358 197 35
5 +0 0 367 335 195 51 355 112 0 354 368 336 0 +7.8000000000000008e-04 4.00516652
54718314e-04 7.697198747386734e-04 -6.1232325035418338e-17 -0.999999756306074 6.
9813164408775128e-04 2.0e-05 -4.2748234165777195e-20 -6.9813164408775128e-04 -0.
999999756306074 81 1 356 113 6 354 0 0 369 337 357 83 3 357 1.0 1.0 1.0 15 358 1
14 0 359 354 0 17 359 0 358 330 262 326 362 360 0 459 -16 360 115 0 ?362 351 364
 361 0 0 189 31 361 116 0 360 365 352 0 +7.8000000000000008e-04 -3.7948315737155
478e-04 7.7026441742106204e-04 -6.1232325035418329e-17 -0.999999756306074 6.9813
16440905296e-04 4.2748234165947317e-20 6.981316440905296e-04 0.999999756306074 2
.0e-05 17 362 0 464 450 459 263 359 360 0 447 +17 363 0 358 262 330 236 366 364
 0 0 -16 364 117 0 ?366 360 375 365 0 0 189 31 365 118 0 364 376 361 0 +7.800000
0000000008e-04 3.8051665742106162e-04 7.6973383737155522e-04 6.1232325035418329e
-17 0.999999756306074 -6.9813164408781904e-04 -4.2748234165781343e-20 -6.9813164
408781904e-04 -0.999999756306074 2.0e-05 17 366 0 469 353 235 320 363 364 0 0 +1
4 367 119 369 1.0e-08 386 354 371 197 368 +0 0 386 354 195 53 368 120 0 367 387
 355 0 +7.8000000000000008e-04 -3.8001373742106154e-04 1.0264602628445585e-05 2.
0e-05 -6.1232325035418338e-17 -0.999999756306074 6.9813164408781904e-04 4.274823
4165781343e-20 6.9813164408781904e-04 0.999999756306074 81 1 369 121 6 367 0 0 3
88 356 370 83 3 370 1.0 1.0 1.0 15 371 122 0 372 367 0 17 372 0 371 378 382 373
 377 375 0 381 +18 373 123 0 372 341 433 374 ?189 29 374 124 0 373 434 342 7.799
9999999999998e-04 -4.0001373254718295e-04 1.027856526132731e-05 16 375 125 0 ?37
2 364 379 376 0 0 189 31 376 126 0 375 380 365 0 +7.8000000000000008e-04 -3.8001
373742106154e-04 1.0264602628445585e-05 -4.2748234165781334e-20 -6.9813164408781
904e-04 -0.999999756306074 -6.1232325035418338e-17 -0.999999756306074 6.98131644
08781904e-04 2.0e-05 17 377 0 455 334 437 317 372 375 0 382 -17 378 0 371 382 37
2 216 381 379 0 385 +16 379 127 0 ?378 375 383 380 0 0 189 31 380 128 0 379 384
 376 0 +7.8000000000000008e-04 -3.8001373742106154e-04 1.0264602628445585e-05 1.
0 -6.123233995736765e-17 -6.0185310762101123e-36 6.1232325035418338e-17 0.999999
756306074 -6.9813164408781904e-04 2.0e-05 17 381 0 422 423 224 373 378 379 0 426
 -17 382 0 371 372 378 317 385 383 0 0 +16 383 129 0 ?382 379 392 384 0 0 189 31
 384 130 0 383 393 380 0 +7.8000000000000008e-04 -3.8001373742106154e-04 1.02646
02628445585e-05 -2.7717377562491788e-15 -0.999999756306074 6.9813164408781904e-0
4 1.0 -2.7717371106374178e-15 1.8922896130022252e-18 2.0e-05 17 385 0 390 220 31
6 216 382 383 0 0 -14 386 131 388 1.0e-08 395 367 390 197 387 +0 0 395 367 195 5
1 387 132 0 386 396 368 0 +7.8000000000000008e-04 3.999860724976764e-04 9.720059
9460570682e-06 6.1232325035418338e-17 0.999999756306074 -6.9813164408781904e-04
 2.0e-05 4.2748234165781343e-20 6.9813164408781904e-04 0.999999756306074 81 1 38
8 133 6 386 0 0 397 369 389 83 3 389 1.0 1.0 1.0 15 390 134 0 385 386 0 17 391 0
 390 316 220 312 394 392 0 0 -16 392 135 0 ?394 383 401 393 0 0 189 31 393 136 0
 392 402 384 0 +7.8000000000000008e-04 3.7998607737155488e-04 9.7340225789387952
e-06 6.1232325035418329e-17 0.999999756306074 -6.9813164408781904e-04 -4.2748234
165781343e-20 -6.9813164408781904e-04 -0.999999756306074 2.0e-05 17 394 0 399 40
0 345 210 391 392 0 403 +14 395 137 397 1.0e-08 404 386 399 197 396 +0 0 404 386
 195 53 396 138 0 395 405 387 0 +7.8000000000000008e-04 3.7998607737155488e-04 9
.7340225789387952e-06 2.0e-05 -6.1232325035418338e-17 -0.999999756306074 6.98131
64408781904e-04 4.2748234165781343e-20 6.9813164408781904e-04 0.999999756306074
 81 1 397 139 6 395 0 0 406 388 398 83 3 398 1.0 1.0 1.0 15 399 140 0 394 395 0
 17 400 0 399 345 394 341 403 401 0 409 +16 401 141 0 ?400 392 410 402 0 0 189 3
1 402 142 0 401 411 393 0 +7.8000000000000008e-04 3.7998607737155488e-04 9.73402
25789387952e-06 1.0 -6.123233995736765e-17 -6.0185310762101123e-36 6.12323250354
18338e-17 0.999999756306074 -6.9813164408781904e-04 2.0e-05 17 403 0 408 214 409
 210 400 401 0 0 -14 404 143 406 1.0e-08 413 395 408 197 405 +0 0 413 395 195 51
 405 144 0 404 414 396 0 +8.0e-04 3.7998607737155488e-04 9.7340225789387952e-06
 1.0 -6.123233995736765e-17 -6.0185310762101123e-36 2.0e-05 -6.1232325035418338e
-17 -0.999999756306074 6.9813164408781904e-04 81 1 406 145 6 404 0 0 415 397 407
 83 3 407 1.0 1.0 1.0 15 408 146 0 289 404 0 17 409 0 408 403 289 341 412 410 0
 0 -16 410 147 0 ?412 401 424 411 0 0 189 30 411 148 0 410 425 402 0 +8.0e-04 3.
999860724976764e-04 9.7200599460570682e-06 -1.0 6.123233995736765e-17 6.01853107
62101123e-36 17 412 0 417 285 349 281 409 410 0 0 +14 413 149 415 1.0e-08 418 40
4 417 197 414 -0 0 418 404 195 50 414 150 0 413 419 405 0 +8.0e-04 3.99972109864
79464e-04 -1.0279935180064426e-05 -6.1232325035418338e-17 -0.999999756306074 6.9
813164408795458e-04 4.2748234165789647e-20 6.9813164408795458e-04 0.999999756306
074 81 1 415 151 6 413 0 0 420 406 416 83 3 416 1.0 1.0 1.0 15 417 152 0 285 413
 0 14 418 153 420 1.0e-08 427 413 422 197 419 +0 0 427 413 195 51 419 154 0 418
 428 414 0 +8.0e-04 -3.8001373742106154e-04 1.0264602628445585e-05 1.0 -6.123233
995736765e-17 -6.0185310762101123e-36 2.0e-05 -6.1232325035418338e-17 -0.9999997
56306074 6.9813164408781904e-04 81 1 420 155 6 418 0 0 429 415 421 83 3 421 1.0
 1.0 1.0 15 422 156 0 381 418 0 17 423 0 422 295 381 291 426 424 0 0 +16 424 157
 0 ?423 410 435 425 0 0 189 30 425 158 0 424 436 411 0 +8.0e-04 -4.0001373254718
295e-04 1.027856526132731e-05 -1.0 6.123233995736765e-17 6.0185310762101123e-36
 17 426 0 431 432 301 373 423 424 0 437 -14 427 159 429 1.0e-08 442 418 431 197
 428 -0 0 442 418 195 50 428 160 0 427 443 419 0 +8.0e-04 -3.9946918986479444e-0
4 7.9027837518006514e-04 6.1232325035418338e-17 0.999999756306074 -6.98131644087
68352e-04 -4.2748234165773047e-20 -6.9813164408768352e-04 -0.999999756306074 81
 1 429 161 6 427 0 0 444 420 430 83 3 430 1.0 1.0 1.0 15 431 162 0 432 427 0 17
 432 0 431 438 426 433 437 435 0 441 -18 433 163 0 432 373 0 434 ?189 29 434 164
 0 433 0 374 7.7999999999999998e-04 -3.994831524976762e-04 7.7027838005394376e-0
4 16 435 165 0 ?437 424 439 436 0 0 189 30 436 166 0 435 440 425 0 +7.7999999999
999998e-04 -3.9946918986479444e-04 7.9027837518006514e-04 -4.2748234165773047e-2
0 -6.9813164408768352e-04 -0.999999756306074 17 437 0 455 377 456 373 432 435 0
 0 +17 438 0 431 301 432 297 441 439 0 0 +16 439 167 0 ?438 435 448 440 0 0 189
 30 440 168 0 439 449 436 0 +8.0e-04 -3.994831524976762e-04 7.7027838005394376e-
04 -1.0 6.123233995736765e-17 6.0185310762101123e-36 17 441 0 446 447 305 433 43
8 439 0 450 -14 442 169 444 1.0e-08 451 427 446 197 443 +0 0 451 427 195 51 443
 170 0 442 452 428 0 +8.0e-04 -3.7948315737155478e-04 7.7026441742106204e-04 1.0
 -6.123233995736765e-17 -6.0185310762101123e-36 2.0e-05 -6.1232325035418338e-17
 -0.999999756306074 6.9813164408781904e-04 81 1 444 171 6 442 0 0 453 429 445 83
 3 445 1.0 1.0 1.0 15 446 172 0 305 442 0 17 447 0 446 274 441 263 450 448 0 0 -
16 448 173 0 ?450 439 457 449 0 0 189 31 449 174 0 448 458 440 0 +7.800000000000
0008e-04 -3.7948315737155478e-04 7.7026441742106204e-04 1.0 -6.123233995736765e-
17 -6.0185310762101123e-36 6.1232325035418338e-17 0.999999756306074 -6.981316440
8781904e-04 2.0e-05 17 450 0 464 459 362 433 447 448 0 456 +14 451 175 453 1.0e-
08 460 442 455 197 452 +0 0 460 442 195 51 452 176 0 451 461 443 0 +7.8000000000
000008e-04 -3.800277000539432e-04 -9.7353924976759104e-06 -4.2748234165773047e-2
0 -6.9813164408768352e-04 -0.999999756306074 2.0e-05 6.1232325035418338e-17 0.99
9999756306074 -6.9813164408768352e-04 81 1 453 177 6 451 0 0 462 444 454 83 3 45
4 1.0 1.0 1.0 15 455 178 0 377 451 0 17 456 0 455 437 334 433 459 457 0 0 -16 45
7 179 0 ?459 448 0 458 0 0 189 31 458 180 0 457 0 449 0 +7.8000000000000008e-04
 -3.7948315737155478e-04 7.7026441742106204e-04 4.2748234165781334e-20 6.9813164
408781904e-04 0.999999756306074 6.1232325035418338e-17 0.999999756306074 -6.9813
164408781904e-04 2.0e-05 17 459 0 464 362 450 326 456 457 0 0 +14 460 181 462 1.
0e-08 465 451 464 197 461 +0 0 465 451 195 53 461 182 0 460 466 452 0 +7.8000000
000000008e-04 -3.7948315737155478e-04 7.7026441742106204e-04 2.0e-05 -6.12323250
35418338e-17 -0.999999756306074 6.9813164408781904e-04 4.2748234165781343e-20 6.
9813164408781904e-04 0.999999756306074 81 1 462 183 6 460 0 0 467 453 463 83 3 4
63 1.0 1.0 1.0 15 464 184 0 450 460 0 14 465 185 467 1.0e-08 0 460 469 197 466 +
0 0 0 460 195 53 466 186 0 465 0 461 0 +7.8000000000000008e-04 3.805166574210616
2e-04 7.6973383737155522e-04 2.0e-05 -6.1232325035418338e-17 -0.999999756306074
 6.9813164408781904e-04 4.2748234165781343e-20 6.9813164408781904e-04 0.99999975
6306074 81 1 467 187 6 465 0 0 0 462 468 83 3 468 1.0 1.0 1.0 15 469 188 0 366 4
65 0 12 470 188 0 471 0 0 0 0 1000.0 1.0e-08 0 0 0 1 0 1 1 478 480 486 484 475 4
85 483 70 471 0 470 0 0 4 1 20 0 472 472 1 T74 20 472 1 0 473 0 0 0 0 0 0 0 0 0
 0 0 0 0 0 0 0 0 0 0 81 1 473 7 6 479 0 0 508 0 474 83 3 474 1.0 1.0 1.0 19 475
 1 0 470 477 0 476 V13 476 2 0 470 0 0 0 0 475 479 19 477 3 0 470 0 475 478 S13
 478 4 0 470 0 479 0 0 477 0 14 479 5 473 1.0e-08 506 0 481 478 480 -0 0 506 0 4
76 50 480 6 0 479 507 0 0 +-8.0e-04 -3.9946918986479462e-04 7.9027837518006478e-
04 1.9663719042100022e-16 -6.9813164408771496e-04 -0.999999756306074 1.325344666
3894915e-16 0.999999756306074 -6.9813164408771496e-04 15 481 8 0 482 479 0 17 48
2 0 481 490 502 483 487 485 0 495 +18 483 9 0 482 0 488 484 ?470 29 484 10 0 483
 489 0 -5.0e-04 3.8053062005394316e-04 7.897338324976766e-04 16 485 11 0 ?482 0
 493 486 0 0 470 30 486 12 0 485 494 0 0 +-5.0000000000000009e-04 -3.99469189864
79468e-04 7.9027837518006488e-04 1.3253446663894915e-16 0.999999756306074 -6.981
3164408771496e-04 17 487 0 560 571 567 488 482 485 0 502 -18 488 13 0 487 483 49
1 489 ?470 29 489 14 0 488 492 484 -5.0000000000000009e-04 -3.7946919473867316e-
04 7.9026441254718324e-04 17 490 0 481 496 482 491 495 493 0 501 -18 491 15 0 67
5 488 497 492 ?470 29 492 16 0 491 498 489 -7.7999999999999998e-04 3.80530620053
9432e-04 7.897338324976765e-04 16 493 17 0 ?495 485 499 494 0 0 470 30 494 18 0
 493 500 486 0 +-8.0e-04 3.805306200539432e-04 7.897338324976765e-04 1.0 -1.3239
715569606725e-16 1.9672966900680426e-16 17 495 0 689 570 684 483 490 493 0 567 +
17 496 0 481 502 490 497 501 499 0 505 -18 497 19 0 659 491 512 498 ?470 29 498
 20 0 497 513 492 -7.8000000000000008e-04 -3.7946919473867312e-04 7.902644125471
8324e-04 16 499 21 0 ?501 493 503 500 0 0 470 30 500 22 0 499 504 494 0 +-7.8000
000000000008e-04 -3.9946918986479462e-04 7.9027837518006478e-04 1.32534466638949
15e-16 0.999999756306074 -6.9813164408771496e-04 17 501 0 671 672 666 491 496 49
9 0 684 +17 502 0 481 482 496 488 505 503 0 576 +16 503 23 0 ?502 499 514 504 0
 0 470 30 504 24 0 503 515 500 0 +-8.0e-04 -3.7946919473867312e-04 7.90264412547
18324e-04 1.0 -1.3239715569606725e-16 1.9672966900680426e-16 17 505 0 703 662 57
6 497 502 503 0 0 -14 506 25 508 1.0e-08 535 479 510 478 507 +0 0 535 479 476 51
 507 26 0 506 536 480 0 +-7.9999999999999982e-04 3.7998607737155484e-04 9.734022
5789386282e-06 -1.0 1.3239715569606725e-16 -1.9672966900680426e-16 2.0e-05 -1.32
53446663894915e-16 -0.999999756306074 6.9813164408771496e-04 81 1 508 27 6 506 0
 0 537 473 509 83 3 509 1.0 1.0 1.0 15 510 28 0 511 506 0 17 511 0 510 519 531 5
12 516 514 0 524 -18 512 29 0 627 497 517 513 ?470 29 513 30 0 512 518 498 -7.79
9999999999999e-04 3.9998607249767634e-04 9.720059946056903e-06 16 514 31 0 ?516
 503 522 515 0 0 470 31 515 32 0 514 523 504 0 +-7.7999999999999998e-04 3.799860
7737155484e-04 9.7340225789386282e-06 -1.0 1.3239715569606723e-16 -1.96729669006
80428e-16 1.3253446663894915e-16 0.999999756306074 -6.9813164408771496e-04 2.0e-
05 17 516 0 750 647 634 517 511 514 0 531 +18 517 33 0 644 512 520 518 ?470 29 5
18 34 0 517 521 513 -7.799999999999999e-04 3.7997211473867308e-04 -1.02659725471
82867e-05 17 519 0 510 525 511 520 524 522 0 530 +18 520 35 0 519 517 526 521 ?4
70 29 521 36 0 520 527 518 -4.9999999999999992e-04 3.9998607249767626e-04 9.7200
599460569582e-06 16 522 37 0 ?519 514 528 523 0 0 470 30 523 38 0 522 529 515 0
 +-7.9999999999999982e-04 3.9998607249767634e-04 9.720059946056903e-06 1.0 -1.32
39715569606725e-16 1.9672966900680426e-16 17 524 0 698 630 566 512 519 522 0 0 -
17 525 0 510 531 519 526 530 528 0 534 +18 526 39 0 525 520 544 527 ?470 29 527
 40 0 526 545 521 -4.9999999999999992e-04 3.7997211473867308e-04 -1.026597254718
2811e-05 16 528 41 0 ?525 522 532 529 0 0 470 31 529 42 0 528 533 523 0 +-4.9999
999999999992e-04 3.7998607737155474e-04 9.7340225789386832e-06 -1.0 1.3239715569
606723e-16 -1.9672966900680428e-16 1.3253446663894915e-16 0.999999756306074 -6.9
813164408771496e-04 2.0e-05 17 530 0 560 561 551 520 525 528 0 566 -17 531 0 510
 511 525 517 534 532 0 540 -16 532 43 0 ?534 528 541 533 0 0 470 30 533 44 0 532
 542 529 0 +-7.9999999999999982e-04 3.7997211473867308e-04 -1.0265972547182867e-
05 1.0 -1.3239715569606725e-16 1.9672966900680426e-16 17 534 0 539 546 540 526 5
31 532 0 551 +14 535 45 537 1.0e-08 556 506 539 478 536 -0 0 556 506 476 50 536
 46 0 535 557 507 0 +-7.9999999999999982e-04 3.999721098647945e-04 -1.0279935180
064592e-05 -1.9663719042100022e-16 6.9813164408778272e-04 0.999999756306074 -1.3
253446663894917e-16 -0.999999756306074 6.9813164408778272e-04 81 1 537 47 6 535
 0 0 558 508 538 83 3 538 1.0 1.0 1.0 15 539 48 0 540 535 0 17 540 0 539 534 552
 517 543 541 0 0 -16 541 49 0 ?543 532 549 542 0 0 470 30 542 50 0 541 550 533 0
 +-7.799999999999999e-04 3.999721098647945e-04 -1.0279935180064592e-05 -1.325344
6663894917e-16 -0.999999756306074 6.9813164408778272e-04 17 543 0 639 640 644 54
4 540 541 0 552 +18 544 51 0 643 526 547 545 ?470 29 545 52 0 544 548 527 -7.799
9999999999998e-04 -3.8002770005394334e-04 -9.7353924976761874e-06 17 546 0 539 5
52 534 547 551 549 0 555 +18 547 53 0 546 544 562 548 ?470 29 548 54 0 547 563 5
45 -4.9999999999999992e-04 -3.8002770005394334e-04 -9.7353924976761324e-06 16 54
9 55 0 ?546 541 553 550 0 0 470 30 550 56 0 549 554 542 0 +-4.9999999999999992e-
04 3.999721098647945e-04 -1.0279935180064537e-05 -1.3253446663894917e-16 -0.9999
99756306074 6.9813164408778272e-04 17 551 0 560 530 583 526 546 549 0 0 -17 552
 0 539 540 546 544 555 553 0 0 -16 553 57 0 ?555 549 564 554 0 0 470 30 554 58 0
 553 565 550 0 +-8.0e-04 -3.8002770005394334e-04 -9.7353924976761874e-06 1.0 -1.
3239715569606725e-16 1.9672966900680426e-16 17 555 0 727 586 728 547 552 553 0 5
83 +14 556 59 558 1.0e-08 587 535 560 478 557 -0 0 587 535 476 50 557 60 0 556 5
88 536 0 +-5.0e-04 4.0053061518006468e-04 7.897198698647948e-04 -1.0 1.323971556
9606725e-16 -1.9672966900680426e-16 1.3253446663894915e-16 0.999999756306074 -6.
9813164408771496e-04 81 1 558 61 6 556 0 0 589 537 559 83 3 559 1.0 1.0 1.0 15 5
60 62 0 551 556 0 17 561 0 560 567 530 562 566 564 0 570 -18 562 63 0 693 547 57
2 563 ?470 29 563 64 0 562 573 548 -5.0e-04 4.0051665254718287e-04 7.69719874738
67332e-04 16 564 65 0 ?566 553 568 565 0 0 470 30 565 66 0 564 569 554 0 +-5.0e-
04 4.0053061518006468e-04 7.897198698647948e-04 1.9663719042100028e-16 -6.981316
4408757942e-04 -0.999999756306074 17 566 0 698 524 693 520 561 564 0 0 +17 567 0
 560 487 561 483 570 568 0 0 -16 568 67 0 ?570 564 574 569 0 0 470 31 569 68 0 5
68 575 565 0 +-5.0e-04 3.8051665742106144e-04 7.6973383737155504e-04 -1.0 1.3239
715569606723e-16 -1.9672966900680428e-16 1.3253446663894915e-16 0.99999975630607
4 -6.9813164408771496e-04 2.0e-05 17 570 0 689 690 495 562 567 568 0 0 +17 571 0
 560 577 487 572 576 574 0 582 -18 572 69 0 704 562 578 573 ?470 29 573 70 0 572
 579 563 -5.0000000000000009e-04 -3.9948315249767638e-04 7.702783800539434e-04 1
6 574 71 0 ?576 568 580 575 0 0 470 31 575 72 0 574 581 569 0 +-5.00000000000000
09e-04 -3.7948315737155492e-04 7.7026441742106178e-04 -1.0 1.3239715569606723e-1
6 -1.9672966900680428e-16 1.3253446663894915e-16 0.999999756306074 -6.9813164408
771496e-04 2.0e-05 17 576 0 703 505 704 488 571 574 0 0 +17 577 0 560 583 571 57
8 582 580 0 0 -18 578 73 0 719 572 593 579 ?470 29 579 74 0 578 594 573 -5.0e-04
 -4.0001373254718304e-04 1.0278565261327088e-05 16 580 75 0 ?582 574 584 581 0 0
 470 30 581 76 0 580 585 575 0 +-5.0e-04 -4.0002769518006485e-04 -9.721429864794
4056e-06 -1.966371904210002e-16 6.9813164408785048e-04 0.999999756306074 17 582
 0 712 707 719 572 577 580 0 0 +17 583 0 560 551 577 547 586 584 0 0 -16 584 77
 0 ?586 580 595 585 0 0 470 31 585 78 0 584 596 581 0 +-5.0e-04 -3.8001373742106
162e-04 1.0264602628445363e-05 -1.0 1.3239715569606723e-16 -1.9672966900680428e-
16 1.3253446663894915e-16 0.999999756306074 -6.9813164408771496e-04 2.0e-05 17 5
86 0 727 722 555 578 583 584 0 577 +14 587 79 589 1.0e-08 616 556 591 478 588 +0
 0 616 556 476 50 588 80 0 587 617 557 0 +-8.0e-04 4.0053061518006476e-04 7.8971
98698647947e-04 -1.0 1.3239715569606725e-16 -1.9672966900680426e-16 1.3253446663
894915e-16 0.999999756306074 -6.9813164408771496e-04 81 1 589 81 6 587 0 0 618 5
58 590 83 3 590 1.0 1.0 1.0 15 591 82 0 592 587 0 17 592 0 591 600 612 593 597 5
95 0 605 +18 593 83 0 626 578 598 594 ?470 29 594 84 0 593 599 579 -8.0e-04 3.80
5166574210615e-04 7.6973383737155504e-04 16 595 85 0 ?592 584 603 596 0 0 470 30
 596 86 0 595 604 585 0 +-8.0e-04 4.0051665254718296e-04 7.6971987473867332e-04
 1.3253446663894915e-16 0.999999756306074 -6.9813164408771496e-04 17 597 0 671 6
66 672 598 592 595 0 612 -18 598 87 0 658 593 601 599 ?470 29 599 88 0 598 602 5
94 -8.0e-04 -3.7948315737155488e-04 7.702644174210617e-04 17 600 0 591 606 592 6
01 605 603 0 611 +18 601 89 0 631 598 607 602 ?470 29 602 90 0 601 608 599 -7.99
99999999999982e-04 3.7998607737155484e-04 9.7340225789386282e-06 16 603 91 0 ?60
0 595 609 604 0 0 470 30 604 92 0 603 610 596 0 +-7.9999999999999982e-04 3.79972
11473867308e-04 -1.0265972547182867e-05 1.9663719042100028e-16 -6.98131644087579
42e-04 -0.999999756306074 17 605 0 620 621 631 593 600 603 0 0 -17 606 0 591 612
 600 607 611 609 0 615 +18 607 93 0 640 601 622 608 ?470 29 608 94 0 607 623 602
 -8.0e-04 -3.8001373742106158e-04 1.0264602628445307e-05 16 609 95 0 ?606 603 61
3 610 0 0 470 30 610 96 0 609 614 604 0 +-8.0e-04 -4.0001373254718304e-04 1.0278
565261327033e-05 -1.3253446663894917e-16 -0.999999756306074 6.9813164408778272e-
04 17 611 0 639 644 640 601 606 609 0 0 -17 612 0 591 592 606 598 615 613 0 0 +1
6 613 97 0 ?612 609 624 614 0 0 470 30 614 98 0 613 625 610 0 +-8.0e-04 -3.79469
19473867312e-04 7.9026441254718324e-04 -1.966371904210002e-16 6.9813164408785048
e-04 0.999999756306074 17 615 0 736 737 658 607 612 613 0 0 -14 616 99 618 1.0e-
08 635 587 620 478 617 +0 0 635 587 476 51 617 100 0 616 636 588 0 +-7.800000000
0000008e-04 3.805306200539432e-04 7.897338324976765e-04 1.9663719042100028e-16 -
6.9813164408757942e-04 -0.999999756306074 2.0e-05 -1.3253446663894912e-16 -0.999
999756306074 6.9813164408757942e-04 81 1 618 101 6 616 0 0 637 589 619 83 3 619
 1.0 1.0 1.0 15 620 102 0 621 616 0 17 621 0 620 627 605 622 626 624 0 630 -18 6
22 103 0 621 607 654 623 ?470 29 623 104 0 622 655 608 -7.7999999999999998e-04 4
.0051665254718296e-04 7.6971987473867332e-04 16 624 105 0 ?626 613 628 625 0 0 4
70 31 625 106 0 624 629 614 0 +-7.8000000000000008e-04 3.805166574210615e-04 7.6
973383737155504e-04 -1.9663719042100022e-16 6.9813164408771496e-04 0.99999975630
6074 -1.3253446663894915e-16 -0.999999756306074 6.9813164408771496e-04 2.0e-05 1
7 626 0 680 675 681 593 621 624 0 672 +17 627 0 620 631 621 512 630 628 0 634 +1
6 628 107 0 ?627 624 632 629 0 0 470 30 629 108 0 628 633 625 0 +-7.799999999999
9998e-04 4.0053061518006476e-04 7.897198698647947e-04 1.9663719042100028e-16 -6.
9813164408757942e-04 -0.999999756306074 17 630 0 698 693 524 622 627 628 0 681 -
17 631 0 620 605 627 601 634 632 0 647 -16 632 109 0 ?634 628 641 633 0 0 470 31
 633 110 0 632 642 629 0 +-7.7999999999999998e-04 3.7998607737155484e-04 9.73402
25789386282e-06 1.9663719042100022e-16 -6.9813164408771496e-04 -0.99999975630607
4 1.3253446663894915e-16 0.999999756306074 -6.9813164408771496e-04 2.0e-05 17 63
4 0 750 516 647 512 631 632 0 511 +14 635 111 637 1.0e-08 648 616 639 478 636 +0
 0 648 616 476 51 636 112 0 635 649 617 0 +-7.7999999999999998e-04 3.99986072497
67634e-04 9.720059946056903e-06 -1.3253446663894917e-16 -0.999999756306074 6.981
3164408778272e-04 2.0e-05 -1.9663719042100022e-16 6.9813164408778272e-04 0.99999
9756306074 81 1 637 113 6 635 0 0 650 618 638 83 3 638 1.0 1.0 1.0 15 639 114 0
 640 635 0 17 640 0 639 611 543 607 643 641 0 740 -16 641 115 0 ?643 632 645 642
 0 0 470 31 642 116 0 641 646 633 0 +-7.8000000000000008e-04 -3.8001373742106158
e-04 1.0264602628445307e-05 -1.3253446663894864e-16 -0.999999756306074 6.9813164
40850045e-04 1.966371904210006e-16 -6.981316440850045e-04 -0.999999756306074 2.0
e-05 17 643 0 745 731 740 544 640 641 0 728 +17 644 0 639 543 611 517 647 645 0
 516 -16 645 117 0 ?647 641 656 646 0 0 470 31 646 118 0 645 657 642 0 +-7.79999
99999999998e-04 3.7998607737155484e-04 9.7340225789386282e-06 1.3253446663894917
e-16 0.999999756306074 -6.9813164408771496e-04 -1.9663719042100022e-16 6.9813164
408771496e-04 0.999999756306074 2.0e-05 17 647 0 750 634 516 601 644 645 0 600 +
14 648 119 650 1.0e-08 667 635 652 478 649 +0 0 667 635 476 53 649 120 0 648 668
 636 0 +-7.8000000000000016e-04 -3.7948315737155488e-04 7.702644174210617e-04 2.
0e-05 -1.3253446663894915e-16 -0.999999756306074 6.9813164408771496e-04 1.966371
9042100022e-16 -6.9813164408771496e-04 -0.999999756306074 81 1 650 121 6 648 0 0
 669 637 651 83 3 651 1.0 1.0 1.0 15 652 122 0 653 648 0 17 653 0 652 659 663 65
4 658 656 0 662 +18 654 123 0 653 622 714 655 ?470 29 655 124 0 654 715 623 -7.8
000000000000008e-04 -3.9948315249767634e-04 7.702783800539434e-04 16 656 125 0 ?
653 645 660 657 0 0 470 31 657 126 0 656 661 646 0 +-7.8000000000000016e-04 -3.7
948315737155488e-04 7.702644174210617e-04 -1.9663719042100022e-16 6.981316440877
1496e-04 0.999999756306074 -1.3253446663894915e-16 -0.999999756306074 6.98131644
08771496e-04 2.0e-05 17 658 0 736 615 718 598 653 656 0 663 -17 659 0 652 663 65
3 497 662 660 0 666 +16 660 127 0 ?659 656 664 661 0 0 470 31 661 128 0 660 665
 657 0 +-7.8000000000000016e-04 -3.7948315737155488e-04 7.702644174210617e-04 -1
.0 1.3239715569606723e-16 -1.9672966900680428e-16 1.3253446663894915e-16 0.99999
9756306074 -6.9813164408771496e-04 2.0e-05 17 662 0 703 704 505 654 659 660 0 70
7 -17 663 0 652 653 659 598 666 664 0 597 +16 664 129 0 ?663 660 673 665 0 0 470
 31 665 130 0 664 674 661 0 +-7.8000000000000016e-04 -3.7948315737155488e-04 7.7
02644174210617e-04 2.5779709645748108e-15 -0.999999756306074 6.9813164408771496e
-04 -1.0 -2.578107614983983e-15 -1.948373793938023e-16 2.0e-05 17 666 0 671 501
 597 497 663 664 0 496 -14 667 131 669 1.0e-08 676 648 671 478 668 +0 0 676 648
 476 51 668 132 0 667 677 649 0 +-7.8000000000000008e-04 4.0051665254718305e-04
 7.6971987473867332e-04 1.3253446663894915e-16 0.999999756306074 -6.981316440877
1496e-04 2.0e-05 1.9663719042100022e-16 -6.9813164408771496e-04 -0.9999997563060
74 81 1 669 133 6 667 0 0 678 650 670 83 3 670 1.0 1.0 1.0 15 671 134 0 666 667
 0 17 672 0 671 597 501 593 675 673 0 592 -16 673 135 0 ?675 664 682 674 0 0 470
 31 674 136 0 673 683 665 0 +-7.8000000000000008e-04 3.805166574210615e-04 7.697
3383737155504e-04 1.3253446663894917e-16 0.999999756306074 -6.9813164408771496e-
04 -1.9663719042100022e-16 6.9813164408771496e-04 0.999999756306074 2.0e-05 17 6
75 0 680 681 626 491 672 673 0 490 +14 676 137 678 1.0e-08 685 667 680 478 677 +
0 0 685 667 476 53 677 138 0 676 686 668 0 +-7.8000000000000008e-04 3.8051665742
10615e-04 7.6973383737155504e-04 2.0e-05 -1.3253446663894915e-16 -0.999999756306
074 6.9813164408771496e-04 1.9663719042100022e-16 -6.9813164408771496e-04 -0.999
999756306074 81 1 678 139 6 676 0 0 687 669 679 83 3 679 1.0 1.0 1.0 15 680 140
 0 675 676 0 17 681 0 680 626 675 622 684 682 0 690 +16 682 141 0 ?681 673 691 6
83 0 0 470 31 683 142 0 682 692 674 0 +-7.8000000000000008e-04 3.805166574210615
e-04 7.6973383737155504e-04 -1.0 1.3239715569606723e-16 -1.9672966900680428e-16
 1.3253446663894915e-16 0.999999756306074 -6.9813164408771496e-04 2.0e-05 17 684
 0 689 495 690 491 681 682 0 0 -14 685 143 687 1.0e-08 694 676 689 478 686 +0 0
 694 676 476 51 686 144 0 685 695 677 0 +-8.0e-04 3.805166574210615e-04 7.697338
3737155504e-04 -1.0 1.3239715569606725e-16 -1.9672966900680426e-16 2.0e-05 -1.32
53446663894915e-16 -0.999999756306074 6.9813164408771496e-04 81 1 687 145 6 685
 0 0 696 678 688 83 3 688 1.0 1.0 1.0 15 689 146 0 570 685 0 17 690 0 689 684 57
0 622 693 691 0 0 -16 691 147 0 ?693 682 705 692 0 0 470 30 692 148 0 691 706 68
3 0 +-8.0e-04 4.0051665254718296e-04 7.6971987473867332e-04 1.0 -1.3239715569606
725e-16 1.9672966900680426e-16 17 693 0 698 566 630 562 690 691 0 561 +14 694 14
9 696 1.0e-08 699 685 698 478 695 -0 0 699 685 476 50 695 150 0 694 700 686 0 +-
8.0e-04 4.0053061518006476e-04 7.897198698647947e-04 -1.3253446663894912e-16 -0.
999999756306074 6.9813164408757942e-04 1.9663719042100028e-16 -6.981316440875794
2e-04 -0.999999756306074 81 1 696 151 6 694 0 0 701 687 697 83 3 697 1.0 1.0 1.0
 15 698 152 0 566 694 0 14 699 153 701 1.0e-08 708 694 703 478 700 +0 0 708 694
 476 51 700 154 0 699 709 695 0 +-8.0e-04 -3.7948315737155488e-04 7.702644174210
617e-04 -1.0 1.3239715569606725e-16 -1.9672966900680426e-16 2.0e-05 -1.325344666
3894915e-16 -0.999999756306074 6.9813164408771496e-04 81 1 701 155 6 699 0 0 710
 696 702 83 3 702 1.0 1.0 1.0 15 703 156 0 662 699 0 17 704 0 703 576 662 572 70
7 705 0 571 +16 705 157 0 ?704 691 716 706 0 0 470 30 706 158 0 705 717 692 0 +-
8.0e-04 -3.9948315249767634e-04 7.702783800539434e-04 1.0 -1.3239715569606725e-1
6 1.9672966900680426e-16 17 707 0 712 713 582 654 704 705 0 718 -14 708 159 710
 1.0e-08 723 699 712 478 709 -0 0 723 699 476 50 709 160 0 708 724 700 0 +-8.0e-
04 -4.0002769518006485e-04 -9.7214298647944624e-06 1.3253446663894917e-16 0.9999
99756306074 -6.9813164408785048e-04 -1.966371904210002e-16 6.9813164408785048e-0
4 0.999999756306074 81 1 710 161 6 708 0 0 725 701 711 83 3 711 1.0 1.0 1.0 15 7
12 162 0 713 708 0 17 713 0 712 719 707 714 718 716 0 722 -18 714 163 0 713 654
 0 715 ?470 29 715 164 0 714 0 655 -7.7999999999999998e-04 -4.0001373254718304e-
04 1.0278565261327033e-05 16 716 165 0 ?718 705 720 717 0 0 470 30 717 166 0 716
 721 706 0 +-7.7999999999999998e-04 -4.0002769518006485e-04 -9.7214298647944624e
-06 -1.966371904210002e-16 6.9813164408785048e-04 0.999999756306074 17 718 0 736
 658 737 654 713 716 0 0 +17 719 0 712 582 713 578 722 720 0 586 +16 720 167 0 ?
719 716 729 721 0 0 470 30 721 168 0 720 730 717 0 +-8.0e-04 -4.0001373254718304
e-04 1.0278565261327033e-05 1.0 -1.3239715569606725e-16 1.9672966900680426e-16 1
7 722 0 727 728 586 714 719 720 0 731 -14 723 169 725 1.0e-08 732 708 727 478 72
4 +0 0 732 708 476 51 724 170 0 723 733 709 0 +-8.0e-04 -3.8001373742106158e-04
 1.0264602628445307e-05 -1.0 1.3239715569606725e-16 -1.9672966900680426e-16 2.0e
-05 -1.3253446663894915e-16 -0.999999756306074 6.9813164408771496e-04 81 1 725 1
71 6 723 0 0 734 710 726 83 3 726 1.0 1.0 1.0 15 727 172 0 586 723 0 17 728 0 72
7 555 722 544 731 729 0 543 -16 729 173 0 ?731 720 738 730 0 0 470 31 730 174 0
 729 739 721 0 +-7.8000000000000008e-04 -3.8001373742106158e-04 1.02646026284453
07e-05 -1.0 1.3239715569606723e-16 -1.9672966900680428e-16 1.3253446663894915e-1
6 0.999999756306074 -6.9813164408771496e-04 2.0e-05 17 731 0 745 740 643 714 728
 729 0 737 +14 732 175 734 1.0e-08 741 723 736 478 733 +0 0 741 723 476 51 733 1
76 0 732 742 724 0 +-7.8000000000000016e-04 -3.7946919473867316e-04 7.9026441254
718324e-04 -1.966371904210002e-16 6.9813164408785048e-04 0.999999756306074 2.0e-
05 1.3253446663894917e-16 0.999999756306074 -6.9813164408785048e-04 81 1 734 177
 6 732 0 0 743 725 735 83 3 735 1.0 1.0 1.0 15 736 178 0 658 732 0 17 737 0 736
 718 615 714 740 738 0 0 -16 738 179 0 ?740 729 0 739 0 0 470 31 739 180 0 738 0
 730 0 +-7.8000000000000008e-04 -3.8001373742106158e-04 1.0264602628445307e-05 1
.9663719042100022e-16 -6.9813164408771496e-04 -0.999999756306074 1.3253446663894
915e-16 0.999999756306074 -6.9813164408771496e-04 2.0e-05 17 740 0 745 643 731 6
07 737 738 0 606 +14 741 181 743 1.0e-08 746 732 745 478 742 +0 0 746 732 476 53
 742 182 0 741 747 733 0 +-7.8000000000000008e-04 -3.8001373742106158e-04 1.0264
602628445307e-05 2.0e-05 -1.3253446663894915e-16 -0.999999756306074 6.9813164408
771496e-04 1.9663719042100022e-16 -6.9813164408771496e-04 -0.999999756306074 81
 1 743 183 6 741 0 0 748 734 744 83 3 744 1.0 1.0 1.0 15 745 184 0 731 741 0 14
 746 185 748 1.0e-08 0 741 750 478 747 +0 0 0 741 476 53 747 186 0 746 0 742 0 +
-7.7999999999999998e-04 3.7998607737155484e-04 9.7340225789386282e-06 2.0e-05 -1
.3253446663894915e-16 -0.999999756306074 6.9813164408771496e-04 1.96637190421000
22e-16 -6.9813164408771496e-04 -0.999999756306074 81 1 748 187 6 746 0 0 0 743 7
49 83 3 749 1.0 1.0 1.0 15 750 188 0 647 746 0 1 0 
